<svg width="181" height="171" viewBox="0 0 181 171" fill="none" xmlns="http://www.w3.org/2000/svg">
<path d="M115.532 34.7529L138.371 24.3419C140.407 23.4161 142.838 23.599 144.853 24.8295C148.083 26.7801 149.249 30.764 147.456 33.7242L145.177 37.4882L143.658 36.5711L145.937 32.807C147.267 30.6114 146.401 27.6519 144.005 26.2051C142.508 25.3009 140.707 25.1637 139.198 25.8458L116.359 36.2567L115.532 34.7529Z" fill="#D13E0F"/>
<path d="M147.15 40.6285C145.979 42.5634 143.298 43.1006 141.185 41.8236C139.072 40.5467 138.302 37.9248 139.473 35.9898C140.644 34.0549 143.325 33.5178 145.438 34.7947C147.551 36.0716 148.321 38.6936 147.15 40.6285Z" fill="#FF9700"/>
<path d="M106.137 12.9495L108.451 9.12813C110.271 6.12278 114.408 5.29138 117.688 7.27191C119.751 8.51794 121.062 10.6143 121.184 12.8624L122.58 38.2784L120.836 38.2443L119.439 12.8283C119.342 11.1522 118.369 9.59969 116.849 8.68157C114.416 7.21257 111.343 7.83017 109.993 10.0593L107.679 13.8807L106.137 12.9495Z" fill="#D13E0F"/>
<path d="M102.793 12.4241C101.622 14.359 102.391 16.9809 104.505 18.2578C106.618 19.5347 109.299 18.9976 110.47 17.0627C111.641 15.1278 110.872 12.5059 108.758 11.229C106.645 9.9521 103.964 10.4892 102.793 12.4241Z" fill="#FF9700"/>
<path d="M87.1555 90.36C83.9856 88.4449 82.8417 84.5454 84.5986 81.6433L115.624 30.3934C117.381 27.4913 121.369 26.6924 124.539 28.6074C127.709 30.5225 128.853 34.4221 127.096 37.3242L96.0706 88.574C94.3138 91.4761 90.3254 92.2751 87.1555 90.36Z" fill="#FF0099"/>
<path d="M110.307 65.7304L98.6182 58.5552L88.4299 75.6648L100.118 82.84L110.307 65.7304Z" fill="black"/>
<path d="M130.403 43.5799C126.914 49.3453 119.005 50.9298 112.709 47.125C106.413 43.3201 104.145 35.5853 107.634 29.8199C111.122 24.0545 119.031 22.4699 125.327 26.2747C131.623 30.0796 133.892 37.8144 130.403 43.5799Z" fill="#FF0099"/>
<path d="M148.261 147.551L147.862 148.209L136.862 141.564C132.405 138.872 129.385 134.787 128.085 130.339C126.789 125.908 127.217 121.13 129.691 117.042L117.017 109.386C114.082 107.613 111.546 105.427 109.478 103.007C101.981 94.2039 100.277 81.8885 106.143 72.1988L119.684 49.8288L128.998 70.7849L149.754 117.521C154.208 127.55 153.665 138.672 148.287 147.581L148.261 147.551Z" fill="#D13E0F"/>
<path opacity="0.3" d="M128.998 70.5219L109.585 102.611C102.115 93.8401 100.41 81.5761 106.244 71.9315L119.715 49.6656L129.003 70.5384L128.998 70.5219Z" fill="white"/>
<path d="M142.542 140.275L140.306 143.97L136.794 141.847C132.35 139.162 129.337 135.089 128.038 130.655C126.744 126.237 127.169 121.474 129.633 117.401L137.177 121.96C143.832 125.983 146.232 134.175 142.542 140.275Z" fill="#FF9700"/>
<path opacity="0.3" d="M128.841 116.675L130.334 114.212C131.547 112.21 131.614 109.666 130.512 107.428L122.06 90.3345L123.636 89.6994L132.088 106.793C133.447 109.541 133.37 112.667 131.86 115.134L130.368 117.597L128.819 116.662L128.841 116.675Z" fill="white"/>
<path d="M10.5047 62.2496L10.1134 62.896L20.9186 69.4232C25.2962 72.0676 30.2308 72.8283 34.6977 71.9289C39.1479 71.0328 43.1138 68.48 45.5444 64.4648L57.9939 71.9851C60.8767 73.7265 63.9373 74.9335 66.9883 75.6263C78.0747 78.1238 89.577 73.9846 95.3393 64.4656L108.642 42.4896L86.1437 43.9582L35.9748 47.2489C25.2094 47.9546 15.7714 53.5011 10.4667 62.2401L10.5047 62.2496Z" fill="#D13E0F"/>
<path opacity="0.3" d="M85.9264 43.9861L66.6947 75.7762C77.8297 78.2916 89.3778 74.143 95.158 64.5883L108.502 42.5299L85.9097 43.9894L85.9264 43.9861Z" fill="white"/>
<path d="M19.9345 63.6918L17.7241 67.345L21.1956 69.4432C25.5886 72.0982 30.5393 72.864 35.0199 71.9642C39.4838 71.0678 43.4609 68.5091 45.897 64.4827L38.4397 59.9756C31.861 55.9995 23.5828 57.6619 19.9345 63.6918Z" fill="#FF9700"/>
<path opacity="0.3" d="M44.871 63.9837L46.3261 61.5822C47.793 59.1612 50.4456 57.6824 53.4377 57.6083L72.0517 57.1501L72.216 58.7957L53.602 59.2541C51.1677 59.3181 49.0139 60.5247 47.8144 62.4805L46.3593 64.882L44.8497 63.9709L44.871 63.9837Z" fill="white"/>
</svg>
