<svg width="185" height="203" viewBox="0 0 185 203" fill="none" xmlns="http://www.w3.org/2000/svg">
<path d="M142.904 67.5321L169.889 70.1552C172.294 70.3911 174.467 71.8772 175.686 74.1181C177.65 77.6892 176.585 82.0447 173.307 83.8424L169.14 86.1282L168.216 84.4492L172.384 82.1632C174.815 80.8298 175.606 77.5943 174.149 74.9455C173.238 73.29 171.629 72.1874 169.849 72.0089L142.864 69.3858L142.904 67.5321Z" fill="#6F124C"/>
<path d="M169.286 90.1314C167.144 91.3069 164.347 90.3587 163.062 88.0216C161.778 85.6845 162.477 82.8171 164.619 81.6416C166.76 80.4662 169.558 81.4144 170.842 83.7515C172.127 86.0886 171.427 88.956 169.286 90.1314Z" fill="#FF9700"/>
<path d="M145.917 42.0646L150.148 39.7439C153.475 37.9187 157.793 39.3797 159.787 43.0056C161.042 45.2868 161.133 47.9561 160.031 50.1237L147.586 74.6417L145.974 73.6661L158.419 49.1481C159.235 47.5285 159.165 45.5506 158.24 43.8697C156.761 41.1802 153.554 40.095 151.085 41.4487L146.854 43.7694L145.917 42.0646Z" fill="#6F124C"/>
<path d="M143.074 39.7642C140.933 40.9397 140.233 43.807 141.518 46.1441C142.803 48.4812 145.6 49.4294 147.741 48.254C149.883 47.0785 150.583 44.2112 149.298 41.8741C148.013 39.5371 145.216 38.5888 143.074 39.7642Z" fill="#FF9700"/>
<path d="M86.2891 104.168C84.3616 100.663 85.4019 96.3982 88.6145 94.6355L145.349 63.5061C148.562 61.7434 152.723 63.1542 154.65 66.6597C156.578 70.1652 155.538 74.4299 152.325 76.1926L95.5904 107.322C92.3777 109.085 88.2167 107.674 86.2891 104.168Z" fill="#FF0099"/>
<path d="M121.259 93.667L114.213 80.6348L95.4309 91.119L102.477 104.151L121.259 93.667Z" fill="black"/>
<path d="M152.031 83.8304C145.65 87.333 137.398 84.5358 133.571 77.5722C129.743 70.6086 131.807 62.1496 138.188 58.647C144.569 55.1444 152.82 57.9416 156.648 64.9052C160.476 71.8688 158.412 80.3278 152.031 83.8304Z" fill="#FF0099"/>
<path d="M112.476 190.698L111.748 191.098L105.059 178.933C102.348 174.005 101.735 168.553 102.925 163.69C104.111 158.846 107.097 154.611 111.621 152.128L103.914 138.113C102.129 134.867 100.94 131.451 100.316 128.07C98.0702 115.783 103.14 103.347 113.866 97.4617L138.63 83.8737L136 108.505L130.119 163.43C128.857 175.216 122.333 185.321 112.485 190.74L112.476 190.698Z" fill="#6F124C"/>
<path opacity="0.3" d="M136.143 108.26L100.632 127.758C98.3921 115.516 103.433 103.127 114.106 97.267L138.747 83.7377L136.138 108.278L136.143 108.26Z" fill="white"/>
<path d="M111.066 180.801L106.977 183.046L104.842 179.162C102.14 174.247 101.527 168.809 102.712 163.96C103.892 159.13 106.866 154.907 111.373 152.432L115.959 160.776C120.005 168.137 117.816 177.095 111.066 180.801Z" fill="#FF9700"/>
<path opacity="0.3" d="M111.025 151.325L113.753 149.83C115.97 148.614 117.41 146.272 117.59 143.584L118.936 123.029L120.753 123.288L119.407 143.843C119.19 147.147 117.427 150.028 114.681 151.517L111.953 153.012L111.011 151.301L111.025 151.325Z" fill="white"/>
<path d="M29.8337 36.4167L29.1182 36.8094L35.689 48.7577C38.351 53.5985 42.553 56.9795 47.2158 58.5553C51.8612 60.1253 56.9502 59.8842 61.395 57.4452L68.9657 71.2118C70.7187 74.3996 72.9272 77.1839 75.4048 79.4823C84.4187 87.8154 97.412 90.1686 107.949 84.3866L132.277 71.0379L110.447 60.2385L61.7624 36.1722C51.3157 31.0075 39.4909 31.0869 29.8034 36.3872L29.8337 36.4167Z" fill="#6F124C"/>
<path opacity="0.3" d="M110.229 60.1469L75.0494 79.4635C84.099 87.8395 97.1401 90.2088 107.714 84.4031L132.124 70.9997L110.212 60.141L110.229 60.1469Z" fill="white"/>
<path d="M37.8698 42.8667L33.8267 45.0863L35.9372 48.9261C38.6079 53.7851 42.8221 57.1796 47.498 58.7625C52.1564 60.3394 57.259 60.099 61.7151 57.6525L57.1815 49.4041C53.182 42.1275 44.543 39.203 37.8698 42.8667Z" fill="#FF9700"/>
<path opacity="0.3" d="M61.0264 56.6316L63.6861 55.1737C66.3674 53.7038 69.6475 53.7564 72.485 55.3059L90.1357 64.9482L89.399 66.5757L71.7482 56.9335C69.4377 55.6763 66.7712 55.6391 64.5916 56.8187L61.9319 58.2766L61.0134 56.6081L61.0264 56.6316Z" fill="white"/>
</svg>
