<svg width="515" height="563" viewBox="0 0 515 563" fill="none" xmlns="http://www.w3.org/2000/svg">
<g clip-path="url(#clip0_28_2)">
<path d="M96.1495 144.661C97.7263 167.953 113.008 172.262 113.46 190.523C113.863 206.721 101.35 206.084 96.1495 229.459C93.7341 240.342 95.1095 254.88 97.8773 283.973C100.209 308.422 101.148 306.711 101.333 317.711C101.786 344.96 95.8644 349.404 100.46 361.829C108.11 382.454 131.711 389.883 133.355 390.386C152.863 396.221 170.04 388.508 174.904 386.06C186.629 380.157 187.049 374.573 194.815 373.953C207.278 372.963 210.281 387.015 229.437 395.584C231.819 396.64 252.116 405.394 271.842 398.183C285.161 393.32 285.949 385.657 296.936 382.605C311.01 378.698 315.572 391.425 337.613 395.584C343.786 396.741 363.311 400.145 381.746 389.531C395.484 381.616 401.892 369.777 404.257 365.3C406.673 360.722 415.261 342.981 410.313 322.91C405.029 301.446 390.234 301.379 388.674 285.7C386.426 263.013 416.486 253.757 413.768 233.785C411.084 214.133 380.404 211.601 379.146 191.395C378.509 180.965 386.527 179.372 393.002 161.111C395.719 153.431 403.368 131.867 394.729 112.667C384.682 90.3147 355.78 78.2582 333.286 81.5281C314.834 84.1943 314.415 95.1776 296.064 97.1059C271.775 99.6548 265.25 81.1592 241.531 82.4C217.947 83.6409 217.242 102.304 193.926 104.903C163.934 108.223 151.253 78.8954 128.155 86.7263C110.726 92.6288 102.037 114.713 100.46 118.737C98.9676 122.527 95.2941 132.186 96.1328 144.695L96.1495 144.661Z" fill="url(#paint0_radial_28_2)"/>
<path d="M145.65 382.555L105.191 341.187L132.6 291.67L105.375 242.505L130.905 188.829L107.002 140.134L147.361 98.8667L197.851 122.778L249.75 98.1624L296.349 121.018L347.628 96.2675L389.882 133.929L361.567 188.762L391.475 238.011L365.056 286.422L393.354 340.349L352.962 380.727L295.527 355.105L249.717 381.515L197.818 353.378L145.616 382.572L145.65 382.555ZM109.334 340.617L146.254 378.363L197.834 349.521L249.7 377.642L295.359 351.315L352.257 376.686L389.261 339.695L361.282 286.371L387.634 238.078L357.742 188.863L385.722 134.684L347.074 100.258L296.332 124.74L249.717 101.885L197.851 126.501L148.082 102.941L111.045 140.804L134.629 188.813L109.149 242.388L136.441 291.67L109.334 340.617Z" fill="white"/>
<path d="M68.6636 131.875L68.1001 135.181L108.729 142.101L109.292 138.795L68.6636 131.875Z" fill="white"/>
<path d="M146.069 101.181L136.072 42.7763L164.102 15.4437L166.433 17.8416L139.678 43.9501L149.374 100.611L146.069 101.181Z" fill="white"/>
<path d="M170.736 22.156L148.688 44.8598L151.096 47.1957L173.143 24.492L170.736 22.156Z" fill="white"/>
<path d="M108.059 538.904L77.2785 512.93L85.5817 456.956L137.011 435.593L144.191 381.046L106.767 342.78L66.8449 354.233L65.9224 350.997L107.757 339.007L147.73 379.872L140.081 437.958L88.6178 459.338L80.8681 511.571L110.223 536.355L108.059 538.904Z" fill="white"/>
<path d="M387.248 136.059L345.464 98.8331L356.065 57.6331L359.319 58.4715L349.221 97.6929L388.355 132.554L440.087 126.635L456.391 91.4215L459.444 92.83L442.351 129.754L387.248 136.059Z" fill="white"/>
<path d="M459.343 523.846L425.745 511.504L413.701 457.342L359.52 433.933L350.831 378.111L390.787 338.169L423.547 345.631L422.809 348.901L391.844 341.858L354.404 379.285L362.556 431.586L416.603 454.944L428.63 508.989L460.501 520.693L459.343 523.846Z" fill="white"/>
<path d="M79.3078 504.713L38.3413 522.724L39.6919 525.794L80.6584 507.783L79.3078 504.713Z" fill="white"/>
<path d="M83.0399 514.663L43.5991 532.226L44.9642 535.289L84.405 517.727L83.0399 514.663Z" fill="white"/>
<path d="M423.908 504.915L388.062 530.099L389.991 532.843L425.837 507.659L423.908 504.915Z" fill="white"/>
<path d="M433.338 511.53L396.244 539.25L398.253 541.936L435.347 514.216L433.338 511.53Z" fill="white"/>
<path d="M449.387 86.8417L437.138 113.306L440.183 114.715L452.432 88.25L449.387 86.8417Z" fill="white"/>
<path d="M170.927 179.87L132.473 187.134L133.096 190.429L171.55 183.166L170.927 179.87Z" fill="white"/>
<path d="M196.176 124.373L191.218 157.186L194.535 157.686L199.493 124.874L196.176 124.373Z" fill="white"/>
<path d="M204.186 192.195L201.858 194.609L230.87 222.558L233.198 220.144L204.186 192.195Z" fill="white"/>
<path d="M118.85 241.15L115.934 242.808L137.604 280.895L140.52 279.237L118.85 241.15Z" fill="white"/>
<path d="M120.968 142.688L118.008 144.267L135.519 177.064L138.478 175.485L120.968 142.688Z" fill="white"/>
<path d="M152.238 111.008L150.767 114.022L183.706 130.09L185.177 127.075L152.238 111.008Z" fill="white"/>
<path d="M251.923 108.419L250.359 111.386L284.353 129.303L285.917 126.336L251.923 108.419Z" fill="white"/>
<path d="M274.361 262.148L271.906 264.435L289.792 283.621L292.246 281.335L274.361 262.148Z" fill="white"/>
<path d="M134.823 290.015L134.195 293.31L172.934 300.69L173.562 297.396L134.823 290.015Z" fill="white"/>
<path d="M120.163 341.281L117.822 343.684L143.991 369.168L146.332 366.766L120.163 341.281Z" fill="white"/>
<path d="M192.137 316.404L188.855 317.099L196.203 351.778L199.485 351.083L192.137 316.404Z" fill="white"/>
<path d="M184.462 321.054L181.219 321.912L187.311 344.914L190.554 344.056L184.462 321.054Z" fill="white"/>
<path d="M285.307 348.433L251.699 367.611L253.363 370.524L286.97 351.345L285.307 348.433Z" fill="white"/>
<path d="M299.138 320.781L293.818 352.942L297.128 353.489L302.448 321.328L299.138 320.781Z" fill="white"/>
<path d="M377.636 339.957L351.706 365.661L354.069 368.043L379.998 342.338L377.636 339.957Z" fill="white"/>
<path d="M362.701 284.82L325.124 295.563L326.046 298.787L363.623 288.044L362.701 284.82Z" fill="white"/>
<path d="M377.582 240.625L359.093 273.997L362.028 275.622L380.517 242.25L377.582 240.625Z" fill="white"/>
<path d="M297.974 122.563L294.688 123.235L302.294 160.412L305.581 159.74L297.974 122.563Z" fill="white"/>
<path d="M348.811 108.524L346.601 111.047L373.665 134.724L375.874 132.2L348.811 108.524Z" fill="white"/>
<path d="M325.93 180.748L325.308 184.043L359.36 190.475L359.983 187.18L325.93 180.748Z" fill="white"/>
<path d="M328.899 171.741L328.179 175.017L353.411 180.553L354.13 177.278L328.899 171.741Z" fill="white"/>
<path d="M209.668 276.431L204.503 281.933L206.949 284.228L212.115 278.726L209.668 276.431Z" fill="white"/>
<path d="M220.667 264.694L215.162 270.567L217.61 272.86L223.115 266.987L220.667 264.694Z" fill="white"/>
<path d="M231.319 253.321L226.157 258.827L228.605 261.12L233.767 255.614L231.319 253.321Z" fill="white"/>
<path d="M270.039 215.388L264.878 220.894L267.326 223.187L272.487 217.681L270.039 215.388Z" fill="white"/>
<path d="M281.051 203.648L275.546 209.521L277.994 211.814L283.499 205.941L281.051 203.648Z" fill="white"/>
<path d="M291.722 192.274L286.556 197.777L289.003 200.072L294.168 194.569L291.722 192.274Z" fill="white"/>
<path d="M181.48 23.8112C179.232 23.8112 177.236 23.3081 175.458 22.2852C173.68 21.2624 172.287 19.8371 171.281 18.0261C170.274 16.2151 169.771 14.1526 169.771 11.872C169.771 9.59154 170.274 7.57933 171.281 5.76834C172.287 3.95735 173.68 2.5488 175.458 1.52593C177.236 0.503053 179.249 0 181.496 0C183.492 0 185.304 0.402442 186.931 1.2241C188.558 2.04575 189.867 3.16923 190.856 4.62809C191.863 6.08694 192.45 7.74701 192.651 9.62508H188.709C188.491 8.43452 188.055 7.37811 187.384 6.47261C186.713 5.56712 185.874 4.87961 184.868 4.37656C183.862 3.89028 182.738 3.63875 181.53 3.63875C180.02 3.63875 178.695 3.99089 177.521 4.67839C176.347 5.38267 175.424 6.35524 174.787 7.5961C174.133 8.85373 173.814 10.279 173.814 11.8888C173.814 13.4986 174.133 14.9239 174.787 16.1815C175.441 17.4392 176.347 18.4117 177.521 19.0992C178.695 19.8035 180.037 20.1389 181.53 20.1389C182.771 20.1389 183.895 19.8874 184.902 19.4011C185.908 18.9148 186.747 18.2105 187.401 17.305C188.055 16.3995 188.491 15.3599 188.709 14.1526H192.651C192.433 16.0306 191.812 17.6907 190.806 19.1495C189.8 20.6084 188.491 21.7487 186.881 22.5535C185.271 23.3584 183.476 23.7776 181.496 23.7776L181.48 23.8112Z" fill="white"/>
<path d="M197.767 0.486298H201.676V10.0778H213.418V0.486298H217.326V23.3249H213.418V13.7334H201.676V23.3249H197.767V0.486298Z" fill="white"/>
<path d="M357.893 54.2962C355.646 54.2962 353.65 53.7931 351.871 52.7703C350.093 51.7474 348.701 50.3221 347.695 48.5111C346.688 46.7001 346.185 44.6376 346.185 42.3571C346.185 40.0766 346.688 38.0643 347.695 36.2534C348.701 34.4424 350.093 33.0338 351.871 32.0109C353.65 30.9881 355.662 30.485 357.91 30.485C359.906 30.485 361.718 30.8875 363.345 31.7091C364.972 32.5308 366.28 33.6542 367.27 35.1131C368.277 36.572 368.864 38.232 369.065 40.1101H365.123C364.905 38.9195 364.469 37.8631 363.798 36.9576C363.127 36.0521 362.288 35.3646 361.282 34.8616C360.275 34.3753 359.151 34.1238 357.944 34.1238C356.434 34.1238 355.109 34.4759 353.935 35.1634C352.761 35.8677 351.838 36.8402 351.201 38.0811C350.546 39.3387 350.228 40.7641 350.228 42.3738C350.228 43.9836 350.546 45.4089 351.201 46.6665C351.855 47.9242 352.761 48.8967 353.935 49.5843C355.109 50.2885 356.451 50.6239 357.944 50.6239C359.185 50.6239 360.309 50.3724 361.315 49.8861C362.322 49.3998 363.16 48.6955 363.815 47.79C364.469 46.8845 364.905 45.8449 365.123 44.6376H369.065C368.847 46.5156 368.226 48.1757 367.22 49.6346C366.213 51.0934 364.905 52.2337 363.295 53.0386C361.684 53.8434 359.89 54.2626 357.91 54.2626L357.893 54.2962Z" fill="white"/>
<path d="M374.181 30.9713H378.09V40.5629H389.831V30.9713H393.74V53.8099H389.831V44.2184H378.09V53.8099H374.181V30.9713Z" fill="white"/>
<path d="M460.836 85.3345C458.589 85.3345 456.592 84.8315 454.814 83.8086C453.036 82.7857 451.644 81.3604 450.638 79.5494C449.631 77.7384 449.128 75.6759 449.128 73.3954C449.128 71.1149 449.631 69.1027 450.638 67.2917C451.644 65.4807 453.036 64.0722 454.814 63.0493C456.592 62.0264 458.605 61.5234 460.853 61.5234C462.849 61.5234 464.661 61.9258 466.288 62.7475C467.915 63.5691 469.223 64.6926 470.213 66.1515C471.22 67.6103 471.807 69.2704 472.008 71.1485H468.066C467.848 69.9579 467.412 68.9015 466.741 67.996C466.07 67.0905 465.231 66.403 464.225 65.8999C463.218 65.4137 462.094 65.1621 460.887 65.1621C459.377 65.1621 458.052 65.5143 456.878 66.2018C455.703 66.906 454.781 67.8786 454.143 69.1195C453.489 70.3771 453.171 71.8024 453.171 73.4122C453.171 75.022 453.489 76.4473 454.143 77.7049C454.798 78.9625 455.703 79.9351 456.878 80.6226C458.052 81.3269 459.394 81.6623 460.887 81.6623C462.128 81.6623 463.252 81.4107 464.258 80.9244C465.265 80.4382 466.103 79.7339 466.758 78.8284C467.412 77.9229 467.848 76.8833 468.066 75.6759H472.008C471.79 77.554 471.169 79.2141 470.163 80.6729C469.156 82.1318 467.848 83.272 466.238 84.0769C464.627 84.8818 462.832 85.301 460.853 85.301L460.836 85.3345Z" fill="white"/>
<path d="M477.124 62.0097H481.032V71.6012H492.774V62.0097H496.683V84.8483H492.774V75.2567H481.032V84.8483H477.124V62.0097Z" fill="white"/>
<path d="M447.87 363.439C445.622 363.439 443.626 362.936 441.848 361.913C440.07 360.89 438.678 359.465 437.671 357.654C436.665 355.843 436.161 353.78 436.161 351.5C436.161 349.219 436.665 347.207 437.671 345.396C438.678 343.585 440.07 342.177 441.848 341.154C443.626 340.131 445.639 339.628 447.887 339.628C449.883 339.628 451.694 340.03 453.321 340.852C454.948 341.674 456.257 342.797 457.246 344.256C458.253 345.715 458.84 347.375 459.041 349.253H455.099C454.881 348.062 454.445 347.006 453.774 346.1C453.103 345.195 452.265 344.507 451.258 344.004C450.252 343.518 449.128 343.267 447.92 343.267C446.41 343.267 445.085 343.619 443.911 344.306C442.737 345.01 441.814 345.983 441.177 347.224C440.523 348.482 440.204 349.907 440.204 351.517C440.204 353.126 440.523 354.552 441.177 355.809C441.831 357.067 442.737 358.039 443.911 358.727C445.085 359.431 446.427 359.767 447.92 359.767C449.161 359.767 450.285 359.515 451.292 359.029C452.298 358.543 453.137 357.838 453.791 356.933C454.445 356.027 454.881 354.988 455.099 353.78H459.041C458.823 355.658 458.203 357.318 457.196 358.777C456.19 360.236 454.881 361.376 453.271 362.181C451.661 362.986 449.866 363.405 447.887 363.405L447.87 363.439Z" fill="white"/>
<path d="M464.141 340.114H468.049V349.706H479.791V340.114H483.699V362.953H479.791V353.361H468.049V362.953H464.141V340.114Z" fill="white"/>
<path d="M1.67749 125.461H5.60264V135.053H17.3445V125.461H21.2529V148.3H17.3445V138.708H5.60264V148.3H1.67749V125.461Z" fill="white"/>
<path d="M54.6837 148.786C52.436 148.786 50.4398 148.283 48.6618 147.26C46.8837 146.237 45.4915 144.812 44.485 143.001C43.4786 141.19 42.9753 139.128 42.9753 136.847C42.9753 134.567 43.4786 132.554 44.485 130.743C45.4915 128.932 46.8837 127.524 48.6618 126.501C50.4398 125.478 52.4527 124.975 54.7005 124.975C56.6966 124.975 58.5082 125.378 60.1353 126.199C61.7624 127.021 63.0708 128.144 64.0604 129.603C65.0669 131.062 65.654 132.722 65.8553 134.6H61.9134C61.6953 133.41 61.2592 132.353 60.5882 131.448C59.9172 130.542 59.0785 129.855 58.0721 129.352C57.0656 128.865 55.9418 128.614 54.734 128.614C53.2243 128.614 51.8992 128.966 50.725 129.653C49.5508 130.358 48.6282 131.33 47.9908 132.571C47.3366 133.829 47.0179 135.254 47.0179 136.864C47.0179 138.474 47.3366 139.899 47.9908 141.157C48.645 142.414 49.5508 143.387 50.725 144.074C51.8992 144.779 53.2411 145.114 54.734 145.114C55.9753 145.114 57.0992 144.862 58.1056 144.376C59.1121 143.89 59.9508 143.186 60.605 142.28C61.2592 141.375 61.6953 140.335 61.9134 139.128H65.8553C65.6372 141.006 65.0166 142.666 64.0101 144.125C63.0037 145.583 61.6953 146.724 60.085 147.529C58.4747 148.334 56.6798 148.753 54.7005 148.753L54.6837 148.786Z" fill="white"/>
<path d="M0 340.6H3.90838V350.192H15.6503V340.6H19.5587V363.439H15.6503V353.847H3.90838V363.439H0V340.6Z" fill="white"/>
<path d="M52.9896 363.925C50.7419 363.925 48.7457 363.422 46.9677 362.399C45.1896 361.376 43.7974 359.951 42.7909 358.14C41.7845 356.329 41.2812 354.267 41.2812 351.986C41.2812 349.706 41.7845 347.693 42.7909 345.882C43.7974 344.071 45.1896 342.663 46.9677 341.64C48.7457 340.617 50.7586 340.114 53.0064 340.114C55.0025 340.114 56.8141 340.516 58.4412 341.338C60.0683 342.16 61.3767 343.283 62.3664 344.742C63.3728 346.201 63.9599 347.861 64.1612 349.739H60.2193C60.0012 348.549 59.5651 347.492 58.8941 346.587C58.2231 345.681 57.3844 344.994 56.378 344.491C55.3715 344.004 54.2477 343.753 53.0399 343.753C51.5303 343.753 50.2051 344.105 49.0309 344.792C47.8567 345.497 46.9341 346.469 46.2967 347.71C45.6425 348.968 45.3238 350.393 45.3238 352.003C45.3238 353.613 45.6425 355.038 46.2967 356.296C46.9509 357.553 47.8567 358.526 49.0309 359.213C50.2051 359.918 51.547 360.253 53.0399 360.253C54.2812 360.253 55.4051 360.001 56.4115 359.515C57.418 359.029 58.2567 358.325 58.9109 357.419C59.5651 356.514 60.0012 355.474 60.2193 354.267H64.1612C63.9431 356.145 63.3225 357.805 62.316 359.264C61.3096 360.722 60.0012 361.863 58.3909 362.668C56.7806 363.472 54.9857 363.892 53.0064 363.892L52.9896 363.925Z" fill="white"/>
<path d="M23.9367 549.803C21.689 549.803 19.6593 549.283 17.8477 548.261C16.0361 547.238 14.6103 545.796 13.5703 543.985C12.5303 542.174 12.0271 540.145 12.0271 537.898C12.0271 535.651 12.5471 533.638 13.5703 531.811C14.6103 530 16.0361 528.574 17.8477 527.535C19.6593 526.495 21.689 525.992 23.9367 525.992C26.1845 525.992 28.2142 526.512 30.0258 527.535C31.8374 528.574 33.2632 530 34.3032 531.811C35.3432 533.622 35.8464 535.651 35.8464 537.898C35.8464 540.145 35.3264 542.174 34.3032 543.985C33.28 545.796 31.8374 547.221 30.0258 548.261C28.2142 549.3 26.1845 549.803 23.9367 549.803ZM23.9367 546.148C25.4464 546.148 26.7884 545.796 27.9961 545.075C29.2038 544.354 30.16 543.381 30.8477 542.123C31.5522 540.866 31.8877 539.474 31.8877 537.898C31.8877 536.321 31.5354 534.93 30.8477 533.672C30.1432 532.414 29.2038 531.442 27.9961 530.721C26.7884 530 25.4296 529.648 23.9367 529.648C22.4438 529.648 21.0851 530 19.8774 530.721C18.6697 531.442 17.7303 532.414 17.0426 533.672C16.3548 534.93 16.0193 536.321 16.0193 537.898C16.0193 539.474 16.3548 540.866 17.0426 542.123C17.7303 543.381 18.6697 544.354 19.8774 545.075C21.0851 545.796 22.4438 546.148 23.9367 546.148Z" fill="white"/>
<path d="M122.72 563C120.472 563 118.442 562.48 116.631 561.457C114.819 560.434 113.393 558.992 112.353 557.181C111.313 555.37 110.81 553.341 110.81 551.094C110.81 548.847 111.33 546.835 112.353 545.007C113.393 543.196 114.819 541.771 116.631 540.731C118.442 539.692 120.472 539.189 122.72 539.189C124.967 539.189 126.997 539.709 128.809 540.731C130.62 541.771 132.046 543.196 133.086 545.007C134.126 546.818 134.629 548.847 134.629 551.094C134.629 553.341 134.109 555.37 133.086 557.181C132.063 558.992 130.62 560.418 128.809 561.457C126.997 562.497 124.967 563 122.72 563ZM122.72 559.344C124.229 559.344 125.571 558.992 126.779 558.271C127.987 557.55 128.943 556.578 129.631 555.32C130.335 554.062 130.671 552.671 130.671 551.094C130.671 549.518 130.318 548.126 129.631 546.869C128.926 545.611 127.987 544.639 126.779 543.917C125.571 543.196 124.213 542.844 122.72 542.844C121.227 542.844 119.868 543.196 118.66 543.917C117.453 544.639 116.513 545.611 115.826 546.869C115.138 548.126 114.802 549.518 114.802 551.094C114.802 552.671 115.138 554.062 115.826 555.32C116.513 556.578 117.453 557.55 118.66 558.271C119.868 558.992 121.227 559.344 122.72 559.344Z" fill="white"/>
<path d="M140.031 539.675H143.939V549.267H155.681V539.675H159.589V562.514H155.681V552.922H143.939V562.514H140.031V539.675Z" fill="white"/>
<path d="M478.114 541.084C475.866 541.084 473.836 540.564 472.025 539.541C470.213 538.518 468.787 537.076 467.747 535.265C466.707 533.454 466.204 531.425 466.204 529.178C466.204 526.931 466.724 524.919 467.747 523.091C468.787 521.28 470.213 519.855 472.025 518.815C473.836 517.776 475.866 517.273 478.114 517.273C480.361 517.273 482.391 517.792 484.203 518.815C486.014 519.855 487.44 521.28 488.48 523.091C489.52 524.902 490.023 526.931 490.023 529.178C490.023 531.425 489.503 533.454 488.48 535.265C487.457 537.076 486.014 538.501 484.203 539.541C482.391 540.581 480.361 541.084 478.114 541.084ZM478.114 537.428C479.623 537.428 480.965 537.076 482.173 536.355C483.381 535.634 484.337 534.661 485.025 533.404C485.729 532.146 486.065 530.754 486.065 529.178C486.065 527.602 485.712 526.21 485.025 524.952C484.32 523.695 483.381 522.722 482.173 522.001C480.965 521.28 479.607 520.928 478.114 520.928C476.621 520.928 475.262 521.28 474.054 522.001C472.847 522.722 471.907 523.695 471.22 524.952C470.532 526.21 470.196 527.602 470.196 529.178C470.196 530.754 470.532 532.146 471.22 533.404C471.907 534.661 472.847 535.634 474.054 536.355C475.262 537.076 476.621 537.428 478.114 537.428Z" fill="white"/>
<path d="M495.408 517.759H499.316V527.35H511.058V517.759H514.967V540.597H511.058V531.006H499.316V540.597H495.408V517.759Z" fill="white"/>
<path d="M379.565 559.194C377.318 559.194 375.288 558.674 373.476 557.651C371.665 556.628 370.239 555.186 369.199 553.375C368.159 551.564 367.656 549.535 367.656 547.288C367.656 545.041 368.176 543.029 369.199 541.201C370.239 539.39 371.665 537.965 373.476 536.925C375.288 535.885 377.318 535.382 379.565 535.382C381.813 535.382 383.843 535.902 385.654 536.925C387.466 537.965 388.892 539.39 389.932 541.201C390.972 543.012 391.475 545.041 391.475 547.288C391.475 549.535 390.955 551.564 389.932 553.375C388.909 555.186 387.466 556.611 385.654 557.651C383.843 558.691 381.813 559.194 379.565 559.194ZM379.565 555.538C381.075 555.538 382.417 555.186 383.625 554.465C384.833 553.744 385.789 552.771 386.476 551.514C387.181 550.256 387.516 548.864 387.516 547.288C387.516 545.712 387.164 544.32 386.476 543.062C385.772 541.805 384.833 540.832 383.625 540.111C382.417 539.39 381.058 539.038 379.565 539.038C378.073 539.038 376.714 539.39 375.506 540.111C374.298 540.832 373.359 541.805 372.671 543.062C371.984 544.32 371.648 545.712 371.648 547.288C371.648 548.864 371.984 550.256 372.671 551.514C373.359 552.771 374.298 553.744 375.506 554.465C376.714 555.186 378.073 555.538 379.565 555.538Z" fill="white"/>
<path d="M176.85 170.585H180.993L193.423 187.773V170.585H197.079V193.424H192.97L180.607 176.203V193.424H176.85V170.585Z" fill="white"/>
<path d="M296.533 170.585H300.677L313.106 187.773V170.585H316.763V193.424H312.653L300.291 176.203V193.424H296.533V170.585Z" fill="white"/>
<path d="M229.487 227.917H236.012L242.739 246.244L249.432 227.917H255.856V250.755H252.032V231.086L244.919 250.755H240.407L233.295 231.086V250.755H229.47V227.917H229.487Z" fill="white"/>
<path d="M270.802 257.613C268.839 257.613 267.162 257.412 265.736 257.01C264.327 256.607 263.237 256.02 262.482 255.266C261.727 254.511 261.358 253.589 261.358 252.533C261.358 251.677 261.61 250.94 262.113 250.302C262.616 249.665 263.338 249.162 264.26 248.793C262.851 248.424 261.744 247.871 260.956 247.15C260.167 246.429 259.765 245.473 259.765 244.333C259.765 243.696 260.016 243.092 260.536 242.522C261.039 241.952 261.71 241.65 262.549 241.65H262.717C262.717 241.65 262.818 241.65 262.868 241.65C262.918 241.65 262.969 241.65 263.019 241.65C262.633 241.063 262.432 240.359 262.432 239.554C262.432 238.061 263.036 236.837 264.243 235.915C265.451 234.993 267.145 234.423 269.343 234.238V230.231H272.765V234.205C274.274 234.305 275.566 234.59 276.639 235.06C277.713 235.529 278.552 236.133 279.139 236.888C279.709 237.642 280.011 238.548 280.011 239.571C280.011 240.661 279.659 241.6 278.937 242.388C278.216 243.176 277.193 243.796 275.868 244.215C274.543 244.635 272.983 244.853 271.205 244.853C270.349 244.853 269.611 244.802 268.957 244.702C268.303 244.601 267.766 244.484 267.347 244.35C266.927 244.215 266.458 244.065 265.954 243.863C265.652 243.729 265.334 243.612 265.032 243.511C264.713 243.411 264.411 243.36 264.143 243.36C263.79 243.36 263.522 243.444 263.304 243.645C263.103 243.83 262.985 244.048 262.985 244.316C262.985 244.886 263.237 245.339 263.74 245.674C264.243 246.01 264.931 246.261 265.837 246.429C266.726 246.597 267.85 246.714 269.192 246.781C269.494 246.798 269.812 246.815 270.114 246.831C270.433 246.831 270.752 246.831 271.07 246.831C273.989 246.882 276.27 247.334 277.914 248.206C279.558 249.078 280.38 250.42 280.38 252.214C280.38 253.321 279.994 254.293 279.223 255.098C278.451 255.903 277.344 256.54 275.901 256.976C274.459 257.412 272.765 257.63 270.819 257.63L270.802 257.613ZM270.836 254.78C272.144 254.78 273.251 254.679 274.14 254.495C275.046 254.293 275.717 254.008 276.187 253.639C276.639 253.27 276.874 252.818 276.874 252.264C276.874 251.443 276.354 250.805 275.331 250.369C274.291 249.933 272.798 249.715 270.836 249.715C269.527 249.715 268.437 249.816 267.548 250.001C266.659 250.202 265.988 250.487 265.518 250.873C265.048 251.258 264.83 251.711 264.83 252.264C264.83 252.818 265.065 253.27 265.518 253.639C265.971 254.008 266.642 254.293 267.548 254.495C268.437 254.696 269.544 254.78 270.836 254.78ZM271.188 242.153C272.848 242.153 274.14 241.918 275.063 241.432C276.002 240.946 276.472 240.292 276.472 239.436C276.472 238.581 276.002 237.927 275.063 237.424C274.123 236.938 272.832 236.686 271.188 236.686C269.544 236.686 268.236 236.938 267.296 237.424C266.357 237.911 265.887 238.581 265.887 239.436C265.887 240.292 266.357 240.946 267.296 241.432C268.236 241.918 269.527 242.153 271.188 242.153Z" fill="white"/>
<path d="M180.456 288.367H184.6L197.029 305.554V288.367H200.686V311.205H196.576L184.214 293.984V311.205H180.456V288.367Z" fill="white"/>
<path d="M296.533 288.367H300.677L313.106 305.554V288.367H316.763V311.205H312.653L300.291 293.984V311.205H296.533V288.367Z" fill="white"/>
<path d="M33.1122 371.605C32.0051 371.605 31.0154 371.404 30.1599 370.985C29.2877 370.582 28.6167 370.012 28.1303 369.258C27.6438 368.52 27.3754 367.681 27.3586 366.742H29.6567C29.6903 367.296 29.8412 367.782 30.1432 368.218C30.4451 368.654 30.8477 368.989 31.3509 369.224C31.8709 369.459 32.4412 369.593 33.0786 369.593C33.716 369.593 34.2864 369.476 34.7896 369.224C35.2928 368.973 35.6954 368.62 35.9806 368.184C36.2657 367.732 36.4167 367.229 36.4167 366.675C36.4167 365.837 36.1483 365.183 35.6115 364.663C35.0748 364.143 34.3702 363.892 33.5148 363.892C33.1625 363.892 32.827 363.942 32.4915 364.043C32.1561 364.143 31.8709 364.277 31.6193 364.445L31.3509 364.646L30.1935 363.187L35.2593 358.878H27.8954V356.765H38.4128V358.811L34.2696 362.332C34.2696 362.332 34.3367 362.315 34.3702 362.299C34.4038 362.282 34.4373 362.299 34.4877 362.299C34.5212 362.299 34.538 362.282 34.5883 362.282H34.6889C35.4606 362.282 36.1651 362.483 36.8025 362.869C37.4399 363.255 37.9264 363.774 38.2954 364.428C38.6644 365.082 38.8489 365.787 38.8489 366.558C38.8489 367.53 38.6141 368.386 38.1276 369.157C37.658 369.928 36.987 370.515 36.1148 370.951C35.2425 371.387 34.2696 371.588 33.1625 371.588L33.1122 371.605Z" fill="white"/>
<path d="M492.053 371.605C490.946 371.605 489.956 371.404 489.101 370.985C488.228 370.582 487.557 370.012 487.071 369.258C486.584 368.52 486.316 367.681 486.299 366.742H488.597C488.631 367.296 488.782 367.782 489.084 368.218C489.386 368.654 489.788 368.989 490.292 369.224C490.812 369.459 491.382 369.593 492.019 369.593C492.657 369.593 493.227 369.476 493.73 369.224C494.233 368.973 494.636 368.62 494.921 368.184C495.206 367.732 495.357 367.229 495.357 366.675C495.357 365.837 495.089 365.183 494.552 364.663C494.015 364.143 493.311 363.892 492.455 363.892C492.103 363.892 491.768 363.942 491.432 364.043C491.097 364.143 490.812 364.277 490.56 364.445L490.292 364.646L489.134 363.187L494.2 358.878H486.836V356.765H497.353V358.811L493.21 362.332C493.21 362.332 493.277 362.315 493.311 362.299C493.344 362.282 493.378 362.299 493.428 362.299C493.462 362.299 493.479 362.282 493.529 362.282H493.63C494.401 362.282 495.106 362.483 495.743 362.869C496.381 363.255 496.867 363.774 497.236 364.428C497.605 365.082 497.79 365.787 497.79 366.558C497.79 367.53 497.555 368.386 497.068 369.157C496.599 369.928 495.928 370.515 495.055 370.951C494.183 371.387 493.21 371.588 492.103 371.588L492.053 371.605Z" fill="white"/>
<path d="M403.267 61.842C402.16 61.842 401.171 61.6407 400.315 61.2215C399.443 60.8191 398.772 60.2489 398.286 59.4944C397.799 58.7566 397.531 57.9181 397.514 56.9791H399.812C399.846 57.5325 399.996 58.0188 400.298 58.4547C400.6 58.8907 401.003 59.2261 401.506 59.4608C402.026 59.6956 402.596 59.8297 403.234 59.8297C403.871 59.8297 404.442 59.7124 404.945 59.4608C405.448 59.2093 405.851 58.8572 406.136 58.4212C406.421 57.9684 406.572 57.4654 406.572 56.912C406.572 56.0736 406.304 55.4196 405.767 54.8998C405.23 54.38 404.526 54.1285 403.67 54.1285C403.318 54.1285 402.982 54.1788 402.647 54.2794C402.311 54.38 402.026 54.5141 401.775 54.6818L401.506 54.8831L400.349 53.4242L405.415 49.1147H398.051V47.0019H408.568V49.0476L404.425 52.569C404.425 52.569 404.492 52.5522 404.526 52.5355C404.559 52.5187 404.593 52.5355 404.643 52.5355C404.676 52.5355 404.693 52.5187 404.744 52.5187H404.844C405.616 52.5187 406.32 52.7199 406.958 53.1056C407.595 53.4913 408.082 54.0111 408.451 54.6651C408.82 55.319 409.004 56.0233 409.004 56.7947C409.004 57.7672 408.769 58.6224 408.283 59.3938C407.813 60.1651 407.142 60.752 406.27 61.188C405.398 61.624 404.425 61.8252 403.318 61.8252L403.267 61.842Z" fill="white"/>
<path d="M33.4476 153.364C32.3405 153.364 31.3509 153.163 30.4954 152.744C29.6231 152.341 28.9522 151.771 28.4657 151.016C27.9793 150.279 27.7109 149.44 27.6941 148.501H29.9921C30.0257 149.055 30.1767 149.541 30.4786 149.977C30.7805 150.413 31.1831 150.748 31.6863 150.983C32.2063 151.218 32.7767 151.352 33.4141 151.352C34.0515 151.352 34.6218 151.234 35.125 150.983C35.6283 150.731 36.0308 150.379 36.316 149.943C36.6012 149.491 36.7521 148.987 36.7521 148.434C36.7521 147.596 36.4837 146.942 35.947 146.422C35.4102 145.902 34.7057 145.651 33.8502 145.651C33.4979 145.651 33.1625 145.701 32.827 145.801C32.4915 145.902 32.2063 146.036 31.9547 146.204L31.6863 146.405L30.5289 144.946L35.5947 140.637H28.2309V138.524H38.7483V140.57L34.605 144.091C34.605 144.091 34.6721 144.074 34.7057 144.058C34.7392 144.041 34.7728 144.058 34.8231 144.058C34.8567 144.058 34.8734 144.041 34.9237 144.041H35.0244C35.796 144.041 36.5005 144.242 37.1379 144.628C37.7754 145.013 38.2618 145.533 38.6308 146.187C38.9999 146.841 39.1844 147.545 39.1844 148.317C39.1844 149.289 38.9495 150.145 38.4631 150.916C37.9934 151.687 37.3225 152.274 36.4502 152.71C35.5779 153.146 34.605 153.347 33.4979 153.347L33.4476 153.364Z" fill="white"/>
<path d="M220.178 25.6054L225.411 22.2853C225.579 22.1679 225.73 22.0673 225.881 21.9499C226.032 21.8325 226.149 21.7319 226.25 21.6313C226.116 21.7319 225.948 21.799 225.763 21.8325C225.579 21.8828 225.361 21.8996 225.126 21.8996C224.136 21.8996 223.247 21.6816 222.442 21.2624C221.654 20.8264 221.033 20.273 220.597 19.5688C220.161 18.8645 219.926 18.1267 219.926 17.3553C219.926 16.5169 220.161 15.7456 220.647 15.0413C221.117 14.337 221.805 13.7669 222.677 13.3477C223.549 12.9285 224.589 12.7105 225.763 12.7105C226.938 12.7105 227.894 12.9117 228.766 13.3141C229.655 13.7166 230.343 14.2699 230.846 14.991C231.349 15.6953 231.601 16.5001 231.601 17.4056C231.601 18.0428 231.467 18.6633 231.215 19.2669C230.947 19.8706 230.594 20.4407 230.125 20.9605C229.655 21.4804 229.135 21.9667 228.531 22.3859C228.464 22.4362 228.397 22.4865 228.33 22.5368C228.263 22.5871 228.196 22.6374 228.129 22.6709L223.918 25.3371H231.701V27.5338H220.178V25.5886V25.6054ZM225.78 20.0886C226.451 20.0886 227.038 19.9712 227.575 19.7532C228.112 19.5352 228.514 19.2166 228.816 18.8142C229.118 18.4117 229.269 17.959 229.269 17.4392C229.269 16.9194 229.118 16.4498 228.816 16.0474C228.514 15.645 228.112 15.3264 227.575 15.1084C227.055 14.8736 226.451 14.773 225.763 14.773C225.076 14.773 224.505 14.8904 223.985 15.1084C223.465 15.3431 223.046 15.645 222.744 16.0474C222.442 16.4498 222.291 16.9194 222.291 17.4392C222.291 17.959 222.442 18.4117 222.744 18.8142C223.046 19.2166 223.449 19.5352 223.985 19.7532C224.505 19.988 225.109 20.0886 225.763 20.0886H225.78Z" fill="white"/>
<path d="M498.779 90.1471L504.013 86.8269C504.181 86.7095 504.332 86.6089 504.483 86.4915C504.634 86.3742 504.751 86.2736 504.852 86.1729C504.717 86.2736 504.55 86.3406 504.365 86.3742C504.181 86.4077 503.963 86.4412 503.728 86.4412C502.738 86.4412 501.849 86.2232 501.044 85.804C500.256 85.3681 499.635 84.8147 499.199 84.1104C498.763 83.4061 498.528 82.6683 498.528 81.897C498.528 81.0586 498.763 80.2872 499.249 79.5829C499.719 78.8787 500.407 78.3085 501.279 77.8893C502.151 77.4701 503.191 77.2521 504.365 77.2521C505.539 77.2521 506.496 77.4534 507.368 77.8558C508.257 78.2582 508.945 78.8116 509.448 79.5326C509.951 80.2369 510.203 81.0418 510.203 81.9473C510.203 82.5845 510.068 83.2049 509.817 83.8086C509.548 84.4123 509.196 84.9824 508.726 85.5022C508.257 86.0388 507.737 86.5083 507.133 86.9275C507.066 86.9778 506.999 87.0281 506.932 87.0784C506.865 87.1287 506.797 87.1623 506.73 87.2126L502.52 89.8955H510.303V92.0922H498.779V90.1471ZM504.382 84.6302C505.053 84.6302 505.64 84.5129 506.177 84.2781C506.714 84.0601 507.116 83.7415 507.418 83.3391C507.72 82.9366 507.871 82.4839 507.871 81.9641C507.871 81.4442 507.72 80.9747 507.418 80.5723C507.116 80.1698 506.714 79.8512 506.177 79.6333C505.657 79.4153 505.053 79.2979 504.365 79.2979C503.677 79.2979 503.107 79.4153 502.587 79.6333C502.067 79.868 501.648 80.1698 501.346 80.5723C501.044 80.9747 500.893 81.4442 500.893 81.9641C500.893 82.4839 501.044 82.9366 501.346 83.3391C501.648 83.7415 502.05 84.0601 502.587 84.2781C503.107 84.5129 503.711 84.6302 504.365 84.6302H504.382Z" fill="white"/>
</g>
<defs>
<radialGradient id="paint0_radial_28_2" cx="0" cy="0" r="1" gradientUnits="userSpaceOnUse" gradientTransform="translate(254.43 240.979) scale(159.791 159.736)">
<stop stop-color="#5CF935"/>
<stop offset="0.703125" stop-color="#0E3313"/>
<stop offset="0.875" stop-color="#151515"/>
</radialGradient>
<clipPath id="clip0_28_2">
<rect width="515" height="563" fill="white"/>
</clipPath>
</defs>
</svg>
