<svg width="1440" height="630" viewBox="0 0 1440 630" fill="none" xmlns="http://www.w3.org/2000/svg">
<g clip-path="url(#clip0_118_284)">
<path d="M122.45 228C122.45 228 104.81 289.77 148.65 315.09" stroke="#7FBEBF" stroke-width="0.9" stroke-miterlimit="10"/>
<path d="M183.84 221.49C183.84 221.49 108.18 380.45 145.69 450.37" stroke="#7FBEBF" stroke-width="1.81" stroke-miterlimit="10"/>
<path d="M239.22 260.39C239.22 260.39 214.64 311.87 159.36 283.68" stroke="#7FBEBF" stroke-width="0.9" stroke-miterlimit="10"/>
<path d="M211.63 231.32C211.63 231.32 195.93 261.94 168.15 256.78" stroke="#7FBEBF" stroke-width="0.9" stroke-miterlimit="10"/>
<path d="M60.6901 246.33C60.6901 246.33 35.3801 362.12 135.23 387.3" stroke="#7FBEBF" stroke-width="1.81" stroke-miterlimit="10"/>
<path d="M92.55 241.91C92.55 241.91 85.58 289.57 57.75 292.37C57.75 292.37 5.52004 291.45 27.09 226.7" stroke="#7FBEBF" stroke-width="0.9" stroke-miterlimit="10"/>
<path d="M115.23 302.86C115.23 302.86 103.58 345.86 74.1301 344.65" stroke="#7FBEBF" stroke-width="0.9" stroke-miterlimit="10"/>
<path d="M237.84 318.41C237.84 318.41 206.5 371.68 142.46 343.75" stroke="#7FBEBF" stroke-width="0.9" stroke-miterlimit="10"/>
<path d="M261.27 324.39C261.27 324.39 240.74 352.28 219.78 337.37" stroke="#7FBEBF" stroke-width="0.9" stroke-miterlimit="10"/>
<path d="M22.38 225.04L16 208.15L20.93 207.91L24.39 224.79L23.72 207.68L27.86 208.2L26.12 224.86L29.43 206.68L34.28 208.17L28.71 225.36L34.76 210.05L38.97 211.76L31.26 226.04L39.95 213.19L42.47 215.42L33.24 227.35C33.24 227.35 30.15 229.44 22.38 225.03V225.04Z" fill="#FFC700"/>
<path d="M22.38 225.04C22.38 225.04 21.04 231.49 26.77 232.64C32.5 233.78 33.24 227.37 33.24 227.37L22.38 225.05V225.04Z" fill="#7FBEBF"/>
<path d="M87.63 236.83L81.25 219.95L86.18 219.71L89.64 236.59L88.97 219.48L93.11 220L91.37 236.66L94.68 218.48L99.53 219.97L93.96 237.16L100.01 221.85L104.22 223.56L96.51 237.84L105.2 224.99L107.72 227.22L98.49 239.15C98.49 239.15 95.4 241.24 87.63 236.83Z" fill="#FFC700"/>
<path d="M87.63 236.83C87.63 236.83 86.29 243.28 92.02 244.43C97.75 245.58 98.49 239.16 98.49 239.16L87.63 236.84V236.83Z" fill="#7FBEBF"/>
<path d="M177.6 217.87L175.38 193.15L182 194.65L180.36 218.29L185.78 195.37L191.07 197.59L182.63 219.02L193.72 196.15L199.6 199.92L185.88 220.64L199.53 202.58L204.48 206.4L188.99 222.48L205.25 208.66L207.76 212.54L191.14 224.95C191.14 224.95 186.28 226.58 177.61 217.87H177.6Z" fill="#FFC700"/>
<path d="M177.6 217.87C177.6 217.87 173.45 225.93 180.61 229.55C187.78 233.18 191.13 224.95 191.13 224.95L177.6 217.87Z" fill="#7FBEBF"/>
<path d="M66.2199 242.25L81.1499 228.54L76.3299 225.81L64.3299 240.99L73.6499 224.17L69.2299 222.6L62.5499 240.18L68.4199 220.27L62.7999 219.32L59.6999 239.37L61.3699 220.96L56.2799 220.55L56.7999 238.77L54.5799 221.49L50.9299 222.46L54.1499 239.08C54.1499 239.08 56.1899 242.74 66.2099 242.24L66.2199 242.25Z" fill="#FFC700"/>
<path d="M66.2199 242.25C66.2199 242.25 64.2999 249.4 57.9799 247.65C51.6599 245.9 54.1599 239.09 54.1599 239.09L66.2199 242.25Z" fill="#7FBEBF"/>
<path d="M128.07 227.61L143 213.9L138.18 211.17L126.18 226.35L135.5 209.53L131.08 207.96L124.4 225.54L130.27 205.63L124.65 204.68L121.55 224.73L123.23 206.32L118.14 205.91L118.66 224.13L116.43 206.85L112.78 207.82L116 224.44C116 224.44 118.04 228.1 128.06 227.6L128.07 227.61Z" fill="#FFC700"/>
<path d="M128.07 227.61C128.07 227.61 126.15 234.76 119.83 233.01C113.51 231.26 116.01 224.45 116.01 224.45L128.07 227.61Z" fill="#7FBEBF"/>
<path d="M214.02 238.52L229.88 229.42L226.18 226.06L212.61 237.03L224.15 224.09L220.58 221.83L211.21 235.97L220.33 219.62L215.57 217.66L208.86 234.69L213.99 218.83L209.6 217.46L206.44 233.59L207.92 217.95L204.52 218.07L204.05 233.34C204.05 233.34 205.12 236.96 214.04 238.51L214.02 238.52Z" fill="#FFC700"/>
<path d="M214.02 238.52C214.02 238.52 210.91 244.43 205.7 241.63C200.49 238.84 204.04 233.34 204.04 233.34L214.03 238.51L214.02 238.52Z" fill="#7FBEBF"/>
<path d="M269.83 322.56L285.69 313.46L281.99 310.1L268.42 321.07L279.96 308.13L276.39 305.87L267.02 320.01L276.14 303.66L271.38 301.7L264.67 318.73L269.8 302.87L265.41 301.5L262.25 317.63L263.73 301.99L260.33 302.11L259.86 317.38C259.86 317.38 260.93 321 269.85 322.55L269.83 322.56Z" fill="#FFC700"/>
<path d="M269.83 322.56C269.83 322.56 266.72 328.47 261.51 325.67C256.3 322.88 259.85 317.38 259.85 317.38L269.84 322.55L269.83 322.56Z" fill="#7FBEBF"/>
<path d="M242.34 319.85L258.2 310.75L254.5 307.39L240.93 318.36L252.47 305.42L248.9 303.16L239.53 317.3L248.65 300.95L243.89 298.99L237.18 316.02L242.31 300.16L237.92 298.79L234.76 314.92L236.24 299.28L232.84 299.4L232.37 314.67C232.37 314.67 233.44 318.29 242.36 319.84L242.34 319.85Z" fill="#FFC700"/>
<path d="M242.34 319.85C242.34 319.85 239.23 325.76 234.02 322.96C228.81 320.17 232.36 314.67 232.36 314.67L242.35 319.84L242.34 319.85Z" fill="#7FBEBF"/>
<path d="M232.24 261.53L228.61 243.61L233.58 244.17L234.29 261.61L236.4 244.4L240.45 245.6L236.01 261.97L242.28 244.33L246.89 246.61L238.52 262.89L247.05 248.57L250.98 250.97L240.95 263.99L251.73 252.56L253.88 255.2L242.72 265.63C242.72 265.63 239.29 267.22 232.24 261.54V261.53Z" fill="#FFC700"/>
<path d="M232.24 261.53C232.24 261.53 229.85 267.76 235.39 269.84C240.93 271.91 242.72 265.62 242.72 265.62L232.24 261.53Z" fill="#7FBEBF"/>
<path d="M104.98 315.6L101.35 297.68L106.32 298.24L107.03 315.68L109.14 298.47L113.19 299.67L108.75 316.04L115.02 298.4L119.63 300.68L111.26 316.96L119.79 302.64L123.72 305.04L113.69 318.06L124.47 306.63L126.62 309.27L115.46 319.7C115.46 319.7 112.03 321.29 104.98 315.61V315.6Z" fill="#FFC700"/>
<path d="M104.98 315.6C104.98 315.6 102.59 321.83 108.13 323.91C113.67 325.98 115.46 319.69 115.46 319.69L104.98 315.6Z" fill="#7FBEBF"/>
<path d="M399.98 365.29C399.98 365.29 369.79 331.58 405.7 291.5C405.7 291.5 420.04 337.19 399.98 365.29Z" fill="#7FBEBF"/>
<path d="M481.88 366.95C481.88 366.95 493.9 327.23 546.91 303.05C546.91 303.05 542.26 365.08 481.88 366.95Z" fill="#7FBEBF"/>
<path d="M243.28 249.76C243.28 249.76 317.49 287.13 321.04 325.65C321.04 325.65 250.21 317.64 243.28 249.76Z" fill="#7FBEBF"/>
<path d="M265.6 115.85C265.6 115.85 238.42 163.03 306.47 228.55C306.47 228.55 287.36 126.31 265.6 115.85Z" fill="#7FBEBF"/>
<path d="M389.93 160.43C389.93 160.43 384.24 86.26 412.96 47.86C412.96 47.86 442 121.06 389.93 160.43Z" fill="#7FBEBF"/>
<path d="M345.08 93.36C345.08 93.36 405.35 296.64 306.47 495.95" stroke="#008F8C" stroke-width="2" stroke-miterlimit="10"/>
<path d="M411.88 63.36C411.88 63.36 422.21 132.83 360.92 201.34" stroke="#008F8C" stroke-miterlimit="10"/>
<path d="M266.92 131.36C266.92 131.36 290.4 244.75 360.07 283.42" stroke="#008F8C" stroke-miterlimit="10"/>
<path d="M404.21 304.09C404.21 304.09 391.79 361.59 407.7 401.01" stroke="#008F8C" stroke-width="0.88" stroke-miterlimit="10"/>
<path d="M436.71 372.78C436.71 372.78 500.02 382.57 540.18 317.39" stroke="#008F8C" stroke-miterlimit="10"/>
<path d="M250.23 262.54C250.23 262.54 292.47 339.95 356.19 327.65" stroke="#008F8C" stroke-miterlimit="10"/>
<path d="M331.78 438.97C335.54 436.44 443.66 413.92 466.83 305.62" stroke="#008F8C" stroke-width="2" stroke-miterlimit="10"/>
<path d="M265.1 45.83C263.91 44.07 264.25 41.92 265.96 40.77C267.67 39.62 269.66 40.13 270.93 41.91C272.12 43.67 271.83 45.79 270.06 46.97C268.29 48.15 266.23 47.62 265.1 45.83Z" fill="#FFC700"/>
<path d="M268.2 44.29C268.2 44.29 286.83 57.4 310.27 80.91" stroke="#FFC700" stroke-width="0.5" stroke-miterlimit="10"/>
<path d="M344 4.4C344.62 2.37 346.5 1.28 348.47 1.88C350.45 2.49 351.3 4.35 350.71 6.46C350.09 8.49 348.27 9.6 346.23 8.98C344.25 8.37 343.31 6.42 343.99 4.41L344 4.4Z" fill="#FFC700"/>
<path d="M347.15 5.84C347.15 5.84 348.71 28.57 345.23 61.58" stroke="#FFC700" stroke-width="0.5" stroke-miterlimit="10"/>
<path d="M296.72 21.77C296.05 19.76 296.94 17.78 298.9 17.12C300.86 16.46 302.63 17.49 303.38 19.54C304.05 21.56 303.21 23.52 301.2 24.19C299.24 24.85 297.33 23.8 296.72 21.77Z" fill="#FFC700"/>
<path d="M300.12 21.11C300.12 21.11 314.59 38.7 330.94 67.6" stroke="#FFC700" stroke-width="0.5" stroke-miterlimit="10"/>
<path d="M344.48 96.08C344.48 96.08 281 73.86 278.17 26.67C278.17 26.67 307.06 30.7 336.23 74.9C336.23 74.9 305.57 36.61 325.14 0C325.14 0 364.18 30.48 344.48 96.08Z" fill="#E30F26"/>
<path d="M346.04 98.13C346.04 98.13 284.89 126.16 259.18 57.63C259.18 57.63 309.05 56.09 341.99 87.77C341.99 87.77 329.04 29.57 376.46 0.600006C376.46 0.600006 395.46 63.46 346.05 98.14L346.04 98.13Z" fill="#FF5635"/>
<path d="M346 99.97C346 99.97 334.63 113.07 314.66 110.14C314.66 110.14 328.27 90.63 347.25 96.96C347.25 96.96 354.08 78.73 376.56 80.52C376.56 80.52 371.11 100 346.01 99.97H346Z" fill="#7FBEBF"/>
<path d="M412.65 247.82C412.08 246 412.92 244.24 414.69 243.68C416.46 243.13 418.04 244.08 418.67 245.93C419.24 247.75 418.45 249.5 416.63 250.07C414.86 250.62 413.17 249.65 412.65 247.82Z" fill="#FFC700"/>
<path d="M415.72 247.29C415.72 247.29 428.41 263.34 442.59 289.57" stroke="#FFC700" stroke-width="0.45" stroke-miterlimit="10"/>
<path d="M491.17 232.32C492.22 230.73 494.12 230.27 495.67 231.3C497.22 232.33 497.47 234.15 496.43 235.81C495.38 237.4 493.52 237.89 491.93 236.83C490.38 235.8 490.07 233.88 491.17 232.32Z" fill="#FFC700"/>
<path d="M493.52 234.36C493.52 234.36 489.05 254.33 477.61 281.86" stroke="#FFC700" stroke-width="0.45" stroke-miterlimit="10"/>
<path d="M446.02 235.19C445.95 233.28 447.23 231.81 449.08 231.74C450.94 231.68 452.2 233.01 452.32 234.97C452.39 236.88 451.16 238.35 449.25 238.42C447.39 238.48 446.02 237.1 446.01 235.19H446.02Z" fill="#FFC700"/>
<path d="M449.12 235.49C449.12 235.49 457.09 254.34 463.77 283.39" stroke="#FFC700" stroke-width="0.45" stroke-miterlimit="10"/>
<path d="M468.15 311.38C468.15 311.38 419.17 276.02 428.8 234.67C428.8 234.67 452.64 245.52 466.46 291.03C466.46 291.03 449.85 250.22 476.06 223.71C476.06 223.71 501.88 259.93 468.15 311.38Z" fill="#E30F26"/>
<path d="M468.97 313.54C468.97 313.54 409.16 322.04 404.53 256.47C404.53 256.47 447.86 267.9 468.12 303.58C468.12 303.58 471.85 250.16 520.08 237.33C520.08 237.33 520.37 296.31 468.96 313.53L468.97 313.54Z" fill="#FF5635"/>
<path d="M468.47 315.11C468.47 315.11 455.33 323.48 438.88 315.85C438.88 315.85 455.58 302.53 470.31 312.83C470.31 312.83 480.85 298.88 499.75 306.17C499.75 306.17 490.08 321.55 468.47 315.11Z" fill="#7FBEBF"/>
<path d="M908.98 370.98C908.98 370.98 868.09 384.83 863.47 404.4C863.47 404.4 900.5 405.41 908.98 370.98Z" fill="#7FBEBF"/>
<path d="M907.19 300.46C907.19 300.46 917.76 326.71 878 355.49C878 355.49 895.24 304.27 907.19 300.46Z" fill="#7FBEBF"/>
<path d="M839.99 314.39C839.99 314.39 848.29 276.64 836.29 254.8C836.29 254.8 816.05 290.36 839.99 314.39Z" fill="#7FBEBF"/>
<path d="M867.92 283.13C867.92 283.13 822.19 383.37 858.63 493.08" stroke="#008F8C" stroke-width="1.88" stroke-miterlimit="10"/>
<path d="M835.72 262.86C835.72 262.86 825.38 297.86 851.95 337.55" stroke="#008F8C" stroke-width="0.94" stroke-miterlimit="10"/>
<path d="M905.38 308.34C905.38 308.34 885.09 364.99 846.44 379.84" stroke="#008F8C" stroke-width="0.94" stroke-miterlimit="10"/>
<path d="M904.47 377.05C904.47 377.05 877.13 413.83 845.23 402.88" stroke="#008F8C" stroke-width="0.94" stroke-miterlimit="10"/>
<path d="M909.88 264.69C909.06 263.95 909.06 262.84 909.8 262.02C910.58 261.2 911.64 261.07 912.44 261.79C913.24 262.51 913.26 263.64 912.52 264.46C911.81 265.3 910.68 265.41 909.88 264.69Z" fill="#FFC700"/>
<path d="M911.03 263.45C911.03 263.45 900.49 268.85 886.73 279.24" stroke="#FFC700" stroke-width="0.47" stroke-miterlimit="10"/>
<path d="M873.43 239.62C872.34 239.79 871.48 239.09 871.31 238C871.16 236.87 871.73 235.98 872.8 235.81C873.86 235.64 874.75 236.34 874.92 237.43C875.12 238.52 874.5 239.45 873.44 239.62H873.43Z" fill="#FFC700"/>
<path d="M873.19 237.94C873.19 237.94 870.74 249.52 870.14 266.76" stroke="#FFC700" stroke-width="0.47" stroke-miterlimit="10"/>
<path d="M895.51 250.72C894.52 250.23 894.23 249.16 894.72 248.17C895.25 247.17 896.24 246.77 897.2 247.25C898.16 247.73 898.48 248.81 897.98 249.8C897.52 250.8 896.46 251.2 895.5 250.72H895.51Z" fill="#FFC700"/>
<path d="M896.29 249.21C896.29 249.21 887.57 257.21 877.07 270.9" stroke="#FFC700" stroke-width="0.47" stroke-miterlimit="10"/>
<path d="M868.03 284.57C868.03 284.57 902.31 277.73 907.18 253.66C907.18 253.66 892.02 253.64 873.81 274.27C873.81 274.27 892.36 256.79 884.94 236.53C884.94 236.53 862.65 249.38 868.03 284.57Z" fill="#E30F26"/>
<path d="M867.08 285.51C867.08 285.51 896.52 304.36 914.71 270.96C914.71 270.96 889.16 266.56 869.92 280.47C869.92 280.47 880.8 251.46 858.5 233.12C858.5 233.12 844.17 264.09 867.09 285.51H867.08Z" fill="#FF5635"/>
<path d="M866.97 286.46C866.97 286.46 871.87 294.02 882.36 293.96C882.36 293.96 876.77 282.93 866.55 284.82C866.55 284.82 864.35 274.95 852.66 274.24C852.66 274.24 854.05 284.66 866.97 286.46Z" fill="#7FBEBF"/>
<path d="M1059.15 225.9C1059.15 225.9 1123.47 328.63 969.08 462.68" stroke="#005245" stroke-miterlimit="10"/>
<path d="M1035.55 389.56C1035.55 389.56 1010.61 358.27 1024.35 310.84C1024.35 310.84 1047.63 340.63 1035.55 389.56Z" fill="#005245"/>
<path opacity="0.3" d="M1035.55 389.56C1035.55 389.56 1030.13 356.98 1024.35 310.84C1024.35 310.84 1047.63 340.63 1035.55 389.56Z" fill="#7FBEBF"/>
<path d="M1100.53 364.49C1100.53 364.49 1078.72 398.03 1029.37 399.97C1029.37 399.97 1050.28 368.47 1100.53 364.49Z" fill="#005245"/>
<path opacity="0.3" d="M1100.53 364.49C1100.53 364.49 1071.33 379.92 1029.37 399.97C1029.37 399.97 1050.28 368.47 1100.53 364.49Z" fill="#7FBEBF"/>
<path d="M1081.18 416.09C1081.18 416.09 1052.29 436.01 1011.61 421.1C1011.61 421.1 1039.09 402.54 1081.18 416.09Z" fill="#005245"/>
<path opacity="0.3" d="M1081.18 416.09C1081.18 416.09 1052.34 418.85 1011.61 421.1C1011.61 421.1 1039.09 402.54 1081.18 416.09Z" fill="#7FBEBF"/>
<path d="M966 321.78C966 321.78 957.51 246.95 1025.69 243.89L1052.06 220.61L1059.15 225.9L1035.73 250.24C1035.73 250.24 1037.96 303.85 966 321.78Z" fill="#FF90A3"/>
<path d="M971.37 306.31C971.37 306.31 977.21 263.43 1021.61 254.16C1021.61 254.16 1023.7 294.03 979.45 309.41" stroke="#E30F26" stroke-width="0.72" stroke-miterlimit="10"/>
<path d="M983.34 297.22C983.34 297.22 1038.51 233.14 1065.22 216.3" stroke="#E30F26" stroke-width="0.72" stroke-miterlimit="10"/>
<path d="M1116.33 353.87C1116.33 353.87 1044.55 331.07 1069.6 267.58L1059.11 234.01L1066.83 229.69L1079.49 261.01C1079.49 261.01 1129.34 280.86 1116.33 353.87Z" fill="#FF90A3"/>
<path d="M1104.39 342.65C1104.39 342.65 1067.63 319.81 1077.3 275.5C1077.3 275.5 1114.55 289.87 1110.52 336.54" stroke="#E30F26" stroke-width="0.72" stroke-miterlimit="10"/>
<path d="M1100.98 328.01C1100.98 328.01 1065 251.49 1060.54 220.23" stroke="#E30F26" stroke-width="0.72" stroke-miterlimit="10"/>
<path d="M1196.41 226.5C1196.41 226.5 1145.5 282 1098.46 232.54L1063.59 227.91L1062.93 219.09L1096.66 220.8C1096.66 220.8 1135.66 183.94 1196.4 226.5H1196.41Z" fill="#FF90A3"/>
<path d="M1181.21 232.59C1181.21 232.59 1145.01 256.32 1108.89 228.88C1108.89 228.88 1137.61 201.15 1178.25 224.46" stroke="#E30F26" stroke-width="0.72" stroke-miterlimit="10"/>
<path d="M1166.49 229.52C1166.49 229.52 1081.93 229.92 1051.7 220.8" stroke="#E30F26" stroke-width="0.72" stroke-miterlimit="10"/>
<path d="M1106.7 92.61C1106.7 92.61 1142.06 159.1 1079.76 186.97L1063.78 218.3L1055.24 215.98L1068.09 184.74C1068.09 184.74 1046.33 135.69 1106.7 92.6V92.61Z" fill="#FF90A3"/>
<path d="M1107.39 108.98C1107.39 108.98 1117.7 151.01 1079.8 175.93C1079.8 175.93 1063.22 139.61 1098.74 109.06" stroke="#E30F26" stroke-width="0.72" stroke-miterlimit="10"/>
<path d="M1099.59 121.83C1099.59 121.83 1071.8 201.69 1053.12 227.16" stroke="#E30F26" stroke-width="0.72" stroke-miterlimit="10"/>
<path d="M957.35 136.88C957.35 136.88 1032.01 127.01 1036.33 195.13L1060.09 221.06L1054.93 228.25L1030.16 205.28C1030.16 205.28 976.6 208.5 957.34 136.88H957.35Z" fill="#FF90A3"/>
<path d="M972.92 141.96C972.92 141.96 1015.9 147.01 1025.98 191.23C1025.98 191.23 986.16 194.06 969.96 150.09" stroke="#E30F26" stroke-width="0.72" stroke-miterlimit="10"/>
<path d="M982.23 153.76C982.23 153.76 1047.32 207.74 1064.65 234.13" stroke="#E30F26" stroke-width="0.72" stroke-miterlimit="10"/>
<path d="M1040.48 236.36C1036.7 231.51 1035.11 226.12 1035.71 220.17C1036.11 216.21 1037.57 212.65 1040.08 209.51C1042.6 206.36 1045.73 204.01 1049.49 202.45C1053.25 200.9 1057.11 200.31 1061.07 200.71C1066.88 201.29 1071.6 203.71 1075.25 207.94C1078.89 212.18 1080.39 217.53 1079.74 224C1079.1 230.34 1076.48 235.51 1071.88 239.51C1067.27 243.52 1061.87 245.21 1055.66 244.58C1049.32 243.94 1044.26 241.2 1040.48 236.35V236.36Z" fill="#FFC700"/>
<path d="M1047.14 231.02C1044.82 228.05 1043.85 224.74 1044.22 221.1C1044.46 218.67 1045.36 216.5 1046.9 214.57C1048.44 212.64 1050.36 211.2 1052.67 210.25C1054.97 209.3 1057.34 208.94 1059.76 209.19C1063.32 209.55 1066.21 211.03 1068.45 213.62C1070.68 216.22 1071.6 219.49 1071.2 223.46C1070.81 227.34 1069.2 230.51 1066.38 232.97C1063.56 235.43 1060.25 236.46 1056.45 236.08C1052.57 235.69 1049.47 234.01 1047.15 231.04L1047.14 231.02Z" fill="#FF5635"/>
<path d="M1050.29 228.5C1048.67 226.42 1047.98 224.1 1048.24 221.55C1048.41 219.85 1049.04 218.32 1050.12 216.97C1051.2 215.62 1052.55 214.61 1054.16 213.94C1055.77 213.27 1057.43 213.02 1059.13 213.19C1061.63 213.44 1063.66 214.48 1065.22 216.3C1066.78 218.12 1067.43 220.42 1067.15 223.2C1066.88 225.92 1065.75 228.14 1063.77 229.86C1061.79 231.58 1059.47 232.31 1056.8 232.04C1054.08 231.77 1051.9 230.59 1050.28 228.5H1050.29Z" fill="#FFC700"/>
<path d="M1041.1 160.03C1038.92 159.22 1037.71 158.05 1037.46 156.53C1037.29 155.51 1037.65 154.49 1038.54 153.46C1039.43 152.43 1040.67 151.53 1042.27 150.77C1043.87 150.01 1045.6 149.47 1047.47 149.17C1050.21 148.72 1052.6 148.84 1054.66 149.51C1056.72 150.18 1057.88 151.35 1058.15 153.01C1058.42 154.64 1057.66 156.18 1055.89 157.63C1054.12 159.09 1051.77 160.05 1048.84 160.53C1045.85 161.02 1043.27 160.86 1041.1 160.04V160.03Z" fill="#FFC700"/>
<path d="M1046.21 153.68C1046.21 153.68 1055.24 176.45 1052.66 210.26" stroke="#FFC700" stroke-width="0.72" stroke-miterlimit="10"/>
<path d="M1105.62 176.37C1104.96 174.14 1105.16 172.47 1106.23 171.36C1106.94 170.62 1107.98 170.29 1109.33 170.38C1110.69 170.47 1112.15 170.92 1113.72 171.74C1115.29 172.56 1116.76 173.62 1118.13 174.93C1120.13 176.85 1121.48 178.83 1122.18 180.88C1122.88 182.93 1122.65 184.56 1121.49 185.78C1120.35 186.97 1118.67 187.29 1116.44 186.75C1114.21 186.21 1112.03 184.91 1109.89 182.86C1107.7 180.77 1106.28 178.61 1105.62 176.38V176.37Z" fill="#FFC700"/>
<path d="M1113.77 176.63C1113.77 176.63 1101.02 197.54 1072.46 215.82" stroke="#FFC700" stroke-width="0.72" stroke-miterlimit="10"/>
<path d="M1114.77 258.31C1116.91 257.41 1118.59 257.44 1119.82 258.38C1120.64 259.01 1121.07 260 1121.13 261.36C1121.19 262.72 1120.9 264.22 1120.25 265.87C1119.61 267.52 1118.71 269.1 1117.55 270.6C1115.86 272.8 1114.03 274.35 1112.07 275.27C1110.11 276.18 1108.46 276.13 1107.13 275.1C1105.82 274.09 1105.32 272.45 1105.62 270.18C1105.92 267.9 1106.98 265.59 1108.78 263.25C1110.63 260.85 1112.62 259.21 1114.76 258.31H1114.77Z" fill="#FFC700"/>
<path d="M1115.39 266.44C1115.39 266.44 1093.23 256 1072 229.56" stroke="#FFC700" stroke-width="0.72" stroke-miterlimit="10"/>
<path d="M992.81 243.85C992.4 246.13 991.46 247.53 990 248.05C989.03 248.39 987.96 248.22 986.79 247.53C985.62 246.84 984.52 245.78 983.48 244.34C982.45 242.9 981.61 241.29 980.98 239.51C980.06 236.89 979.75 234.51 980.05 232.37C980.35 230.23 981.29 228.87 982.88 228.32C984.43 227.77 986.08 228.24 987.83 229.73C989.58 231.22 990.94 233.36 991.92 236.16C992.93 239.01 993.22 241.58 992.81 243.87V243.85Z" fill="#FFC700"/>
<path d="M985.65 239.95C985.65 239.95 1006.47 227.04 1040.2 223.62" stroke="#FFC700" stroke-width="0.72" stroke-miterlimit="10"/>
<path d="M1056.51 290.49C1058.51 291.66 1059.51 293.02 1059.49 294.56C1059.48 295.59 1058.95 296.54 1057.9 297.4C1056.85 298.26 1055.47 298.94 1053.76 299.41C1052.05 299.89 1050.25 300.12 1048.36 300.1C1045.59 300.07 1043.25 299.55 1041.33 298.53C1039.42 297.51 1038.47 296.16 1038.49 294.48C1038.51 292.83 1039.52 291.44 1041.51 290.32C1043.51 289.19 1045.99 288.64 1048.95 288.68C1051.98 288.71 1054.49 289.32 1056.5 290.49H1056.51Z" fill="#FFC700"/>
<path d="M1050.39 295.88C1050.39 295.88 1045.4 271.9 1053.75 239.04" stroke="#FFC700" stroke-width="0.72" stroke-miterlimit="10"/>
<path d="M566.34 299.71C566.34 299.71 564.18 253.93 506.31 251.34C506.31 251.34 519.7 304.46 566.34 299.71Z" fill="#008F8C"/>
<path d="M593.98 365.35C593.98 365.35 571.09 324.76 520.13 344.62C520.13 344.62 551.66 380.9 593.98 365.35Z" fill="#008F8C"/>
<path d="M606.07 309.21C606.07 309.21 588.8 270.78 634.57 245.73C634.57 245.73 641.48 292.37 606.07 309.21Z" fill="#008F8C"/>
<path d="M579.97 180.52C579.97 180.52 529.63 288.91 657.46 421.92" stroke="#005245" stroke-width="2" stroke-miterlimit="10"/>
<path d="M526.18 263.86C526.18 263.86 573.68 299.27 602.19 349.37C602.19 349.37 597.01 309.64 624.65 263.86" stroke="#005245" stroke-miterlimit="10"/>
<path d="M535.68 346.78C535.68 346.78 587.5 346.78 632.42 395.15" stroke="#005245" stroke-miterlimit="10"/>
<path d="M576.89 178.93C576.89 178.93 553.36 155.82 573.95 116.74C573.95 116.74 595.38 144.47 576.89 178.93Z" fill="white"/>
<path d="M579.97 180.52C579.97 180.52 572.64 148.36 611.06 126.58C611.06 126.58 614.13 161.49 579.97 180.52Z" fill="white"/>
<path d="M579.11 179.83C579.11 179.83 594.26 150.54 637.67 158.7C637.67 158.7 617.48 187.35 579.11 179.83Z" fill="white"/>
<path d="M578.5 183.24C578.5 183.24 607.07 166.76 639.2 197.06C639.2 197.06 606.74 210.28 578.5 183.24Z" fill="white"/>
<path d="M576.68 180.6C576.68 180.6 587.39 211.79 551.5 237.54C551.5 237.54 544.73 203.15 576.68 180.6Z" fill="white"/>
<path d="M574.63 177.81C574.63 177.81 566.81 209.85 522.7 212.15C522.7 212.15 535.57 179.55 574.63 177.81Z" fill="white"/>
<path d="M578.13 181C578.13 181 610.99 183.82 620.02 227.06C620.02 227.06 585.83 219.34 578.13 181Z" fill="white"/>
<path d="M574.75 181.74C574.75 181.74 600.89 201.85 585.15 243.12C585.15 243.12 560.54 218.17 574.75 181.74Z" fill="white"/>
<path d="M575.1 178.8C575.1 178.8 548.45 198.23 513.27 171.51C513.27 171.51 544.14 154.91 575.1 178.8Z" fill="white"/>
<path d="M577.17 176.03C577.17 176.03 544.25 178 529.06 136.52C529.06 136.52 564 139.21 577.17 176.03Z" fill="white"/>
<g opacity="0.5">
<path d="M576.72 179.2C576.72 179.2 559.45 162.24 574.56 133.55C574.56 133.55 590.29 153.91 576.72 179.2Z" fill="#FFE0A9"/>
<path d="M578.97 180.36C578.97 180.36 573.59 156.76 601.79 140.77C601.79 140.77 604.04 166.4 578.97 180.36Z" fill="#FFE0A9"/>
<path d="M578.34 179.86C578.34 179.86 589.46 158.36 621.32 164.35C621.32 164.35 606.5 185.38 578.34 179.86Z" fill="#FFE0A9"/>
<path d="M577.89 182.36C577.89 182.36 598.86 170.26 622.45 192.51C622.45 192.51 598.62 202.21 577.89 182.36Z" fill="#FFE0A9"/>
<path d="M576.56 180.42C576.56 180.42 584.42 203.32 558.08 222.21C558.08 222.21 553.11 196.97 576.56 180.42Z" fill="#FFE0A9"/>
<path d="M575.06 178.37C575.06 178.37 569.32 201.89 536.94 203.58C536.94 203.58 546.38 179.65 575.06 178.37Z" fill="#FFE0A9"/>
<path d="M577.63 180.72C577.63 180.72 601.75 182.79 608.38 214.53C608.38 214.53 583.29 208.86 577.63 180.72Z" fill="#FFE0A9"/>
<path d="M575.14 181.26C575.14 181.26 594.33 196.02 582.77 226.32C582.77 226.32 564.71 208 575.14 181.26Z" fill="#FFE0A9"/>
<path d="M575.4 179.1C575.4 179.1 555.84 193.36 530.02 173.75C530.02 173.75 552.68 161.57 575.4 179.1Z" fill="#FFE0A9"/>
<path d="M576.92 177.07C576.92 177.07 552.75 178.51 541.6 148.07C541.6 148.07 567.25 150.05 576.92 177.07Z" fill="#FFE0A9"/>
</g>
<path d="M578.23 188.06C576.17 188.4 574.33 187.96 572.7 186.72C571.07 185.48 570.09 183.81 569.74 181.71C569.38 179.56 569.77 177.74 570.89 176.25C572.02 174.76 573.54 173.85 575.47 173.53C576.78 173.31 578.09 173.42 579.38 173.86C580.67 174.3 581.77 175.02 582.68 176.01C583.59 177.01 584.15 178.16 584.37 179.48C584.7 181.45 584.28 183.29 583.13 184.99C581.97 186.69 580.34 187.72 578.24 188.07L578.23 188.06Z" fill="#FF5635"/>
<path d="M1347.95 309.18C1347.95 309.18 1335.53 264.73 1390.04 243.93C1390.04 243.93 1394.05 298.96 1347.95 309.18Z" fill="#008F8C"/>
<path d="M1342.3 380.69C1342.3 380.69 1351.34 334.63 1406.35 337.5C1406.35 337.5 1387.69 382.16 1342.3 380.69Z" fill="#008F8C"/>
<path d="M1312.97 330.84C1312.97 330.84 1317.32 288.62 1265.63 279.16C1265.63 279.16 1273.78 325.94 1312.97 330.84Z" fill="#008F8C"/>
<path d="M1297.2 199.53C1297.2 199.53 1379.64 287.24 1299.51 454.88" stroke="#005245" stroke-width="1.89" stroke-miterlimit="10"/>
<path d="M1375.01 262.19C1375.01 262.19 1340.8 311.08 1329.4 368C1329.4 368 1321.78 328.37 1280.87 293.35" stroke="#005245" stroke-width="0.94" stroke-miterlimit="10"/>
<path d="M1392.17 344.48C1392.17 344.48 1342.62 360.88 1314.98 421.34" stroke="#005245" stroke-width="0.94" stroke-miterlimit="10"/>
<path d="M1299.64 197.04C1299.64 197.04 1314.82 167.5 1282.77 136.65C1282.77 136.65 1271.06 169.95 1299.64 197.04Z" fill="white"/>
<path d="M1297.2 199.53C1297.2 199.53 1294.03 166.46 1250.4 157.8C1250.4 157.8 1258.52 192.15 1297.2 199.53Z" fill="white"/>
<path d="M1297.81 198.6C1297.81 198.6 1274.05 175.39 1235.13 196.93C1235.13 196.93 1263.5 217.93 1297.81 198.6Z" fill="white"/>
<path d="M1299.47 201.66C1299.47 201.66 1266.94 194.94 1245.8 234.09C1245.8 234.09 1281.02 236.46 1299.47 201.66Z" fill="white"/>
<path d="M1300.37 198.56C1300.37 198.56 1300 231.78 1342.46 245.04C1342.46 245.04 1338.05 210.02 1300.37 198.56Z" fill="white"/>
<path d="M1301.44 195.25C1301.44 195.25 1319.06 223.41 1361.96 211.65C1361.96 211.65 1339.34 184.55 1301.44 195.25Z" fill="white"/>
<path d="M1299.11 199.41C1299.11 199.41 1268.58 212.51 1273.63 256.71C1273.63 256.71 1303.87 238.51 1299.11 199.41Z" fill="white"/>
<path d="M1302.58 199.04C1302.58 199.04 1283.95 226.54 1312.07 261.02C1312.07 261.02 1327.7 229.37 1302.58 199.04Z" fill="white"/>
<path d="M1301.31 196.35C1301.31 196.35 1332.94 206.49 1358.12 169.82C1358.12 169.82 1323.35 163.72 1301.31 196.35Z" fill="white"/>
<path d="M1298.46 194.35C1298.46 194.35 1330.56 185.81 1331.96 141.35C1331.96 141.35 1299.4 154.98 1298.46 194.35Z" fill="white"/>
<g opacity="0.5">
<path d="M1299.89 197.24C1299.89 197.24 1311.04 175.55 1287.51 152.91C1287.51 152.91 1278.91 177.35 1299.89 197.24Z" fill="#FFE0A9"/>
<path d="M1298.1 199.06C1298.1 199.06 1295.78 174.79 1263.75 168.43C1263.75 168.43 1269.71 193.65 1298.1 199.06Z" fill="#FFE0A9"/>
<path d="M1298.55 198.38C1298.55 198.38 1281.11 181.34 1252.54 197.15C1252.54 197.15 1273.36 212.57 1298.55 198.38Z" fill="#FFE0A9"/>
<path d="M1299.77 200.63C1299.77 200.63 1275.89 195.7 1260.38 224.43C1260.38 224.43 1286.23 226.17 1299.77 200.63Z" fill="#FFE0A9"/>
<path d="M1300.43 198.36C1300.43 198.36 1300.16 222.74 1331.33 232.47C1331.33 232.47 1328.09 206.76 1300.43 198.36Z" fill="#FFE0A9"/>
<path d="M1301.21 195.92C1301.21 195.92 1314.14 216.59 1345.63 207.96C1345.63 207.96 1329.03 188.07 1301.21 195.92Z" fill="#FFE0A9"/>
<path d="M1299.5 198.98C1299.5 198.98 1277.09 208.59 1280.8 241.04C1280.8 241.04 1303 227.68 1299.5 198.98Z" fill="#FFE0A9"/>
<path d="M1302.05 198.71C1302.05 198.71 1288.38 218.9 1309.01 244.21C1309.01 244.21 1320.48 220.98 1302.05 198.71Z" fill="#FFE0A9"/>
<path d="M1301.12 196.73C1301.12 196.73 1324.34 204.17 1342.82 177.25C1342.82 177.25 1317.3 172.77 1301.12 196.73Z" fill="#FFE0A9"/>
<path d="M1299.02 195.26C1299.02 195.26 1322.58 188.99 1323.61 156.35C1323.61 156.35 1299.71 166.36 1299.02 195.26Z" fill="#FFE0A9"/>
</g>
<path d="M1295.59 204.79C1293.94 203.53 1292.97 201.9 1292.66 199.91C1292.45 198.58 1292.63 197.3 1293.18 196.06C1293.73 194.82 1294.56 193.78 1295.65 192.96C1296.74 192.13 1297.95 191.62 1299.28 191.41C1301.23 191.11 1302.97 191.49 1304.52 192.56C1306.07 193.63 1307.01 195.25 1307.35 197.42C1307.68 199.54 1307.26 201.45 1306.1 203.15C1304.94 204.85 1303.32 205.86 1301.24 206.18C1299.12 206.51 1297.23 206.05 1295.59 204.78V204.79Z" fill="#FF5635"/>
<path d="M789.67 228.51C789.67 228.51 783.09 205.36 803.19 186.99C803.19 186.99 809.78 199.84 804.91 208.58C804.91 208.58 808.6 186.34 842.14 177.99C842.14 177.99 839.69 202.53 810.46 214.66C810.46 214.66 811.91 207.33 829.59 217.76C829.59 217.76 822.1 234.9 789.66 228.51H789.67Z" fill="#008F8C"/>
<path d="M747.15 342.16C747.15 342.16 720.46 341.08 708.05 313.52C708.05 313.52 723.88 311.02 731.41 319.19C731.41 319.19 709.24 307.6 712.05 269.34C712.05 269.34 737.08 280.42 739.74 315.44C739.74 315.44 732.51 311.37 749.64 296.34C749.64 296.34 765.12 310.18 747.15 342.16Z" fill="#008F8C"/>
<path d="M788.35 426.55C788.35 426.55 731.81 266.74 816.69 129.09" stroke="#005245" stroke-width="2" stroke-linecap="round" stroke-linejoin="round"/>
<path d="M815.42 203.43C815.42 203.43 776.61 225.97 772.76 263.72" stroke="#005245" stroke-width="0.79" stroke-linecap="round" stroke-linejoin="round"/>
<path d="M776.22 378.18C776.22 378.18 744.63 355.01 721.63 293.73" stroke="#005245" stroke-linecap="round" stroke-linejoin="round"/>
<path d="M735.89 192.35C735.89 192.35 747.79 238.54 772.74 268.89" stroke="#005245" stroke-linecap="round" stroke-linejoin="round"/>
<path d="M789.66 129.97C789.66 129.97 824.35 120.21 828.99 151.65C828.99 151.65 800.59 164.31 789.66 129.97Z" fill="#FFC700"/>
<path d="M792.29 138.75C792.29 138.75 803.26 153 822.65 157.07C822.65 157.07 804.45 183.57 790 175.78C775.55 168 792.29 138.75 792.29 138.75Z" fill="#005245"/>
<path d="M776.83 18.74C776.83 18.74 728.3 89.39 803.24 149.39C803.24 149.39 779.31 89.4 819.49 39.11L791.06 39.98L776.83 18.74Z" fill="#E30F26"/>
<path d="M776.61 38.57C776.61 38.57 756.88 96.13 795.95 139.25C795.95 139.25 776.19 103.09 802.35 56.36" stroke="#FF5635" stroke-linecap="round" stroke-linejoin="round"/>
<path d="M784.03 48.46C784.03 48.46 766.94 95.66 794.66 137.09C794.66 137.09 770.28 100.41 793.42 57.45" stroke="#FF5635" stroke-linecap="round" stroke-linejoin="round"/>
<path d="M932.21 108.1C932.21 108.1 895.88 185.74 806.19 151.52C806.19 151.52 870.03 141.76 893.04 81.64L904.97 106.25L932.21 108.1Z" fill="#E30F26"/>
<path d="M916.31 114.33C916.31 114.33 879.09 162.46 821.59 153.56C821.59 153.56 862.66 150.18 887.29 102.62" stroke="#FF5635" stroke-linecap="round" stroke-linejoin="round"/>
<path d="M903.97 113.56C903.97 113.56 873.95 153.8 824.11 153.44C824.11 153.44 868.16 153.63 891.3 110.66" stroke="#FF5635" stroke-linecap="round" stroke-linejoin="round"/>
<path d="M804.46 149.55C804.46 149.55 803.62 92.85 840.13 44.5L860.09 65.72L885.28 67.52C885.28 67.52 861.95 122.97 804.46 149.55Z" fill="#E30F26"/>
<path d="M839.99 57.51C839.99 57.51 810.29 99.88 810.02 140.45C810.02 140.45 841.11 128.26 873.04 76.29" stroke="#FF5635" stroke-linecap="round" stroke-linejoin="round"/>
<path d="M844.84 63.07C844.84 63.07 812.36 114.25 810.02 140.45C810.02 140.45 848.37 105.68 864.35 76.03" stroke="#FF5635" stroke-linecap="round" stroke-linejoin="round"/>
<path d="M853.23 72.98C853.23 72.98 821.84 113.95 810.01 140.45" stroke="#FF5635" stroke-linecap="round" stroke-linejoin="round"/>
<path d="M741.11 182.97L720.87 188.92C720.87 188.92 703.6 156.19 721.57 127C721.57 127 744.62 151.11 741.11 182.98V182.97Z" fill="#E30F26"/>
<path d="M724.49 180.38C713.1 162.36 721.72 134.68 721.72 134.68C721.72 134.68 737.48 151.92 736.19 176.95" stroke="#FF5635" stroke-linecap="round" stroke-linejoin="round"/>
<path d="M730.21 172.36C730.21 172.36 724.5 161.97 721.72 134.68" stroke="#FF5635" stroke-linecap="round" stroke-linejoin="round"/>
<path d="M741.11 182.97L720.87 188.92C720.87 188.92 724.9 206.82 740.91 209.35C740.91 209.35 750.82 202.37 741.11 182.98V182.97Z" fill="#005245"/>
<path d="M1206.29 432.8C1206.29 432.8 1230.46 347.35 1199.6 257.93" stroke="#7FBEBF" stroke-miterlimit="10"/>
<path d="M1210.51 299.36C1210.51 299.36 1224.08 247.6 1186.88 230.1C1186.88 230.1 1181.43 270.96 1210.51 299.36Z" fill="#7FBEBF"/>
<path d="M1213.3 323.39C1213.3 323.39 1258.99 304.58 1251.19 267.43C1251.19 267.43 1218.05 286.16 1213.3 323.39Z" fill="#7FBEBF"/>
<path d="M1213.64 323.7C1213.64 323.7 1169.54 310.3 1169.52 273.34C1169.52 273.34 1202.46 288 1213.64 323.7Z" fill="#7FBEBF"/>
<path d="M1215.79 365.94C1215.79 365.94 1258.32 348.43 1251.05 313.86C1251.05 313.86 1220.2 331.29 1215.79 365.94Z" fill="#7FBEBF"/>
<path d="M1216.11 366.23C1216.11 366.23 1175.06 353.76 1175.05 319.36C1175.05 319.36 1205.71 333.01 1216.11 366.23Z" fill="#7FBEBF"/>
<path d="M1211.2 408.55C1211.2 408.55 1255.96 397.98 1254.24 362.69C1254.24 362.69 1221.03 375.03 1211.2 408.55Z" fill="#7FBEBF"/>
<path d="M1211.47 408.89C1211.47 408.89 1172.91 390.1 1178.32 356.12C1178.32 356.12 1206.44 374.43 1211.47 408.89Z" fill="#7FBEBF"/>
<path d="M684.33 448.13C684.33 448.13 708.5 362.68 677.64 273.26" stroke="#7FBEBF" stroke-miterlimit="10"/>
<path d="M688.55 314.69C688.55 314.69 702.12 262.93 664.92 245.43C664.92 245.43 659.47 286.29 688.55 314.69Z" fill="#7FBEBF"/>
<path d="M691.34 338.72C691.34 338.72 737.03 319.91 729.23 282.76C729.23 282.76 696.09 301.49 691.34 338.72Z" fill="#7FBEBF"/>
<path d="M691.68 339.03C691.68 339.03 647.58 325.63 647.56 288.67C647.56 288.67 680.5 303.33 691.68 339.03Z" fill="#7FBEBF"/>
<path d="M693.84 381.27C693.84 381.27 736.37 363.76 729.1 329.19C729.1 329.19 698.25 346.62 693.84 381.27Z" fill="#7FBEBF"/>
<path d="M694.15 381.56C694.15 381.56 653.1 369.09 653.09 334.69C653.09 334.69 683.75 348.34 694.15 381.56Z" fill="#7FBEBF"/>
<path d="M689.24 423.88C689.24 423.88 734 413.31 732.28 378.02C732.28 378.02 699.07 390.36 689.24 423.88Z" fill="#7FBEBF"/>
<path d="M689.51 424.22C689.51 424.22 650.95 405.43 656.36 371.45C656.36 371.45 684.48 389.76 689.51 424.22Z" fill="#7FBEBF"/>
<path d="M172.48 445.64C172.48 445.64 196.65 360.19 165.79 270.77" stroke="#7FBEBF" stroke-miterlimit="10"/>
<path d="M176.69 312.21C176.69 312.21 190.26 260.45 153.06 242.95C153.06 242.95 147.61 283.81 176.69 312.21Z" fill="#7FBEBF"/>
<path d="M179.48 336.23C179.48 336.23 225.17 317.42 217.37 280.27C217.37 280.27 184.23 299 179.48 336.23Z" fill="#7FBEBF"/>
<path d="M179.82 336.54C179.82 336.54 135.72 323.14 135.7 286.18C135.7 286.18 168.64 300.84 179.82 336.54Z" fill="#7FBEBF"/>
<path d="M181.98 378.79C181.98 378.79 224.51 361.28 217.24 326.71C217.24 326.71 186.39 344.14 181.98 378.79Z" fill="#7FBEBF"/>
<path d="M182.3 379.08C182.3 379.08 141.25 366.61 141.24 332.21C141.24 332.21 171.9 345.86 182.3 379.08Z" fill="#7FBEBF"/>
<path d="M177.38 421.4C177.38 421.4 222.14 410.83 220.42 375.54C220.42 375.54 187.21 387.88 177.38 421.4Z" fill="#7FBEBF"/>
<path d="M177.65 421.73C177.65 421.73 139.09 402.94 144.5 368.96C144.5 368.96 172.62 387.27 177.65 421.73Z" fill="#7FBEBF"/>
</g>
<g clip-path="url(#clip1_118_284)">
<path d="M1489 427H-32V630H1489V427Z" fill="url(#paint0_linear_118_284)"/>
</g>
<defs>
<linearGradient id="paint0_linear_118_284" x1="728.5" y1="32.0039" x2="728.5" y2="1140.21" gradientUnits="userSpaceOnUse">
<stop stop-color="white"/>
<stop offset="0.453125" stop-color="#151515"/>
</linearGradient>
<clipPath id="clip0_118_284">
<rect width="1390.35" height="496.39" fill="white" transform="translate(16)"/>
</clipPath>
<clipPath id="clip1_118_284">
<rect width="1521" height="203" fill="white" transform="translate(-32 427)"/>
</clipPath>
</defs>
</svg>
