<svg width="442" height="554" viewBox="0 0 442 554" fill="none" xmlns="http://www.w3.org/2000/svg">
<g clip-path="url(#clip0_49_16964)">
<path d="M223.29 279.222C223.29 279.222 130.567 410.787 -95.6245 305.28" stroke="#005245" stroke-miterlimit="10"/>
<path d="M19.9249 342.182C19.9249 342.182 45.8163 295.89 107.799 285.67C107.799 285.67 82.9517 329.214 19.9249 342.182Z" fill="#005245"/>
<path opacity="0.3" d="M19.9249 342.182C19.9249 342.182 55.9456 317.874 107.799 285.67C107.799 285.67 82.9517 329.214 19.9249 342.182Z" fill="#7FBEBF"/>
<path d="M78.1491 403.913C78.1491 403.913 28.9766 397.072 4.91556 340.752C4.91556 340.752 51.2828 347.672 78.1491 403.913Z" fill="#005245"/>
<path opacity="0.3" d="M78.1491 403.913C78.1491 403.913 47.0697 378.473 4.91556 340.752C4.91556 340.752 51.2828 347.672 78.1491 403.913Z" fill="#7FBEBF"/>
<path d="M8.78206 409.927C8.78206 409.927 -27.4475 387.32 -27.831 331.791C-27.831 331.791 6.17191 353.505 8.78206 409.927Z" fill="#005245"/>
<path opacity="0.3" d="M8.78206 409.927C8.78206 409.927 -7.20061 377.914 -27.831 331.791C-27.831 331.791 6.17191 353.505 8.78206 409.927Z" fill="#7FBEBF"/>
<path d="M69.1307 223.857C69.1307 223.857 153.609 172.638 187.311 250.258L226.393 268.059L223.28 279.235L184.254 265.44C184.254 265.44 122.035 297.654 69.1307 223.857Z" fill="#FF005C"/>
<path d="M89.7421 221.549C89.7421 221.549 142.883 204.648 173.395 251.169C173.395 251.169 127.318 275.622 89.6554 232.652" stroke="#270307" stroke-width="0.72" stroke-miterlimit="10"/>
<path d="M105.754 230.444C105.754 230.444 205.653 259.201 237.301 280.972" stroke="#270307" stroke-width="0.72" stroke-miterlimit="10"/>
<path d="M97.6355 416.426C97.6355 416.426 92.8353 320.353 178.749 314.405L213.702 283.67L222.195 290.268L190.859 322.288C190.859 322.288 189.468 391.235 97.6256 416.439L97.6355 416.426Z" fill="#FF005C"/>
<path d="M105.611 396.343C105.611 396.343 116.312 340.968 172.832 327.735C172.832 327.735 172.332 378.991 115.526 400.093" stroke="#270307" stroke-width="0.72" stroke-miterlimit="10"/>
<path d="M121.363 384.278C121.363 384.278 195.693 300.157 230.592 277.697" stroke="#270307" stroke-width="0.72" stroke-miterlimit="10"/>
<path d="M283.169 439.184C283.169 439.184 195.274 410.631 232.819 328.608L222.89 285.506L233.005 279.862L245.881 320.038C245.881 320.038 306.554 345.031 283.181 439.193L283.169 439.184Z" fill="#FF005C"/>
<path d="M269.264 424.889C269.264 424.889 225.32 395.893 241.724 338.726C241.724 338.726 287.094 356.808 277.539 416.947" stroke="#270307" stroke-width="0.72" stroke-miterlimit="10"/>
<path d="M266.397 406.072C266.397 406.072 228.604 307.952 226.014 267.746" stroke="#270307" stroke-width="0.72" stroke-miterlimit="10"/>
<path d="M401.427 260.889C401.427 260.889 338.637 338.759 278.287 281.695L234.288 280.418L233.252 269.21L275.742 266.904C275.742 266.904 323.971 214.498 401.417 260.902L401.427 260.889Z" fill="#FF005C"/>
<path d="M382.429 270.722C382.429 270.722 337.417 305.932 291.319 275.607C291.319 275.607 326.825 236.263 378.516 260.689" stroke="#270307" stroke-width="0.72" stroke-miterlimit="10"/>
<path d="M363.834 268.751C363.834 268.751 257.412 280.536 219.154 272.897" stroke="#270307" stroke-width="0.72" stroke-miterlimit="10"/>
<path d="M283.324 111.636C283.324 111.636 327.911 193.015 249.504 235.663L229.418 277.635L218.669 275.604L234.815 234.111C234.815 234.111 207.374 173.609 283.324 111.636Z" fill="#FF005C"/>
<path d="M284.198 132.555C284.198 132.555 297.226 185.332 249.526 221.492C249.526 221.492 228.616 176.734 273.305 133.616" stroke="#270307" stroke-width="0.72" stroke-miterlimit="10"/>
<path d="M274.4 149.9C274.4 149.9 239.483 255.424 216.011 290.17" stroke="#270307" stroke-width="0.72" stroke-miterlimit="10"/>
<path d="M202.717 263.286C206.766 256.218 212.428 251.376 219.695 248.797C224.542 247.066 229.372 246.8 234.205 247.994C239.026 249.179 243.187 251.539 246.673 255.044C250.172 258.558 252.547 262.727 253.831 267.555C255.715 274.631 254.954 281.458 251.558 288.043C248.173 294.616 242.521 299.321 234.612 302.124C226.852 304.879 219.603 304.7 212.85 301.556C206.097 298.411 201.714 293.067 199.721 285.496C197.671 277.779 198.67 270.376 202.729 263.295L202.717 263.286Z" fill="#FFC700"/>
<path d="M211.96 268.079C214.434 263.741 217.909 260.79 222.361 259.206C225.336 258.149 228.3 257.986 231.251 258.718C234.203 259.45 236.751 260.878 238.888 263.035C241.024 265.193 242.488 267.736 243.271 270.7C244.425 275.038 243.955 279.214 241.885 283.247C239.815 287.28 236.345 290.153 231.497 291.884C226.745 293.565 222.302 293.451 218.157 291.534C214.022 289.604 211.338 286.326 210.104 281.701C208.851 276.98 209.454 272.434 211.94 268.105L211.96 268.079Z" fill="#FF5635"/>
<path d="M216.311 270.34C218.047 267.302 220.472 265.226 223.607 264.108C225.683 263.365 227.768 263.244 229.83 263.764C231.903 264.271 233.687 265.274 235.185 266.797C236.692 268.306 237.705 270.092 238.269 272.168C239.069 275.207 238.746 278.141 237.301 280.972C235.844 283.793 233.426 285.812 230.012 287.024C226.673 288.212 223.566 288.12 220.672 286.776C217.766 285.422 215.883 283.131 215.021 279.88C214.141 276.554 214.575 273.377 216.311 270.34Z" fill="#FFC700"/>
<path d="M292.983 221.838C292.982 218.86 293.819 216.795 295.51 215.673C296.636 214.918 298.003 214.779 299.608 215.233C301.212 215.688 302.827 216.644 304.428 218.081C306.028 219.518 307.432 221.235 308.618 223.236C310.346 226.168 311.274 229.017 311.39 231.797C311.505 234.554 310.64 236.558 308.805 237.794C307.011 239.001 304.858 238.966 302.358 237.719C299.857 236.451 297.685 234.266 295.839 231.121C293.944 227.917 292.996 224.826 292.994 221.848L292.983 221.838Z" fill="#FFC700"/>
<path d="M302.729 224.268C302.729 224.268 279.87 247.351 238.876 263.026" stroke="#FFC700" stroke-width="0.72" stroke-miterlimit="10"/>
<path d="M302.192 305.905C304.524 303.901 306.584 303.228 308.368 303.841C309.55 304.258 310.399 305.281 310.901 306.9C311.393 308.531 311.515 310.473 311.237 312.764C310.969 315.042 310.361 317.346 309.433 319.65C308.047 323.039 306.312 325.708 304.208 327.661C302.103 329.614 300.083 330.236 298.128 329.552C296.218 328.883 295.095 327.095 294.76 324.208C294.413 321.313 294.983 318.056 296.449 314.442C297.953 310.753 299.87 307.896 302.202 305.892L302.192 305.905Z" fill="#FFC700"/>
<path d="M305.485 315.524C305.485 315.524 275.21 312.242 241.043 289.128" stroke="#FFC700" stroke-width="0.72" stroke-miterlimit="10"/>
<path d="M209.625 361.822C211.626 363.814 212.346 365.785 211.773 367.726C211.398 369.019 210.409 370.085 208.846 370.894C207.273 371.716 205.374 372.205 203.127 372.365C200.892 372.534 198.638 372.36 196.367 371.844C193.038 371.089 190.382 369.825 188.444 368.045C186.505 366.266 185.842 364.318 186.455 362.203C187.072 360.132 188.786 358.638 191.587 357.734C194.409 356.826 197.591 356.77 201.157 357.584C204.789 358.409 207.622 359.809 209.613 361.813L209.625 361.822Z" fill="#FFC700"/>
<path d="M200.321 367.023C200.321 367.023 202.85 335.48 224.653 296.185" stroke="#FFC700" stroke-width="0.72" stroke-miterlimit="10"/>
<path d="M172.843 211.978C169.966 212.762 167.898 212.444 166.653 211.033C165.822 210.086 165.553 208.75 165.845 207.003C166.137 205.256 166.914 203.391 168.155 201.389C169.395 199.386 170.935 197.532 172.75 195.809C175.424 193.287 178.103 191.613 180.756 190.78C183.408 189.947 185.434 190.294 186.79 191.83C188.12 193.326 188.296 195.515 187.305 198.366C186.313 201.217 184.389 203.986 181.531 206.674C178.612 209.416 175.709 211.186 172.831 211.969L172.843 211.978Z" fill="#FFC700"/>
<path d="M174.285 201.508C174.285 201.508 198.695 218.59 217.614 255.922" stroke="#FFC700" stroke-width="0.72" stroke-miterlimit="10"/>
<path d="M145.976 311.829C145.481 314.816 144.32 316.715 142.495 317.548C141.275 318.108 139.921 318.011 138.446 317.265C136.97 316.52 135.564 315.294 134.247 313.562C132.92 311.842 131.859 309.875 131.063 307.661C129.87 304.423 129.469 301.404 129.804 298.623C130.162 295.839 131.338 293.993 133.322 293.076C135.264 292.189 137.36 292.591 139.568 294.29C141.775 295.989 143.529 298.571 144.786 302.043C146.081 305.586 146.48 308.829 145.985 311.816L145.976 311.829Z" fill="#FFC700"/>
<path d="M136.921 307.694C136.921 307.694 162.993 288.644 205.42 280.191" stroke="#FFC700" stroke-width="0.72" stroke-miterlimit="10"/>
</g>
<defs>
<clipPath id="clip0_49_16964">
<rect width="382" height="403.93" fill="white" transform="translate(138.821 0.420654) rotate(37.5835)"/>
</clipPath>
</defs>
</svg>
