<svg width="303" height="336" viewBox="0 0 303 336" fill="none" xmlns="http://www.w3.org/2000/svg">
<g clip-path="url(#clip0_51_17760)">
<path d="M204.967 185.502C204.967 185.502 192.44 200.381 171.044 195.231C171.044 195.231 176.669 185.004 184.725 184.312C184.725 184.312 168.162 191.901 147.397 173.217C147.397 173.217 164.94 163.756 186.286 177.844C186.286 177.844 180.721 180.189 179.708 163.63C179.708 163.63 194.575 160.893 204.971 185.509L204.967 185.502Z" fill="#008F8C"/>
<path d="M300.314 162.564C300.314 162.564 311.665 180.928 298.822 201.706C298.822 201.706 289.986 192.236 292.051 183.497C292.051 183.497 294.319 203.587 267.425 219.014C267.425 219.014 263.522 197.239 285.772 179.615C285.772 179.615 286.317 186.298 268.502 181.625C268.502 181.625 270.768 164.997 300.314 162.564Z" fill="#008F8C"/>
<path d="M338.192 96.796C338.192 96.796 256.749 206.963 126.161 212.382" stroke="#005245" stroke-width="2" stroke-linecap="round" stroke-linejoin="round"/>
<path d="M176.526 179.61C176.526 179.61 209.178 195.404 236.201 180.905" stroke="#005245" stroke-width="0.79" stroke-linecap="round" stroke-linejoin="round"/>
<path d="M311.286 126.801C311.286 126.801 310.06 158.439 279.425 201.564" stroke="#005245" stroke-linecap="round" stroke-linejoin="round"/>
<path d="M205.084 237.884C205.084 237.884 230.634 209.019 239.673 178.58" stroke="#005245" stroke-linecap="round" stroke-linejoin="round"/>
<path d="M138.985 230.082C138.985 230.082 116.756 211.265 135.712 193.935C135.712 193.935 157.038 207.227 138.985 230.082Z" fill="#FFC700"/>
<path d="M143.669 224.353C143.669 224.353 148.249 210.56 142.203 195.733C142.203 195.733 168.184 195.934 169.504 209.135C170.831 222.332 143.669 224.353 143.669 224.353Z" fill="#005245"/>
<path d="M70.2959 289.004C70.2959 289.004 139.565 289.544 145.845 212.213C145.845 212.213 116.495 255.378 64.6391 251.22L78.083 269.866L70.2959 289.004Z" fill="#E30F26"/>
<path d="M83.6711 280.174C83.6711 280.174 131.145 267.348 142.348 221.676C142.348 221.676 127.07 251.268 83.9408 254.888" stroke="#FF5635" stroke-linecap="round" stroke-linejoin="round"/>
<path d="M86.9378 270.731C86.9378 270.731 126.279 260.824 141.485 223.517C141.485 223.517 127.949 256.438 88.7106 260.375" stroke="#FF5635" stroke-linecap="round" stroke-linejoin="round"/>
<path d="M59.8516 144.509C59.8516 144.509 128.283 133.717 145.94 209.263C145.94 209.263 110.523 170.924 59.851 182.712L70.9355 163.589L59.8516 144.509Z" fill="#E30F26"/>
<path d="M71.21 152.344C71.21 152.344 120.281 155.497 140.332 198.031C140.332 198.031 119.489 172.055 76.496 177.076" stroke="#FF5635" stroke-linecap="round" stroke-linejoin="round"/>
<path d="M76.2768 160.956C76.2768 160.956 116.806 162.857 139.112 196.398C139.112 196.398 119.312 166.811 80.0663 170.753" stroke="#FF5635" stroke-linecap="round" stroke-linejoin="round"/>
<path d="M145.407 211.319C145.407 211.319 107.815 237.532 58.9183 234.954L64.0999 211.987L53.9098 194.303C53.9098 194.303 101.599 184.842 145.407 211.319Z" fill="#E30F26"/>
<path d="M67.6878 229.167C67.6878 229.167 109.499 229.889 136.791 211.717C136.791 211.717 114.563 196.411 65.3136 198.537" stroke="#FF5635" stroke-linecap="round" stroke-linejoin="round"/>
<path d="M69.2128 223.397C69.2128 223.397 118.182 221.996 136.787 211.71C136.787 211.71 96.152 201.757 69.0662 204.468" stroke="#FF5635" stroke-linecap="round" stroke-linejoin="round"/>
<path d="M72.0541 213.295C72.0541 213.295 113.692 215.783 136.791 211.717" stroke="#FF5635" stroke-linecap="round" stroke-linejoin="round"/>
<path d="M196.436 238.624L209.577 249.488C209.577 249.488 195.47 275.86 167.792 277.03C167.792 277.03 173.511 250.687 196.443 238.62L196.436 238.624Z" fill="#E30F26"/>
<path d="M202.22 250.927C195.305 266.707 172.868 273.456 172.868 273.456C172.868 273.456 177.284 255.102 194.63 244.643" stroke="#FF5635" stroke-linecap="round" stroke-linejoin="round"/>
<path d="M194.262 250.724C194.262 250.724 189.886 259.248 172.868 273.456" stroke="#FF5635" stroke-linecap="round" stroke-linejoin="round"/>
<path d="M196.436 238.624L209.577 249.488C209.577 249.488 219.742 238.691 214.193 226.825C214.193 226.825 205.036 223.345 196.443 238.62L196.436 238.624Z" fill="#005245"/>
</g>
<defs>
<clipPath id="clip0_51_17760">
<rect width="181.162" height="330.392" fill="white" transform="translate(101.406 335.06) rotate(-124.039)"/>
</clipPath>
</defs>
</svg>
