<svg width="502" height="335" viewBox="0 0 502 335" fill="none" xmlns="http://www.w3.org/2000/svg">
<g clip-path="url(#clip0_49_17023)">
<path d="M300.605 209.53C300.605 209.53 268.581 219.922 241.863 192.769C241.863 192.769 259.488 182.894 271.957 189.251C271.957 189.251 240.676 185.239 227.274 138.78C227.274 138.78 261.707 140.941 280.171 181.179C280.171 181.179 269.849 179.53 283.519 154.276C283.519 154.276 307.867 163.863 300.606 209.544L300.605 209.53Z" fill="#008F8C"/>
<path d="M461.679 263.115C461.679 263.115 461.545 300.483 423.656 319.253C423.656 319.253 419.345 297.251 430.379 286.303C430.379 286.303 415.318 317.894 361.686 315.938C361.686 315.938 375.886 280.375 424.707 274.851C424.707 274.851 419.39 285.169 397.495 261.996C397.495 261.996 416.045 239.641 461.679 263.115Z" fill="#008F8C"/>
<path d="M577.533 201.168C577.533 201.168 357.033 288.461 160.223 176.88" stroke="#005245" stroke-width="2" stroke-linecap="round" stroke-linejoin="round"/>
<path d="M264.217 174.838C264.217 174.838 297.728 227.932 350.701 231.369" stroke="#005245" stroke-width="0.79" stroke-linecap="round" stroke-linejoin="round"/>
<path d="M510.537 220.619C510.537 220.619 479.774 265.976 395.29 301.288" stroke="#005245" stroke-linecap="round" stroke-linejoin="round"/>
<path d="M252.826 286.592C252.826 286.592 316.786 267.575 357.929 231.131" stroke="#005245" stroke-linecap="round" stroke-linejoin="round"/>
<path d="M162.861 214.622C162.861 214.622 147.428 166.628 191.142 158.521C191.142 158.521 210.305 197.572 162.861 214.622Z" fill="#FFC700"/>
<path d="M174.986 210.493C174.986 210.493 194.342 194.423 199.032 167.106C199.032 167.106 237.017 191.184 226.872 211.786C216.74 232.388 174.986 210.493 174.986 210.493Z" fill="#005245"/>
<path d="M8.00892 238.306C8.00892 238.306 109.279 302.509 189.296 194.651C189.296 194.651 106.664 231.197 34.2874 177.617L36.969 217.318L8.00892 238.306Z" fill="#E30F26"/>
<path d="M35.742 237.577C35.742 237.577 117.228 262.193 175.496 205.351C175.496 205.351 125.963 234.839 59.2858 200.676" stroke="#FF5635" stroke-linecap="round" stroke-linejoin="round"/>
<path d="M49.1858 226.694C49.1858 226.694 116.052 248.154 172.543 207.266C172.543 207.266 122.521 243.239 61.2698 213.104" stroke="#FF5635" stroke-linecap="round" stroke-linejoin="round"/>
<path d="M124.939 16.4643C124.939 16.4643 235.352 63.252 192.136 190.402C192.136 190.402 175.201 101.657 89.967 72.5877L123.757 54.6412L124.939 16.4643Z" fill="#E30F26"/>
<path d="M134.454 38.3719C134.454 38.3719 203.658 87.9248 194.18 168.769C194.18 168.769 187.338 111.527 119.579 79.5454" stroke="#FF5635" stroke-linecap="round" stroke-linejoin="round"/>
<path d="M134.014 55.6629C134.014 55.6629 191.817 95.5568 193.882 165.252C193.882 165.252 191.877 103.66 130.613 73.525" stroke="#FF5635" stroke-linecap="round" stroke-linejoin="round"/>
<path d="M189.471 192.936C189.471 192.936 110.248 197.033 40.7728 148.484L69.4096 119.486L70.6277 84.178C70.6277 84.178 149.349 113.935 189.471 192.936Z" fill="#E30F26"/>
<path d="M58.954 148.01C58.954 148.01 119.718 187.347 176.449 185.633C176.449 185.633 157.805 142.798 83.505 100.838" stroke="#FF5635" stroke-linecap="round" stroke-linejoin="round"/>
<path d="M66.4763 140.929C66.4763 140.929 139.7 183.698 176.448 185.619C176.448 185.619 125.863 133.798 83.5888 112.986" stroke="#FF5635" stroke-linecap="round" stroke-linejoin="round"/>
<path d="M79.8981 128.689C79.8981 128.689 138.792 170.461 176.449 185.633" stroke="#FF5635" stroke-linecap="round" stroke-linejoin="round"/>
<path d="M239.443 279.764L248.804 307.753C248.804 307.753 203.938 333.583 162.204 309.965C162.204 309.965 194.722 276.499 239.457 279.763L239.443 279.764Z" fill="#E30F26"/>
<path d="M236.679 303.132C212.074 319.984 172.933 309.36 172.933 309.36C172.933 309.36 196.222 286.439 231.281 286.952" stroke="#FF5635" stroke-linecap="round" stroke-linejoin="round"/>
<path d="M225.172 295.549C225.172 295.549 210.941 304.067 172.933 309.36" stroke="#FF5635" stroke-linecap="round" stroke-linejoin="round"/>
<path d="M239.443 279.764L248.804 307.753C248.804 307.753 273.621 301.196 276.333 278.684C276.333 278.684 266.064 265.189 239.457 279.763L239.443 279.764Z" fill="#005245"/>
</g>
<defs>
<clipPath id="clip0_49_17023">
<rect width="313.589" height="571.905" fill="white" transform="translate(11.5535 334.446) rotate(-92.1114)"/>
</clipPath>
</defs>
</svg>
