<svg width="1855" height="663" viewBox="0 0 1855 663" fill="none" xmlns="http://www.w3.org/2000/svg">
<g clip-path="url(#clip0_140_458)">
<path d="M142.266 304.667C142.266 304.667 118.746 387.027 177.2 420.787" stroke="#7FBEBF" stroke-width="1.2" stroke-miterlimit="10"/>
<path d="M224.119 295.987C224.119 295.987 123.239 507.933 173.252 601.16" stroke="#7FBEBF" stroke-width="2.41333" stroke-miterlimit="10"/>
<path d="M297.96 347.853C297.96 347.853 265.187 416.493 191.48 378.907" stroke="#7FBEBF" stroke-width="1.2" stroke-miterlimit="10"/>
<path d="M261.173 309.093C261.173 309.093 240.24 349.92 203.2 343.04" stroke="#7FBEBF" stroke-width="1.2" stroke-miterlimit="10"/>
<path d="M59.9193 329.107C59.9193 329.107 26.1727 483.493 159.306 517.067" stroke="#7FBEBF" stroke-width="2.41333" stroke-miterlimit="10"/>
<path d="M102.4 323.213C102.4 323.213 93.1066 386.76 55.9999 390.493C55.9999 390.493 -13.6401 389.267 15.1199 302.933" stroke="#7FBEBF" stroke-width="1.2" stroke-miterlimit="10"/>
<path d="M132.64 404.48C132.64 404.48 117.107 461.813 77.8398 460.2" stroke="#7FBEBF" stroke-width="1.2" stroke-miterlimit="10"/>
<path d="M296.12 425.213C296.12 425.213 254.333 496.24 168.946 459" stroke="#7FBEBF" stroke-width="1.2" stroke-miterlimit="10"/>
<path d="M327.36 433.187C327.36 433.187 299.987 470.373 272.04 450.493" stroke="#7FBEBF" stroke-width="1.2" stroke-miterlimit="10"/>
<path d="M8.84016 300.72L0.333496 278.2L6.90683 277.88L11.5202 300.387L10.6268 277.573L16.1468 278.267L13.8268 300.48L18.2402 276.24L24.7068 278.227L17.2802 301.147L25.3468 280.733L30.9602 283.013L20.6802 302.053L32.2668 284.92L35.6268 287.893L23.3202 303.8C23.3202 303.8 19.2002 306.587 8.84016 300.707V300.72Z" fill="#FFC700"/>
<path d="M8.84013 300.72C8.84013 300.72 7.05346 309.32 14.6935 310.853C22.3335 312.373 23.3201 303.827 23.3201 303.827L8.84013 300.733V300.72Z" fill="#7FBEBF"/>
<path d="M95.8402 316.44L87.3335 293.933L93.9068 293.613L98.5202 316.12L97.6268 293.307L103.147 294L100.827 316.213L105.24 291.973L111.707 293.96L104.28 316.88L112.347 296.467L117.96 298.747L107.68 317.787L119.267 300.653L122.627 303.627L110.32 319.533C110.32 319.533 106.2 322.32 95.8402 316.44Z" fill="#FFC700"/>
<path d="M95.8401 316.44C95.8401 316.44 94.0535 325.04 101.693 326.573C109.333 328.106 110.32 319.546 110.32 319.546L95.8401 316.453V316.44Z" fill="#7FBEBF"/>
<path d="M215.8 291.16L212.84 258.2L221.667 260.2L219.48 291.72L226.707 261.16L233.76 264.12L222.507 292.693L237.293 262.2L245.133 267.227L226.84 294.853L245.04 270.773L251.64 275.867L230.987 297.307L252.667 278.88L256.013 284.053L233.853 300.6C233.853 300.6 227.373 302.773 215.813 291.16H215.8Z" fill="#FFC700"/>
<path d="M215.8 291.16C215.8 291.16 210.267 301.907 219.813 306.733C229.373 311.573 233.84 300.6 233.84 300.6L215.8 291.16Z" fill="#7FBEBF"/>
<path d="M67.2934 323.667L87.2001 305.387L80.7734 301.747L64.7734 321.987L77.2001 299.56L71.3067 297.467L62.4001 320.907L70.2267 294.36L62.7334 293.093L58.6001 319.827L60.8267 295.28L54.0401 294.733L54.7334 319.027L51.7734 295.987L46.9067 297.28L51.2001 319.44C51.2001 319.44 53.9201 324.32 67.2801 323.653L67.2934 323.667Z" fill="#FFC700"/>
<path d="M67.2933 323.667C67.2933 323.667 64.7333 333.2 56.3066 330.867C47.88 328.533 51.2133 319.453 51.2133 319.453L67.2933 323.667Z" fill="#7FBEBF"/>
<path d="M149.76 304.147L169.666 285.867L163.24 282.227L147.24 302.467L159.666 280.04L153.773 277.947L144.866 301.387L152.693 274.84L145.2 273.573L141.066 300.307L143.306 275.76L136.52 275.213L137.213 299.507L134.24 276.467L129.373 277.76L133.666 299.92C133.666 299.92 136.386 304.8 149.746 304.133L149.76 304.147Z" fill="#FFC700"/>
<path d="M149.76 304.147C149.76 304.147 147.2 313.68 138.773 311.347C130.346 309.013 133.68 299.933 133.68 299.933L149.76 304.147Z" fill="#7FBEBF"/>
<path d="M264.36 318.693L285.506 306.56L280.573 302.08L262.48 316.707L277.866 299.453L273.106 296.44L260.613 315.293L272.773 293.493L266.426 290.88L257.48 313.587L264.32 292.44L258.466 290.613L254.253 312.12L256.226 291.267L251.693 291.427L251.066 311.787C251.066 311.787 252.493 316.613 264.386 318.68L264.36 318.693Z" fill="#FFC700"/>
<path d="M264.36 318.693C264.36 318.693 260.213 326.573 253.266 322.84C246.32 319.12 251.053 311.787 251.053 311.787L264.373 318.68L264.36 318.693Z" fill="#7FBEBF"/>
<path d="M338.773 430.747L359.92 418.613L354.987 414.133L336.893 428.76L352.28 411.507L347.52 408.493L335.027 427.347L347.187 405.547L340.84 402.933L331.893 425.64L338.733 404.493L332.88 402.667L328.667 424.173L330.64 403.32L326.107 403.48L325.48 423.84C325.48 423.84 326.907 428.667 338.8 430.733L338.773 430.747Z" fill="#FFC700"/>
<path d="M338.773 430.747C338.773 430.747 334.627 438.627 327.68 434.893C320.733 431.173 325.467 423.84 325.467 423.84L338.787 430.733L338.773 430.747Z" fill="#7FBEBF"/>
<path d="M302.12 427.133L323.267 415L318.333 410.52L300.24 425.147L315.627 407.893L310.867 404.88L298.373 423.733L310.533 401.933L304.187 399.32L295.24 422.027L302.08 400.88L296.227 399.053L292.013 420.56L293.987 399.707L289.453 399.867L288.827 420.227C288.827 420.227 290.253 425.053 302.147 427.12L302.12 427.133Z" fill="#FFC700"/>
<path d="M302.12 427.133C302.12 427.133 297.973 435.013 291.027 431.28C284.08 427.56 288.813 420.227 288.813 420.227L302.133 427.12L302.12 427.133Z" fill="#7FBEBF"/>
<path d="M288.653 349.373L283.813 325.48L290.44 326.227L291.387 349.48L294.2 326.533L299.6 328.133L293.68 349.96L302.04 326.44L308.187 329.48L297.027 351.187L308.4 332.093L313.64 335.293L300.267 352.653L314.64 337.413L317.507 340.933L302.627 354.84C302.627 354.84 298.053 356.96 288.653 349.387V349.373Z" fill="#FFC700"/>
<path d="M288.653 349.373C288.653 349.373 285.467 357.68 292.853 360.453C300.24 363.213 302.627 354.827 302.627 354.827L288.653 349.373Z" fill="#7FBEBF"/>
<path d="M118.973 421.467L114.133 397.573L120.76 398.32L121.707 421.573L124.52 398.627L129.92 400.227L124 422.053L132.36 398.533L138.507 401.573L127.347 423.28L138.72 404.187L143.96 407.387L130.587 424.747L144.96 409.507L147.827 413.027L132.947 426.933C132.947 426.933 128.373 429.053 118.973 421.48V421.467Z" fill="#FFC700"/>
<path d="M118.973 421.467C118.973 421.467 115.787 429.773 123.173 432.547C130.56 435.307 132.947 426.92 132.947 426.92L118.973 421.467Z" fill="#7FBEBF"/>
<path d="M512.307 487.72C512.307 487.72 472.054 442.773 519.934 389.333C519.934 389.333 539.054 450.253 512.307 487.72Z" fill="#7FBEBF"/>
<path d="M621.507 489.933C621.507 489.933 637.533 436.973 708.213 404.733C708.213 404.733 702.014 487.44 621.507 489.933Z" fill="#7FBEBF"/>
<path d="M303.374 333.68C303.374 333.68 402.32 383.506 407.054 434.866C407.054 434.866 312.614 424.186 303.374 333.68Z" fill="#7FBEBF"/>
<path d="M333.134 155.133C333.134 155.133 296.894 218.04 387.627 305.4C387.627 305.4 362.147 169.08 333.134 155.133Z" fill="#7FBEBF"/>
<path d="M498.907 214.573C498.907 214.573 491.32 115.68 529.614 64.4798C529.614 64.4798 568.334 162.08 498.907 214.573Z" fill="#7FBEBF"/>
<path d="M439.107 125.147C439.107 125.147 519.467 396.187 387.627 661.933" stroke="#008F8C" stroke-width="2.66667" stroke-miterlimit="10"/>
<path d="M528.174 85.1466C528.174 85.1466 541.947 177.773 460.227 269.12" stroke="#008F8C" stroke-width="1.33333" stroke-miterlimit="10"/>
<path d="M334.894 175.813C334.894 175.813 366.2 327 459.094 378.56" stroke="#008F8C" stroke-width="1.33333" stroke-miterlimit="10"/>
<path d="M517.947 406.12C517.947 406.12 501.387 482.787 522.6 535.347" stroke="#008F8C" stroke-width="1.17333" stroke-miterlimit="10"/>
<path d="M561.28 497.707C561.28 497.707 645.694 510.76 699.24 423.853" stroke="#008F8C" stroke-width="1.33333" stroke-miterlimit="10"/>
<path d="M312.64 350.72C312.64 350.72 368.96 453.933 453.92 437.533" stroke="#008F8C" stroke-width="1.33333" stroke-miterlimit="10"/>
<path d="M421.374 585.96C426.387 582.587 570.547 552.56 601.44 408.16" stroke="#008F8C" stroke-width="2.66667" stroke-miterlimit="10"/>
<path d="M332.466 61.7734C330.88 59.4267 331.333 56.5601 333.613 55.0267C335.893 53.4934 338.546 54.1734 340.24 56.5467C341.826 58.8934 341.44 61.7201 339.08 63.2934C336.72 64.8667 333.973 64.1601 332.466 61.7734Z" fill="#FFC700"/>
<path d="M336.6 59.72C336.6 59.72 361.44 77.2 392.693 108.547" stroke="#FFC700" stroke-width="0.666667" stroke-miterlimit="10"/>
<path d="M437.666 6.53329C438.493 3.82663 441 2.37329 443.626 3.17329C446.266 3.98663 447.4 6.46663 446.613 9.27996C445.786 11.9866 443.36 13.4666 440.64 12.64C438 11.8266 436.746 9.22663 437.653 6.54663L437.666 6.53329Z" fill="#FFC700"/>
<path d="M441.867 8.45326C441.867 8.45326 443.947 38.7599 439.307 82.7733" stroke="#FFC700" stroke-width="0.666667" stroke-miterlimit="10"/>
<path d="M374.627 29.6933C373.733 27.0133 374.92 24.3733 377.533 23.4933C380.147 22.6133 382.507 23.9866 383.507 26.72C384.4 29.4133 383.28 32.0266 380.6 32.92C377.987 33.8 375.44 32.4 374.627 29.6933Z" fill="#FFC700"/>
<path d="M379.16 28.8133C379.16 28.8133 398.453 52.2666 420.253 90.8" stroke="#FFC700" stroke-width="0.666667" stroke-miterlimit="10"/>
<path d="M438.306 128.773C438.306 128.773 353.666 99.1466 349.893 36.2266C349.893 36.2266 388.413 41.6 427.306 100.533C427.306 100.533 386.426 49.48 412.519 0.666618C412.519 0.666618 464.573 41.3066 438.306 128.773Z" fill="#E30F26"/>
<path d="M440.386 131.507C440.386 131.507 358.853 168.88 324.573 77.5066C324.573 77.5066 391.066 75.4533 434.986 117.693C434.986 117.693 417.719 40.0933 480.946 1.46659C480.946 1.46659 506.279 85.2799 440.399 131.52L440.386 131.507Z" fill="#FF5635"/>
<path d="M440.333 133.96C440.333 133.96 425.173 151.427 398.546 147.52C398.546 147.52 416.693 121.507 441.999 129.947C441.999 129.947 451.106 105.64 481.079 108.027C481.079 108.027 473.813 134 440.346 133.96H440.333Z" fill="#7FBEBF"/>
<path d="M529.199 331.093C528.439 328.667 529.559 326.32 531.919 325.573C534.279 324.84 536.386 326.107 537.226 328.573C537.986 331 536.933 333.333 534.506 334.093C532.146 334.827 529.893 333.533 529.199 331.093Z" fill="#FFC700"/>
<path d="M533.293 330.387C533.293 330.387 550.213 351.787 569.12 386.76" stroke="#FFC700" stroke-width="0.6" stroke-miterlimit="10"/>
<path d="M633.893 310.427C635.293 308.307 637.826 307.693 639.893 309.067C641.959 310.44 642.293 312.867 640.906 315.08C639.506 317.2 637.026 317.853 634.906 316.44C632.839 315.067 632.426 312.507 633.893 310.427Z" fill="#FFC700"/>
<path d="M637.026 313.147C637.026 313.147 631.066 339.773 615.812 376.48" stroke="#FFC700" stroke-width="0.6" stroke-miterlimit="10"/>
<path d="M573.693 314.253C573.599 311.707 575.306 309.747 577.773 309.653C580.253 309.573 581.933 311.347 582.093 313.96C582.186 316.507 580.546 318.467 577.999 318.56C575.519 318.64 573.693 316.8 573.679 314.253H573.693Z" fill="#FFC700"/>
<path d="M577.826 314.653C577.826 314.653 588.452 339.787 597.359 378.52" stroke="#FFC700" stroke-width="0.6" stroke-miterlimit="10"/>
<path d="M603.2 415.84C603.2 415.84 537.893 368.693 550.733 313.56C550.733 313.56 582.52 328.026 600.946 388.706C600.946 388.706 578.8 334.293 613.746 298.946C613.746 298.946 648.173 347.24 603.2 415.84Z" fill="#E30F26"/>
<path d="M604.294 418.72C604.294 418.72 524.547 430.053 518.374 342.626C518.374 342.626 576.147 357.866 603.16 405.44C603.16 405.44 608.134 334.213 672.44 317.106C672.44 317.106 672.827 395.746 604.28 418.706L604.294 418.72Z" fill="#FF5635"/>
<path d="M603.627 420.813C603.627 420.813 586.107 431.973 564.173 421.8C564.173 421.8 586.44 404.04 606.08 417.773C606.08 417.773 620.133 399.173 645.333 408.893C645.333 408.893 632.44 429.4 603.627 420.813Z" fill="#7FBEBF"/>
<path d="M1190.97 495.307C1190.97 495.307 1136.45 513.773 1130.29 539.867C1130.29 539.867 1179.67 541.213 1190.97 495.307Z" fill="#7FBEBF"/>
<path d="M1188.59 401.28C1188.59 401.28 1202.68 436.28 1149.67 474.653C1149.67 474.653 1172.65 406.36 1188.59 401.28Z" fill="#7FBEBF"/>
<path d="M1098.99 419.853C1098.99 419.853 1110.05 369.52 1094.05 340.4C1094.05 340.4 1067.07 387.813 1098.99 419.853Z" fill="#7FBEBF"/>
<path d="M1136.23 378.173C1136.23 378.173 1075.25 511.827 1123.84 658.107" stroke="#008F8C" stroke-width="2.50667" stroke-miterlimit="10"/>
<path d="M1093.29 351.147C1093.29 351.147 1079.51 397.813 1114.93 450.733" stroke="#008F8C" stroke-width="1.25333" stroke-miterlimit="10"/>
<path d="M1186.17 411.787C1186.17 411.787 1159.12 487.32 1107.59 507.12" stroke="#008F8C" stroke-width="1.25333" stroke-miterlimit="10"/>
<path d="M1184.96 503.4C1184.96 503.4 1148.51 552.44 1105.97 537.84" stroke="#008F8C" stroke-width="1.25333" stroke-miterlimit="10"/>
<path d="M1192.17 353.587C1191.08 352.6 1191.08 351.12 1192.07 350.027C1193.11 348.933 1194.52 348.76 1195.59 349.72C1196.65 350.68 1196.68 352.187 1195.69 353.28C1194.75 354.4 1193.24 354.547 1192.17 353.587Z" fill="#FFC700"/>
<path d="M1193.71 351.933C1193.71 351.933 1179.65 359.133 1161.31 372.987" stroke="#FFC700" stroke-width="0.626667" stroke-miterlimit="10"/>
<path d="M1143.57 320.16C1142.12 320.387 1140.97 319.453 1140.75 318C1140.55 316.493 1141.31 315.307 1142.73 315.08C1144.15 314.853 1145.33 315.787 1145.56 317.24C1145.83 318.693 1145 319.933 1143.59 320.16H1143.57Z" fill="#FFC700"/>
<path d="M1143.25 317.92C1143.25 317.92 1139.99 333.36 1139.19 356.347" stroke="#FFC700" stroke-width="0.626667" stroke-miterlimit="10"/>
<path d="M1173.01 334.96C1171.69 334.307 1171.31 332.88 1171.96 331.56C1172.67 330.227 1173.99 329.693 1175.27 330.333C1176.55 330.973 1176.97 332.413 1176.31 333.733C1175.69 335.067 1174.28 335.6 1173 334.96H1173.01Z" fill="#FFC700"/>
<path d="M1174.05 332.947C1174.05 332.947 1162.43 343.613 1148.43 361.867" stroke="#FFC700" stroke-width="0.626667" stroke-miterlimit="10"/>
<path d="M1136.37 380.093C1136.37 380.093 1182.08 370.973 1188.57 338.88C1188.57 338.88 1168.36 338.853 1144.08 366.36C1144.08 366.36 1168.81 343.053 1158.92 316.04C1158.92 316.04 1129.2 333.173 1136.37 380.093Z" fill="#E30F26"/>
<path d="M1135.11 381.347C1135.11 381.347 1174.36 406.48 1198.61 361.947C1198.61 361.947 1164.55 356.08 1138.89 374.627C1138.89 374.627 1153.4 335.947 1123.67 311.493C1123.67 311.493 1104.56 352.787 1135.12 381.347H1135.11Z" fill="#FF5635"/>
<path d="M1134.96 382.613C1134.96 382.613 1141.49 392.693 1155.48 392.613C1155.48 392.613 1148.03 377.907 1134.4 380.427C1134.4 380.427 1131.47 367.267 1115.88 366.32C1115.88 366.32 1117.73 380.213 1134.96 382.613Z" fill="#7FBEBF"/>
<path d="M1391.2 301.866C1391.2 301.866 1476.96 438.84 1271.11 617.573" stroke="#005245" stroke-width="1.33333" stroke-miterlimit="10"/>
<path d="M1359.73 520.08C1359.73 520.08 1326.48 478.36 1344.8 415.12C1344.8 415.12 1375.84 454.84 1359.73 520.08Z" fill="#005245"/>
<path opacity="0.3" d="M1359.73 520.08C1359.73 520.08 1352.51 476.64 1344.8 415.12C1344.8 415.12 1375.84 454.84 1359.73 520.08Z" fill="#7FBEBF"/>
<path d="M1446.37 486.653C1446.37 486.653 1417.29 531.373 1351.49 533.96C1351.49 533.96 1379.37 491.96 1446.37 486.653Z" fill="#005245"/>
<path opacity="0.3" d="M1446.37 486.653C1446.37 486.653 1407.44 507.227 1351.49 533.96C1351.49 533.96 1379.37 491.96 1446.37 486.653Z" fill="#7FBEBF"/>
<path d="M1420.57 555.453C1420.57 555.453 1382.05 582.013 1327.81 562.133C1327.81 562.133 1364.45 537.387 1420.57 555.453Z" fill="#005245"/>
<path opacity="0.3" d="M1420.57 555.453C1420.57 555.453 1382.12 559.133 1327.81 562.133C1327.81 562.133 1364.45 537.387 1420.57 555.453Z" fill="#7FBEBF"/>
<path d="M1267 429.707C1267 429.707 1255.68 329.933 1346.59 325.853L1381.75 294.813L1391.2 301.867L1359.97 334.32C1359.97 334.32 1362.95 405.8 1267 429.707Z" fill="#FF90A3"/>
<path d="M1274.16 409.08C1274.16 409.08 1281.95 351.907 1341.15 339.547C1341.15 339.547 1343.93 392.707 1284.93 413.213" stroke="#E30F26" stroke-width="0.96" stroke-miterlimit="10"/>
<path d="M1290.12 396.96C1290.12 396.96 1363.68 311.52 1399.29 289.067" stroke="#E30F26" stroke-width="0.96" stroke-miterlimit="10"/>
<path d="M1467.44 472.493C1467.44 472.493 1371.73 442.093 1405.13 357.44L1391.15 312.68L1401.44 306.92L1418.32 348.68C1418.32 348.68 1484.79 375.147 1467.44 472.493Z" fill="#FF90A3"/>
<path d="M1451.52 457.533C1451.52 457.533 1402.51 427.08 1415.4 368C1415.4 368 1465.07 387.16 1459.69 449.387" stroke="#E30F26" stroke-width="0.96" stroke-miterlimit="10"/>
<path d="M1446.97 438.013C1446.97 438.013 1399 335.987 1393.05 294.307" stroke="#E30F26" stroke-width="0.96" stroke-miterlimit="10"/>
<path d="M1574.21 302.667C1574.21 302.667 1506.33 376.667 1443.61 310.72L1397.12 304.547L1396.24 292.787L1441.21 295.067C1441.21 295.067 1493.21 245.92 1574.2 302.667H1574.21Z" fill="#FF90A3"/>
<path d="M1553.95 310.787C1553.95 310.787 1505.68 342.427 1457.52 305.84C1457.52 305.84 1495.81 268.867 1550 299.947" stroke="#E30F26" stroke-width="0.96" stroke-miterlimit="10"/>
<path d="M1534.32 306.693C1534.32 306.693 1421.57 307.227 1381.27 295.067" stroke="#E30F26" stroke-width="0.96" stroke-miterlimit="10"/>
<path d="M1454.6 124.146C1454.6 124.146 1501.75 212.8 1418.68 249.96L1397.37 291.733L1385.99 288.64L1403.12 246.987C1403.12 246.987 1374.11 181.586 1454.6 124.133V124.146Z" fill="#FF90A3"/>
<path d="M1455.52 145.973C1455.52 145.973 1469.27 202.013 1418.73 235.24C1418.73 235.24 1396.63 186.813 1443.99 146.08" stroke="#E30F26" stroke-width="0.96" stroke-miterlimit="10"/>
<path d="M1445.12 163.107C1445.12 163.107 1408.07 269.587 1383.16 303.547" stroke="#E30F26" stroke-width="0.96" stroke-miterlimit="10"/>
<path d="M1255.47 183.173C1255.47 183.173 1355.01 170.013 1360.77 260.84L1392.45 295.413L1385.57 305L1352.55 274.373C1352.55 274.373 1281.13 278.667 1255.45 183.173H1255.47Z" fill="#FF90A3"/>
<path d="M1276.23 189.946C1276.23 189.946 1333.53 196.68 1346.97 255.64C1346.97 255.64 1293.88 259.413 1272.28 200.786" stroke="#E30F26" stroke-width="0.96" stroke-miterlimit="10"/>
<path d="M1288.64 205.68C1288.64 205.68 1375.43 277.653 1398.53 312.84" stroke="#E30F26" stroke-width="0.96" stroke-miterlimit="10"/>
<path d="M1366.31 315.813C1361.27 309.347 1359.15 302.16 1359.95 294.227C1360.48 288.947 1362.43 284.2 1365.77 280.013C1369.13 275.813 1373.31 272.68 1378.32 270.6C1383.33 268.533 1388.48 267.747 1393.76 268.28C1401.51 269.053 1407.8 272.28 1412.67 277.92C1417.52 283.573 1419.52 290.707 1418.65 299.333C1417.8 307.787 1414.31 314.68 1408.17 320.013C1402.03 325.36 1394.83 327.613 1386.55 326.773C1378.09 325.92 1371.35 322.267 1366.31 315.8V315.813Z" fill="#FFC700"/>
<path d="M1375.19 308.693C1372.09 304.733 1370.8 300.32 1371.29 295.467C1371.61 292.227 1372.81 289.333 1374.87 286.76C1376.92 284.187 1379.48 282.267 1382.56 281C1385.63 279.733 1388.79 279.253 1392.01 279.587C1396.76 280.067 1400.61 282.04 1403.6 285.493C1406.57 288.96 1407.8 293.32 1407.27 298.613C1406.75 303.787 1404.6 308.013 1400.84 311.293C1397.08 314.573 1392.67 315.947 1387.6 315.44C1382.43 314.92 1378.29 312.68 1375.2 308.72L1375.19 308.693Z" fill="#FF5635"/>
<path d="M1379.39 305.333C1377.23 302.56 1376.31 299.467 1376.65 296.067C1376.88 293.8 1377.72 291.76 1379.16 289.96C1380.6 288.16 1382.4 286.813 1384.55 285.92C1386.69 285.027 1388.91 284.693 1391.17 284.92C1394.51 285.253 1397.21 286.64 1399.29 289.067C1401.37 291.493 1402.24 294.56 1401.87 298.267C1401.51 301.893 1400 304.853 1397.36 307.147C1394.72 309.44 1391.63 310.413 1388.07 310.053C1384.44 309.693 1381.53 308.12 1379.37 305.333H1379.39Z" fill="#FFC700"/>
<path d="M1367.13 214.04C1364.23 212.96 1362.61 211.4 1362.28 209.373C1362.05 208.013 1362.53 206.653 1363.72 205.28C1364.91 203.907 1366.56 202.707 1368.69 201.693C1370.83 200.68 1373.13 199.96 1375.63 199.56C1379.28 198.96 1382.47 199.12 1385.21 200.013C1387.96 200.907 1389.51 202.467 1389.87 204.68C1390.23 206.853 1389.21 208.907 1386.85 210.84C1384.49 212.787 1381.36 214.067 1377.45 214.707C1373.47 215.36 1370.03 215.147 1367.13 214.053V214.04Z" fill="#FFC700"/>
<path d="M1373.95 205.573C1373.95 205.573 1385.99 235.933 1382.55 281.013" stroke="#FFC700" stroke-width="0.96" stroke-miterlimit="10"/>
<path d="M1453.16 235.827C1452.28 232.853 1452.55 230.627 1453.97 229.147C1454.92 228.16 1456.31 227.72 1458.11 227.84C1459.92 227.96 1461.87 228.56 1463.96 229.653C1466.05 230.747 1468.01 232.16 1469.84 233.907C1472.51 236.467 1474.31 239.107 1475.24 241.84C1476.17 244.573 1475.87 246.747 1474.32 248.373C1472.8 249.96 1470.56 250.387 1467.59 249.667C1464.61 248.947 1461.71 247.213 1458.85 244.48C1455.93 241.693 1454.04 238.813 1453.16 235.84V235.827Z" fill="#FFC700"/>
<path d="M1464.03 236.173C1464.03 236.173 1447.03 264.053 1408.95 288.427" stroke="#FFC700" stroke-width="0.96" stroke-miterlimit="10"/>
<path d="M1465.36 345.08C1468.21 343.88 1470.45 343.92 1472.09 345.173C1473.19 346.013 1473.76 347.333 1473.84 349.146C1473.92 350.96 1473.53 352.96 1472.67 355.16C1471.81 357.36 1470.61 359.467 1469.07 361.467C1466.81 364.4 1464.37 366.466 1461.76 367.693C1459.15 368.906 1456.95 368.84 1455.17 367.467C1453.43 366.12 1452.76 363.933 1453.16 360.906C1453.56 357.866 1454.97 354.787 1457.37 351.667C1459.84 348.467 1462.49 346.28 1465.35 345.08H1465.36Z" fill="#FFC700"/>
<path d="M1466.19 355.92C1466.19 355.92 1436.64 342 1408.33 306.747" stroke="#FFC700" stroke-width="0.96" stroke-miterlimit="10"/>
<path d="M1302.75 325.8C1302.2 328.84 1300.95 330.706 1299 331.4C1297.71 331.853 1296.28 331.626 1294.72 330.706C1293.16 329.786 1291.69 328.373 1290.31 326.453C1288.93 324.533 1287.81 322.386 1286.97 320.013C1285.75 316.52 1285.33 313.346 1285.73 310.493C1286.13 307.64 1287.39 305.826 1289.51 305.093C1291.57 304.36 1293.77 304.986 1296.11 306.973C1298.44 308.96 1300.25 311.813 1301.56 315.546C1302.91 319.346 1303.29 322.773 1302.75 325.826V325.8Z" fill="#FFC700"/>
<path d="M1293.2 320.6C1293.2 320.6 1320.96 303.387 1365.93 298.827" stroke="#FFC700" stroke-width="0.96" stroke-miterlimit="10"/>
<path d="M1387.68 387.987C1390.35 389.547 1391.68 391.36 1391.65 393.413C1391.64 394.787 1390.93 396.053 1389.53 397.2C1388.13 398.347 1386.29 399.253 1384.01 399.88C1381.73 400.52 1379.33 400.827 1376.81 400.8C1373.12 400.76 1370 400.067 1367.44 398.707C1364.89 397.347 1363.63 395.547 1363.65 393.307C1363.68 391.107 1365.03 389.253 1367.68 387.76C1370.35 386.253 1373.65 385.52 1377.6 385.573C1381.64 385.613 1384.99 386.427 1387.67 387.987H1387.68Z" fill="#FFC700"/>
<path d="M1379.52 395.173C1379.52 395.173 1372.87 363.2 1384 319.387" stroke="#FFC700" stroke-width="0.96" stroke-miterlimit="10"/>
<path d="M734.12 400.28C734.12 400.28 731.24 339.24 654.08 335.787C654.08 335.787 671.933 406.613 734.12 400.28Z" fill="#008F8C"/>
<path d="M770.973 487.8C770.973 487.8 740.454 433.68 672.507 460.16C672.507 460.16 714.547 508.533 770.973 487.8Z" fill="#008F8C"/>
<path d="M787.093 412.947C787.093 412.947 764.067 361.707 825.093 328.307C825.093 328.307 834.307 390.493 787.093 412.947Z" fill="#008F8C"/>
<path d="M752.294 241.36C752.294 241.36 685.174 385.88 855.614 563.227" stroke="#005245" stroke-width="2.66667" stroke-miterlimit="10"/>
<path d="M680.573 352.48C680.573 352.48 743.907 399.693 781.92 466.493C781.92 466.493 775.013 413.52 811.867 352.48" stroke="#005245" stroke-width="1.33333" stroke-miterlimit="10"/>
<path d="M693.24 463.04C693.24 463.04 762.333 463.04 822.226 527.533" stroke="#005245" stroke-width="1.33333" stroke-miterlimit="10"/>
<path d="M748.186 239.24C748.186 239.24 716.813 208.427 744.266 156.32C744.266 156.32 772.84 193.293 748.186 239.24Z" fill="white"/>
<path d="M752.293 241.36C752.293 241.36 742.52 198.48 793.747 169.44C793.747 169.44 797.84 215.987 752.293 241.36Z" fill="white"/>
<path d="M751.146 240.44C751.146 240.44 771.346 201.387 829.226 212.267C829.226 212.267 802.306 250.467 751.146 240.44Z" fill="white"/>
<path d="M750.333 244.987C750.333 244.987 788.426 223.013 831.266 263.413C831.266 263.413 787.986 281.04 750.333 244.987Z" fill="white"/>
<path d="M747.907 241.467C747.907 241.467 762.187 283.053 714.333 317.387C714.333 317.387 705.307 271.533 747.907 241.467Z" fill="white"/>
<path d="M745.173 237.747C745.173 237.747 734.746 280.467 675.933 283.533C675.933 283.533 693.093 240.067 745.173 237.747Z" fill="white"/>
<path d="M749.84 242C749.84 242 793.653 245.76 805.693 303.413C805.693 303.413 760.107 293.12 749.84 242Z" fill="white"/>
<path d="M745.333 242.987C745.333 242.987 780.187 269.8 759.2 324.827C759.2 324.827 726.387 291.56 745.333 242.987Z" fill="white"/>
<path d="M745.8 239.067C745.8 239.067 710.267 264.973 663.36 229.347C663.36 229.347 704.52 207.213 745.8 239.067Z" fill="white"/>
<path d="M748.56 235.373C748.56 235.373 704.666 238 684.413 182.693C684.413 182.693 731 186.28 748.56 235.373Z" fill="white"/>
<g opacity="0.5">
<path d="M747.96 239.6C747.96 239.6 724.934 216.987 745.08 178.733C745.08 178.733 766.054 205.88 747.96 239.6Z" fill="#FFE0A9"/>
<path d="M750.96 241.147C750.96 241.147 743.787 209.68 781.387 188.36C781.387 188.36 784.387 222.533 750.96 241.147Z" fill="#FFE0A9"/>
<path d="M750.12 240.48C750.12 240.48 764.947 211.813 807.427 219.8C807.427 219.8 787.667 247.84 750.12 240.48Z" fill="#FFE0A9"/>
<path d="M749.52 243.813C749.52 243.813 777.48 227.68 808.933 257.347C808.933 257.347 777.16 270.28 749.52 243.813Z" fill="#FFE0A9"/>
<path d="M747.747 241.227C747.747 241.227 758.227 271.76 723.107 296.947C723.107 296.947 716.48 263.293 747.747 241.227Z" fill="#FFE0A9"/>
<path d="M745.747 238.493C745.747 238.493 738.093 269.853 694.92 272.107C694.92 272.107 707.507 240.2 745.747 238.493Z" fill="#FFE0A9"/>
<path d="M749.173 241.627C749.173 241.627 781.333 244.387 790.173 286.707C790.173 286.707 756.72 279.147 749.173 241.627Z" fill="#FFE0A9"/>
<path d="M745.853 242.347C745.853 242.347 771.44 262.027 756.026 302.427C756.026 302.427 731.946 278 745.853 242.347Z" fill="#FFE0A9"/>
<path d="M746.2 239.467C746.2 239.467 720.12 258.48 685.693 232.333C685.693 232.333 715.907 216.093 746.2 239.467Z" fill="#FFE0A9"/>
<path d="M748.227 236.76C748.227 236.76 716 238.68 701.133 198.093C701.133 198.093 735.333 200.733 748.227 236.76Z" fill="#FFE0A9"/>
</g>
<path d="M749.974 251.413C747.227 251.867 744.774 251.28 742.6 249.627C740.427 247.973 739.12 245.747 738.654 242.947C738.174 240.08 738.694 237.653 740.187 235.667C741.694 233.68 743.72 232.467 746.294 232.04C748.04 231.747 749.787 231.893 751.507 232.48C753.227 233.067 754.694 234.027 755.907 235.347C757.12 236.68 757.867 238.213 758.16 239.973C758.6 242.6 758.04 245.053 756.507 247.32C754.96 249.587 752.787 250.96 749.987 251.427L749.974 251.413Z" fill="#FF5635"/>
<path d="M1776.27 412.907C1776.27 412.907 1759.71 353.64 1832.39 325.907C1832.39 325.907 1837.73 399.28 1776.27 412.907Z" fill="#008F8C"/>
<path d="M1768.73 508.253C1768.73 508.253 1780.79 446.84 1854.13 450.666C1854.13 450.666 1829.25 510.213 1768.73 508.253Z" fill="#008F8C"/>
<path d="M1729.63 441.787C1729.63 441.787 1735.43 385.493 1666.51 372.88C1666.51 372.88 1677.37 435.253 1729.63 441.787Z" fill="#008F8C"/>
<path d="M1708.6 266.706C1708.6 266.706 1818.52 383.653 1711.68 607.173" stroke="#005245" stroke-width="2.52" stroke-miterlimit="10"/>
<path d="M1812.35 350.253C1812.35 350.253 1766.73 415.44 1751.53 491.333C1751.53 491.333 1741.37 438.493 1686.83 391.8" stroke="#005245" stroke-width="1.25333" stroke-miterlimit="10"/>
<path d="M1835.23 459.973C1835.23 459.973 1769.16 481.84 1732.31 562.453" stroke="#005245" stroke-width="1.25333" stroke-miterlimit="10"/>
<path d="M1711.85 263.387C1711.85 263.387 1732.09 224 1689.36 182.867C1689.36 182.867 1673.75 227.267 1711.85 263.387Z" fill="white"/>
<path d="M1708.6 266.707C1708.6 266.707 1704.37 222.613 1646.2 211.067C1646.2 211.067 1657.03 256.867 1708.6 266.707Z" fill="white"/>
<path d="M1709.41 265.467C1709.41 265.467 1677.73 234.52 1625.84 263.24C1625.84 263.24 1663.67 291.24 1709.41 265.467Z" fill="white"/>
<path d="M1711.63 269.546C1711.63 269.546 1668.25 260.586 1640.07 312.786C1640.07 312.786 1687.03 315.946 1711.63 269.546Z" fill="white"/>
<path d="M1712.83 265.413C1712.83 265.413 1712.33 309.707 1768.95 327.387C1768.95 327.387 1763.07 280.693 1712.83 265.413Z" fill="white"/>
<path d="M1714.25 261C1714.25 261 1737.75 298.547 1794.95 282.867C1794.95 282.867 1764.79 246.733 1714.25 261Z" fill="white"/>
<path d="M1711.15 266.547C1711.15 266.547 1670.44 284.013 1677.17 342.947C1677.17 342.947 1717.49 318.68 1711.15 266.547Z" fill="white"/>
<path d="M1715.77 266.053C1715.77 266.053 1690.93 302.72 1728.43 348.693C1728.43 348.693 1749.27 306.493 1715.77 266.053Z" fill="white"/>
<path d="M1714.08 262.467C1714.08 262.467 1756.25 275.987 1789.83 227.093C1789.83 227.093 1743.47 218.96 1714.08 262.467Z" fill="white"/>
<path d="M1710.28 259.8C1710.28 259.8 1753.08 248.413 1754.95 189.133C1754.95 189.133 1711.53 207.307 1710.28 259.8Z" fill="white"/>
<g opacity="0.5">
<path d="M1712.19 263.653C1712.19 263.653 1727.05 234.733 1695.68 204.547C1695.68 204.547 1684.21 237.133 1712.19 263.653Z" fill="#FFE0A9"/>
<path d="M1709.8 266.08C1709.8 266.08 1706.71 233.72 1664 225.24C1664 225.24 1671.95 258.867 1709.8 266.08Z" fill="#FFE0A9"/>
<path d="M1710.4 265.173C1710.4 265.173 1687.15 242.453 1649.05 263.533C1649.05 263.533 1676.81 284.093 1710.4 265.173Z" fill="#FFE0A9"/>
<path d="M1712.03 268.173C1712.03 268.173 1680.19 261.6 1659.51 299.907C1659.51 299.907 1693.97 302.227 1712.03 268.173Z" fill="#FFE0A9"/>
<path d="M1712.91 265.147C1712.91 265.147 1712.55 297.653 1754.11 310.627C1754.11 310.627 1749.79 276.347 1712.91 265.147Z" fill="#FFE0A9"/>
<path d="M1713.95 261.893C1713.95 261.893 1731.19 289.453 1773.17 277.947C1773.17 277.947 1751.04 251.427 1713.95 261.893Z" fill="#FFE0A9"/>
<path d="M1711.67 265.973C1711.67 265.973 1681.79 278.787 1686.73 322.053C1686.73 322.053 1716.33 304.24 1711.67 265.973Z" fill="#FFE0A9"/>
<path d="M1715.07 265.613C1715.07 265.613 1696.84 292.533 1724.35 326.28C1724.35 326.28 1739.64 295.307 1715.07 265.613Z" fill="#FFE0A9"/>
<path d="M1713.83 262.973C1713.83 262.973 1744.79 272.893 1769.43 237C1769.43 237 1735.4 231.027 1713.83 262.973Z" fill="#FFE0A9"/>
<path d="M1711.03 261.013C1711.03 261.013 1742.44 252.653 1743.81 209.133C1743.81 209.133 1711.95 222.48 1711.03 261.013Z" fill="#FFE0A9"/>
</g>
<path d="M1706.45 273.72C1704.25 272.04 1702.96 269.867 1702.55 267.213C1702.27 265.44 1702.51 263.733 1703.24 262.08C1703.97 260.427 1705.08 259.04 1706.53 257.947C1707.99 256.84 1709.6 256.16 1711.37 255.88C1713.97 255.48 1716.29 255.987 1718.36 257.413C1720.43 258.84 1721.68 261 1722.13 263.893C1722.57 266.72 1722.01 269.267 1720.47 271.533C1718.92 273.8 1716.76 275.147 1713.99 275.573C1711.16 276.013 1708.64 275.4 1706.45 273.707V273.72Z" fill="#FF5635"/>
<path d="M1031.89 305.347C1031.89 305.347 1023.12 274.48 1049.92 249.987C1049.92 249.987 1058.71 267.12 1052.21 278.773C1052.21 278.773 1057.13 249.12 1101.85 237.987C1101.85 237.987 1098.59 270.707 1059.61 286.88C1059.61 286.88 1061.55 277.107 1085.12 291.013C1085.12 291.013 1075.13 313.867 1031.88 305.347H1031.89Z" fill="#008F8C"/>
<path d="M975.2 456.88C975.2 456.88 939.614 455.44 923.067 418.693C923.067 418.693 944.174 415.36 954.214 426.253C954.214 426.253 924.654 410.8 928.4 359.787C928.4 359.787 961.774 374.56 965.32 421.253C965.32 421.253 955.68 415.827 978.52 395.787C978.52 395.787 999.16 414.24 975.2 456.88Z" fill="#008F8C"/>
<path d="M1030.13 569.4C1030.13 569.4 954.747 356.32 1067.92 172.787" stroke="#005245" stroke-width="2.66667" stroke-linecap="round" stroke-linejoin="round"/>
<path d="M1066.23 271.907C1066.23 271.907 1014.48 301.96 1009.35 352.293" stroke="#005245" stroke-width="1.05333" stroke-linecap="round" stroke-linejoin="round"/>
<path d="M1013.96 504.907C1013.96 504.907 971.84 474.013 941.173 392.307" stroke="#005245" stroke-width="1.33333" stroke-linecap="round" stroke-linejoin="round"/>
<path d="M960.186 257.133C960.186 257.133 976.053 318.72 1009.32 359.187" stroke="#005245" stroke-width="1.33333" stroke-linecap="round" stroke-linejoin="round"/>
<path d="M1031.88 173.96C1031.88 173.96 1078.13 160.947 1084.32 202.867C1084.32 202.867 1046.45 219.747 1031.88 173.96Z" fill="#FFC700"/>
<path d="M1035.39 185.667C1035.39 185.667 1050.01 204.667 1075.87 210.093C1075.87 210.093 1051.6 245.427 1032.33 235.04C1013.07 224.667 1035.39 185.667 1035.39 185.667Z" fill="#005245"/>
<path d="M1014.77 25.6533C1014.77 25.6533 950.066 119.853 1049.99 199.853C1049.99 199.853 1018.08 119.867 1071.65 52.8133L1033.75 53.9733L1014.77 25.6533Z" fill="#E30F26"/>
<path d="M1014.48 52.0932C1014.48 52.0932 988.173 128.84 1040.27 186.333C1040.27 186.333 1013.92 138.12 1048.8 75.8132" stroke="#FF5635" stroke-width="1.33333" stroke-linecap="round" stroke-linejoin="round"/>
<path d="M1024.37 65.2799C1024.37 65.2799 1001.59 128.213 1038.55 183.453C1038.55 183.453 1006.04 134.547 1036.89 77.2666" stroke="#FF5635" stroke-width="1.33333" stroke-linecap="round" stroke-linejoin="round"/>
<path d="M1221.95 144.8C1221.95 144.8 1173.51 248.32 1053.92 202.693C1053.92 202.693 1139.04 189.68 1169.72 109.52L1185.63 142.333L1221.95 144.8Z" fill="#E30F26"/>
<path d="M1200.75 153.107C1200.75 153.107 1151.12 217.28 1074.45 205.413C1074.45 205.413 1129.21 200.907 1162.05 137.493" stroke="#FF5635" stroke-width="1.33333" stroke-linecap="round" stroke-linejoin="round"/>
<path d="M1184.29 152.08C1184.29 152.08 1144.27 205.733 1077.81 205.253C1077.81 205.253 1136.55 205.507 1167.4 148.213" stroke="#FF5635" stroke-width="1.33333" stroke-linecap="round" stroke-linejoin="round"/>
<path d="M1051.61 200.067C1051.61 200.067 1050.49 124.467 1099.17 60L1125.79 88.2933L1159.37 90.6933C1159.37 90.6933 1128.27 164.627 1051.61 200.067Z" fill="#E30F26"/>
<path d="M1098.99 77.3467C1098.99 77.3467 1059.39 133.84 1059.03 187.933C1059.03 187.933 1100.48 171.68 1143.05 102.387" stroke="#FF5635" stroke-width="1.33333" stroke-linecap="round" stroke-linejoin="round"/>
<path d="M1105.45 84.7599C1105.45 84.7599 1062.15 153 1059.03 187.933C1059.03 187.933 1110.16 141.573 1131.47 102.04" stroke="#FF5635" stroke-width="1.33333" stroke-linecap="round" stroke-linejoin="round"/>
<path d="M1116.64 97.9733C1116.64 97.9733 1074.79 152.6 1059.01 187.933" stroke="#FF5635" stroke-width="1.33333" stroke-linecap="round" stroke-linejoin="round"/>
<path d="M967.146 244.627L940.16 252.56C940.16 252.56 917.133 208.92 941.093 170C941.093 170 971.826 202.147 967.146 244.64V244.627Z" fill="#E30F26"/>
<path d="M944.986 241.173C929.8 217.146 941.293 180.24 941.293 180.24C941.293 180.24 962.306 203.226 960.586 236.6" stroke="#FF5635" stroke-width="1.33333" stroke-linecap="round" stroke-linejoin="round"/>
<path d="M952.613 230.48C952.613 230.48 945 216.627 941.293 180.24" stroke="#FF5635" stroke-width="1.33333" stroke-linecap="round" stroke-linejoin="round"/>
<path d="M967.146 244.626L940.16 252.56C940.16 252.56 945.533 276.426 966.88 279.8C966.88 279.8 980.093 270.493 967.146 244.64V244.626Z" fill="#005245"/>
<path d="M1587.39 577.733C1587.39 577.733 1619.61 463.8 1578.47 344.573" stroke="#7FBEBF" stroke-width="1.33333" stroke-miterlimit="10"/>
<path d="M1593.01 399.813C1593.01 399.813 1611.11 330.8 1561.51 307.467C1561.51 307.467 1554.24 361.947 1593.01 399.813Z" fill="#7FBEBF"/>
<path d="M1596.73 431.853C1596.73 431.853 1657.65 406.773 1647.25 357.24C1647.25 357.24 1603.07 382.213 1596.73 431.853Z" fill="#7FBEBF"/>
<path d="M1597.19 432.267C1597.19 432.267 1538.39 414.4 1538.36 365.12C1538.36 365.12 1582.28 384.666 1597.19 432.267Z" fill="#7FBEBF"/>
<path d="M1600.05 488.587C1600.05 488.587 1656.76 465.24 1647.07 419.147C1647.07 419.147 1605.93 442.387 1600.05 488.587Z" fill="#7FBEBF"/>
<path d="M1600.48 488.973C1600.48 488.973 1545.75 472.347 1545.73 426.48C1545.73 426.48 1586.61 444.68 1600.48 488.973Z" fill="#7FBEBF"/>
<path d="M1593.93 545.4C1593.93 545.4 1653.61 531.307 1651.32 484.253C1651.32 484.253 1607.04 500.707 1593.93 545.4Z" fill="#7FBEBF"/>
<path d="M1594.29 545.853C1594.29 545.853 1542.88 520.8 1550.09 475.493C1550.09 475.493 1587.59 499.907 1594.29 545.853Z" fill="#7FBEBF"/>
<path d="M891.44 598.173C891.44 598.173 923.666 484.24 882.52 365.013" stroke="#7FBEBF" stroke-width="1.33333" stroke-miterlimit="10"/>
<path d="M897.067 420.253C897.067 420.253 915.16 351.24 865.56 327.907C865.56 327.907 858.293 382.387 897.067 420.253Z" fill="#7FBEBF"/>
<path d="M900.787 452.293C900.787 452.293 961.707 427.213 951.307 377.68C951.307 377.68 907.12 402.653 900.787 452.293Z" fill="#7FBEBF"/>
<path d="M901.24 452.707C901.24 452.707 842.44 434.84 842.414 385.56C842.414 385.56 886.334 405.107 901.24 452.707Z" fill="#7FBEBF"/>
<path d="M904.12 509.026C904.12 509.026 960.827 485.68 951.133 439.587C951.133 439.587 910 462.826 904.12 509.026Z" fill="#7FBEBF"/>
<path d="M904.533 509.413C904.533 509.413 849.8 492.787 849.787 446.92C849.787 446.92 890.667 465.12 904.533 509.413Z" fill="#7FBEBF"/>
<path d="M897.987 565.84C897.987 565.84 957.667 551.747 955.374 504.693C955.374 504.693 911.093 521.147 897.987 565.84Z" fill="#7FBEBF"/>
<path d="M898.346 566.293C898.346 566.293 846.933 541.24 854.146 495.933C854.146 495.933 891.64 520.346 898.346 566.293Z" fill="#7FBEBF"/>
<path d="M208.973 594.853C208.973 594.853 241.2 480.92 200.053 361.693" stroke="#7FBEBF" stroke-width="1.33333" stroke-miterlimit="10"/>
<path d="M214.587 416.946C214.587 416.946 232.68 347.933 183.08 324.6C183.08 324.6 175.814 379.08 214.587 416.946Z" fill="#7FBEBF"/>
<path d="M218.306 448.973C218.306 448.973 279.226 423.893 268.826 374.36C268.826 374.36 224.639 399.333 218.306 448.973Z" fill="#7FBEBF"/>
<path d="M218.759 449.386C218.759 449.386 159.959 431.52 159.933 382.24C159.933 382.24 203.853 401.786 218.759 449.386Z" fill="#7FBEBF"/>
<path d="M221.64 505.72C221.64 505.72 278.347 482.373 268.653 436.28C268.653 436.28 227.52 459.52 221.64 505.72Z" fill="#7FBEBF"/>
<path d="M222.066 506.107C222.066 506.107 167.333 489.48 167.32 443.613C167.32 443.613 208.2 461.813 222.066 506.107Z" fill="#7FBEBF"/>
<path d="M215.506 562.533C215.506 562.533 275.186 548.44 272.893 501.387C272.893 501.387 228.613 517.84 215.506 562.533Z" fill="#7FBEBF"/>
<path d="M215.866 562.973C215.866 562.973 164.453 537.92 171.666 492.613C171.666 492.613 209.16 517.027 215.866 562.973Z" fill="#7FBEBF"/>
</g>
<defs>
<clipPath id="clip0_140_458">
<rect width="1853.8" height="661.853" fill="white" transform="translate(0.333496 0.666603)"/>
</clipPath>
</defs>
</svg>
