<svg width="612" height="450" viewBox="0 0 612 450" fill="none" xmlns="http://www.w3.org/2000/svg">
<g clip-path="url(#clip0_33_158)">
<path d="M197.866 125.13L192.686 74.8011L238.388 55.8096L246.508 7.34174L293.187 -15.5186L303.325 -61.8585L353.401 -68.1579L374.944 -24.3236L423.858 -12.9459L443.313 28.0483L491.874 38.9966L500.299 87.7645L451.085 109.902L444.756 159.888L400.334 178.66L390.357 230.972L340.742 236.645L315.376 187.862L269.654 181.025L249.445 133.531L197.834 125.123L197.866 125.13ZM195.832 76.6644L200.561 122.588L251.555 130.9L271.75 178.364L317.323 185.176L342.459 233.495L387.912 228.298L397.778 176.572L442.091 157.844L448.413 107.891L497.042 86.0183L489.324 41.4277L441.276 30.5878L421.809 -10.4156L372.919 -21.775L351.677 -64.9759L305.727 -59.2004L295.745 -13.5045L249.155 9.31434L241.017 57.8991L195.832 76.6644Z" fill="#858585"/>
<path d="M87.0655 211.722L80.1331 177.196L116.272 143.393L163.094 156.742L197.689 123.303L192.898 76.7494L159.344 62.8746L160.474 60.1571L195.629 74.7047L200.75 124.424L163.909 160.03L117.055 146.674L83.3289 178.219L89.9333 211.154L87.0655 211.722Z" fill="#858585"/>
<path d="M497.338 87.79L488.997 39.576L518.671 17.1362L520.442 19.4803L492.189 40.8392L500.003 85.9929L538.628 110.079L568.947 94.8402L570.27 97.4651L538.481 113.446L497.338 87.79Z" fill="#858585"/>
<path d="M335.673 392.492L319.394 365.767L340.622 322.135L316.279 276.638L340.707 233.695L389.786 228.083L408.147 251.012L405.862 252.849L388.502 231.184L342.514 236.442L319.635 276.682L343.913 322.072L322.737 365.614L338.18 390.963L335.673 392.492Z" fill="#858585"/>
<path d="M85.9929 172.675L48.1558 162.722L47.4097 165.559L85.2469 175.512L85.9929 172.675Z" fill="#858585"/>
<path d="M83.1327 181.517L46.5837 172.087L45.851 174.927L82.4 184.357L83.1327 181.517Z" fill="#858585"/>
<path d="M321.723 360.257L283.486 358L283.313 360.928L321.55 363.184L321.723 360.257Z" fill="#858585"/>
<path d="M324.577 369.915L284.107 368.715L284.02 371.647L324.49 372.846L324.577 369.915Z" fill="#858585"/>
<path d="M566.646 87.8952L543.863 99.3505L545.18 101.971L567.964 90.5155L566.646 87.8952Z" fill="#858585"/>
<path d="M325.452 0.117567L295.183 -15.8264L293.816 -13.2315L324.086 2.71245L325.452 0.117567Z" fill="#858585"/>
<path d="M341.508 26.6458L338.601 27.0328L343.249 61.9484L346.156 61.5614L341.508 26.6458Z" fill="#858585"/>
<path d="M256.468 13.7441L253.57 13.293L247.676 51.1548L250.574 51.6059L256.468 13.7441Z" fill="#858585"/>
<path d="M419.764 -4.74199L417.079 -3.56207L430.595 27.1951L433.28 26.0152L419.764 -4.74199Z" fill="#858585"/>
<path d="M351.471 112.709L348.547 112.939L350.348 135.803L353.271 135.573L351.471 112.709Z" fill="#858585"/>
<path d="M240.81 55.8863L238.588 57.8001L261.084 83.9245L263.307 82.0108L240.81 55.8863Z" fill="#858585"/>
<path d="M202.881 83.0093L199.972 83.3806L204.015 115.062L206.924 114.691L202.881 83.0093Z" fill="#858585"/>
<path d="M265.676 105.128L263.052 103.819L249.211 131.558L251.835 132.867L265.676 105.128Z" fill="#858585"/>
<path d="M257.893 104.136L255.206 102.96L246.86 122.021L249.546 123.198L257.893 104.136Z" fill="#858585"/>
<path d="M312.012 177.735L278.576 172.584L278.13 175.483L311.566 180.634L312.012 177.735Z" fill="#858585"/>
<path d="M336.524 166.327L315.383 185.451L317.351 187.626L338.492 168.502L336.524 166.327Z" fill="#858585"/>
<path d="M379.813 222.154L348.081 225.647L348.402 228.563L380.134 225.069L379.813 222.154Z" fill="#858585"/>
<path d="M399.593 176.282L368.031 163.197L366.907 165.907L398.47 178.992L399.593 176.282Z" fill="#858585"/>
<path d="M433.825 154.12L403.013 166.91L404.138 169.619L434.95 156.829L433.825 154.12Z" fill="#858585"/>
<path d="M443.584 29.9901L440.969 28.6624L425.946 58.2524L428.561 59.5801L443.584 29.9901Z" fill="#858585"/>
<path d="M486.015 48.031L483.13 48.5571L488.769 79.4874L491.654 78.9614L486.015 48.031Z" fill="#858585"/>
<path d="M431.057 85.0313L428.837 86.9486L448.643 109.875L450.862 107.958L431.057 85.0313Z" fill="#858585"/>
<path d="M437.989 80.4799L435.714 82.3313L449.97 99.8462L452.245 97.9948L437.989 80.4799Z" fill="#858585"/>
<path d="M299.425 87.2977L292.896 88.2551L293.321 91.1569L299.85 90.1995L299.425 87.2977Z" fill="#858585"/>
<path d="M313.339 85.2452L306.375 86.2714L306.803 89.1729L313.766 88.1467L313.339 85.2452Z" fill="#858585"/>
<path d="M326.817 83.2528L320.288 84.2148L320.716 87.1163L327.244 86.1543L326.817 83.2528Z" fill="#858585"/>
<path d="M373.957 78.3453L367.429 79.3073L367.856 82.2088L374.385 81.2468L373.957 78.3453Z" fill="#858585"/>
<path d="M387.882 76.2978L380.918 77.3239L381.346 80.2254L388.309 79.1993L387.882 76.2978Z" fill="#858585"/>
<path d="M401.373 74.3151L394.844 75.2726L395.269 78.1744L401.799 77.217L401.373 74.3151Z" fill="#858585"/>
<path d="M521.738 15.8462C520.2 14.6236 519.107 13.1934 518.447 11.526C517.787 9.85852 517.609 8.12541 517.906 6.33812C518.203 4.55083 518.98 2.86507 520.221 1.30379C521.462 -0.257486 522.902 -1.36136 524.576 -2.05375C526.25 -2.74613 527.969 -2.95314 529.743 -2.68625C531.516 -2.41937 533.167 -1.66887 534.706 -0.446225C536.072 0.639556 537.093 1.90049 537.759 3.34806C538.426 4.79563 538.71 6.27647 538.593 7.81356C538.488 9.35977 537.987 10.8156 537.103 12.2109L534.405 10.0667C534.903 9.133 535.18 8.17254 535.213 7.18765C535.247 6.20277 535.047 5.27588 534.632 4.38403C534.208 3.50365 533.575 2.72013 532.749 2.06318C531.716 1.242 530.617 0.762272 529.439 0.594256C528.253 0.437721 527.092 0.601724 525.981 1.10452C524.848 1.60968 523.855 2.41212 522.979 3.51419C522.103 4.61627 521.546 5.76543 521.309 6.98227C521.072 8.19912 521.163 9.35767 521.593 10.467C522.013 11.5879 522.749 12.5474 523.771 13.3595C524.62 14.0347 525.526 14.4738 526.48 14.6883C527.433 14.9029 528.39 14.8769 529.331 14.6128C530.271 14.3488 531.135 13.8742 531.941 13.1663L534.639 15.3105C533.468 16.4776 532.14 17.2765 530.657 17.7279C529.175 18.1792 527.659 18.2481 526.119 17.9232C524.579 17.5983 523.122 16.909 521.768 15.8324L521.738 15.8462Z" fill="#858585"/>
<path d="M545.577 8.73718L548.252 10.8631L543.033 17.4297L551.069 23.8166L556.288 17.2501L558.962 19.376L546.535 35.0117L543.86 32.8858L549.079 26.3192L541.043 19.9323L535.824 26.4988L533.15 24.3729L545.577 8.73718Z" fill="#858585"/>
<path d="M575.302 93.0909C573.763 91.8683 572.671 90.4381 572.011 88.7707C571.35 87.1032 571.173 85.3701 571.47 83.5828C571.766 81.7955 572.544 80.1098 573.785 78.5485C575.026 76.9872 576.465 75.8833 578.139 75.1909C579.814 74.4986 581.533 74.2916 583.306 74.5585C585.08 74.8253 586.731 75.5758 588.269 76.7985C589.636 77.8842 590.656 79.1452 591.323 80.5928C591.989 82.0403 592.274 83.5212 592.157 85.0583C592.052 86.6045 591.551 88.0603 590.666 89.4556L587.969 87.3114C588.467 86.3777 588.744 85.4172 588.777 84.4323C588.811 83.4475 588.611 82.5206 588.196 81.6287C587.771 80.7483 587.139 79.9648 586.313 79.3079C585.279 78.4867 584.181 78.007 583.003 77.8389C581.816 77.6824 580.656 77.8464 579.544 78.3492C578.412 78.8544 577.419 79.6568 576.543 80.7589C575.667 81.861 575.109 83.0101 574.873 84.227C574.636 85.4438 574.727 86.6024 575.156 87.7117C575.577 88.8326 576.313 89.7921 577.334 90.6042C578.184 91.2794 579.09 91.7185 580.043 91.933C580.997 92.1475 581.954 92.1216 582.894 91.8575C583.835 91.5935 584.699 91.1189 585.505 90.411L588.203 92.5552C587.032 93.7223 585.704 94.5213 584.221 94.9726C582.738 95.4239 581.223 95.4928 579.683 95.1679C578.142 94.843 576.686 94.1537 575.331 93.0771L575.302 93.0909Z" fill="#858585"/>
<path d="M599.141 85.9819L601.815 88.1078L596.596 94.6744L604.632 101.061L609.851 94.4947L612.526 96.6207L600.099 112.256L597.424 110.13L602.643 103.564L594.607 97.177L589.388 103.744L586.713 101.618L599.141 85.9819Z" fill="#858585"/>
<path d="M415.103 276.433C413.564 275.211 412.472 273.781 411.812 272.113C411.151 270.446 410.974 268.713 411.271 266.925C411.567 265.138 412.345 263.452 413.586 261.891C414.827 260.33 416.266 259.226 417.941 258.533C419.615 257.841 421.334 257.634 423.107 257.901C424.881 258.168 426.532 258.918 428.071 260.141C429.437 261.227 430.458 262.488 431.124 263.935C431.79 265.383 432.075 266.864 431.958 268.401C431.853 269.947 431.352 271.403 430.467 272.798L427.77 270.654C428.268 269.72 428.545 268.76 428.578 267.775C428.612 266.79 428.412 265.863 427.997 264.971C427.572 264.091 426.94 263.307 426.114 262.65C425.08 261.829 423.982 261.349 422.804 261.181C421.617 261.025 420.457 261.189 419.345 261.692C418.213 262.197 417.22 262.999 416.344 264.101C415.468 265.203 414.91 266.353 414.674 267.569C414.437 268.786 414.528 269.945 414.957 271.054C415.378 272.175 416.114 273.135 417.135 273.947C417.985 274.622 418.891 275.061 419.844 275.276C420.798 275.49 421.755 275.464 422.695 275.2C423.636 274.936 424.5 274.461 425.306 273.753L428.004 275.898C426.833 277.065 425.505 277.864 424.022 278.315C422.539 278.766 421.024 278.835 419.484 278.51C417.944 278.186 416.487 277.496 415.132 276.42L415.103 276.433Z" fill="#858585"/>
<path d="M438.93 269.315L441.605 271.441L436.386 278.008L444.422 284.395L449.641 277.828L452.316 279.954L439.889 295.59L437.214 293.464L442.433 286.897L434.397 280.51L429.178 287.077L426.503 284.951L438.93 269.315Z" fill="#858585"/>
<path d="M121.014 17.1814L123.689 19.3073L118.47 25.8739L126.506 32.2608L131.725 25.6943L134.4 27.8202L121.973 43.456L119.298 41.33L124.517 34.7635L116.481 28.3765L111.262 34.9431L108.587 32.8171L121.014 17.1814Z" fill="#858585"/>
<path d="M144.588 61.9734C143.05 60.7508 141.957 59.3206 141.297 57.6532C140.637 55.9857 140.459 54.2526 140.756 52.4653C141.053 50.678 141.83 48.9923 143.071 47.431C144.312 45.8697 145.752 44.7658 147.426 44.0735C149.1 43.3811 150.819 43.1741 152.593 43.4409C154.366 43.7078 156.017 44.4583 157.556 45.681C158.922 46.7668 159.943 48.0277 160.609 49.4753C161.276 50.9228 161.56 52.4037 161.443 53.9408C161.338 55.487 160.837 56.9428 159.953 58.3381L157.255 56.1939C157.753 55.2602 158.03 54.2997 158.063 53.3149C158.097 52.33 157.897 51.4031 157.482 50.5112C157.058 49.6309 156.425 48.8473 155.599 48.1904C154.566 47.3692 153.467 46.8895 152.289 46.7215C151.103 46.5649 149.942 46.7289 148.831 47.2317C147.698 47.7369 146.705 48.5393 145.829 49.6414C144.953 50.7435 144.396 51.8926 144.159 53.1095C143.922 54.3263 144.013 55.4849 144.443 56.5942C144.863 57.7151 145.599 58.6746 146.621 59.4867C147.47 60.1619 148.376 60.601 149.329 60.8155C150.283 61.0301 151.24 61.0041 152.181 60.74C153.121 60.476 153.985 60.0014 154.791 59.2935L157.489 61.4377C156.318 62.6048 154.99 63.4037 153.507 63.8551C152.025 64.3064 150.509 64.3753 148.969 64.0504C147.429 63.7255 145.972 63.0362 144.618 61.9596L144.588 61.9734Z" fill="#858585"/>
<path d="M23.5628 173.426C22.0245 172.203 20.9183 170.743 20.235 169.058C19.5518 167.372 19.3606 165.609 19.6343 163.804C19.9079 161.998 20.6676 160.335 21.8902 158.797C23.1129 157.259 24.5636 156.164 26.2585 155.469C27.9556 154.795 29.707 154.595 31.5125 154.868C33.3181 155.142 34.9809 155.902 36.5192 157.124C38.0575 158.347 39.1637 159.807 39.847 161.493C40.5211 163.19 40.7214 164.941 40.4477 166.747C40.1741 168.552 39.4144 170.215 38.1918 171.753C36.9691 173.292 35.5092 174.398 33.8235 175.081C32.1378 175.764 30.375 175.955 28.5695 175.682C26.7639 175.408 25.1011 174.649 23.5628 173.426ZM25.5519 170.923C26.5851 171.744 27.6951 172.233 28.914 172.397C30.1329 172.56 31.3165 172.414 32.4715 171.927C33.6379 171.449 34.6248 170.679 35.4825 169.6C36.3402 168.521 36.8564 167.376 37.07 166.141C37.2722 164.897 37.1585 163.72 36.7243 162.57C36.2901 161.419 35.5518 160.439 34.5301 159.627C33.5084 158.815 32.3869 158.317 31.168 158.154C29.9491 157.99 28.777 158.145 27.622 158.632C26.467 159.119 25.4801 159.889 24.6225 160.968C23.7648 162.048 23.2371 163.183 23.0234 164.418C22.8098 165.653 22.9235 166.83 23.3577 167.98C23.7919 169.131 24.5302 170.111 25.5519 170.923Z" fill="#858585"/>
<path d="M83.9876 236.193C82.4493 234.97 81.3431 233.511 80.6598 231.825C79.9766 230.139 79.7854 228.376 80.0591 226.571C80.3328 224.765 81.0924 223.102 82.315 221.564C83.5377 220.026 84.9885 218.931 86.6833 218.236C88.3805 217.562 90.1318 217.362 91.9373 217.636C93.7429 217.909 95.4057 218.669 96.944 219.891C98.4823 221.114 99.5885 222.574 100.272 224.26C100.946 225.957 101.146 227.708 100.873 229.514C100.599 231.319 99.8392 232.982 98.6166 234.52C97.394 236.059 95.934 237.165 94.2483 237.848C92.5627 238.532 90.7998 238.723 88.9943 238.449C87.1888 238.175 85.5259 237.416 83.9876 236.193ZM85.9767 233.69C87.0099 234.512 88.1199 235 89.3388 235.164C90.5577 235.327 91.7412 235.181 92.8962 234.694C94.0627 234.217 95.0496 233.446 95.9073 232.367C96.765 231.288 97.2812 230.144 97.4949 228.909C97.697 227.664 97.5833 226.487 97.1491 225.337C96.7149 224.186 95.9766 223.206 94.9549 222.394C93.9332 221.582 92.8117 221.084 91.5928 220.921C90.3739 220.757 89.2018 220.912 88.0468 221.399C86.8918 221.886 85.9049 222.657 85.0473 223.736C84.1896 224.815 83.6619 225.95 83.4482 227.185C83.2346 228.42 83.3483 229.597 83.7825 230.748C84.2167 231.898 84.955 232.878 85.9767 233.69Z" fill="#858585"/>
<path d="M108.527 229.641L111.202 231.767L105.983 238.333L114.019 244.72L119.238 238.153L121.913 240.279L109.485 255.915L106.811 253.789L112.03 247.223L103.994 240.836L98.7745 247.402L96.0997 245.276L108.527 229.641Z" fill="#858585"/>
<path d="M339.139 414.503C337.601 413.281 336.495 411.821 335.811 410.135C335.128 408.449 334.937 406.687 335.211 404.881C335.484 403.075 336.244 401.413 337.467 399.874C338.689 398.336 340.14 397.241 341.835 396.547C343.532 395.872 345.283 395.672 347.089 395.946C348.895 396.219 350.557 396.979 352.096 398.202C353.634 399.424 354.74 400.884 355.423 402.57C356.098 404.267 356.298 406.019 356.024 407.824C355.75 409.63 354.991 411.292 353.768 412.831C352.546 414.369 351.086 415.475 349.4 416.158C347.714 416.842 345.951 417.033 344.146 416.759C342.34 416.486 340.678 415.726 339.139 414.503ZM341.128 412.001C342.162 412.822 343.272 413.311 344.49 413.474C345.709 413.637 346.893 413.492 348.048 413.005C349.214 412.527 350.201 411.756 351.059 410.677C351.917 409.598 352.433 408.454 352.646 407.219C352.849 405.975 352.735 404.798 352.301 403.647C351.867 402.497 351.128 401.516 350.107 400.704C349.085 399.892 347.963 399.394 346.744 399.231C345.526 399.068 344.353 399.223 343.198 399.71C342.043 400.196 341.057 400.967 340.199 402.046C339.341 403.125 338.814 404.26 338.6 405.495C338.386 406.731 338.5 407.907 338.934 409.058C339.368 410.208 340.107 411.189 341.128 412.001Z" fill="#858585"/>
<path d="M363.667 407.942L366.342 410.068L361.123 416.634L369.159 423.021L374.378 416.455L377.053 418.581L364.625 434.216L361.951 432.09L367.17 425.524L359.134 419.137L353.915 425.703L351.24 423.577L363.667 407.942Z" fill="#858585"/>
<path d="M261.84 373.297C260.302 372.074 259.196 370.614 258.512 368.929C257.829 367.243 257.638 365.48 257.912 363.675C258.185 361.869 258.945 360.206 260.168 358.668C261.39 357.13 262.841 356.035 264.536 355.34C266.233 354.666 267.984 354.466 269.79 354.739C271.596 355.013 273.258 355.773 274.797 356.995C276.335 358.218 277.441 359.678 278.124 361.364C278.799 363.061 278.999 364.812 278.725 366.618C278.452 368.423 277.692 370.086 276.469 371.624C275.247 373.163 273.787 374.269 272.101 374.952C270.415 375.635 268.653 375.827 266.847 375.553C265.041 375.279 263.379 374.52 261.84 373.297ZM263.829 370.794C264.863 371.615 265.973 372.104 267.191 372.268C268.41 372.431 269.594 372.285 270.749 371.798C271.915 371.32 272.902 370.55 273.76 369.471C274.618 368.392 275.134 367.247 275.348 366.012C275.55 364.768 275.436 363.591 275.002 362.441C274.568 361.29 273.829 360.31 272.808 359.498C271.786 358.686 270.664 358.188 269.445 358.025C268.227 357.861 267.055 358.016 265.9 358.503C264.745 358.99 263.758 359.76 262.9 360.84C262.042 361.919 261.515 363.054 261.301 364.289C261.087 365.524 261.201 366.701 261.635 367.852C262.069 369.002 262.808 369.982 263.829 370.794Z" fill="#858585"/>
<path d="M334.558 -3.01764L337.394 -0.763959L336.548 17.7641L345.9 5.99707L348.403 7.98615L335.976 23.6219L333.163 21.3865L334.073 2.87197L324.702 14.6619L322.131 12.6181L334.558 -3.01764Z" fill="#858585"/>
<path d="M416.468 62.0836L419.303 64.3372L418.458 82.8653L427.81 71.0983L430.313 73.0873L417.885 88.7231L415.073 86.4876L415.983 67.9732L406.612 79.7631L404.041 77.7193L416.468 62.0836Z" fill="#858585"/>
<path d="M339.387 64.8642L343.852 68.4135L338.483 84.6199L353.036 75.7128L357.433 79.2074L345.006 94.8431L342.389 92.7628L353.091 79.2968L337.521 88.8942L334.433 86.4398L340.268 69.1051L329.565 82.5711L326.948 80.4908L339.375 64.855L339.387 64.8642Z" fill="#858585"/>
<path d="M351.503 107.668C350.16 106.601 349.121 105.55 348.364 104.499C347.619 103.457 347.192 102.463 347.086 101.535C346.98 100.608 347.229 99.776 347.804 99.0528C348.27 98.4673 348.843 98.099 349.534 97.9365C350.226 97.774 350.993 97.8219 351.825 98.0712C351.061 97.0522 350.605 96.0712 350.458 95.1487C350.31 94.2262 350.555 93.3529 351.175 92.5723C351.522 92.136 352.023 91.8596 352.689 91.7522C353.344 91.6356 353.967 91.7939 354.541 92.2501L354.656 92.3413C354.656 92.3413 354.725 92.3961 354.759 92.4235C354.794 92.4508 354.828 92.4782 354.862 92.5056C354.918 91.8939 355.163 91.3023 355.601 90.7512C356.413 89.7295 357.493 89.2199 358.821 89.2455C360.149 89.271 361.619 89.8023 363.223 90.8712L365.404 88.1275L367.746 89.9889L365.583 92.7096C366.562 93.5997 367.291 94.4974 367.77 95.4028C368.249 96.3082 368.495 97.1777 368.486 98.0136C368.466 98.8404 368.18 99.6246 367.623 100.325C367.03 101.071 366.278 101.522 365.355 101.67C364.433 101.817 363.395 101.685 362.26 101.251C361.125 100.817 359.939 100.118 358.722 99.1508C358.136 98.6855 357.659 98.2496 357.266 97.8249C356.873 97.4002 356.569 97.0278 356.355 96.7079C356.141 96.3879 355.902 96.0291 355.667 95.6176C355.533 95.3616 355.379 95.1079 355.227 94.8747C355.064 94.6325 354.885 94.4338 354.701 94.2878C354.46 94.0962 354.231 94.0077 353.972 94.0268C353.734 94.0436 353.535 94.1289 353.389 94.3126C353.078 94.7029 353.004 95.1498 353.166 95.6531C353.328 96.1564 353.662 96.7027 354.191 97.3102C354.708 97.9086 355.413 98.6003 356.295 99.3761C356.493 99.5519 356.702 99.7367 356.899 99.9124C357.117 100.086 357.335 100.259 357.553 100.432C359.524 102.055 360.838 103.605 361.489 105.097C362.14 106.588 361.972 107.953 360.996 109.182C360.394 109.939 359.601 110.395 358.634 110.527C357.668 110.658 356.564 110.492 355.34 110.006C354.115 109.519 352.837 108.747 351.505 107.689L351.503 107.668ZM353.068 105.746C353.963 106.458 354.776 106.991 355.484 107.349C356.214 107.704 356.828 107.873 357.35 107.876C357.861 107.87 358.268 107.688 358.569 107.309C359.016 106.746 359.007 106.027 358.544 105.172C358.07 104.308 357.167 103.347 355.823 102.279C354.928 101.568 354.127 101.043 353.418 100.686C352.7 100.34 352.086 100.17 351.555 100.179C351.023 100.188 350.628 100.379 350.327 100.758C350.026 101.137 349.94 101.574 350.049 102.073C350.158 102.572 350.462 103.132 350.973 103.763C351.472 104.384 352.184 105.044 353.068 105.746ZM360.179 97.2935C361.316 98.1967 362.328 98.7386 363.224 98.9075C364.131 99.0855 364.808 98.8933 365.274 98.3078C365.739 97.7223 365.773 97.0191 365.404 96.1638C365.026 95.3199 364.279 94.4451 363.154 93.551C362.029 92.6568 360.997 92.1173 360.089 91.9393C359.182 91.7612 358.495 91.965 358.03 92.5504C357.565 93.1359 357.53 93.8391 357.908 94.683C358.287 95.5269 359.043 96.3902 360.179 97.2935Z" fill="#858585"/>
<path d="M272.938 79.5795L275.773 81.8331L274.928 100.361L284.28 88.5942L286.783 90.5833L274.356 106.219L271.543 103.984L272.453 85.4691L263.082 97.259L260.511 95.2152L272.938 79.5795Z" fill="#858585"/>
<path d="M352.379 142.719L355.215 144.973L354.369 163.501L363.722 151.734L366.224 153.723L353.797 169.358L350.984 167.123L351.894 148.609L342.524 160.398L339.952 158.355L352.379 142.719Z" fill="#858585"/>
<path d="M126.805 56.4191C126.047 55.8169 125.48 55.1408 125.122 54.3885C124.744 53.6385 124.595 52.8832 124.673 52.102C124.741 51.3323 125.014 50.6123 125.513 49.9603L127.086 51.2103C126.808 51.6074 126.647 52.0224 126.616 52.4851C126.586 52.9479 126.679 53.3965 126.895 53.8309C127.123 54.2745 127.441 54.6765 127.877 55.0233C128.313 55.37 128.767 55.5998 129.249 55.7014C129.73 55.8029 130.197 55.7808 130.629 55.6374C131.071 55.4826 131.448 55.2203 131.749 54.8414C132.205 54.2674 132.378 53.6737 132.293 53.0259C132.209 52.378 131.863 51.8226 131.278 51.3573C131.037 51.1657 130.78 51.0176 130.495 50.904C130.211 50.7904 129.943 50.7271 129.679 50.7051L129.386 50.6969L129.388 49.0685L135.2 48.8737L130.16 44.8682L131.31 43.4217L138.508 49.1426L137.395 50.5431L132.643 50.7002C132.643 50.7002 132.698 50.7252 132.73 50.732C132.762 50.7388 132.776 50.7685 132.81 50.7959C132.833 50.8141 132.854 50.8118 132.888 50.8392L132.957 50.8939C133.485 51.3136 133.858 51.8346 134.084 52.4453C134.311 53.0561 134.361 53.6766 134.258 54.325C134.154 54.9735 133.897 55.556 133.478 56.0841C132.948 56.7499 132.322 57.2077 131.57 57.4711C130.829 57.7437 130.05 57.7806 129.216 57.6046C128.382 57.4286 127.606 57.0372 126.849 56.435L126.805 56.4191Z" fill="#858585"/>
<path d="M440.897 306.057C440.14 305.455 439.572 304.779 439.215 304.027C438.837 303.277 438.688 302.521 438.765 301.74C438.834 300.971 439.106 300.251 439.606 299.599L441.179 300.849C440.9 301.246 440.739 301.661 440.709 302.123C440.678 302.586 440.771 303.035 440.988 303.469C441.216 303.913 441.533 304.315 441.969 304.661C442.406 305.008 442.86 305.238 443.341 305.34C443.822 305.441 444.289 305.419 444.722 305.276C445.163 305.121 445.54 304.859 445.842 304.48C446.298 303.906 446.47 303.312 446.385 302.664C446.301 302.016 445.956 301.461 445.37 300.996C445.129 300.804 444.872 300.656 444.588 300.542C444.303 300.429 444.035 300.365 443.772 300.343L443.479 300.335L443.48 298.707L449.292 298.512L444.252 294.506L445.402 293.06L452.6 298.781L451.487 300.181L446.735 300.338C446.735 300.338 446.79 300.363 446.822 300.37C446.855 300.377 446.868 300.407 446.903 300.434C446.926 300.452 446.946 300.45 446.981 300.477L447.05 300.532C447.578 300.952 447.95 301.473 448.177 302.084C448.403 302.694 448.453 303.315 448.35 303.963C448.247 304.612 447.99 305.194 447.57 305.722C447.041 306.388 446.415 306.846 445.662 307.109C444.921 307.382 444.142 307.419 443.308 307.243C442.474 307.067 441.699 306.675 440.941 306.073L440.897 306.057Z" fill="#858585"/>
<path d="M548.685 45.6932C547.928 45.091 547.36 44.4149 547.002 43.6626C546.624 42.9126 546.476 42.1573 546.553 41.3761C546.622 40.6064 546.894 39.8864 547.394 39.2344L548.967 40.4844C548.688 40.8815 548.527 41.2965 548.496 41.7593C548.466 42.222 548.559 42.6706 548.776 43.105C549.004 43.5486 549.321 43.9506 549.757 44.2974C550.194 44.6441 550.648 44.8739 551.129 44.9755C551.61 45.077 552.077 45.0549 552.51 44.9115C552.951 44.7567 553.328 44.4944 553.629 44.1156C554.086 43.5416 554.258 42.9478 554.173 42.3C554.089 41.6521 553.743 41.0967 553.158 40.6314C552.917 40.4398 552.66 40.2917 552.376 40.1781C552.091 40.0645 551.823 40.0013 551.56 39.9792L551.266 39.971L551.268 38.3426L557.08 38.1478L552.04 34.1423L553.19 32.6958L560.388 38.4167L559.275 39.8172L554.523 39.9743C554.523 39.9743 554.578 39.9994 554.61 40.0061C554.642 40.0129 554.656 40.0426 554.691 40.07C554.714 40.0882 554.734 40.0859 554.769 40.1133L554.838 40.168C555.366 40.5877 555.738 41.1087 555.965 41.7195C556.191 42.3302 556.241 42.9507 556.138 43.5991C556.035 44.2476 555.778 44.8301 555.358 45.3582C554.829 46.024 554.203 46.4818 553.45 46.7453C552.709 47.0179 551.93 47.0547 551.096 46.8787C550.262 46.7027 549.487 46.3113 548.729 45.7091L548.685 45.6932Z" fill="#858585"/>
<path d="M598.651 117.025L604.039 117.598C604.218 117.609 604.376 117.622 604.543 117.624C604.71 117.626 604.845 117.621 604.969 117.607C604.822 117.603 604.671 117.557 604.527 117.48C604.382 117.403 604.215 117.307 604.054 117.179C603.377 116.641 602.887 116.008 602.564 115.283C602.261 114.556 602.138 113.839 602.223 113.12C602.307 112.401 602.548 111.768 602.968 111.24C603.424 110.666 604.004 110.265 604.72 110.048C605.425 109.821 606.206 109.805 607.031 109.992C607.856 110.18 608.687 110.596 609.49 111.235C610.294 111.874 610.839 112.531 611.217 113.281C611.606 114.041 611.776 114.793 611.728 115.561C611.689 116.317 611.423 117.005 610.93 117.625C610.584 118.061 610.154 118.413 609.654 118.689C609.141 118.956 608.59 119.155 607.986 119.255C607.372 119.367 606.761 119.406 606.12 119.364C606.046 119.362 605.973 119.36 605.9 119.358C605.826 119.356 605.762 119.343 605.689 119.341L601.348 118.887L606.674 123.121L605.479 124.625L597.592 118.356L598.651 117.025ZM605.487 116.295C605.946 116.66 606.412 116.899 606.907 117.03C607.393 117.173 607.842 117.174 608.267 117.063C608.693 116.951 609.043 116.724 609.326 116.368C609.608 116.012 609.761 115.608 609.773 115.169C609.785 114.729 609.683 114.292 609.434 113.85C609.197 113.418 608.848 113.01 608.377 112.635C607.906 112.261 607.452 112.032 606.978 111.898C606.494 111.776 606.043 111.754 605.617 111.866C605.192 111.977 604.833 112.216 604.55 112.572C604.267 112.928 604.124 113.32 604.112 113.76C604.099 114.2 604.201 114.637 604.45 115.078C604.678 115.521 605.028 115.93 605.475 116.286L605.487 116.295Z" fill="#858585"/>
</g>
<defs>
<clipPath id="clip0_33_158">
<rect width="450.223" height="492.353" fill="white" transform="translate(306.345 -216) rotate(38.4774)"/>
</clipPath>
</defs>
</svg>
