<svg width="667" height="965" viewBox="0 0 667 965" fill="none" xmlns="http://www.w3.org/2000/svg">
<g clip-path="url(#clip0_140_817)">
<path d="M159.508 407.515C159.508 407.515 534.803 664.466 998.226 525.284" stroke="#008F8C" stroke-width="1.38667" stroke-miterlimit="10"/>
<path d="M406.032 650.305C406.032 650.305 654.344 693.877 877.242 553.393" stroke="#008F8C" stroke-width="1.38667" stroke-miterlimit="10"/>
<path d="M456.615 357.271C456.615 357.271 554.868 504.615 709.89 566.438" stroke="#008F8C" stroke-width="1.38667" stroke-miterlimit="10"/>
<path d="M583.155 492.729C583.155 492.729 531.123 436.254 563.773 409.152C596.423 382.05 585.382 482.802 583.155 492.729Z" fill="#008F8C"/>
<path d="M584.528 490.901C584.528 490.901 514.433 522.194 499.142 482.635C483.883 443.038 575.85 485.611 584.528 490.901Z" fill="#008F8C"/>
<path d="M377.27 513.285C377.27 513.285 319.407 483.33 337.638 452.266C355.802 421.209 376.217 504.753 377.27 513.285Z" fill="#008F8C"/>
<path d="M377.809 511.401C377.809 511.401 331.004 556.693 307.344 529.569C283.684 502.446 369.385 509.713 377.809 511.401Z" fill="#008F8C"/>
<path d="M629.652 646.613C629.652 646.613 550.291 642.656 554.761 598.93C559.2 555.242 624.132 637.626 629.652 646.613Z" fill="#008F8C"/>
<path d="M629.277 644.232C629.277 644.232 600.238 718.164 560.268 700.047C520.262 681.9 619.014 646.63 629.277 644.232Z" fill="#008F8C"/>
<path d="M227.733 304.107C210.924 304.597 197.809 353.116 191.077 384.492C191.511 341.166 185.645 291.796 168.018 301.797C151.208 311.338 168.376 374.684 176.865 402.446C155.545 361.653 113.067 300.502 101.273 321.947C93.7237 335.682 123.831 367.902 147.112 389.812C115.126 362.339 76.6367 337.201 72.8422 356.403C69.6107 372.924 113.988 396.477 143.07 410.006C100.933 399.98 51.458 394.688 57.3572 414.105C62.7139 431.883 123.41 430.157 153.852 428.145C108.904 438.191 47.5834 460.083 63.8461 476.367C77.2275 489.723 131.54 458.127 156.837 442.22C123.562 472.769 86.2268 516.709 107.136 522.722C124.987 527.864 156.456 475.972 171.287 449.287C155.29 492.427 140.437 555.8 162.931 550.982C184.413 546.403 184.884 462.38 184.735 442.774C184.91 442.791 185.115 442.771 185.358 442.781C190.908 488.624 208.368 558.056 226.728 542.559C240.909 530.55 215.109 475.589 201.122 448.475C228.233 485.654 272.746 533.201 281.228 511.808C287.38 496.172 248.013 464.973 221.815 446.392C261.481 463.882 309.136 477.99 306.897 457.866C304.859 439.414 244.831 430.123 214.5 426.631C260.512 424.874 324.765 414.437 311.73 395.519C300.995 379.932 241.86 401.227 214.083 412.337C252.324 388.308 296.966 351.867 277.521 342.15C260.914 333.88 220.54 379.227 201.151 402.805C224.616 363.209 250.754 303.555 227.746 304.244L227.733 304.107ZM177.55 404.831C177.55 404.831 177.52 404.868 177.489 404.906L177.581 404.793L177.55 404.831ZM170.646 410.799C170.646 410.799 170.4 411.1 170.277 411.251C168.318 409.268 166.254 407.262 164.152 405.225C167.098 407.765 169.324 409.652 170.609 410.769L170.646 410.799ZM166.673 427.152C166.829 428.035 167.055 428.911 167.379 429.742C167.379 429.742 167.28 429.786 167.211 429.793L165.404 427.243C165.814 427.203 166.293 427.155 166.673 427.152Z" fill="#FFC700"/>
<path d="M193.988 296.497C177.975 301.537 178.47 351.784 180.508 383.811C169.14 341.999 150.143 296.071 135.857 310.508C122.264 324.255 156.006 380.572 171.694 404.996C140.145 371.468 82.6294 324.138 77.1552 347.997C73.6271 363.269 111.339 386.134 139.677 400.877C101.397 383.077 57.5422 369.318 59.0973 388.819C60.4492 405.577 109.557 416.225 141.259 421.343C97.9801 423.14 48.96 431.483 59.8825 448.606C69.8654 464.268 127.824 446.094 156.555 435.891C116.062 457.76 62.9763 495.452 83.026 506.732C99.5233 515.98 143.198 470.825 163.239 448.598C139.522 487.045 115.497 539.443 137.241 539.604C155.805 539.735 171.998 481.169 179.037 451.49C175.437 497.376 178.301 562.449 198.649 551.66C218.079 541.377 195.712 460.444 190.216 441.609C190.421 441.589 190.62 441.5 190.787 441.449C208.555 484.044 244.219 546.147 257.718 526.226C268.111 510.861 228.386 464.913 207.517 442.591C243.712 471.064 299.49 504.715 301.778 481.828C303.471 465.114 257.092 445.766 226.832 434.979C269.752 441.058 319.456 441.699 311.788 422.907C304.83 405.702 244.523 413.089 214.397 417.936C258.209 403.754 317.211 376.254 299.518 361.562C284.952 349.498 233.823 386.029 210.101 404.233C240.389 370.733 273.496 323.515 252.123 319.448C233.85 315.972 207.353 370.618 195.096 398.534C206.955 354.076 215.854 289.531 193.912 296.436L193.988 296.497ZM173.075 407.07C173.075 407.07 173.044 407.108 173.013 407.145L173.105 407.032L173.075 407.07ZM168.027 414.686C168.027 414.686 167.924 415.041 167.838 415.223C165.424 413.873 162.904 412.498 160.278 411.1C163.797 412.79 166.471 413.976 168.027 414.686ZM168.657 431.481C169.08 432.268 169.504 433.055 170.027 433.798C169.996 433.835 169.965 433.873 169.897 433.88L167.49 431.907C167.856 431.767 168.291 431.621 168.657 431.481Z" fill="#EF9900"/>
<path d="M441.73 556.439C428.916 556.81 418.875 593.833 413.757 617.795C414.07 584.74 409.638 547.042 396.131 554.701C383.312 561.981 396.366 610.328 402.889 631.514C386.672 600.372 354.23 553.668 345.252 570.067C339.487 580.552 362.447 605.154 380.201 621.842C355.808 600.906 326.436 581.671 323.538 596.328C321.059 608.94 354.933 626.9 377.135 637.242C344.939 629.582 307.234 625.577 311.707 640.368C315.784 653.955 362.148 652.612 385.347 651.075C351.043 658.72 304.271 675.441 316.661 687.859C326.86 698.042 368.305 673.938 387.651 661.763C362.259 685.072 333.771 718.602 349.67 723.211C363.291 727.148 387.303 687.498 398.62 667.171C386.449 700.122 375.082 748.503 392.263 744.799C408.668 741.275 409.011 677.196 408.907 662.215C409.081 662.232 409.218 662.218 409.355 662.205C413.583 697.159 426.93 750.21 440.92 738.358C451.756 729.202 432.082 687.244 421.392 666.54C442.068 694.926 476.068 731.217 482.532 714.894C487.221 702.961 457.189 679.163 437.196 664.976C467.472 678.352 503.845 689.121 502.143 673.71C500.57 659.6 454.791 652.56 431.656 649.876C466.759 648.542 515.813 640.542 505.847 626.088C497.657 614.221 452.523 630.4 431.329 638.923C460.497 620.594 494.629 592.758 479.765 585.352C467.083 579.042 436.319 613.661 421.484 631.607C439.386 601.405 459.322 555.837 441.791 556.364L441.73 556.439ZM403.415 633.327C403.415 633.327 403.384 633.365 403.353 633.402L403.415 633.327ZM398.13 637.857C398.13 637.857 397.945 638.083 397.853 638.196C396.359 636.72 394.79 635.183 393.146 633.584C395.378 635.539 397.077 636.994 398.092 637.827L398.13 637.857ZM395.083 650.318C395.219 650.996 395.386 651.636 395.659 652.3C395.659 652.3 395.629 652.337 395.56 652.344L394.193 650.407C394.193 650.407 394.878 650.339 395.151 650.312L395.083 650.318Z" fill="#FFC700"/>
<path d="M415.967 550.596C403.705 554.435 404.127 592.806 405.722 617.243C397.062 585.318 382.531 550.279 371.635 561.272C361.276 571.762 386.959 614.748 398.964 633.388C374.869 607.793 331.004 571.65 326.803 589.891C324.092 601.559 352.869 618.987 374.506 630.248C345.318 616.694 311.842 606.226 313.042 621.099C314.068 633.882 351.559 641.984 375.75 645.911C342.688 647.284 305.286 653.647 313.629 666.708C321.241 678.666 365.466 664.823 387.419 656.984C356.501 673.69 316.003 702.467 331.293 711.04C343.876 718.085 377.212 683.626 392.529 666.703C374.401 696.03 356.087 736.014 372.684 736.167C386.859 736.283 399.214 691.604 404.561 668.898C401.818 703.92 404.013 753.55 419.539 745.346C434.377 737.521 417.328 675.717 413.138 661.347C413.275 661.333 413.443 661.282 413.542 661.238C427.131 693.745 454.357 741.139 464.596 725.962C472.517 714.227 442.162 679.165 426.311 662.15C453.96 683.87 496.475 709.541 498.267 692.092C499.556 679.321 464.171 664.585 441.071 656.336C473.796 660.972 511.74 661.465 505.964 647.113C500.621 633.998 454.647 639.62 431.627 643.315C465.065 632.509 510.096 611.47 496.583 600.268C485.477 591.039 446.447 618.946 428.341 632.828C451.436 607.259 476.704 571.216 460.401 568.097C446.491 565.433 426.243 607.163 416.889 628.47C425.921 594.517 432.749 545.307 415.998 550.558L415.967 550.596ZM399.986 634.979C399.986 634.979 399.955 635.017 399.924 635.054L399.986 634.979ZM396.137 640.749C396.137 640.749 396.027 641.036 396.003 641.142C394.14 640.118 392.239 639.062 390.232 637.983C392.912 639.238 394.974 640.173 396.168 640.712L396.137 640.749ZM396.616 653.587C396.92 654.213 397.286 654.764 397.689 655.346L397.627 655.421L395.785 653.911C396.052 653.815 396.387 653.713 396.685 653.58L396.616 653.587Z" fill="#EF9900"/>
<path d="M489.974 285.434C480.502 285.715 473.096 313.082 469.289 330.765C469.523 306.319 466.206 278.46 456.299 284.104C446.813 289.465 456.476 325.228 461.28 340.919C449.288 317.891 425.343 283.369 418.67 295.498C414.396 303.245 431.402 321.458 444.508 333.771C426.459 318.286 404.735 304.063 402.633 314.91C400.793 324.212 425.845 337.518 442.286 345.149C418.51 339.488 390.611 336.482 393.913 347.485C396.946 357.513 431.187 356.541 448.346 355.395C423.002 361.083 388.4 373.386 397.57 382.599C405.09 390.145 435.755 372.29 450.03 363.312C431.254 380.543 410.188 405.324 421.963 408.752C432.027 411.659 449.813 382.367 458.13 367.312C449.149 391.69 440.71 427.45 453.43 424.74C465.541 422.159 465.81 374.738 465.713 363.659C465.819 363.683 465.956 363.67 466.024 363.663C469.175 389.501 479.041 428.698 489.364 419.939C497.363 413.171 482.815 382.14 474.908 366.86C490.189 387.869 515.303 414.676 520.115 402.593C523.59 393.751 501.359 376.158 486.608 365.701C509.005 375.574 535.874 383.519 534.611 372.176C533.473 361.752 499.586 356.54 482.494 354.536C508.444 353.556 544.717 347.651 537.333 336.948C531.279 328.151 497.926 340.158 482.241 346.409C503.797 332.841 529.013 312.278 518.037 306.801C508.661 302.134 485.915 327.737 474.969 341.015C488.231 318.699 502.955 285.012 489.936 285.403L489.974 285.434ZM461.659 342.298C461.659 342.298 461.659 342.298 461.628 342.336L461.69 342.26L461.659 342.298ZM457.777 345.653C457.777 345.653 457.654 345.803 457.561 345.916C456.451 344.817 455.302 343.687 454.116 342.527C455.777 343.951 457.025 345.037 457.777 345.653ZM455.55 354.889C455.635 355.399 455.789 355.902 455.973 356.367C455.973 356.367 455.942 356.405 455.874 356.412L454.835 354.995C454.835 354.995 455.314 354.947 455.557 354.958L455.55 354.889Z" fill="#FFC700"/>
<path d="M470.928 281.136C461.881 283.966 462.209 312.328 463.347 330.42C456.928 306.806 446.207 280.923 438.169 289.042C430.508 296.779 449.519 328.577 458.385 342.38C440.582 323.451 408.155 296.746 405.035 310.216C403.058 318.841 424.304 331.729 440.295 340.06C418.712 330.038 393.967 322.263 394.855 333.298C395.655 342.753 423.336 348.786 441.207 351.68C416.745 352.686 389.127 357.389 395.301 367.038C400.945 375.875 433.609 365.628 449.827 359.878C426.971 372.193 396.994 393.503 408.332 399.842C417.625 405.071 442.283 379.589 453.577 367.037C440.186 388.743 426.642 418.307 438.911 418.37C449.419 418.435 458.509 385.409 462.48 368.677C460.421 394.582 462.093 431.274 473.547 425.201C484.511 419.417 471.896 373.756 468.802 363.111C468.901 363.067 469.038 363.054 469.137 363.009C479.158 387.061 499.285 422.1 506.874 410.847C512.747 402.148 490.28 376.253 478.53 363.668C498.949 379.713 530.404 398.707 531.747 385.793C532.709 376.336 506.55 365.454 489.469 359.373C513.68 362.814 541.732 363.18 537.431 352.552C533.498 342.854 499.47 347.018 482.467 349.737C507.17 341.765 540.482 326.204 530.472 317.937C522.268 311.149 493.393 331.729 480.007 342.001C497.094 323.072 515.767 296.456 503.69 294.162C493.41 292.209 478.438 323.054 471.502 338.802C478.168 313.719 483.228 277.327 470.828 281.18L470.928 281.136ZM459.123 343.551C459.123 343.551 459.123 343.551 459.092 343.588L459.123 343.551ZM456.301 347.837C456.301 347.837 456.253 348.049 456.192 348.124C454.803 347.364 453.415 346.603 451.921 345.818C453.915 346.761 455.433 347.439 456.301 347.837ZM456.653 357.302C456.906 357.76 457.121 358.188 457.473 358.602C457.473 358.602 457.442 358.64 457.411 358.678L456.058 357.568C456.058 357.568 456.492 357.421 456.691 357.333L456.653 357.302Z" fill="#EF9900"/>
</g>
<defs>
<clipPath id="clip0_140_817">
<rect width="568" height="828" fill="white" transform="translate(0.333496 439.959) rotate(-50.6603)"/>
</clipPath>
</defs>
</svg>
