<svg width="589" height="739" viewBox="0 0 589 739" fill="none" xmlns="http://www.w3.org/2000/svg">
<g clip-path="url(#clip0_140_314)">
<path d="M297.72 372.63C297.72 372.63 174.088 548.049 -127.5 407.373" stroke="#005245" stroke-width="1.33333" stroke-miterlimit="10"/>
<path d="M26.5668 456.575C26.5668 456.575 61.0887 394.853 143.732 381.227C143.732 381.227 110.603 439.285 26.5668 456.575Z" fill="#005245"/>
<path opacity="0.3" d="M26.5667 456.575C26.5667 456.575 74.5943 424.165 143.732 381.227C143.732 381.227 110.602 439.285 26.5667 456.575Z" fill="#7FBEBF"/>
<path d="M104.199 538.884C104.199 538.884 38.6353 529.763 6.55391 454.67C6.55391 454.67 68.3769 463.896 104.199 538.884Z" fill="#005245"/>
<path opacity="0.3" d="M104.199 538.884C104.199 538.884 62.7594 504.964 6.55391 454.67C6.55391 454.67 68.3769 463.896 104.199 538.884Z" fill="#7FBEBF"/>
<path d="M11.7093 546.902C11.7093 546.902 -36.5969 516.76 -37.1081 442.721C-37.1081 442.721 8.22905 471.674 11.7093 546.902Z" fill="#005245"/>
<path opacity="0.3" d="M11.7093 546.902C11.7093 546.902 -9.60097 504.219 -37.1081 442.721C-37.1081 442.721 8.22905 471.674 11.7093 546.902Z" fill="#7FBEBF"/>
<path d="M92.1746 298.81C92.1746 298.81 204.812 230.517 249.748 334.011L301.858 357.745L297.707 372.647L245.672 354.254C245.672 354.254 162.714 397.205 92.1746 298.81Z" fill="#FF005C"/>
<path d="M119.657 295.732C119.657 295.732 190.511 273.197 231.194 335.226C231.194 335.226 169.759 367.83 119.542 310.536" stroke="#270307" stroke-width="0.96" stroke-miterlimit="10"/>
<path d="M141.006 307.591C141.006 307.591 274.206 345.935 316.403 374.962" stroke="#270307" stroke-width="0.96" stroke-miterlimit="10"/>
<path d="M130.18 555.568C130.18 555.568 123.78 427.471 238.332 419.54L284.936 378.56L296.26 387.358L254.479 430.051C254.479 430.051 252.624 521.981 130.167 555.585L130.18 555.568Z" fill="#FF005C"/>
<path d="M140.814 528.791C140.814 528.791 155.083 454.957 230.443 437.314C230.443 437.314 229.775 505.654 154.034 533.791" stroke="#270307" stroke-width="0.96" stroke-miterlimit="10"/>
<path d="M161.817 512.705C161.817 512.705 260.924 400.543 307.456 370.596" stroke="#270307" stroke-width="0.96" stroke-miterlimit="10"/>
<path d="M377.559 585.913C377.559 585.913 260.366 547.842 310.426 438.478L297.188 381.008L310.674 373.483L327.843 427.051C327.843 427.051 408.739 460.374 377.575 585.925L377.559 585.913Z" fill="#FF005C"/>
<path d="M359.019 566.853C359.019 566.853 300.427 528.191 322.299 451.969C322.299 451.969 382.792 476.078 370.052 556.262" stroke="#270307" stroke-width="0.96" stroke-miterlimit="10"/>
<path d="M355.197 541.762C355.197 541.762 304.806 410.936 301.352 357.328" stroke="#270307" stroke-width="0.96" stroke-miterlimit="10"/>
<path d="M535.236 348.185C535.236 348.185 451.516 452.012 371.049 375.927L312.384 374.224L311.003 359.28L367.657 356.205C367.657 356.205 431.961 286.331 535.223 348.202L535.236 348.185Z" fill="#FF005C"/>
<path d="M509.906 361.297C509.906 361.297 449.889 408.243 388.425 367.809C388.425 367.809 435.767 315.351 504.689 347.918" stroke="#270307" stroke-width="0.96" stroke-miterlimit="10"/>
<path d="M485.112 358.668C485.112 358.668 343.216 374.381 292.206 364.197" stroke="#270307" stroke-width="0.96" stroke-miterlimit="10"/>
<path d="M377.765 149.182C377.765 149.182 437.215 257.686 332.672 314.55L305.891 370.513L291.559 367.805L313.086 312.481C313.086 312.481 276.499 231.812 377.765 149.182Z" fill="#FF005C"/>
<path d="M378.931 177.073C378.931 177.073 396.301 247.442 332.702 295.656C332.702 295.656 304.821 235.979 364.407 178.489" stroke="#270307" stroke-width="0.96" stroke-miterlimit="10"/>
<path d="M365.868 200.201C365.868 200.201 319.311 340.898 288.015 387.227" stroke="#270307" stroke-width="0.96" stroke-miterlimit="10"/>
<path d="M270.289 351.381C275.688 341.957 283.237 335.502 292.927 332.063C299.39 329.755 305.829 329.4 312.273 330.992C318.701 332.572 324.249 335.719 328.898 340.392C333.563 345.078 336.729 350.636 338.441 357.073C340.954 366.508 339.939 375.61 335.411 384.391C330.897 393.154 323.362 399.428 312.816 403.166C302.47 406.839 292.804 406.6 283.8 402.407C274.796 398.215 268.952 391.089 266.294 380.995C263.561 370.706 264.893 360.834 270.305 351.393L270.289 351.381Z" fill="#FFC700"/>
<path d="M282.613 357.772C285.912 351.988 290.545 348.053 296.481 345.941C300.448 344.532 304.399 344.315 308.335 345.291C312.271 346.267 315.668 348.17 318.517 351.047C321.366 353.924 323.317 357.315 324.361 361.267C325.9 367.05 325.273 372.619 322.513 377.996C319.753 383.373 315.126 387.203 308.663 389.511C302.326 391.753 296.402 391.601 290.876 389.045C285.362 386.472 281.783 382.102 280.138 375.935C278.468 369.639 279.272 363.579 282.587 357.807L282.613 357.772Z" fill="#FF5635"/>
<path d="M288.415 360.786C290.73 356.736 293.963 353.968 298.144 352.477C300.911 351.486 303.691 351.326 306.441 352.019C309.204 352.694 311.583 354.032 313.58 356.062C315.59 358.075 316.941 360.456 317.692 363.224C318.759 367.276 318.329 371.189 316.403 374.962C314.46 378.723 311.235 381.416 306.683 383.032C302.231 384.615 298.089 384.494 294.23 382.701C290.356 380.897 287.845 377.842 286.695 373.507C285.521 369.072 286.1 364.836 288.415 360.786Z" fill="#FFC700"/>
<path d="M390.643 296.118C390.642 292.147 391.759 289.393 394.013 287.897C395.514 286.89 397.337 286.705 399.476 287.311C401.616 287.918 403.769 289.191 405.903 291.108C408.037 293.024 409.909 295.314 411.49 297.981C413.795 301.891 415.031 305.69 415.187 309.396C415.339 313.072 414.186 315.743 411.739 317.392C409.348 319.001 406.477 318.954 403.144 317.292C399.809 315.602 396.913 312.688 394.451 308.494C391.925 304.222 390.66 300.101 390.659 296.13L390.643 296.118Z" fill="#FFC700"/>
<path d="M403.639 299.358C403.639 299.358 373.16 330.135 318.502 351.035" stroke="#FFC700" stroke-width="0.96" stroke-miterlimit="10"/>
<path d="M402.923 408.207C406.032 405.535 408.779 404.637 411.157 405.455C412.734 406.011 413.865 407.375 414.535 409.533C415.191 411.708 415.354 414.297 414.983 417.352C414.625 420.389 413.815 423.462 412.578 426.534C410.73 431.052 408.417 434.611 405.611 437.215C402.804 439.819 400.111 440.648 397.504 439.737C394.958 438.844 393.46 436.46 393.013 432.611C392.55 428.751 393.311 424.409 395.266 419.589C397.271 414.671 399.827 410.862 402.936 408.19L402.923 408.207Z" fill="#FFC700"/>
<path d="M407.314 421.032C407.314 421.032 366.946 416.656 321.39 385.838" stroke="#FFC700" stroke-width="0.96" stroke-miterlimit="10"/>
<path d="M279.499 482.763C282.167 485.419 283.127 488.047 282.363 490.635C281.864 492.358 280.545 493.78 278.461 494.859C276.364 495.955 273.832 496.607 270.836 496.82C267.855 497.045 264.851 496.813 261.822 496.125C257.384 495.118 253.843 493.433 251.258 491.061C248.673 488.688 247.789 486.091 248.607 483.271C249.429 480.509 251.714 478.517 255.449 477.312C259.212 476.102 263.455 476.027 268.209 477.113C273.052 478.212 276.829 480.078 279.483 482.751L279.499 482.763Z" fill="#FFC700"/>
<path d="M267.095 489.697C267.095 489.697 270.466 447.64 299.537 395.246" stroke="#FFC700" stroke-width="0.96" stroke-miterlimit="10"/>
<path d="M230.457 282.971C226.621 284.015 223.865 283.591 222.204 281.711C221.096 280.448 220.738 278.666 221.127 276.337C221.516 274.008 222.553 271.521 224.206 268.852C225.86 266.182 227.913 263.71 230.333 261.412C233.898 258.05 237.471 255.817 241.008 254.707C244.545 253.596 247.246 254.059 249.053 256.107C250.826 258.102 251.061 261.02 249.74 264.822C248.418 268.623 245.852 272.315 242.041 275.898C238.149 279.555 234.278 281.915 230.442 282.959L230.457 282.971Z" fill="#FFC700"/>
<path d="M232.38 269.01C232.38 269.01 264.927 291.787 290.152 341.563" stroke="#FFC700" stroke-width="0.96" stroke-miterlimit="10"/>
<path d="M194.634 416.105C193.974 420.088 192.427 422.62 189.993 423.731C188.366 424.477 186.561 424.347 184.594 423.354C182.627 422.36 180.752 420.725 178.996 418.416C177.226 416.123 175.811 413.5 174.75 410.548C173.16 406.231 172.624 402.205 173.072 398.498C173.548 394.785 175.117 392.324 177.762 391.101C180.351 389.919 183.147 390.455 186.09 392.72C189.033 394.985 191.372 398.428 193.047 403.057C194.774 407.781 195.306 412.106 194.647 416.088L194.634 416.105Z" fill="#FFC700"/>
<path d="M182.562 410.592C182.562 410.592 217.324 385.192 273.894 373.922" stroke="#FFC700" stroke-width="0.96" stroke-miterlimit="10"/>
</g>
<defs>
<clipPath id="clip0_140_314">
<rect width="509.333" height="538.574" fill="white" transform="translate(185.095 0.894287) rotate(37.5835)"/>
</clipPath>
</defs>
</svg>
