<svg width="699" height="1023" viewBox="0 0 699 1023" fill="none" xmlns="http://www.w3.org/2000/svg">
<g clip-path="url(#clip0_140_411)">
<path d="M24.6615 730.935C24.6615 730.935 61.3343 650.905 160.792 683.86C160.792 683.86 90.3993 744.908 24.6615 730.935Z" fill="#7FBEBF"/>
<path d="M85.391 878.385C85.391 878.385 165.62 869.009 250.001 944.834C250.001 944.834 135.674 984.683 85.391 878.385Z" fill="#7FBEBF"/>
<path d="M109.005 361.599C109.005 361.599 100.02 523.049 34.0181 559.273C34.0181 559.273 -6.77161 426.645 109.005 361.599Z" fill="#7FBEBF"/>
<path d="M365.346 297.492C365.346 297.492 260.004 285.607 195.997 457.899C195.997 457.899 363.599 344.442 365.346 297.492Z" fill="#7FBEBF"/>
<path d="M382.465 553.98C382.465 553.98 510.41 486.254 601.278 507.705C601.278 507.705 493.219 616.342 382.465 553.98Z" fill="#7FBEBF"/>
<path d="M467.302 421.905C467.302 421.905 151.356 687.239 -281.207 665.486" stroke="#008F8C" stroke-width="2.66667" stroke-miterlimit="10"/>
<path d="M572.765 517.837C572.765 517.837 456.793 590.198 286.894 533.998" stroke="#008F8C" stroke-width="1.33333" stroke-miterlimit="10"/>
<path d="M338.717 311.878C338.717 311.878 154.619 441.801 139.753 596.153" stroke="#008F8C" stroke-width="1.33333" stroke-miterlimit="10"/>
<path d="M137.176 690.974C137.176 690.974 24.9071 713.453 -33.0813 772.432" stroke="#008F8C" stroke-width="1.17333" stroke-miterlimit="10"/>
<path d="M39.8677 802.295C39.8677 802.295 71.6166 922.88 219.184 943.965" stroke="#008F8C" stroke-width="1.33333" stroke-miterlimit="10"/>
<path d="M91.6086 383.929C91.6086 383.929 -13.7123 519.391 57.7936 623.567" stroke="#008F8C" stroke-width="1.33333" stroke-miterlimit="10"/>
<path d="M-159.865 666.397C-152.437 671.14 -28.1722 846.622 183.134 803.914" stroke="#008F8C" stroke-width="2.66667" stroke-miterlimit="10"/>
<path d="M489.952 242.263C492.17 238.789 496.275 237.732 499.662 239.895C503.049 242.058 503.666 246.005 501.48 249.624C499.262 253.098 495.276 254.231 491.77 251.992C488.264 249.754 487.615 245.661 489.952 242.263Z" fill="#FFC700"/>
<path d="M495.093 246.591C495.093 246.591 486.187 290.015 462.46 350.099" stroke="#FFC700" stroke-width="0.666667" stroke-miterlimit="10"/>
<path d="M625.226 350.919C629.333 350.449 632.746 352.963 633.217 356.942C633.669 360.95 631 363.885 626.799 364.504C622.692 364.975 619.281 362.588 618.826 358.452C618.374 354.444 621.117 351.263 625.245 350.89L625.226 350.919Z" fill="#FFC700"/>
<path d="M625.106 357.656C625.106 357.656 585.753 378.085 524.126 397.5" stroke="#FFC700" stroke-width="0.666667" stroke-miterlimit="10"/>
<path d="M557.447 280.012C560.51 277.245 564.735 277.31 567.435 280.288C570.134 283.265 569.686 287.242 566.606 290.166C563.543 292.933 559.388 292.955 556.618 289.891C553.919 286.913 554.313 282.693 557.447 280.012Z" fill="#FFC700"/>
<path d="M561.273 285.548C561.273 285.548 541.132 325.017 502.266 376.646" stroke="#FFC700" stroke-width="0.666667" stroke-miterlimit="10"/>
<path d="M461.965 422.927C461.965 422.927 452.259 292.384 534.284 250.718C534.284 250.718 549.558 305.402 493.36 391.773C493.36 391.773 537.864 307.34 618.411 313.841C618.411 313.841 594.373 407.163 461.965 422.927Z" fill="#E30F26"/>
<path d="M459.54 427.314C459.54 427.314 361.963 339.929 464.279 240.875C464.279 240.875 505.783 328.694 474.897 412.042C474.897 412.042 568.697 343.747 657.283 405.914C657.283 405.914 559.85 488.608 459.57 427.333L459.54 427.314Z" fill="#FF5635"/>
<path d="M456.213 428.659C456.213 428.659 423.99 418.533 413.697 380.613C413.697 380.613 459.099 389.75 462.566 428.536C462.566 428.536 500.412 426.58 514.688 468.088C514.688 468.088 475.688 473.488 456.213 428.659Z" fill="#7FBEBF"/>
<path d="M244.161 662.361C246.967 659.932 250.773 660.063 253.135 662.784C255.497 665.504 255.03 669.051 252.207 671.638C249.401 674.067 245.665 674.022 243.233 671.215C240.871 668.495 241.284 664.704 244.161 662.361Z" fill="#FFC700"/>
<path d="M247.499 667.418C247.499 667.418 228.717 702.531 192.919 748.177" stroke="#FFC700" stroke-width="0.6" stroke-miterlimit="10"/>
<path d="M332.894 790.452C336.535 791.105 338.834 794.12 338.221 797.699C337.579 801.26 334.546 803.127 330.771 802.555C327.13 801.902 324.804 798.996 325.444 795.308C326.086 791.748 329.281 789.692 332.894 790.452Z" fill="#FFC700"/>
<path d="M331.084 796.235C331.084 796.235 291.97 803.777 233.943 804.717" stroke="#FFC700" stroke-width="0.6" stroke-miterlimit="10"/>
<path d="M292.665 712.1C296.016 710.52 299.656 711.632 301.217 714.886C302.778 718.14 301.387 721.432 297.971 723.179C294.62 724.759 291.05 723.734 289.438 720.363C287.876 717.11 289.292 713.583 292.684 712.071L292.665 712.1Z" fill="#FFC700"/>
<path d="M294.531 717.889C294.531 717.889 267.088 746.718 220.429 781.208" stroke="#FFC700" stroke-width="0.6" stroke-miterlimit="10"/>
<path d="M173.876 810.75C173.876 810.75 198.9 695.905 280.201 680.986C280.201 680.986 279.365 731.946 208.892 791.939C208.892 791.939 268.789 730.626 336.512 756.818C336.512 756.818 291.939 831.009 173.876 810.75Z" fill="#E30F26"/>
<path d="M170.663 813.882C170.663 813.882 108.976 713.719 222.407 654.573C222.407 654.573 235.711 740.769 187.783 804.626C187.783 804.626 286.019 769.8 346.404 845.934C346.404 845.934 241.358 892.21 170.653 813.833L170.663 813.882Z" fill="#FF5635"/>
<path d="M167.473 814.227C167.473 814.227 142.319 797.287 143.147 761.996C143.147 761.996 179.907 781.457 172.988 815.742C172.988 815.742 206.068 823.741 207.747 863.099C207.747 863.099 172.785 857.786 167.473 814.227Z" fill="#7FBEBF"/>
</g>
<defs>
<clipPath id="clip0_140_411">
<rect width="660.629" height="791.879" fill="white" transform="translate(141.645) rotate(32.5601)"/>
</clipPath>
</defs>
</svg>
