<svg width="670" height="447" viewBox="0 0 670 447" fill="none" xmlns="http://www.w3.org/2000/svg">
<g clip-path="url(#clip0_140_779)">
<path d="M401.474 279.706C401.474 279.706 358.775 293.562 323.152 257.358C323.152 257.358 346.651 244.191 363.277 252.669C363.277 252.669 321.568 247.319 303.699 185.374C303.699 185.374 349.61 188.254 374.229 241.906C374.229 241.906 360.466 239.706 378.693 206.034C378.693 206.034 411.157 218.818 401.475 279.725L401.474 279.706Z" fill="#008F8C"/>
<path d="M616.24 351.153C616.24 351.153 616.061 400.978 565.542 426.004C565.542 426.004 559.794 396.669 574.506 382.071C574.506 382.071 554.425 424.193 482.916 421.584C482.916 421.584 501.849 374.167 566.943 366.802C566.943 366.802 559.853 380.558 530.66 349.661C530.66 349.661 555.394 319.855 616.24 351.153Z" fill="#008F8C"/>
<path d="M770.712 268.557C770.712 268.557 476.712 384.949 214.299 236.173" stroke="#005245" stroke-width="2.66667" stroke-linecap="round" stroke-linejoin="round"/>
<path d="M352.957 233.45C352.957 233.45 397.638 304.243 468.269 308.825" stroke="#005245" stroke-width="1.05333" stroke-linecap="round" stroke-linejoin="round"/>
<path d="M681.384 294.491C681.384 294.491 640.366 354.968 527.721 402.051" stroke="#005245" stroke-width="1.33333" stroke-linecap="round" stroke-linejoin="round"/>
<path d="M337.769 382.456C337.769 382.456 423.049 357.1 477.907 308.507" stroke="#005245" stroke-width="1.33333" stroke-linecap="round" stroke-linejoin="round"/>
<path d="M217.815 286.496C217.815 286.496 197.238 222.505 255.524 211.695C255.524 211.695 281.073 263.763 217.815 286.496Z" fill="#FFC700"/>
<path d="M233.981 280.991C233.981 280.991 259.79 259.564 266.044 223.141C266.044 223.141 316.69 255.245 303.163 282.715C289.654 310.184 233.981 280.991 233.981 280.991Z" fill="#005245"/>
<path d="M11.3457 318.074C11.3457 318.074 146.372 403.679 253.062 259.868C253.062 259.868 142.886 308.596 46.3837 237.156L49.9592 290.09L11.3457 318.074Z" fill="#E30F26"/>
<path d="M48.3232 317.103C48.3232 317.103 156.971 349.924 234.662 274.135C234.662 274.135 168.617 313.452 79.7149 267.901" stroke="#FF5635" stroke-width="1.33333" stroke-linecap="round" stroke-linejoin="round"/>
<path d="M66.2484 302.593C66.2484 302.593 155.404 331.205 230.724 276.687C230.724 276.687 164.028 324.653 82.3604 284.472" stroke="#FF5635" stroke-width="1.33333" stroke-linecap="round" stroke-linejoin="round"/>
<path d="M167.252 22.2858C167.252 22.2858 314.47 84.6694 256.848 254.203C256.848 254.203 234.268 135.876 120.623 97.117L165.676 73.1883L167.252 22.2858Z" fill="#E30F26"/>
<path d="M179.939 51.4959C179.939 51.4959 272.211 117.566 259.573 225.358C259.573 225.358 250.451 149.036 160.106 106.394" stroke="#FF5635" stroke-width="1.33333" stroke-linecap="round" stroke-linejoin="round"/>
<path d="M179.352 74.5506C179.352 74.5506 256.422 127.743 259.177 220.669C259.177 220.669 256.503 138.547 174.817 98.3668" stroke="#FF5635" stroke-width="1.33333" stroke-linecap="round" stroke-linejoin="round"/>
<path d="M253.296 257.582C253.296 257.582 147.664 263.044 55.031 198.312L93.2134 159.649L94.8375 112.571C94.8375 112.571 199.8 152.247 253.296 257.582Z" fill="#E30F26"/>
<path d="M79.2727 197.68C79.2727 197.68 160.291 250.129 235.932 247.844C235.932 247.844 211.074 190.73 112.007 134.784" stroke="#FF5635" stroke-width="1.33333" stroke-linecap="round" stroke-linejoin="round"/>
<path d="M89.3027 188.239C89.3027 188.239 186.934 245.264 235.932 247.826C235.932 247.826 168.485 178.731 112.119 150.981" stroke="#FF5635" stroke-width="1.33333" stroke-linecap="round" stroke-linejoin="round"/>
<path d="M107.198 171.919C107.198 171.919 185.724 227.614 235.933 247.844" stroke="#FF5635" stroke-width="1.33333" stroke-linecap="round" stroke-linejoin="round"/>
<path d="M319.925 373.352L332.406 410.67C332.406 410.67 272.584 445.111 216.939 413.621C216.939 413.621 260.296 368.999 319.943 373.351L319.925 373.352Z" fill="#E30F26"/>
<path d="M316.239 404.509C283.432 426.979 231.244 412.813 231.244 412.813C231.244 412.813 262.297 382.252 309.041 382.936" stroke="#FF5635" stroke-width="1.33333" stroke-linecap="round" stroke-linejoin="round"/>
<path d="M300.896 394.399C300.896 394.399 281.922 405.756 231.244 412.813" stroke="#FF5635" stroke-width="1.33333" stroke-linecap="round" stroke-linejoin="round"/>
<path d="M319.925 373.352L332.406 410.67C332.406 410.67 365.495 401.928 369.111 371.912C369.111 371.912 355.419 353.919 319.943 373.351L319.925 373.352Z" fill="#005245"/>
</g>
<defs>
<clipPath id="clip0_140_779">
<rect width="418.118" height="762.54" fill="white" transform="translate(16.0718 446.262) rotate(-92.1114)"/>
</clipPath>
</defs>
</svg>
