<svg width="687" height="751" viewBox="0 0 687 751" fill="none" xmlns="http://www.w3.org/2000/svg">
<g clip-path="url(#clip0_140_113)">
<path d="M194.2 510.073L140.254 454.916L176.8 388.893L140.5 323.34L174.541 251.772L142.67 186.845L196.481 131.822L263.802 163.705L333.001 130.883L395.132 161.357L463.503 128.357L519.842 178.573L482.089 251.683L521.967 317.348L486.741 381.895L524.472 453.798L470.616 507.636L394.036 473.473L332.956 508.687L263.757 471.171L194.155 510.096L194.2 510.073ZM145.779 454.156L195.005 504.484L263.779 466.028L332.934 503.522L393.812 468.42L469.676 502.248L519.015 452.926L481.709 381.828L516.845 317.438L476.99 251.817L514.296 179.579L462.765 133.678L395.11 166.32L332.956 135.847L263.802 168.668L197.443 137.255L148.06 187.739L179.506 251.75L145.533 323.184L181.921 388.893L145.779 454.156Z" fill="white"/>
<path d="M91.5517 175.833L90.8003 180.241L144.972 189.468L145.723 185.06L91.5517 175.833Z" fill="white"/>
<path d="M194.759 134.908L181.429 57.035L218.802 20.5916L221.911 23.7888L186.238 58.6001L199.165 134.147L194.759 134.908Z" fill="white"/>
<path d="M227.648 29.5413L198.251 59.813L201.461 62.9276L230.858 32.656L227.648 29.5413Z" fill="white"/>
<path d="M144.079 718.538L103.038 683.906L114.109 609.275L182.682 580.791L192.254 508.061L142.357 457.04L89.1266 472.311L87.8965 467.996L143.676 452.01L196.973 506.496L186.775 583.944L118.157 612.45L107.824 682.095L146.964 715.14L144.079 718.538Z" fill="white"/>
<path d="M516.331 181.412L460.618 131.777L474.753 76.8441L479.092 77.962L465.628 130.257L517.807 176.739L586.782 168.847L608.521 121.895L612.592 123.773L589.801 173.005L516.331 181.412Z" fill="white"/>
<path d="M612.458 698.461L567.66 682.006L551.601 609.789L479.361 578.578L467.775 504.148L521.05 450.892L564.73 460.841L563.746 465.201L522.459 455.811L472.539 505.713L483.409 575.448L555.471 606.592L571.507 678.652L614.001 694.258L612.458 698.461Z" fill="white"/>
<path d="M105.744 672.951L51.1221 696.965L52.9229 701.059L107.545 677.044L105.744 672.951Z" fill="white"/>
<path d="M110.72 686.218L58.1323 709.635L59.9524 713.719L112.54 690.303L110.72 686.218Z" fill="white"/>
<path d="M565.211 673.22L517.416 706.799L519.988 710.458L567.783 676.878L565.211 673.22Z" fill="white"/>
<path d="M577.784 682.039L528.325 719L531.003 722.581L580.463 685.621L577.784 682.039Z" fill="white"/>
<path d="M599.183 115.789L582.851 151.075L586.91 152.953L603.243 117.667L599.183 115.789Z" fill="white"/>
<path d="M227.903 239.827L176.631 249.512L177.462 253.906L228.733 244.221L227.903 239.827Z" fill="white"/>
<path d="M261.568 165.831L254.957 209.581L259.379 210.249L265.99 166.499L261.568 165.831Z" fill="white"/>
<path d="M272.248 256.26L269.144 259.479L307.827 296.745L310.931 293.525L272.248 256.26Z" fill="white"/>
<path d="M158.467 321.534L154.579 323.744L183.472 374.526L187.36 372.315L158.467 321.534Z" fill="white"/>
<path d="M161.29 190.251L157.344 192.357L180.691 236.086L184.638 233.98L161.29 190.251Z" fill="white"/>
<path d="M202.984 148.011L201.022 152.03L244.942 173.453L246.903 169.434L202.984 148.011Z" fill="white"/>
<path d="M335.898 144.559L333.812 148.514L379.137 172.404L381.223 168.448L335.898 144.559Z" fill="white"/>
<path d="M365.814 349.531L362.542 352.58L386.389 378.162L389.661 375.113L365.814 349.531Z" fill="white"/>
<path d="M179.764 386.687L178.927 391.08L230.578 400.92L231.416 396.528L179.764 386.687Z" fill="white"/>
<path d="M160.217 455.042L157.095 458.245L191.988 492.224L195.109 489.021L160.217 455.042Z" fill="white"/>
<path d="M256.183 421.872L251.807 422.799L261.605 469.038L265.981 468.111L256.183 421.872Z" fill="white"/>
<path d="M245.949 428.072L241.625 429.217L249.748 459.886L254.072 458.741L245.949 428.072Z" fill="white"/>
<path d="M380.41 464.577L335.6 490.149L337.817 494.032L382.627 468.461L380.41 464.577Z" fill="white"/>
<path d="M398.851 427.708L391.757 470.589L396.17 471.319L403.264 428.438L398.851 427.708Z" fill="white"/>
<path d="M503.515 453.276L468.942 487.549L472.092 490.724L506.664 456.451L503.515 453.276Z" fill="white"/>
<path d="M483.602 379.76L433.499 394.084L434.728 398.383L484.831 384.059L483.602 379.76Z" fill="white"/>
<path d="M503.443 320.834L478.791 365.329L482.704 367.496L507.356 323L503.443 320.834Z" fill="white"/>
<path d="M397.299 163.417L392.917 164.313L403.059 213.883L407.441 212.987L397.299 163.417Z" fill="white"/>
<path d="M465.081 144.698L462.135 148.063L498.22 179.632L501.166 176.267L465.081 144.698Z" fill="white"/>
<path d="M434.574 240.997L433.743 245.391L479.147 253.967L479.977 249.573L434.574 240.997Z" fill="white"/>
<path d="M438.532 228.988L437.573 233.356L471.215 240.738L472.174 236.37L438.532 228.988Z" fill="white"/>
<path d="M279.557 368.575L272.67 375.911L275.932 378.971L282.819 371.635L279.557 368.575Z" fill="white"/>
<path d="M294.223 352.925L286.882 360.756L290.146 363.814L297.487 355.983L294.223 352.925Z" fill="white"/>
<path d="M308.425 337.761L301.543 345.103L304.807 348.16L311.689 340.819L308.425 337.761Z" fill="white"/>
<path d="M360.053 287.184L353.171 294.526L356.435 297.583L363.317 290.242L360.053 287.184Z" fill="white"/>
<path d="M374.736 271.531L367.395 279.362L370.659 282.419L378 274.588L374.736 271.531Z" fill="white"/>
<path d="M388.963 256.366L382.076 263.702L385.338 266.762L392.225 259.426L388.963 256.366Z" fill="white"/>
<path d="M241.973 31.7482C238.976 31.7482 236.314 31.0775 233.944 29.7137C231.573 28.3498 229.717 26.4494 228.375 24.0347C227.033 21.6201 226.362 18.8701 226.362 15.8294C226.362 12.7887 227.033 10.1058 228.375 7.69112C229.717 5.27647 231.573 3.3984 233.944 2.03457C236.314 0.670737 238.998 0 241.995 0C244.657 0 247.072 0.53659 249.242 1.63213C251.411 2.72766 253.156 4.22564 254.475 6.17078C255.817 8.11592 256.6 10.3294 256.868 12.8334H251.613C251.322 11.246 250.74 9.83748 249.846 8.63015C248.951 7.42282 247.833 6.50615 246.491 5.83541C245.149 5.18703 243.65 4.85167 242.04 4.85167C240.027 4.85167 238.26 5.32118 236.695 6.23786C235.129 7.17689 233.899 8.47365 233.049 10.1281C232.177 11.805 231.752 13.7054 231.752 15.8518C231.752 17.9981 232.177 19.8985 233.049 21.5754C233.921 23.2522 235.129 24.549 236.695 25.4657C238.26 26.4047 240.05 26.8518 242.04 26.8518C243.695 26.8518 245.194 26.5165 246.536 25.8681C247.877 25.2197 248.996 24.2807 249.868 23.0734C250.74 21.866 251.322 20.4798 251.613 18.8701H256.868C256.578 21.3742 255.75 23.5876 254.408 25.5327C253.066 27.4779 251.322 28.9982 249.175 30.0714C247.028 31.1446 244.634 31.7035 241.995 31.7035L241.973 31.7482Z" fill="white"/>
<path d="M263.689 0.648438H268.901V13.4372H284.557V0.648438H289.768V31.0999H284.557V18.3112H268.901V31.0999H263.689V0.648438Z" fill="white"/>
<path d="M477.191 72.3949C474.194 72.3949 471.533 71.7242 469.162 70.3603C466.791 68.9965 464.935 67.0961 463.593 64.6814C462.251 62.2668 461.58 59.5167 461.58 56.4761C461.58 53.4354 462.251 50.7524 463.593 48.3378C464.935 45.9231 466.791 44.0451 469.162 42.6812C471.533 41.3174 474.217 40.6467 477.214 40.6467C479.875 40.6467 482.291 41.1833 484.46 42.2788C486.629 43.3743 488.374 44.8723 489.694 46.8174C491.035 48.7626 491.818 50.976 492.087 53.4801H486.831C486.54 51.8927 485.959 50.4841 485.064 49.2768C484.169 48.0695 483.051 47.1528 481.709 46.4821C480.367 45.8337 478.869 45.4983 477.258 45.4983C475.245 45.4983 473.479 45.9678 471.913 46.8845C470.347 47.8236 469.117 49.1203 468.267 50.7748C467.395 52.4516 466.97 54.3521 466.97 56.4984C466.97 58.6448 467.395 60.5452 468.267 62.222C469.14 63.8989 470.347 65.1956 471.913 66.1123C473.479 67.0514 475.268 67.4985 477.258 67.4985C478.913 67.4985 480.412 67.1631 481.754 66.5148C483.096 65.8664 484.214 64.9274 485.086 63.72C485.958 62.5127 486.54 61.1265 486.831 59.5167H492.087C491.796 62.0208 490.968 64.2343 489.626 66.1794C488.285 68.1245 486.54 69.6449 484.393 70.718C482.246 71.7912 479.853 72.3502 477.214 72.3502L477.191 72.3949Z" fill="white"/>
<path d="M498.908 41.2952H504.119V54.0839H519.775V41.2952H524.986V71.7466H519.775V58.9579H504.119V71.7466H498.908V41.2952Z" fill="white"/>
<path d="M614.449 113.779C611.452 113.779 608.79 113.109 606.419 111.745C604.049 110.381 602.192 108.48 600.85 106.066C599.508 103.651 598.837 100.901 598.837 97.8605C598.837 94.8198 599.508 92.1368 600.85 89.7222C602.192 87.3075 604.049 85.4295 606.419 84.0656C608.79 82.7018 611.474 82.0311 614.471 82.0311C617.132 82.0311 619.548 82.5677 621.717 83.6632C623.887 84.7587 625.631 86.2567 626.951 88.2019C628.293 90.147 629.076 92.3604 629.344 94.8645H624.088C623.797 93.2771 623.216 91.8685 622.321 90.6612C621.427 89.4539 620.308 88.5372 618.966 87.8665C617.624 87.2181 616.126 86.8827 614.516 86.8827C612.503 86.8827 610.736 87.3523 609.17 88.2689C607.605 89.208 606.375 90.5047 605.525 92.1592C604.652 93.836 604.228 95.7365 604.228 97.8828C604.228 100.029 604.652 101.93 605.525 103.606C606.397 105.283 607.605 106.58 609.17 107.497C610.736 108.436 612.525 108.883 614.516 108.883C616.171 108.883 617.669 108.548 619.011 107.899C620.353 107.251 621.471 106.312 622.344 105.104C623.216 103.897 623.797 102.511 624.088 100.901H629.344C629.053 103.405 628.226 105.619 626.884 107.564C625.542 109.509 623.797 111.029 621.65 112.102C619.503 113.176 617.11 113.735 614.471 113.735L614.449 113.779Z" fill="white"/>
<path d="M636.166 82.6794H641.377V95.4682H657.033V82.6794H662.244V113.131H657.033V100.342H641.377V113.131H636.166V82.6794Z" fill="white"/>
<path d="M597.16 484.585C594.163 484.585 591.502 483.915 589.131 482.551C586.76 481.187 584.904 479.286 583.562 476.872C582.22 474.457 581.549 471.707 581.549 468.666C581.549 465.626 582.22 462.943 583.562 460.528C584.904 458.114 586.76 456.235 589.131 454.872C591.502 453.508 594.185 452.837 597.182 452.837C599.844 452.837 602.259 453.374 604.429 454.469C606.598 455.565 608.343 457.063 609.662 459.008C611.004 460.953 611.787 463.166 612.055 465.67H606.8C606.509 464.083 605.927 462.675 605.033 461.467C604.138 460.26 603.02 459.343 601.678 458.672C600.336 458.024 598.837 457.689 597.227 457.689C595.214 457.689 593.447 458.158 591.882 459.075C590.316 460.014 589.086 461.311 588.236 462.965C587.364 464.642 586.939 466.542 586.939 468.689C586.939 470.835 587.364 472.736 588.236 474.412C589.108 476.089 590.316 477.386 591.882 478.303C593.447 479.242 595.237 479.689 597.227 479.689C598.882 479.689 600.381 479.354 601.723 478.705C603.065 478.057 604.183 477.118 605.055 475.91C605.927 474.703 606.509 473.317 606.8 471.707H612.055C611.765 474.211 610.937 476.425 609.595 478.37C608.253 480.315 606.509 481.835 604.362 482.908C602.215 483.982 599.822 484.541 597.182 484.541L597.16 484.585Z" fill="white"/>
<path d="M618.855 453.485H624.066V466.274H639.722V453.485H644.933V483.937H639.722V471.148H624.066V483.937H618.855V453.485Z" fill="white"/>
<path d="M2.23682 167.282H7.47035V180.071H23.1262V167.282H28.3374V197.733H23.1262V184.945H7.47035V197.733H2.23682V167.282Z" fill="white"/>
<path d="M72.9114 198.382C69.9145 198.382 67.253 197.711 64.8822 196.347C62.5115 194.983 60.6551 193.083 59.3132 190.668C57.9713 188.254 57.3003 185.504 57.3003 182.463C57.3003 179.422 57.9713 176.739 59.3132 174.325C60.6551 171.91 62.5115 170.032 64.8822 168.668C67.253 167.304 69.9368 166.634 72.9338 166.634C75.5953 166.634 78.0108 167.17 80.1802 168.266C82.3497 169.361 84.0942 170.859 85.4138 172.804C86.7557 174.749 87.5385 176.963 87.8069 179.467H82.551C82.2602 177.88 81.6787 176.471 80.7841 175.264C79.8895 174.056 78.7712 173.14 77.4293 172.469C76.0873 171.821 74.5889 171.485 72.9785 171.485C70.9656 171.485 69.1988 171.955 67.6332 172.871C66.0676 173.81 64.8375 175.107 63.9876 176.762C63.1153 178.439 62.6904 180.339 62.6904 182.485C62.6904 184.632 63.1153 186.532 63.9876 188.209C64.8598 189.886 66.0676 191.183 67.6332 192.099C69.1988 193.038 70.988 193.485 72.9785 193.485C74.6336 193.485 76.1321 193.15 77.474 192.502C78.8159 191.853 79.9342 190.914 80.8065 189.707C81.6787 188.5 82.2602 187.113 82.551 185.504H87.8069C87.5161 188.008 86.6886 190.221 85.3467 192.166C84.0047 194.111 82.2602 195.632 80.1131 196.705C77.966 197.778 75.5729 198.337 72.9338 198.337L72.9114 198.382Z" fill="white"/>
<path d="M0 454.134H5.21117V466.922H20.867V454.134H26.0782V484.585H20.867V471.796H5.21117V484.585H0V454.134Z" fill="white"/>
<path d="M70.6526 485.234C67.6557 485.234 64.9942 484.563 62.6234 483.199C60.2527 481.835 58.3963 479.935 57.0544 477.52C55.7125 475.105 55.0415 472.355 55.0415 469.315C55.0415 466.274 55.7125 463.591 57.0544 461.176C58.3963 458.762 60.2527 456.884 62.6234 455.52C64.9942 454.156 67.678 453.485 70.675 453.485C73.3365 453.485 75.752 454.022 77.9214 455.117C80.0909 456.213 81.8354 457.711 83.155 459.656C84.4969 461.601 85.2797 463.815 85.5481 466.319H80.2922C80.0014 464.731 79.4199 463.323 78.5253 462.116C77.6307 460.908 76.5124 459.992 75.1705 459.321C73.8286 458.672 72.3301 458.337 70.7197 458.337C68.7068 458.337 66.94 458.807 65.3744 459.723C63.8088 460.662 62.5787 461.959 61.7288 463.613C60.8565 465.29 60.4316 467.191 60.4316 469.337C60.4316 471.483 60.8565 473.384 61.7288 475.061C62.6011 476.738 63.8088 478.034 65.3744 478.951C66.94 479.89 68.7292 480.337 70.7197 480.337C72.3748 480.337 73.8733 480.002 75.2152 479.353C76.5572 478.705 77.6754 477.766 78.5477 476.559C79.4199 475.351 80.0014 473.965 80.2922 472.355H85.5481C85.2573 474.86 84.4298 477.073 83.0879 479.018C81.746 480.963 80.0014 482.484 77.8544 483.557C75.7073 484.63 73.3141 485.189 70.675 485.189L70.6526 485.234Z" fill="white"/>
<path d="M31.9157 733.071C28.9187 733.071 26.2125 732.378 23.797 731.014C21.3815 729.65 19.4804 727.727 18.0938 725.313C16.7071 722.898 16.0361 720.193 16.0361 717.197C16.0361 714.201 16.7295 711.518 18.0938 709.081C19.4804 706.666 21.3815 704.766 23.797 703.38C26.2125 701.994 28.9187 701.323 31.9157 701.323C34.9126 701.323 37.6189 702.016 40.0344 703.38C42.4498 704.766 44.3509 706.666 45.7376 709.081C47.1242 711.496 47.7952 714.201 47.7952 717.197C47.7952 720.193 47.1019 722.898 45.7376 725.313C44.3733 727.727 42.4498 729.628 40.0344 731.014C37.6189 732.4 34.9126 733.071 31.9157 733.071ZM31.9157 728.197C33.9286 728.197 35.7178 727.727 37.3281 726.766C38.9384 725.805 40.2133 724.508 41.1303 722.831C42.0696 721.154 42.5169 719.299 42.5169 717.197C42.5169 715.095 42.0473 713.24 41.1303 711.563C40.1909 709.886 38.9384 708.589 37.3281 707.628C35.7178 706.666 33.9062 706.197 31.9157 706.197C29.9251 706.197 28.1135 706.666 26.5032 707.628C24.8929 708.589 23.6404 709.886 22.7234 711.563C21.8064 713.24 21.3591 715.095 21.3591 717.197C21.3591 719.299 21.8064 721.154 22.7234 722.831C23.6404 724.508 24.8929 725.805 26.5032 726.766C28.1135 727.727 29.9251 728.197 31.9157 728.197Z" fill="white"/>
<path d="M163.626 750.667C160.629 750.667 157.923 749.974 155.507 748.61C153.092 747.246 151.191 745.323 149.804 742.909C148.418 740.494 147.747 737.789 147.747 734.793C147.747 731.797 148.44 729.114 149.804 726.677C151.191 724.262 153.092 722.362 155.507 720.975C157.923 719.589 160.629 718.918 163.626 718.918C166.623 718.918 169.329 719.612 171.745 720.975C174.16 722.362 176.061 724.262 177.448 726.677C178.835 729.091 179.506 731.797 179.506 734.793C179.506 737.789 178.812 740.494 177.448 742.909C176.084 745.323 174.16 747.224 171.745 748.61C169.329 749.996 166.623 750.667 163.626 750.667ZM163.626 745.793C165.639 745.793 167.428 745.323 169.039 744.362C170.649 743.4 171.924 742.104 172.841 740.427C173.78 738.75 174.227 736.894 174.227 734.793C174.227 732.691 173.758 730.835 172.841 729.158C171.901 727.482 170.649 726.185 169.039 725.223C167.428 724.262 165.617 723.793 163.626 723.793C161.636 723.793 159.824 724.262 158.214 725.223C156.603 726.185 155.351 727.482 154.434 729.158C153.517 730.835 153.07 732.691 153.07 734.793C153.07 736.894 153.517 738.75 154.434 740.427C155.351 742.104 156.603 743.4 158.214 744.362C159.824 745.323 161.636 745.793 163.626 745.793Z" fill="white"/>
<path d="M186.708 719.567H191.919V732.356H207.575V719.567H212.786V750.018H207.575V737.23H191.919V750.018H186.708V719.567Z" fill="white"/>
<path d="M637.485 721.445C634.488 721.445 631.782 720.752 629.366 719.388C626.951 718.024 625.05 716.101 623.663 713.687C622.276 711.272 621.605 708.567 621.605 705.571C621.605 702.575 622.299 699.892 623.663 697.455C625.05 695.04 626.951 693.14 629.366 691.754C631.782 690.367 634.488 689.697 637.485 689.697C640.482 689.697 643.188 690.39 645.604 691.754C648.019 693.14 649.92 695.04 651.307 697.455C652.694 699.87 653.365 702.575 653.365 705.571C653.365 708.567 652.671 711.272 651.307 713.687C649.943 716.101 648.019 718.002 645.604 719.388C643.188 720.774 640.482 721.445 637.485 721.445ZM637.485 716.571C639.498 716.571 641.287 716.101 642.898 715.14C644.508 714.179 645.783 712.882 646.7 711.205C647.639 709.528 648.086 707.672 648.086 705.571C648.086 703.469 647.617 701.614 646.7 699.937C645.76 698.26 644.508 696.963 642.898 696.002C641.287 695.04 639.476 694.571 637.485 694.571C635.494 694.571 633.683 695.04 632.073 696.002C630.462 696.963 629.21 698.26 628.293 699.937C627.376 701.614 626.928 703.469 626.928 705.571C626.928 707.672 627.376 709.528 628.293 711.205C629.21 712.882 630.462 714.179 632.073 715.14C633.683 716.101 635.494 716.571 637.485 716.571Z" fill="white"/>
<path d="M660.544 690.345H665.755V703.134H681.411V690.345H686.622V720.797H681.411V708.008H665.755V720.797H660.544V690.345Z" fill="white"/>
<path d="M506.088 745.592C503.091 745.592 500.384 744.898 497.969 743.535C495.553 742.171 493.652 740.248 492.266 737.833C490.879 735.419 490.208 732.713 490.208 729.717C490.208 726.721 490.901 724.038 492.266 721.601C493.652 719.187 495.553 717.286 497.969 715.9C500.384 714.514 503.091 713.843 506.088 713.843C509.085 713.843 511.791 714.536 514.206 715.9C516.622 717.286 518.523 719.187 519.909 721.601C521.296 724.016 521.967 726.721 521.967 729.717C521.967 732.713 521.274 735.419 519.909 737.833C518.545 740.248 516.622 742.148 514.206 743.535C511.791 744.921 509.085 745.592 506.088 745.592ZM506.088 740.717C508.1 740.717 509.89 740.248 511.5 739.287C513.11 738.325 514.385 737.028 515.302 735.352C516.241 733.675 516.689 731.819 516.689 729.717C516.689 727.616 516.219 725.76 515.302 724.083C514.363 722.406 513.11 721.11 511.5 720.148C509.89 719.187 508.078 718.717 506.088 718.717C504.097 718.717 502.285 719.187 500.675 720.148C499.065 721.11 497.812 722.406 496.895 724.083C495.978 725.76 495.531 727.616 495.531 729.717C495.531 731.819 495.978 733.675 496.895 735.352C497.812 737.028 499.065 738.325 500.675 739.287C502.285 740.248 504.097 740.717 506.088 740.717Z" fill="white"/>
<path d="M235.8 227.447H241.324L257.897 250.364V227.447H262.773V257.898H257.293L240.81 234.937V257.898H235.8V227.447Z" fill="white"/>
<path d="M395.377 227.447H400.902L417.475 250.364V227.447H422.35V257.898H416.871L400.387 234.937V257.898H395.377V227.447Z" fill="white"/>
<path d="M305.983 303.889H314.683L323.652 328.326L332.575 303.889H341.141V334.34H336.042V308.114L326.559 334.34H320.543L311.06 308.114V334.34H305.96V303.889H305.983Z" fill="white"/>
<path d="M361.069 343.485C358.452 343.485 356.215 343.216 354.314 342.68C352.435 342.143 350.982 341.361 349.975 340.354C348.969 339.348 348.477 338.119 348.477 336.71C348.477 335.57 348.812 334.586 349.483 333.737C350.154 332.887 351.116 332.216 352.346 331.724C350.467 331.232 348.991 330.495 347.94 329.533C346.889 328.572 346.352 327.297 346.352 325.777C346.352 324.928 346.688 324.123 347.381 323.362C348.052 322.602 348.946 322.2 350.065 322.2H350.288C350.288 322.2 350.423 322.2 350.49 322.2C350.557 322.2 350.624 322.2 350.691 322.2C350.177 321.417 349.908 320.478 349.908 319.405C349.908 317.415 350.713 315.783 352.324 314.553C353.934 313.324 356.193 312.564 359.123 312.318V306.974H363.685V312.273C365.698 312.407 367.42 312.787 368.852 313.413C370.283 314.039 371.401 314.844 372.184 315.85C372.945 316.856 373.347 318.064 373.347 319.427C373.347 320.881 372.878 322.133 371.916 323.184C370.954 324.234 369.59 325.062 367.823 325.621C366.056 326.18 363.976 326.47 361.605 326.47C360.465 326.47 359.481 326.403 358.608 326.269C357.736 326.135 357.02 325.978 356.461 325.799C355.902 325.621 355.276 325.419 354.605 325.151C354.202 324.972 353.777 324.816 353.375 324.682C352.95 324.547 352.547 324.48 352.189 324.48C351.72 324.48 351.362 324.592 351.071 324.86C350.803 325.106 350.646 325.397 350.646 325.755C350.646 326.515 350.982 327.119 351.653 327.566C352.324 328.013 353.241 328.348 354.448 328.572C355.634 328.795 357.132 328.952 358.921 329.041C359.324 329.064 359.749 329.086 360.152 329.108C360.577 329.108 361.001 329.108 361.426 329.108C365.318 329.176 368.36 329.779 370.552 330.942C372.743 332.104 373.839 333.893 373.839 336.285C373.839 337.761 373.325 339.058 372.296 340.131C371.267 341.204 369.791 342.054 367.868 342.635C365.944 343.216 363.685 343.507 361.091 343.507L361.069 343.485ZM361.113 339.706C362.858 339.706 364.334 339.572 365.519 339.326C366.727 339.058 367.622 338.678 368.248 338.186C368.852 337.694 369.165 337.09 369.165 336.352C369.165 335.257 368.472 334.407 367.107 333.826C365.721 333.245 363.73 332.954 361.113 332.954C359.369 332.954 357.915 333.088 356.73 333.334C355.544 333.602 354.65 333.982 354.023 334.497C353.397 335.011 353.106 335.615 353.106 336.352C353.106 337.09 353.42 337.694 354.023 338.186C354.627 338.678 355.522 339.058 356.73 339.326C357.915 339.594 359.391 339.706 361.113 339.706ZM361.583 322.871C363.797 322.871 365.519 322.558 366.749 321.909C368.002 321.261 368.628 320.389 368.628 319.249C368.628 318.108 368.002 317.236 366.749 316.566C365.497 315.917 363.775 315.582 361.583 315.582C359.391 315.582 357.647 315.917 356.394 316.566C355.142 317.214 354.515 318.108 354.515 319.249C354.515 320.389 355.142 321.261 356.394 321.909C357.647 322.558 359.369 322.871 361.583 322.871Z" fill="white"/>
<path d="M240.608 384.489H246.133L262.706 407.406V384.489H267.581V414.94H262.102L245.618 391.979V414.94H240.608V384.489Z" fill="white"/>
<path d="M395.377 384.489H400.902L417.475 407.406V384.489H422.35V414.94H416.871L400.387 391.979V414.94H395.377V384.489Z" fill="white"/>
<path d="M44.1494 495.474C42.6733 495.474 41.3537 495.205 40.2131 494.646C39.0501 494.11 38.1554 493.35 37.5068 492.344C36.8582 491.36 36.5004 490.242 36.478 488.99H39.5421C39.5868 489.728 39.7881 490.376 40.1907 490.957C40.5933 491.539 41.1301 491.986 41.801 492.299C42.4944 492.612 43.2548 492.791 44.1047 492.791C44.9546 492.791 45.715 492.634 46.386 492.299C47.0569 491.963 47.5937 491.494 47.9739 490.913C48.3541 490.309 48.5554 489.638 48.5554 488.9C48.5554 487.783 48.1976 486.911 47.4819 486.217C46.7662 485.524 45.8268 485.189 44.6862 485.189C44.2165 485.189 43.7692 485.256 43.3219 485.39C42.8746 485.524 42.4944 485.703 42.1589 485.927L41.801 486.195L40.2578 484.25L47.0122 478.504H37.1937V475.687H51.2169V478.415L45.6926 483.11C45.6926 483.11 45.7821 483.087 45.8268 483.065C45.8716 483.043 45.9163 483.065 45.9834 483.065C46.0281 483.065 46.0505 483.043 46.1176 483.043H46.2518C47.2806 483.043 48.2199 483.311 49.0698 483.825C49.9197 484.339 50.5683 485.033 51.0604 485.904C51.5524 486.776 51.7984 487.715 51.7984 488.744C51.7984 490.041 51.4853 491.181 50.8367 492.209C50.2105 493.238 49.3158 494.02 48.1528 494.602C46.9898 495.183 45.6926 495.451 44.2165 495.451L44.1494 495.474Z" fill="white"/>
<path d="M656.071 495.474C654.595 495.474 653.275 495.205 652.134 494.646C650.971 494.11 650.077 493.35 649.428 492.344C648.78 491.36 648.422 490.242 648.399 488.99H651.463C651.508 489.728 651.71 490.376 652.112 490.957C652.515 491.539 653.051 491.986 653.722 492.299C654.416 492.612 655.176 492.791 656.026 492.791C656.876 492.791 657.636 492.634 658.307 492.299C658.978 491.963 659.515 491.494 659.895 490.913C660.275 490.309 660.477 489.638 660.477 488.9C660.477 487.783 660.119 486.911 659.403 486.217C658.688 485.524 657.748 485.189 656.608 485.189C656.138 485.189 655.691 485.256 655.243 485.39C654.796 485.524 654.416 485.703 654.08 485.927L653.722 486.195L652.179 484.25L658.934 478.504H649.115V475.687H663.138V478.415L657.614 483.11C657.614 483.11 657.703 483.087 657.748 483.065C657.793 483.043 657.838 483.065 657.905 483.065C657.949 483.065 657.972 483.043 658.039 483.043H658.173C659.202 483.043 660.141 483.311 660.991 483.825C661.841 484.339 662.49 485.033 662.982 485.904C663.474 486.776 663.72 487.715 663.72 488.744C663.72 490.041 663.407 491.181 662.758 492.209C662.132 493.238 661.237 494.02 660.074 494.602C658.911 495.183 657.614 495.451 656.138 495.451L656.071 495.474Z" fill="white"/>
<path d="M537.69 82.456C536.214 82.456 534.894 82.1877 533.754 81.6287C532.591 81.0922 531.696 80.332 531.047 79.3259C530.399 78.3421 530.041 77.2242 530.019 75.9722H533.083C533.127 76.71 533.329 77.3584 533.731 77.9397C534.134 78.521 534.671 78.9682 535.342 79.2812C536.035 79.5942 536.795 79.773 537.645 79.773C538.495 79.773 539.256 79.6165 539.927 79.2812C540.597 78.9458 541.134 78.4763 541.514 77.895C541.895 77.2913 542.096 76.6206 542.096 75.8828C542.096 74.7649 541.738 73.8929 541.022 73.1998C540.307 72.5067 539.367 72.1714 538.227 72.1714C537.757 72.1714 537.31 72.2384 536.862 72.3726C536.415 72.5067 536.035 72.6856 535.699 72.9092L535.342 73.1775L533.798 71.2323L540.553 65.4863H530.734V62.6693H544.757V65.3969L539.233 70.0921C539.233 70.0921 539.323 70.0697 539.367 70.0474C539.412 70.025 539.457 70.0474 539.524 70.0474C539.569 70.0474 539.591 70.025 539.658 70.025H539.792C540.821 70.025 541.76 70.2933 542.61 70.8075C543.46 71.3218 544.109 72.0148 544.601 72.8868C545.093 73.7588 545.339 74.6978 545.339 75.7263C545.339 77.023 545.026 78.1633 544.377 79.1917C543.751 80.2202 542.856 81.0027 541.693 81.584C540.53 82.1653 539.233 82.4336 537.757 82.4336L537.69 82.456Z" fill="white"/>
<path d="M44.5972 204.485C43.121 204.485 41.8015 204.217 40.6608 203.658C39.4978 203.121 38.6032 202.361 37.9546 201.355C37.306 200.371 36.9481 199.254 36.9258 198.001H39.9899C40.0346 198.739 40.2359 199.388 40.6385 199.969C41.041 200.55 41.5778 200.997 42.2488 201.31C42.9421 201.623 43.7025 201.802 44.5524 201.802C45.4023 201.802 46.1627 201.646 46.8337 201.31C47.5047 200.975 48.0415 200.506 48.4217 199.924C48.8019 199.321 49.0032 198.65 49.0032 197.912C49.0032 196.794 48.6453 195.922 47.9296 195.229C47.2139 194.536 46.2746 194.201 45.1339 194.201C44.6643 194.201 44.2169 194.268 43.7696 194.402C43.3223 194.536 42.9421 194.715 42.6066 194.938L42.2488 195.207L40.7056 193.262L47.4599 187.516H37.6415V184.699H51.6647V187.426L46.1404 192.121C46.1404 192.121 46.2298 192.099 46.2746 192.077C46.3193 192.054 46.364 192.077 46.4311 192.077C46.4759 192.077 46.4982 192.054 46.5653 192.054H46.6995C47.7283 192.054 48.6677 192.323 49.5176 192.837C50.3675 193.351 51.0161 194.044 51.5081 194.916C52.0002 195.788 52.2462 196.727 52.2462 197.756C52.2462 199.052 51.9331 200.193 51.2845 201.221C50.6582 202.25 49.7636 203.032 48.6006 203.613C47.4376 204.195 46.1404 204.463 44.6643 204.463L44.5972 204.485Z" fill="white"/>
<path d="M293.57 34.1405L300.548 29.7136C300.772 29.5571 300.973 29.423 301.174 29.2665C301.375 29.11 301.532 28.9758 301.666 28.8417C301.487 28.9758 301.264 29.0653 301.018 29.11C300.772 29.177 300.481 29.1994 300.168 29.1994C298.848 29.1994 297.663 28.9087 296.589 28.3498C295.538 27.7685 294.71 27.0307 294.129 26.0916C293.547 25.1526 293.234 24.1689 293.234 23.1404C293.234 22.0225 293.547 20.994 294.196 20.055C294.822 19.116 295.739 18.3558 296.902 17.7969C298.065 17.2379 299.452 16.9473 301.018 16.9473C302.583 16.9473 303.858 17.2156 305.021 17.7522C306.206 18.2887 307.123 19.0265 307.794 19.9879C308.465 20.927 308.801 22.0002 308.801 23.2075C308.801 24.0571 308.622 24.8843 308.286 25.6892C307.929 26.4941 307.459 27.2543 306.833 27.9474C306.206 28.6404 305.513 29.2888 304.708 29.8478C304.618 29.9149 304.529 29.9819 304.439 30.049C304.35 30.1161 304.261 30.1831 304.171 30.2279L298.557 33.7828H308.935V36.7117H293.57V34.1181V34.1405ZM301.04 26.7847C301.935 26.7847 302.717 26.6282 303.433 26.3376C304.149 26.0469 304.686 25.6221 305.088 25.0855C305.491 24.549 305.692 23.9453 305.692 23.2522C305.692 22.5591 305.491 21.9331 305.088 21.3965C304.686 20.8599 304.149 20.4351 303.433 20.1444C302.74 19.8314 301.935 19.6973 301.018 19.6973C300.101 19.6973 299.34 19.8538 298.647 20.1444C297.953 20.4575 297.394 20.8599 296.992 21.3965C296.589 21.9331 296.388 22.5591 296.388 23.2522C296.388 23.9453 296.589 24.549 296.992 25.0855C297.394 25.6221 297.931 26.0469 298.647 26.3376C299.34 26.6506 300.145 26.7847 301.018 26.7847H301.04Z" fill="white"/>
<path d="M665.039 120.196L672.017 115.769C672.241 115.613 672.442 115.479 672.643 115.322C672.845 115.166 673.001 115.031 673.135 114.897C672.956 115.031 672.733 115.121 672.487 115.166C672.241 115.21 671.95 115.255 671.637 115.255C670.317 115.255 669.132 114.964 668.058 114.405C667.007 113.824 666.18 113.086 665.598 112.147C665.017 111.208 664.704 110.225 664.704 109.196C664.704 108.078 665.017 107.05 665.665 106.111C666.292 105.172 667.209 104.411 668.372 103.853C669.535 103.294 670.921 103.003 672.487 103.003C674.052 103.003 675.327 103.271 676.49 103.808C677.676 104.344 678.593 105.082 679.264 106.044C679.934 106.983 680.27 108.056 680.27 109.263C680.27 110.113 680.091 110.94 679.756 111.745C679.398 112.55 678.928 113.31 678.302 114.003C677.676 114.718 676.982 115.344 676.177 115.903C676.088 115.971 675.998 116.038 675.909 116.105C675.819 116.172 675.73 116.216 675.64 116.284L670.027 119.861H680.404V122.79H665.039V120.196ZM672.509 112.84C673.404 112.84 674.187 112.684 674.902 112.371C675.618 112.08 676.155 111.655 676.557 111.119C676.96 110.582 677.161 109.979 677.161 109.286C677.161 108.592 676.96 107.966 676.557 107.43C676.155 106.893 675.618 106.468 674.902 106.178C674.209 105.887 673.404 105.731 672.487 105.731C671.57 105.731 670.809 105.887 670.116 106.178C669.423 106.491 668.864 106.893 668.461 107.43C668.058 107.966 667.857 108.592 667.857 109.286C667.857 109.979 668.058 110.582 668.461 111.119C668.864 111.655 669.4 112.08 670.116 112.371C670.809 112.684 671.615 112.84 672.487 112.84H672.509Z" fill="white"/>
</g>
<defs>
<clipPath id="clip0_140_113">
<rect width="686.667" height="750.667" fill="white"/>
</clipPath>
</defs>
</svg>
