<svg width="1666" height="442" viewBox="0 0 1666 442" fill="none" xmlns="http://www.w3.org/2000/svg">
<g clip-path="url(#clip0_140_252)">
<path d="M281.917 391.501L123.08 442L0 329.491L35.7576 166.518L194.561 116.019L317.641 228.494L281.917 391.501Z" fill="url(#paint0_radial_140_252)"/>
<path d="M1621.5 278.993L1462.67 329.492L1339.59 216.983L1375.34 54.0096L1534.15 3.51131L1657.23 115.986L1621.5 278.993Z" fill="url(#paint1_radial_140_252)"/>
<path d="M1636.58 272.657L1477.75 323.155L1354.67 210.647L1390.42 47.6733L1549.23 -2.82506L1672.31 109.65L1636.58 272.657Z" fill="url(#paint2_radial_140_252)"/>
<path d="M2976.17 160.149L2817.33 210.647L2694.25 98.1385L2730.01 -64.8348L2888.81 -115.333L3011.89 -2.8581L2976.17 160.149Z" fill="url(#paint3_radial_140_252)"/>
<path d="M996.935 293.852H993.593V238.4L928.561 201.054L863.428 239.371L799.299 203.129L735.169 240.408L670.003 203.129L604.871 239.371L538.202 201.589L474.105 239.371L407.937 203.63L345.378 240.408L278.642 203.63L211.438 240.408L146.84 204.199L86.1526 240.475L84.4482 237.597L146.807 200.351L211.471 236.627L278.675 199.882L345.345 236.627L407.904 199.882L474.072 235.589L538.202 197.774L604.938 235.589L670.104 199.347L735.236 236.627L799.332 199.347L863.428 235.589L928.594 197.272L995.297 235.589L1059.93 199.347L1125.03 237.129L1189.69 197.239L1255.39 237.631L1319.45 200.384L1385.62 237.129L1446.54 201.321L1446.48 129.874L1411.32 149.92L1409.65 147.008L1446.48 125.992L1446.91 76.8994H1450.25L1449.85 124.018L1515.45 85.3995L1580.72 123.65L1580.18 203.229L1513.38 241.981L1448.25 204.199L1385.72 240.944L1319.52 204.199L1257.06 240.509V290.806H1253.72V240.475L1189.72 201.121L1125.13 240.977L1059.93 203.162L997.001 238.467V293.918L996.935 293.852ZM1449.85 201.254L1513.31 238.066L1576.81 201.254L1577.31 125.524L1515.39 89.2479L1449.75 127.866L1449.82 201.288L1449.85 201.254Z" fill="white"/>
<path d="M212.674 367.507H209.332L209.533 316.674L147.876 355.125L83.713 316.139L83.6128 238.969H86.9546L87.0549 314.265L147.843 351.177L209.566 312.726L209.767 238.467H213.109L212.908 310.852L253.979 288.865L255.55 291.81L212.875 314.667L212.674 367.507Z" fill="white"/>
<path d="M150.926 213.955L149.269 216.86L193.896 242.392L195.554 239.487L150.926 213.955Z" fill="white"/>
<path d="M282.944 215.714L281.286 218.619L325.914 244.151L327.571 241.246L282.944 215.714Z" fill="white"/>
<path d="M413.612 213.935L411.955 216.841L456.582 242.372L458.24 239.467L413.612 213.935Z" fill="white"/>
<path d="M543.849 213.945L542.191 216.85L586.819 242.382L588.477 239.477L543.849 213.945Z" fill="white"/>
<path d="M676.055 215.709L674.397 218.615L719.025 244.147L720.683 241.241L676.055 215.709Z" fill="white"/>
<path d="M802.558 213.936L800.9 216.841L845.528 242.373L847.186 239.467L802.558 213.936Z" fill="white"/>
<path d="M933.149 212.61L931.491 215.516L976.119 241.048L977.777 238.142L933.149 212.61Z" fill="white"/>
<path d="M1061.4 214.022L1059.74 216.928L1104.36 242.467L1106.02 239.562L1061.4 214.022Z" fill="white"/>
<path d="M1192.46 212.614L1190.8 215.52L1235.43 241.051L1237.08 238.146L1192.46 212.614Z" fill="white"/>
<path d="M1322.6 212.298L1320.94 215.204L1365.57 240.735L1367.23 237.83L1322.6 212.298Z" fill="white"/>
<path d="M1566.48 194.436L1517.8 221.146L1519.4 224.081L1568.08 197.371L1566.48 194.436Z" fill="white"/>
<path d="M1511.75 240.022L1511.44 290.888L1514.79 290.908L1515.09 240.042L1511.75 240.022Z" fill="white"/>
<path d="M145.627 154.593L145.163 202.211L148.504 202.244L148.969 154.626L145.627 154.593Z" fill="white"/>
<path d="M406.729 155.579L406.279 201.691L409.621 201.724L410.071 155.612L406.729 155.579Z" fill="white"/>
<path d="M671.15 156.081L667.809 156.125L668.39 201.198L671.732 201.155L671.15 156.081Z" fill="white"/>
<path d="M149.681 139.947C147.007 139.947 144.601 139.345 142.496 138.106C140.39 136.868 138.72 135.195 137.517 133.02C136.313 130.845 135.712 128.402 135.712 125.658C135.712 122.913 136.313 120.537 137.517 118.362C138.72 116.221 140.357 114.514 142.496 113.276C144.635 112.037 147.041 111.435 149.714 111.435C152.087 111.435 154.259 111.937 156.197 112.908C158.136 113.878 159.706 115.25 160.876 116.99C162.079 118.73 162.781 120.705 163.015 122.947H158.303C158.035 121.508 157.534 120.27 156.732 119.199C155.93 118.128 154.927 117.291 153.724 116.689C152.521 116.12 151.185 115.819 149.748 115.819C147.943 115.819 146.372 116.221 144.969 117.057C143.565 117.894 142.462 119.065 141.694 120.537C140.925 122.043 140.524 123.75 140.524 125.658C140.524 127.565 140.925 129.305 141.694 130.778C142.462 132.284 143.565 133.421 144.969 134.258C146.372 135.095 147.976 135.496 149.748 135.496C151.218 135.496 152.555 135.195 153.791 134.626C154.994 134.057 155.997 133.221 156.765 132.116C157.534 131.045 158.069 129.774 158.336 128.368H163.048C162.781 130.61 162.046 132.585 160.842 134.325C159.639 136.065 158.069 137.437 156.164 138.408C154.259 139.378 152.087 139.88 149.748 139.88L149.681 139.947Z" fill="white"/>
<path d="M169.097 112.071H173.775V123.549H187.811V112.071H192.489V139.378H187.811V127.9H173.775V139.378H169.097V112.071Z" fill="white"/>
<path d="M202.415 149.719C201.078 149.719 199.908 149.484 198.872 148.983C197.836 148.481 197.034 147.811 196.433 146.941C195.831 146.071 195.53 145.067 195.497 143.929H198.237C198.237 144.599 198.471 145.168 198.805 145.703C199.173 146.205 199.641 146.607 200.242 146.908C200.844 147.209 201.546 147.343 202.281 147.343C203.016 147.343 203.718 147.209 204.319 146.908C204.921 146.607 205.389 146.205 205.756 145.669C206.091 145.134 206.291 144.532 206.291 143.862C206.291 142.858 205.957 142.055 205.322 141.453C204.687 140.851 203.852 140.549 202.816 140.549C202.415 140.549 202.014 140.616 201.613 140.75C201.212 140.884 200.877 141.051 200.577 141.219L200.242 141.453L198.872 139.713L204.921 134.559H196.132V132.016H208.664V134.459L203.718 138.675C203.718 138.675 203.785 138.675 203.818 138.642C203.852 138.608 203.918 138.642 203.952 138.642C203.952 138.642 204.019 138.642 204.052 138.642H204.152C205.088 138.642 205.924 138.876 206.659 139.345C207.394 139.813 207.996 140.416 208.43 141.219C208.864 141.988 209.098 142.858 209.098 143.762C209.098 144.933 208.798 145.971 208.229 146.874C207.661 147.778 206.859 148.514 205.823 149.016C204.787 149.518 203.618 149.786 202.281 149.786L202.415 149.719Z" fill="white"/>
<path d="M281.65 293.249C278.976 293.249 276.57 292.647 274.465 291.409C272.359 290.171 270.688 288.497 269.485 286.322C268.282 284.147 267.681 281.704 267.681 278.96C267.681 276.216 268.282 273.84 269.485 271.665C270.688 269.523 272.326 267.816 274.465 266.578C276.603 265.34 279.009 264.737 281.683 264.737C284.056 264.737 286.228 265.239 288.166 266.21C290.104 267.18 291.675 268.552 292.845 270.292C294.048 272.033 294.749 274.007 294.983 276.249H290.271C290.004 274.81 289.503 273.572 288.701 272.501C287.899 271.43 286.896 270.594 285.693 269.991C284.49 269.422 283.153 269.121 281.716 269.121C279.912 269.121 278.341 269.523 276.938 270.359C275.534 271.196 274.431 272.367 273.663 273.84C272.894 275.346 272.493 277.052 272.493 278.96C272.493 280.867 272.894 282.607 273.663 284.08C274.431 285.586 275.534 286.724 276.938 287.56C278.341 288.397 279.945 288.798 281.716 288.798C283.187 288.798 284.523 288.497 285.76 287.928C286.963 287.359 287.966 286.523 288.734 285.419C289.503 284.348 290.038 283.076 290.305 281.67H295.017C294.749 283.913 294.014 285.887 292.811 287.627C291.608 289.367 290.038 290.739 288.133 291.71C286.228 292.68 284.056 293.182 281.716 293.182L281.65 293.249Z" fill="white"/>
<path d="M301.099 265.34H305.777V276.818H319.813V265.34H324.491V292.647H319.813V281.168H305.777V292.647H301.099V265.34Z" fill="white"/>
<path d="M334.384 302.988C333.047 302.988 331.878 302.753 330.842 302.251C329.806 301.749 329.004 301.08 328.402 300.21C327.8 299.34 327.5 298.336 327.466 297.198H330.207C330.207 297.867 330.441 298.436 330.775 298.972C331.142 299.474 331.61 299.875 332.212 300.176C332.813 300.478 333.515 300.612 334.25 300.612C334.985 300.612 335.687 300.478 336.289 300.176C336.89 299.875 337.358 299.474 337.726 298.938C338.06 298.403 338.26 297.8 338.26 297.131C338.26 296.127 337.926 295.324 337.291 294.722C336.656 294.119 335.821 293.818 334.785 293.818C334.384 293.818 333.983 293.885 333.582 294.019C333.181 294.153 332.847 294.32 332.546 294.487L332.212 294.722L330.842 292.982L336.89 287.828H328.101V285.285H340.633V287.728L335.687 291.944C335.687 291.944 335.754 291.944 335.787 291.911C335.821 291.877 335.888 291.911 335.921 291.911C335.921 291.911 335.988 291.911 336.021 291.911H336.122C337.057 291.911 337.893 292.145 338.628 292.613C339.363 293.082 339.965 293.684 340.399 294.487C340.834 295.257 341.068 296.127 341.068 297.031C341.068 298.202 340.767 299.239 340.199 300.143C339.631 301.047 338.829 301.783 337.793 302.285C336.757 302.787 335.587 303.054 334.25 303.054L334.384 302.988Z" fill="white"/>
<path d="M216.317 408.134C213.644 408.134 211.237 407.531 209.132 406.293C207.027 405.055 205.356 403.382 204.153 401.207C202.95 399.031 202.348 396.588 202.348 393.844C202.348 391.1 202.95 388.724 204.153 386.549C205.356 384.407 206.993 382.701 209.132 381.462C211.271 380.224 213.677 379.622 216.35 379.622C218.723 379.622 220.895 380.124 222.834 381.094C224.772 382.065 226.342 383.437 227.512 385.177C228.715 386.917 229.417 388.892 229.651 391.134H224.939C224.672 389.695 224.17 388.457 223.368 387.386C222.566 386.315 221.564 385.478 220.361 384.876C219.158 384.307 217.821 384.006 216.384 384.006C214.579 384.006 213.009 384.407 211.605 385.244C210.201 386.081 209.099 387.252 208.33 388.724C207.561 390.23 207.16 391.937 207.16 393.844C207.16 395.752 207.561 397.492 208.33 398.964C209.099 400.47 210.201 401.608 211.605 402.445C213.009 403.281 214.613 403.683 216.384 403.683C217.854 403.683 219.191 403.382 220.427 402.813C221.63 402.244 222.633 401.407 223.402 400.303C224.17 399.232 224.705 397.961 224.972 396.555H229.684C229.417 398.797 228.682 400.772 227.479 402.512C226.276 404.252 224.705 405.624 222.8 406.594C220.895 407.565 218.723 408.067 216.384 408.067L216.317 408.134Z" fill="white"/>
<path d="M235.767 380.258H240.445V391.736H254.481V380.258H259.159V407.565H254.481V396.086H240.445V407.565H235.767V380.258Z" fill="white"/>
<path d="M269.051 417.906C267.714 417.906 266.544 417.671 265.509 417.169C264.473 416.667 263.671 415.998 263.069 415.128C262.467 414.258 262.167 413.254 262.133 412.116H264.874C264.874 412.785 265.108 413.354 265.442 413.89C265.809 414.392 266.277 414.793 266.879 415.094C267.48 415.396 268.182 415.53 268.917 415.53C269.652 415.53 270.354 415.396 270.956 415.094C271.557 414.793 272.025 414.392 272.393 413.856C272.727 413.321 272.927 412.718 272.927 412.049C272.927 411.045 272.593 410.242 271.958 409.64C271.323 409.037 270.488 408.736 269.452 408.736C269.051 408.736 268.65 408.803 268.249 408.937C267.848 409.071 267.514 409.238 267.213 409.405L266.879 409.64L265.509 407.9L271.557 402.746H262.768V400.203H275.3V402.646L270.354 406.862C270.354 406.862 270.421 406.862 270.454 406.829C270.488 406.795 270.555 406.829 270.588 406.829C270.588 406.829 270.655 406.829 270.688 406.829H270.789C271.724 406.829 272.56 407.063 273.295 407.531C274.03 408 274.632 408.602 275.066 409.405C275.501 410.175 275.735 411.045 275.735 411.949C275.735 413.12 275.434 414.157 274.866 415.061C274.298 415.965 273.496 416.701 272.46 417.203C271.424 417.705 270.254 417.972 268.917 417.972L269.051 417.906Z" fill="white"/>
<path d="M408.539 135.061C405.865 135.061 403.459 134.459 401.354 133.221C399.248 131.983 397.577 130.309 396.374 128.134C395.171 125.959 394.57 123.516 394.57 120.772C394.57 118.028 395.171 115.652 396.374 113.477C397.577 111.335 399.215 109.628 401.354 108.39C403.493 107.152 405.899 106.549 408.572 106.549C410.945 106.549 413.117 107.051 415.055 108.022C416.993 108.992 418.564 110.364 419.734 112.104C420.937 113.845 421.639 115.819 421.873 118.061H417.161C416.893 116.622 416.392 115.384 415.59 114.313C414.788 113.242 413.785 112.406 412.582 111.803C411.379 111.234 410.042 110.933 408.605 110.933C406.801 110.933 405.23 111.335 403.827 112.171C402.423 113.008 401.32 114.179 400.552 115.652C399.783 117.158 399.382 118.864 399.382 120.772C399.382 122.679 399.783 124.419 400.552 125.892C401.32 127.398 402.423 128.536 403.827 129.372C405.23 130.209 406.834 130.61 408.605 130.61C410.076 130.61 411.413 130.309 412.649 129.74C413.852 129.171 414.855 128.335 415.623 127.231C416.392 126.16 416.927 124.888 417.194 123.482H421.906C421.639 125.725 420.903 127.699 419.7 129.439C418.497 131.179 416.927 132.551 415.022 133.522C413.117 134.492 410.945 134.994 408.605 134.994L408.539 135.061Z" fill="white"/>
<path d="M427.955 107.185H432.633V118.663H446.669V107.185H451.347V134.492H446.669V123.014H432.633V134.492H427.955V107.185Z" fill="white"/>
<path d="M461.273 144.833C459.936 144.833 458.767 144.599 457.731 144.097C456.695 143.595 455.893 142.925 455.291 142.055C454.69 141.185 454.389 140.181 454.355 139.044H457.096C457.096 139.713 457.33 140.282 457.664 140.817C458.031 141.319 458.499 141.721 459.101 142.022C459.702 142.323 460.404 142.457 461.139 142.457C461.875 142.457 462.576 142.323 463.178 142.022C463.779 141.721 464.247 141.319 464.615 140.784C464.949 140.248 465.15 139.646 465.15 138.977C465.15 137.973 464.815 137.17 464.18 136.567C463.545 135.965 462.71 135.664 461.674 135.664C461.273 135.664 460.872 135.731 460.471 135.864C460.07 135.998 459.736 136.166 459.435 136.333L459.101 136.567L457.731 134.827L463.779 129.673H454.99V127.13H467.522V129.573L462.576 133.79C462.576 133.79 462.643 133.79 462.677 133.756C462.71 133.723 462.777 133.756 462.81 133.756C462.81 133.756 462.877 133.756 462.911 133.756H463.011C463.947 133.756 464.782 133.99 465.517 134.459C466.252 134.927 466.854 135.53 467.288 136.333C467.723 137.103 467.957 137.973 467.957 138.876C467.957 140.048 467.656 141.085 467.088 141.988C466.52 142.892 465.718 143.628 464.682 144.13C463.646 144.632 462.476 144.9 461.139 144.9L461.273 144.833Z" fill="white"/>
<path d="M670.104 136.467C667.43 136.467 665.024 135.864 662.919 134.626C660.813 133.388 659.142 131.715 657.939 129.54C656.736 127.364 656.135 124.921 656.135 122.177C656.135 119.433 656.736 117.057 657.939 114.882C659.142 112.74 660.78 111.034 662.919 109.795C665.057 108.557 667.464 107.955 670.137 107.955C672.51 107.955 674.682 108.457 676.62 109.427C678.558 110.398 680.129 111.77 681.299 113.51C682.502 115.25 683.204 117.225 683.437 119.467H678.726C678.458 118.028 677.957 116.79 677.155 115.719C676.353 114.648 675.35 113.811 674.147 113.209C672.944 112.64 671.607 112.339 670.17 112.339C668.366 112.339 666.795 112.74 665.392 113.577C663.988 114.414 662.885 115.585 662.117 117.057C661.348 118.563 660.947 120.27 660.947 122.177C660.947 124.085 661.348 125.825 662.117 127.297C662.885 128.803 663.988 129.941 665.392 130.778C666.795 131.614 668.399 132.016 670.17 132.016C671.641 132.016 672.978 131.715 674.214 131.146C675.417 130.577 676.42 129.74 677.188 128.636C677.957 127.565 678.492 126.294 678.759 124.888H683.471C683.204 127.13 682.468 129.105 681.265 130.845C680.062 132.585 678.492 133.957 676.587 134.927C674.682 135.898 672.51 136.4 670.17 136.4L670.104 136.467Z" fill="white"/>
<path d="M689.52 108.591H694.198V120.069H708.234V108.591H712.912V135.898H708.234V124.419H694.198V135.898H689.52V108.591Z" fill="white"/>
<path d="M722.838 146.205C721.501 146.205 720.331 145.971 719.295 145.469C718.259 144.967 717.457 144.298 716.856 143.427C716.254 142.557 715.953 141.553 715.92 140.416H718.66C718.66 141.085 718.894 141.654 719.228 142.189C719.596 142.691 720.064 143.093 720.665 143.394C721.267 143.695 721.969 143.829 722.704 143.829C723.439 143.829 724.141 143.695 724.742 143.394C725.344 143.093 725.812 142.691 726.179 142.156C726.514 141.62 726.714 141.018 726.714 140.349C726.714 139.345 726.38 138.542 725.745 137.939C725.11 137.337 724.275 137.036 723.239 137.036C722.838 137.036 722.436 137.103 722.035 137.237C721.634 137.37 721.3 137.538 721 137.705L720.665 137.939L719.295 136.199L725.344 131.046H716.555V128.502H729.087V130.945L724.141 135.162C724.141 135.162 724.208 135.162 724.241 135.128C724.275 135.095 724.341 135.128 724.375 135.128C724.375 135.128 724.442 135.128 724.475 135.128H724.575C725.511 135.128 726.346 135.362 727.082 135.831C727.817 136.299 728.418 136.902 728.853 137.705C729.287 138.475 729.521 139.345 729.521 140.248C729.521 141.42 729.22 142.457 728.652 143.361C728.084 144.264 727.282 145 726.246 145.502C725.21 146.004 724.041 146.272 722.704 146.272L722.838 146.205Z" fill="white"/>
<path d="M995.865 335.682C993.192 335.682 990.786 335.08 988.68 333.842C986.575 332.604 984.904 330.93 983.701 328.755C982.498 326.58 981.896 324.137 981.896 321.393C981.896 318.649 982.498 316.273 983.701 314.098C984.904 311.956 986.542 310.249 988.68 309.011C990.819 307.773 993.225 307.17 995.899 307.17C998.271 307.17 1000.44 307.672 1002.38 308.643C1004.32 309.613 1005.89 310.985 1007.06 312.726C1008.26 314.466 1008.97 316.44 1009.2 318.682H1004.49C1004.22 317.243 1003.72 316.005 1002.92 314.934C1002.11 313.863 1001.11 313.027 999.909 312.424C998.706 311.856 997.369 311.554 995.932 311.554C994.128 311.554 992.557 311.956 991.153 312.792C989.75 313.629 988.647 314.8 987.878 316.273C987.11 317.779 986.709 319.485 986.709 321.393C986.709 323.3 987.11 325.041 987.878 326.513C988.647 328.019 989.75 329.157 991.153 329.993C992.557 330.83 994.161 331.232 995.932 331.232C997.403 331.232 998.739 330.93 999.976 330.361C1001.18 329.793 1002.18 328.956 1002.95 327.852C1003.72 326.781 1004.25 325.509 1004.52 324.104H1009.23C1008.97 326.346 1008.23 328.32 1007.03 330.06C1005.82 331.8 1004.25 333.173 1002.35 334.143C1000.44 335.114 998.271 335.615 995.932 335.615L995.865 335.682Z" fill="white"/>
<path d="M1015.31 307.806H1019.99V319.285H1034.03V307.806H1038.71V335.113H1034.03V323.635H1019.99V335.113H1015.31V307.806Z" fill="white"/>
<path d="M1048.6 345.454C1047.26 345.454 1046.09 345.22 1045.06 344.718C1044.02 344.216 1043.22 343.547 1042.62 342.677C1042.02 341.807 1041.72 340.803 1041.68 339.665H1044.42C1044.42 340.334 1044.66 340.903 1044.99 341.439C1045.36 341.941 1045.83 342.342 1046.43 342.643C1047.03 342.944 1047.73 343.078 1048.47 343.078C1049.2 343.078 1049.9 342.944 1050.5 342.643C1051.11 342.342 1051.57 341.941 1051.94 341.405C1052.28 340.87 1052.48 340.267 1052.48 339.598C1052.48 338.594 1052.14 337.791 1051.51 337.189C1050.87 336.586 1050.04 336.285 1049 336.285C1048.6 336.285 1048.2 336.352 1047.8 336.486C1047.4 336.62 1047.06 336.787 1046.76 336.954L1046.43 337.189L1045.06 335.448L1051.11 330.295H1042.32V327.751H1054.85V330.194L1049.9 334.411C1049.9 334.411 1049.97 334.411 1050 334.377C1050.04 334.344 1050.1 334.377 1050.14 334.377C1050.14 334.377 1050.2 334.377 1050.24 334.377H1050.34C1051.27 334.377 1052.11 334.612 1052.84 335.08C1053.58 335.549 1054.18 336.151 1054.61 336.954C1055.05 337.724 1055.28 338.594 1055.28 339.498C1055.28 340.669 1054.98 341.706 1054.41 342.61C1053.85 343.513 1053.04 344.25 1052.01 344.752C1050.97 345.254 1049.8 345.521 1048.47 345.521L1048.6 345.454Z" fill="white"/>
<path d="M1254.59 330.797C1251.92 330.797 1249.51 330.194 1247.4 328.956C1245.3 327.718 1243.63 326.045 1242.43 323.869C1241.22 321.694 1240.62 319.251 1240.62 316.507C1240.62 313.763 1241.22 311.387 1242.43 309.212C1243.63 307.07 1245.27 305.363 1247.4 304.125C1249.54 302.887 1251.95 302.285 1254.62 302.285C1257 302.285 1259.17 302.787 1261.11 303.757C1263.04 304.728 1264.61 306.1 1265.78 307.84C1266.99 309.58 1267.69 311.554 1267.92 313.797H1263.21C1262.94 312.358 1262.44 311.119 1261.64 310.048C1260.84 308.978 1259.84 308.141 1258.63 307.539C1257.43 306.97 1256.09 306.669 1254.66 306.669C1252.85 306.669 1251.28 307.07 1249.88 307.907C1248.47 308.743 1247.37 309.915 1246.6 311.387C1245.83 312.893 1245.43 314.6 1245.43 316.507C1245.43 318.415 1245.83 320.155 1246.6 321.627C1247.37 323.133 1248.47 324.271 1249.88 325.108C1251.28 325.944 1252.89 326.346 1254.66 326.346C1256.13 326.346 1257.46 326.045 1258.7 325.476C1259.9 324.907 1260.91 324.07 1261.67 322.966C1262.44 321.895 1262.98 320.623 1263.24 319.218H1267.96C1267.69 321.46 1266.95 323.434 1265.75 325.175C1264.55 326.915 1262.98 328.287 1261.07 329.257C1259.17 330.228 1257 330.73 1254.66 330.73L1254.59 330.797Z" fill="white"/>
<path d="M1274.04 302.92H1278.72V314.399H1292.75V302.92H1297.43V330.228H1292.75V318.749H1278.72V330.228H1274.04V302.92Z" fill="white"/>
<path d="M1307.32 340.568C1305.99 340.568 1304.82 340.334 1303.78 339.832C1302.75 339.33 1301.94 338.661 1301.34 337.791C1300.74 336.921 1300.44 335.917 1300.41 334.779H1303.15C1303.15 335.448 1303.38 336.017 1303.71 336.553C1304.08 337.055 1304.55 337.456 1305.15 337.757C1305.75 338.058 1306.45 338.192 1307.19 338.192C1307.93 338.192 1308.63 338.058 1309.23 337.757C1309.83 337.456 1310.3 337.055 1310.67 336.519C1311 335.984 1311.2 335.381 1311.2 334.712C1311.2 333.708 1310.87 332.905 1310.23 332.303C1309.6 331.7 1308.76 331.399 1307.72 331.399C1307.32 331.399 1306.92 331.466 1306.52 331.6C1306.12 331.734 1305.79 331.901 1305.49 332.068L1305.15 332.303L1303.78 330.562L1309.83 325.409H1301.04V322.865H1313.57V325.308L1308.63 329.525C1308.63 329.525 1308.69 329.525 1308.73 329.492C1308.76 329.458 1308.83 329.492 1308.86 329.492C1308.86 329.492 1308.93 329.492 1308.96 329.492H1309.06C1310 329.492 1310.83 329.726 1311.57 330.194C1312.3 330.663 1312.9 331.265 1313.34 332.068C1313.77 332.838 1314.01 333.708 1314.01 334.612C1314.01 335.783 1313.71 336.82 1313.14 337.724C1312.57 338.627 1311.77 339.364 1310.73 339.866C1309.7 340.368 1308.53 340.635 1307.19 340.635L1307.32 340.568Z" fill="white"/>
<path d="M1519.5 332.202C1516.82 332.202 1514.42 331.6 1512.31 330.362C1510.21 329.123 1508.53 327.45 1507.33 325.275C1506.13 323.1 1505.53 320.657 1505.53 317.913C1505.53 315.169 1506.13 312.793 1507.33 310.617C1508.53 308.476 1510.17 306.769 1512.31 305.531C1514.45 304.293 1516.86 303.69 1519.53 303.69C1521.9 303.69 1524.07 304.192 1526.01 305.163C1527.95 306.133 1529.52 307.505 1530.69 309.245C1531.89 310.985 1532.6 312.96 1532.83 315.202H1528.12C1527.85 313.763 1527.35 312.525 1526.55 311.454C1525.75 310.383 1524.74 309.547 1523.54 308.944C1522.34 308.375 1521 308.074 1519.56 308.074C1517.76 308.074 1516.19 308.476 1514.78 309.312C1513.38 310.149 1512.28 311.32 1511.51 312.793C1510.74 314.298 1510.34 316.005 1510.34 317.913C1510.34 319.82 1510.74 321.56 1511.51 323.033C1512.28 324.539 1513.38 325.677 1514.78 326.513C1516.19 327.35 1517.79 327.751 1519.56 327.751C1521.03 327.751 1522.37 327.45 1523.61 326.881C1524.81 326.312 1525.81 325.476 1526.58 324.371C1527.35 323.301 1527.88 322.029 1528.15 320.623H1532.86C1532.6 322.865 1531.86 324.84 1530.66 326.58C1529.45 328.32 1527.88 329.692 1525.98 330.663C1524.07 331.633 1521.9 332.135 1519.56 332.135L1519.5 332.202Z" fill="white"/>
<path d="M1538.91 304.326H1543.59V315.804H1557.63V304.326H1562.3V331.633H1557.63V320.155H1543.59V331.633H1538.91V304.326Z" fill="white"/>
<path d="M1572.23 341.94C1570.89 341.94 1569.72 341.706 1568.69 341.204C1567.65 340.702 1566.85 340.033 1566.25 339.163C1565.65 338.293 1565.35 337.289 1565.31 336.151H1568.05C1568.05 336.82 1568.29 337.389 1568.62 337.925C1568.99 338.427 1569.46 338.828 1570.06 339.129C1570.66 339.431 1571.36 339.564 1572.1 339.564C1572.83 339.564 1573.53 339.431 1574.13 339.129C1574.74 338.828 1575.2 338.427 1575.57 337.891C1575.91 337.356 1576.11 336.753 1576.11 336.084C1576.11 335.08 1575.77 334.277 1575.14 333.675C1574.5 333.072 1573.67 332.771 1572.63 332.771C1572.23 332.771 1571.83 332.838 1571.43 332.972C1571.03 333.106 1570.69 333.273 1570.39 333.44L1570.06 333.675L1568.69 331.934L1574.74 326.781H1565.95V324.238H1578.48V326.68L1573.53 330.897C1573.53 330.897 1573.6 330.897 1573.63 330.864C1573.67 330.83 1573.73 330.864 1573.77 330.864C1573.77 330.864 1573.83 330.864 1573.87 330.864H1573.97C1574.9 330.864 1575.74 331.098 1576.47 331.566C1577.21 332.035 1577.81 332.637 1578.25 333.44C1578.68 334.21 1578.91 335.08 1578.91 335.984C1578.91 337.155 1578.61 338.192 1578.04 339.096C1577.48 339.999 1576.67 340.736 1575.64 341.238C1574.6 341.74 1573.43 342.007 1572.1 342.007L1572.23 341.94Z" fill="white"/>
<path d="M1453.83 63.7478C1451.16 63.7478 1448.75 63.1455 1446.64 61.9073C1444.54 60.6691 1442.87 58.9958 1441.66 56.8206C1440.46 54.6454 1439.86 52.2025 1439.86 49.4584C1439.86 46.7143 1440.46 44.3383 1441.66 42.163C1442.87 40.0213 1444.51 38.3146 1446.64 37.0764C1448.78 35.8382 1451.19 35.2358 1453.86 35.2358C1456.24 35.2358 1458.41 35.7378 1460.35 36.7083C1462.28 37.6788 1463.85 39.0508 1465.02 40.791C1466.23 42.5312 1466.93 44.5056 1467.16 46.7477H1462.45C1462.18 45.3087 1461.68 44.0705 1460.88 42.9997C1460.08 41.9288 1459.08 41.0922 1457.87 40.4898C1456.67 39.9209 1455.33 39.6197 1453.9 39.6197C1452.09 39.6197 1450.52 40.0213 1449.12 40.8579C1447.71 41.6945 1446.61 42.8658 1445.84 44.3383C1445.07 45.8442 1444.67 47.5509 1444.67 49.4584C1444.67 51.3659 1445.07 53.106 1445.84 54.5785C1446.61 56.0844 1447.71 57.2222 1449.12 58.0588C1450.52 58.8954 1452.12 59.297 1453.9 59.297C1455.37 59.297 1456.7 58.9958 1457.94 58.4269C1459.14 57.858 1460.15 57.0214 1460.91 55.9171C1461.68 54.8462 1462.22 53.5745 1462.48 52.169H1467.2C1466.93 54.4111 1466.19 56.3856 1464.99 58.1257C1463.79 59.8659 1462.22 61.238 1460.31 62.2084C1458.41 63.1789 1456.24 63.6809 1453.9 63.6809L1453.83 63.7478Z" fill="white"/>
<path d="M1473.24 35.8718H1477.92V47.3502H1491.96V35.8718H1496.64V63.1791H1491.96V51.7007H1477.92V63.1791H1473.24V35.8718Z" fill="white"/>
<path d="M1506.56 73.4861C1505.23 73.4861 1504.06 73.2518 1503.02 72.7498C1501.99 72.2479 1501.18 71.5786 1500.58 70.7085C1499.98 69.8384 1499.68 68.8345 1499.65 67.6967H1502.39C1502.39 68.366 1502.62 68.9349 1502.95 69.4703C1503.32 69.9723 1503.79 70.3738 1504.39 70.675C1504.99 70.9762 1505.69 71.1101 1506.43 71.1101C1507.17 71.1101 1507.87 70.9762 1508.47 70.675C1509.07 70.3738 1509.54 69.9723 1509.91 69.4368C1510.24 68.9014 1510.44 68.299 1510.44 67.6297C1510.44 66.6258 1510.11 65.8226 1509.47 65.2203C1508.84 64.6179 1508 64.3167 1506.96 64.3167C1506.56 64.3167 1506.16 64.3836 1505.76 64.5175C1505.36 64.6514 1505.03 64.8187 1504.73 64.986L1504.39 65.2203L1503.02 63.4801L1509.07 58.3265H1500.28V55.7832H1512.81V58.2261L1507.87 62.4427C1507.87 62.4427 1507.93 62.4427 1507.97 62.4092C1508 62.3758 1508.07 62.4092 1508.1 62.4092C1508.1 62.4092 1508.17 62.4092 1508.2 62.4092H1508.3C1509.24 62.4092 1510.07 62.6435 1510.81 63.112C1511.54 63.5805 1512.14 64.1829 1512.58 64.986C1513.01 65.7557 1513.25 66.6258 1513.25 67.5293C1513.25 68.7006 1512.95 69.738 1512.38 70.6416C1511.81 71.5451 1511.01 72.2813 1509.97 72.7833C1508.94 73.2853 1507.77 73.553 1506.43 73.553L1506.56 73.4861Z" fill="white"/>
<path d="M1318.79 150.187H1323.87V162.636H1339.1V150.187H1344.18V179.87H1339.1V167.422H1323.87V179.87H1318.79V150.187Z" fill="white"/>
<path d="M1387.53 180.506C1384.62 180.506 1382.01 179.837 1379.71 178.499C1377.4 177.16 1375.6 175.319 1374.29 172.977C1372.99 170.634 1372.32 167.957 1372.32 164.979C1372.32 162 1372.96 159.39 1374.26 157.048C1375.56 154.705 1377.37 152.865 1379.67 151.526C1381.98 150.187 1384.59 149.518 1387.49 149.518C1390.1 149.518 1392.44 150.054 1394.55 151.091C1396.65 152.162 1398.36 153.634 1399.66 155.508C1400.96 157.416 1401.73 159.557 1402 162H1396.88C1396.62 160.461 1396.02 159.089 1395.18 157.918C1394.31 156.746 1393.24 155.843 1391.91 155.207C1390.6 154.571 1389.13 154.237 1387.56 154.237C1385.62 154.237 1383.88 154.705 1382.35 155.609C1380.81 156.512 1379.64 157.784 1378.81 159.39C1377.97 161.03 1377.54 162.871 1377.54 164.979C1377.54 167.087 1377.97 168.928 1378.81 170.567C1379.64 172.207 1380.84 173.445 1382.35 174.349C1383.88 175.252 1385.62 175.721 1387.56 175.721C1389.17 175.721 1390.64 175.386 1391.94 174.751C1393.24 174.115 1394.34 173.211 1395.18 172.04C1396.02 170.869 1396.58 169.497 1396.88 167.957H1402C1401.73 170.4 1400.93 172.542 1399.59 174.449C1398.25 176.357 1396.58 177.829 1394.48 178.867C1392.37 179.904 1390.07 180.44 1387.49 180.44L1387.53 180.506Z" fill="white"/>
<path d="M1361.76 190.479C1360.33 190.479 1359.06 190.211 1357.92 189.676C1356.78 189.14 1355.91 188.404 1355.28 187.434C1354.64 186.463 1354.31 185.392 1354.28 184.154H1357.25C1357.28 184.857 1357.48 185.526 1357.89 186.061C1358.29 186.63 1358.79 187.065 1359.46 187.367C1360.12 187.668 1360.86 187.835 1361.7 187.835C1362.53 187.835 1363.27 187.668 1363.9 187.367C1364.54 187.065 1365.07 186.597 1365.44 185.995C1365.81 185.426 1366.01 184.756 1366.01 184.054C1366.01 182.983 1365.67 182.113 1364.97 181.443C1364.27 180.774 1363.37 180.439 1362.26 180.439C1361.83 180.439 1361.36 180.506 1360.96 180.64C1360.56 180.774 1360.16 180.941 1359.82 181.176L1359.49 181.443L1357.99 179.569L1364.54 173.981H1354.98V171.237H1368.61V173.914L1363.23 178.498C1363.23 178.498 1363.3 178.498 1363.37 178.465C1363.43 178.431 1363.47 178.465 1363.5 178.465C1363.53 178.465 1363.57 178.465 1363.63 178.465H1363.77C1364.77 178.465 1365.67 178.733 1366.51 179.235C1367.31 179.737 1367.98 180.406 1368.45 181.243C1368.91 182.079 1369.15 183.016 1369.15 184.02C1369.15 185.292 1368.85 186.396 1368.21 187.4C1367.58 188.404 1366.71 189.174 1365.61 189.743C1364.47 190.311 1363.2 190.579 1361.76 190.579V190.479Z" fill="white"/>
</g>
<defs>
<radialGradient id="paint0_radial_140_252" cx="0" cy="0" r="1" gradientUnits="userSpaceOnUse" gradientTransform="translate(158.837 278.993) scale(160.809 161.032)">
<stop stop-color="#D90000"/>
<stop offset="0.1" stop-color="#AB0505"/>
<stop offset="0.19" stop-color="#830909"/>
<stop offset="0.29" stop-color="#610D0D"/>
<stop offset="0.4" stop-color="#450F0F"/>
<stop offset="0.51" stop-color="#2F1212"/>
<stop offset="0.64" stop-color="#201313"/>
<stop offset="0.78" stop-color="#171414"/>
<stop offset="1" stop-color="#151515"/>
</radialGradient>
<radialGradient id="paint1_radial_140_252" cx="0" cy="0" r="1" gradientUnits="userSpaceOnUse" gradientTransform="translate(158.837 278.993) scale(160.809 161.032)">
<stop stop-color="#D90000"/>
<stop offset="0.1" stop-color="#AB0505"/>
<stop offset="0.19" stop-color="#830909"/>
<stop offset="0.29" stop-color="#610D0D"/>
<stop offset="0.4" stop-color="#450F0F"/>
<stop offset="0.51" stop-color="#2F1212"/>
<stop offset="0.64" stop-color="#201313"/>
<stop offset="0.78" stop-color="#171414"/>
<stop offset="1" stop-color="#151515"/>
</radialGradient>
<radialGradient id="paint2_radial_140_252" cx="0" cy="0" r="1" gradientUnits="userSpaceOnUse" gradientTransform="translate(1513.5 160.149) scale(160.809 161.032)">
<stop stop-color="#D90000"/>
<stop offset="0.1" stop-color="#AB0505"/>
<stop offset="0.19" stop-color="#830909"/>
<stop offset="0.29" stop-color="#610D0D"/>
<stop offset="0.4" stop-color="#450F0F"/>
<stop offset="0.51" stop-color="#2F1212"/>
<stop offset="0.64" stop-color="#201313"/>
<stop offset="0.78" stop-color="#171414"/>
<stop offset="1" stop-color="#151515"/>
</radialGradient>
<radialGradient id="paint3_radial_140_252" cx="0" cy="0" r="1" gradientUnits="userSpaceOnUse" gradientTransform="translate(1513.5 160.149) scale(160.809 161.032)">
<stop stop-color="#D90000"/>
<stop offset="0.1" stop-color="#AB0505"/>
<stop offset="0.19" stop-color="#830909"/>
<stop offset="0.29" stop-color="#610D0D"/>
<stop offset="0.4" stop-color="#450F0F"/>
<stop offset="0.51" stop-color="#2F1212"/>
<stop offset="0.64" stop-color="#201313"/>
<stop offset="0.78" stop-color="#171414"/>
<stop offset="1" stop-color="#151515"/>
</radialGradient>
<clipPath id="clip0_140_252">
<rect width="1665.33" height="441.333" fill="white" transform="translate(0 0.666748)"/>
</clipPath>
</defs>
</svg>
