<svg width="476" height="830" viewBox="0 0 476 830" fill="none" xmlns="http://www.w3.org/2000/svg">
<g clip-path="url(#clip0_140_849)">
<path d="M230.824 297.814C230.824 297.814 291.36 427.895 402.462 406.445" stroke="#7FBEBF" stroke-width="1.2" stroke-miterlimit="10"/>
<path d="M325.025 196.947C325.025 196.947 429.675 576.009 595.311 639.102" stroke="#7FBEBF" stroke-width="2.41333" stroke-miterlimit="10"/>
<path d="M475.486 181.521C475.486 181.521 509.247 304.396 374.619 337.751" stroke="#7FBEBF" stroke-width="1.2" stroke-miterlimit="10"/>
<path d="M386.355 172.851C386.355 172.851 404.612 247.517 350.129 279.48" stroke="#7FBEBF" stroke-width="1.2" stroke-miterlimit="10"/>
<path d="M153.298 419.189C153.298 419.189 279.88 651.673 485.41 547.985" stroke="#7FBEBF" stroke-width="2.41333" stroke-miterlimit="10"/>
<path d="M200.649 365.066C200.649 365.066 258.577 455.711 215.651 501.182C215.651 501.182 126.059 576.097 67.805 435.233" stroke="#7FBEBF" stroke-width="1.2" stroke-miterlimit="10"/>
<path d="M328.11 434.732C328.11 434.732 371.315 524.363 319.787 565.438" stroke="#7FBEBF" stroke-width="1.2" stroke-miterlimit="10"/>
<path d="M558.024 281.485C558.024 281.485 582.982 417.277 433.933 463.896" stroke="#7FBEBF" stroke-width="1.2" stroke-miterlimit="10"/>
<path d="M57.4193 439.327L21.9524 420.178L29.931 412.555L60.4643 435.98L34.3085 408.082L42.0639 402.899L63.4896 433.565L42.4934 398.035L52.867 393.449L68.5969 430.617L56.4276 395.919L66.0416 392.642L73.8998 428.031L69.7888 393.62L77.3079 393.695L79.1611 427.343C79.1611 427.343 76.997 435.395 57.4193 439.327Z" fill="#FFC700"/>
<path d="M57.4191 439.328C57.4191 439.328 64.5884 452.176 75.9515 445.728C87.3 439.263 79.1756 427.36 79.1756 427.36L57.4337 439.345L57.4191 439.328Z" fill="#7FBEBF"/>
<path d="M184.907 363.696L149.44 344.546L157.419 336.924L187.952 360.348L161.796 332.451L169.552 327.267L190.977 357.933L169.981 322.403L180.355 317.817L196.085 354.985L183.915 320.287L193.529 317.01L201.388 352.399L197.277 317.989L204.796 318.063L206.649 351.712C206.649 351.712 204.485 359.763 184.907 363.696Z" fill="#FFC700"/>
<path d="M184.907 363.696C184.907 363.696 192.076 376.544 203.439 370.096C214.802 363.648 206.663 351.729 206.663 351.729L184.922 363.713L184.907 363.696Z" fill="#7FBEBF"/>
<path d="M309.189 199.973L269.284 161.501L282.663 154.341L314.466 196.641L290.103 150.022L302.287 146.024L319.369 194.55L304.659 139.713L320.107 137.468L327.229 192.526L323.879 142.06L337.829 141.26L335.175 191.078L342.435 143.947L352.351 146.821L342.42 192.099C342.42 192.099 336.593 201.965 309.205 199.958L309.189 199.973Z" fill="#FFC700"/>
<path d="M309.188 199.973C309.188 199.973 313.965 219.653 331.356 215.28C348.78 210.909 342.403 192.114 342.403 192.114L309.188 199.973Z" fill="#7FBEBF"/>
<path d="M156.66 404.189L161.834 359.191L149.698 361.64L151.624 404.83L142.771 362.796L133.007 366.618L147.432 406.069L128.231 363.871L117.346 370.496L141.432 408.874L117.329 375.357L108.129 382.117L135.655 412.107L106.632 386.193L101.883 393.174L131.631 416.51C131.631 416.51 140.43 419.701 156.629 404.187L156.66 404.189Z" fill="#FFC700"/>
<path d="M156.66 404.189C156.66 404.189 163.873 419.068 150.636 425.367C137.398 431.666 131.662 416.512 131.662 416.512L156.66 404.189Z" fill="#7FBEBF"/>
<path d="M239.749 288.928L244.923 243.93L232.787 246.379L234.713 289.568L225.86 247.534L216.096 251.356L230.521 290.807L211.32 248.609L200.435 255.234L224.521 293.613L200.434 260.081L191.235 266.841L218.76 296.831L189.72 270.931L184.972 277.912L214.72 301.249C214.72 301.249 223.519 304.439 239.717 288.925L239.749 288.928Z" fill="#FFC700"/>
<path d="M239.749 288.928C239.749 288.928 246.962 303.806 233.724 310.106C220.487 316.405 214.751 301.251 214.751 301.251L239.749 288.928Z" fill="#7FBEBF"/>
<path d="M400.924 181.505L414.412 142.926L403.246 142.672L396.363 181.054L396.935 142.319L387.598 143.731L392.447 181.315L383.944 140.367L373.035 144.028L386.604 182.595L372.076 148.316L362.655 152.431L380.907 184.282L360.534 155.718L354.965 160.898L376.503 187.359C376.503 187.359 383.605 191.902 400.943 181.459L400.924 181.505Z" fill="#FFC700"/>
<path d="M400.924 181.505C400.924 181.505 404.313 196.033 391.415 198.935C378.532 201.854 376.486 187.374 376.486 187.374L400.926 181.473L400.924 181.505Z" fill="#7FBEBF"/>
<path d="M465.375 193.682L433.033 168.751L442.25 162.42L468.956 190.816L447.351 158.68L455.948 154.776L472.388 188.905L457.183 149.953L468.306 147.052L477.975 186.783L471.443 150.125L481.593 148.422L483.689 185.082L485.186 150.008L492.68 151.316L489.078 185.259C489.078 185.259 485.608 192.964 465.39 193.699L465.375 193.682Z" fill="#FFC700"/>
<path d="M465.375 193.682C465.375 193.682 470.449 207.696 482.851 203.096C495.238 198.478 489.064 185.242 489.064 185.242L465.375 193.682Z" fill="#7FBEBF"/>
<path d="M329.424 471.242L297.083 446.311L306.299 439.98L333.005 468.375L311.4 436.239L319.997 432.335L336.437 466.465L321.232 427.512L332.355 424.611L342.024 464.343L335.492 427.685L345.642 425.982L347.738 462.642L349.235 427.568L356.729 428.876L353.127 462.818C353.127 462.818 349.657 470.523 329.439 471.259L329.424 471.242Z" fill="#FFC700"/>
<path d="M329.424 471.242C329.424 471.242 334.498 485.256 346.9 480.655C359.288 476.038 353.113 462.801 353.113 462.801L329.424 471.242Z" fill="#7FBEBF"/>
</g>
<defs>
<clipPath id="clip0_140_849">
<rect width="602.934" height="575.408" fill="white" transform="translate(0 394.844) rotate(-40.91)"/>
</clipPath>
</defs>
</svg>
