<svg width="888" height="556" viewBox="0 0 888 556" fill="none" xmlns="http://www.w3.org/2000/svg">
<g clip-path="url(#clip0_140_373)">
<path d="M245.966 318.668L155.732 268.246L152.823 159.982H153.664L153.276 159.237L242.152 112.217L243.122 60.9856L247.97 61.0828L247 112.217L339.109 159.852L342.082 266.755L245.966 318.635V318.668ZM160.515 265.362L245.998 313.127L337.137 263.936L334.326 162.898L244.544 116.495L157.736 162.412L160.515 265.362Z" fill="white"/>
<path d="M156.814 264.745L114.171 292.851L116.834 296.913L159.477 268.806L156.814 264.745Z" fill="white"/>
<path d="M232.854 130.12L173.635 161.465L175.898 165.764L235.118 134.418L232.854 130.12Z" fill="white"/>
<path d="M324.554 175.933L319.708 176.062L321.609 248.396L326.455 248.268L324.554 175.933Z" fill="white"/>
<path d="M177.837 257.676L175.33 261.836L236.076 298.635L238.583 294.475L177.837 257.676Z" fill="white"/>
<path d="M389.882 298.026L337.235 266.755L334.261 159.982L425.917 107.843L514.342 158.524L554.869 128.971L557.714 132.924L516.959 162.607L518.866 263.677L462.567 296.762L460.111 292.55L513.954 260.923L512.112 162.834L425.917 113.449L339.206 162.769L342.018 263.936L392.338 293.846L389.882 298.026Z" fill="white"/>
<path d="M650.146 492.519H645.298V447.347L557.262 394.657L556.389 292.226L515.053 264.325L517.768 260.307L558.91 288.078L647.722 237.202L739.087 289.082V395.078L778.355 422.46L775.575 426.446L736.502 399.194L650.146 447.379V492.519ZM562.077 391.87L647.754 443.167L734.207 394.916V291.902L647.722 242.776L561.237 292.323L562.077 391.87Z" fill="white"/>
<path d="M492.657 257.267L459.369 278.334L461.956 282.445L495.244 261.378L492.657 257.267Z" fill="white"/>
<path d="M639.933 258.108L580.792 292.343L583.216 296.553L642.356 262.317L639.933 258.108Z" fill="white"/>
<path d="M724.628 305.767L719.78 305.795L720.225 380.908L725.073 380.879L724.628 305.767Z" fill="white"/>
<path d="M582.854 384.156L580.257 388.26L643.79 428.671L646.386 424.566L582.854 384.156Z" fill="white"/>
<path d="M433.594 127.964L431.075 132.117L490.42 168.296L492.939 164.142L433.594 127.964Z" fill="white"/>
<path d="M232.102 46.0147C227.771 46.0147 223.86 45.0101 220.37 43.0335C216.879 41.0568 214.132 38.27 212.129 34.7702C210.125 31.2705 209.155 27.3496 209.155 23.0073C209.155 18.6651 210.157 14.7765 212.129 11.2444C214.132 7.74472 216.879 4.99032 220.37 2.98123C223.86 0.972141 227.771 0 232.102 0C236.432 0 240.343 1.00455 243.833 2.98123C247.324 4.99032 250.071 7.74472 252.075 11.2444C254.078 14.7441 255.048 18.6651 255.048 23.0073C255.048 27.3496 254.046 31.2705 252.075 34.7702C250.103 38.27 247.324 41.0244 243.833 43.0335C240.343 45.0425 236.432 46.0147 232.102 46.0147ZM232.102 38.9505C235.01 38.9505 237.596 38.27 239.923 36.8766C242.25 35.4832 244.092 33.6037 245.417 31.1733C246.774 28.743 247.421 26.0534 247.421 23.0073C247.421 19.9613 246.742 17.2717 245.417 14.8414C244.06 12.411 242.25 10.5315 239.923 9.13813C237.596 7.74472 234.978 7.06423 232.102 7.06423C229.225 7.06423 226.607 7.74472 224.28 9.13813C221.954 10.5315 220.144 12.411 218.819 14.8414C217.494 17.2717 216.847 19.9613 216.847 23.0073C216.847 26.0534 217.494 28.743 218.819 31.1733C220.144 33.6037 221.954 35.4832 224.28 36.8766C226.607 38.27 229.225 38.9505 232.102 38.9505Z" fill="white"/>
<path d="M265.422 0.939697H272.953V19.4752H295.576V0.939697H303.106V45.0749H295.576V26.5394H272.953V45.0749H265.422V0.939697Z" fill="white"/>
<path d="M592.585 144.233C588.255 144.233 584.344 143.229 580.854 141.252C577.363 139.276 574.616 136.489 572.612 132.989C570.609 129.489 569.639 125.568 569.639 121.226C569.639 116.884 570.641 112.995 572.612 109.463C574.616 105.963 577.363 103.209 580.854 101.2C584.344 99.1909 588.255 98.2188 592.585 98.2188C596.916 98.2188 600.827 99.2233 604.317 101.2C607.808 103.209 610.555 105.963 612.559 109.463C614.562 112.963 615.532 116.884 615.532 121.226C615.532 125.568 614.53 129.489 612.559 132.989C610.587 136.489 607.808 139.243 604.317 141.252C600.827 143.261 596.916 144.233 592.585 144.233ZM592.585 137.169C595.494 137.169 598.08 136.489 600.407 135.095C602.734 133.702 604.576 131.822 605.901 129.392C607.258 126.962 607.905 124.272 607.905 121.226C607.905 118.18 607.226 115.49 605.901 113.06C604.543 110.63 602.734 108.75 600.407 107.357C598.08 105.963 595.462 105.283 592.585 105.283C589.709 105.283 587.091 105.963 584.764 107.357C582.437 108.75 580.628 110.63 579.302 113.06C577.977 115.49 577.331 118.18 577.331 121.226C577.331 124.272 577.977 126.962 579.302 129.392C580.628 131.822 582.437 133.702 584.764 135.095C587.091 136.489 589.709 137.169 592.585 137.169Z" fill="white"/>
<path d="M625.906 99.1584H633.436V117.694H656.06V99.1584H663.59V143.294H656.06V124.758H633.436V143.294H625.906V99.1584Z" fill="white"/>
<path d="M816.264 453.828C811.934 453.828 808.023 452.823 804.533 450.847C801.042 448.87 798.295 446.083 796.291 442.583C794.287 439.084 793.318 435.163 793.318 430.821C793.318 426.478 794.32 422.59 796.291 419.058C798.295 415.558 801.042 412.804 804.533 410.794C808.023 408.785 811.934 407.813 816.264 407.813C820.595 407.813 824.506 408.818 827.996 410.794C831.486 412.804 834.234 415.558 836.237 419.058C838.241 422.557 839.211 426.478 839.211 430.821C839.211 435.163 838.209 439.084 836.237 442.583C834.266 446.083 831.486 448.838 827.996 450.847C824.506 452.856 820.595 453.828 816.264 453.828ZM816.264 446.764C819.173 446.764 821.758 446.083 824.085 444.69C826.412 443.296 828.255 441.417 829.58 438.987C830.937 436.556 831.583 433.867 831.583 430.821C831.583 427.775 830.905 425.085 829.58 422.655C828.222 420.224 826.412 418.345 824.085 416.951C821.758 415.558 819.141 414.877 816.264 414.877C813.388 414.877 810.77 415.558 808.443 416.951C806.116 418.345 804.306 420.224 802.981 422.655C801.656 425.085 801.01 427.775 801.01 430.821C801.01 433.867 801.656 436.556 802.981 438.987C804.306 441.417 806.116 443.296 808.443 444.69C810.77 446.083 813.388 446.764 816.264 446.764Z" fill="white"/>
<path d="M849.584 408.753H857.115V427.288H879.738V408.753H887.268V452.888H879.738V434.353H857.115V452.888H849.584V408.753Z" fill="white"/>
<path d="M622.642 556C618.311 556 614.401 554.995 610.91 553.019C607.42 551.042 604.673 548.255 602.669 544.756C600.665 541.256 599.696 537.335 599.696 532.993C599.696 528.65 600.698 524.762 602.669 521.23C604.673 517.73 607.42 514.976 610.91 512.967C614.401 510.957 618.311 509.985 622.642 509.985C626.973 509.985 630.883 510.99 634.374 512.967C637.864 514.976 640.611 517.73 642.615 521.23C644.619 524.729 645.589 528.65 645.589 532.993C645.589 537.335 644.587 541.256 642.615 544.756C640.644 548.255 637.864 551.01 634.374 553.019C630.883 555.028 626.973 556 622.642 556ZM622.642 548.936C625.551 548.936 628.136 548.255 630.463 546.862C632.79 545.468 634.632 543.589 635.958 541.159C637.315 538.728 637.961 536.039 637.961 532.993C637.961 529.947 637.283 527.257 635.958 524.827C634.6 522.396 632.79 520.517 630.463 519.123C628.136 517.73 625.519 517.05 622.642 517.05C619.766 517.05 617.148 517.73 614.821 519.123C612.494 520.517 610.684 522.396 609.359 524.827C608.034 527.257 607.388 529.947 607.388 532.993C607.388 536.039 608.034 538.728 609.359 541.159C610.684 543.589 612.494 545.468 614.821 546.862C617.148 548.255 619.766 548.936 622.642 548.936Z" fill="white"/>
<path d="M655.963 510.925H663.493V529.461H686.116V510.925H693.647V555.06H686.116V536.525H663.493V555.06H655.963V510.925Z" fill="white"/>
<path d="M60.0037 329.102C56.5133 327.093 53.7662 324.339 51.7624 320.839C49.7586 317.339 48.7891 313.418 48.7891 309.076C48.7891 304.734 49.7909 300.845 51.7624 297.313C53.7338 293.781 56.5133 291.059 60.0037 289.05C63.4941 287.041 67.4047 286.069 71.7354 286.069C76.0661 286.069 79.9767 287.073 83.4672 289.05C86.9576 291.059 89.7047 293.814 91.7084 297.313C93.7122 300.813 94.6818 304.734 94.6818 309.076C94.6818 313.418 93.6799 317.339 91.7084 320.839C89.7047 324.339 86.9576 327.093 83.4672 329.102C79.9767 331.111 76.0661 332.084 71.7354 332.084C67.4047 332.084 63.4941 331.079 60.0037 329.102ZM79.5566 322.945C81.8835 321.552 83.6934 319.673 85.0185 317.242C86.3435 314.812 86.9899 312.122 86.9899 309.076C86.9899 306.03 86.3435 303.341 85.0185 300.91C83.6934 298.48 81.8835 296.6 79.5566 295.207C77.2296 293.814 74.6118 293.133 71.7354 293.133C68.859 293.133 66.2412 293.814 63.9143 295.207C61.5873 296.6 59.7451 298.48 58.4201 300.91C57.0627 303.341 56.4163 306.03 56.4163 309.076C56.4163 312.122 57.095 314.812 58.4201 317.242C59.7775 319.673 61.5873 321.552 63.9143 322.945C66.2412 324.339 68.859 325.019 71.7354 325.019C74.6118 325.019 77.2296 324.339 79.5566 322.945Z" fill="white"/>
<path d="M38.3826 331.144H30.8523V312.609H8.22911V331.144H0.666504V287.009H8.19679V305.544H30.82V287.009H38.3502V331.144H38.3826Z" fill="white"/>
<path d="M473.781 424.923C469.645 424.923 465.96 423.983 462.664 422.071C459.4 420.192 456.814 417.567 454.972 414.197C453.097 410.827 452.16 407.036 452.16 402.823C452.16 398.61 453.097 394.884 454.94 391.546C456.782 388.208 459.367 385.584 462.631 383.704C465.928 381.825 469.645 380.853 473.781 380.853C477.466 380.853 480.827 381.598 483.8 383.121C486.774 384.644 489.198 386.718 491.04 389.44C492.882 392.129 493.981 395.208 494.336 398.675H487.064C486.677 396.472 485.836 394.527 484.641 392.842C483.412 391.19 481.861 389.893 480.019 388.986C478.145 388.079 476.108 387.625 473.846 387.625C471.067 387.625 468.61 388.273 466.445 389.569C464.28 390.866 462.599 392.648 461.403 394.981C460.208 397.314 459.593 399.939 459.593 402.92C459.593 405.901 460.208 408.526 461.403 410.859C462.599 413.192 464.28 414.975 466.445 416.271C468.61 417.567 471.067 418.215 473.846 418.215C476.141 418.215 478.209 417.762 480.084 416.854C481.958 415.947 483.477 414.651 484.673 412.998C485.869 411.313 486.677 409.401 487.097 407.165H494.369C493.981 410.632 492.817 413.711 490.975 416.401C489.101 419.09 486.677 421.196 483.736 422.719C480.762 424.242 477.466 424.988 473.814 424.988L473.781 424.923Z" fill="white"/>
<path d="M502.61 381.144H508.944V423.983H502.61V381.144Z" fill="white"/>
<path d="M414.186 335.907C410.695 333.898 407.948 331.144 405.945 327.644C403.941 324.144 402.971 320.223 402.971 315.881C402.971 311.539 403.973 307.65 405.945 304.118C407.916 300.586 410.695 297.864 414.186 295.855C417.676 293.846 421.587 292.874 425.918 292.874C430.248 292.874 434.159 293.878 437.649 295.855C441.14 297.864 443.887 300.619 445.891 304.118C447.894 307.618 448.864 311.539 448.864 315.881C448.864 320.223 447.862 324.144 445.891 327.644C443.887 331.144 441.14 333.898 437.649 335.907C434.159 337.916 430.248 338.888 425.918 338.888C421.587 338.888 417.676 337.884 414.186 335.907ZM433.739 329.75C436.066 328.357 437.876 326.477 439.201 324.047C440.526 321.617 441.172 318.927 441.172 315.881C441.172 312.835 440.526 310.145 439.201 307.715C437.876 305.285 436.066 303.405 433.739 302.012C431.412 300.619 428.794 299.938 425.918 299.938C423.041 299.938 420.423 300.619 418.096 302.012C415.769 303.405 413.927 305.285 412.602 307.715C411.245 310.145 410.598 312.835 410.598 315.881C410.598 318.927 411.277 321.617 412.602 324.047C413.96 326.477 415.769 328.357 418.096 329.75C420.423 331.144 423.041 331.824 425.918 331.824C428.794 331.824 431.412 331.144 433.739 329.75Z" fill="white"/>
</g>
<defs>
<clipPath id="clip0_140_373">
<rect width="886.667" height="556" fill="white" transform="translate(0.666504)"/>
</clipPath>
</defs>
</svg>
