<svg width="825" height="599" viewBox="0 0 825 599" fill="none" xmlns="http://www.w3.org/2000/svg">
<g clip-path="url(#clip0_140_32)">
<path d="M263.822 165.84L256.915 98.7349L317.851 73.413L328.678 8.78907L390.917 -21.6914L404.434 -83.4779L471.201 -91.8771L499.926 -33.4314L565.144 -18.2611L591.084 36.3979L655.833 50.9955L667.066 116.019L601.447 145.537L593.008 212.184L533.778 237.213L520.476 306.963L454.323 314.526L420.502 249.483L359.539 240.366L332.594 177.041L263.779 165.831L263.822 165.84ZM261.109 101.219L267.414 162.451L335.407 173.533L362.334 236.818L423.098 245.902L456.612 310.326L517.216 303.397L530.371 234.43L589.454 209.459L597.884 142.855L662.723 113.691L652.432 54.2371L588.368 39.7838L562.412 -14.8874L497.225 -30.0333L468.903 -87.6345L407.636 -79.9337L394.327 -19.006L332.207 11.4192L321.356 76.1989L261.109 101.219Z" fill="#858585"/>
<path d="M116.087 281.296L106.844 235.262L155.03 190.19L217.459 207.989L263.585 163.404L257.198 101.333L212.459 82.8329L213.965 79.2096L260.838 98.6063L267.666 164.899L218.545 212.374L156.073 194.566L111.105 236.626L119.911 280.539L116.087 281.296Z" fill="#858585"/>
<path d="M663.118 116.053L651.997 51.7679L691.561 21.8482L693.922 24.9736L656.253 53.4522L666.671 113.657L718.171 145.772L758.597 125.454L760.36 128.953L717.974 150.262L663.118 116.053Z" fill="#858585"/>
<path d="M447.564 522.322L425.859 486.689L454.163 428.514L421.706 367.851L454.277 310.593L519.716 303.111L544.196 333.682L541.15 336.132L518.003 307.245L456.685 314.256L426.18 367.91L458.551 428.429L430.316 486.486L450.907 520.284L447.564 522.322Z" fill="#858585"/>
<path d="M114.657 229.234L64.2075 215.963L63.2127 219.745L113.662 233.015L114.657 229.234Z" fill="#858585"/>
<path d="M110.844 241.023L62.1118 228.45L61.1349 232.236L109.867 244.81L110.844 241.023Z" fill="#858585"/>
<path d="M428.964 479.342L377.981 476.334L377.751 480.237L428.733 483.246L428.964 479.342Z" fill="#858585"/>
<path d="M432.769 492.219L378.809 490.62L378.693 494.529L432.653 496.128L432.769 492.219Z" fill="#858585"/>
<path d="M755.528 116.193L725.15 131.467L726.907 134.961L757.285 119.687L755.528 116.193Z" fill="#858585"/>
<path d="M433.937 -0.843224L393.577 -22.1019L391.755 -18.642L432.114 2.61663L433.937 -0.843224Z" fill="#858585"/>
<path d="M455.344 34.5279L451.468 35.0439L457.665 81.5981L461.542 81.0821L455.344 34.5279Z" fill="#858585"/>
<path d="M341.957 17.3254L338.093 16.7239L330.235 67.2064L334.099 67.8078L341.957 17.3254Z" fill="#858585"/>
<path d="M559.685 -7.32255L556.105 -5.74933L574.126 35.2602L577.706 33.687L559.685 -7.32255Z" fill="#858585"/>
<path d="M468.628 149.278L464.729 149.585L467.13 180.071L471.029 179.764L468.628 149.278Z" fill="#858585"/>
<path d="M321.08 73.515L318.117 76.0667L348.112 110.899L351.076 108.348L321.08 73.515Z" fill="#858585"/>
<path d="M270.508 109.679L266.629 110.174L272.02 152.417L275.899 151.922L270.508 109.679Z" fill="#858585"/>
<path d="M354.235 139.171L350.736 137.425L332.281 174.41L335.78 176.156L354.235 139.171Z" fill="#858585"/>
<path d="M343.857 137.849L340.275 136.28L329.147 161.695L332.729 163.264L343.857 137.849Z" fill="#858585"/>
<path d="M416.017 235.98L371.435 229.112L370.84 232.977L415.421 239.845L416.017 235.98Z" fill="#858585"/>
<path d="M448.699 220.769L420.511 246.268L423.134 249.168L451.322 223.669L448.699 220.769Z" fill="#858585"/>
<path d="M506.417 295.205L464.107 299.863L464.535 303.75L506.845 299.092L506.417 295.205Z" fill="#858585"/>
<path d="M532.791 234.043L490.708 216.596L489.21 220.209L531.294 237.655L532.791 234.043Z" fill="#858585"/>
<path d="M578.434 204.494L537.351 221.547L538.85 225.159L579.933 208.106L578.434 204.494Z" fill="#858585"/>
<path d="M591.446 38.9868L587.959 37.2165L567.928 76.6698L571.415 78.4401L591.446 38.9868Z" fill="#858585"/>
<path d="M648.02 63.0415L644.173 63.7429L651.692 104.983L655.539 104.282L648.02 63.0415Z" fill="#858585"/>
<path d="M574.743 112.375L571.783 114.932L598.191 145.5L601.15 142.944L574.743 112.375Z" fill="#858585"/>
<path d="M583.986 106.307L580.953 108.775L599.96 132.128L602.993 129.66L583.986 106.307Z" fill="#858585"/>
<path d="M399.233 115.397L390.527 116.673L391.094 120.542L399.8 119.266L399.233 115.397Z" fill="#858585"/>
<path d="M417.785 112.66L408.5 114.029L409.07 117.897L418.355 116.529L417.785 112.66Z" fill="#858585"/>
<path d="M435.755 110.004L427.05 111.286L427.62 115.155L436.325 113.872L435.755 110.004Z" fill="#858585"/>
<path d="M498.61 103.46L489.905 104.743L490.475 108.612L499.18 107.329L498.61 103.46Z" fill="#858585"/>
<path d="M517.176 100.73L507.891 102.099L508.461 105.967L517.746 104.599L517.176 100.73Z" fill="#858585"/>
<path d="M535.164 98.087L526.459 99.3636L527.026 103.233L535.732 101.956L535.164 98.087Z" fill="#858585"/>
<path d="M695.651 20.1284C693.6 18.4982 692.143 16.5913 691.263 14.368C690.382 12.1448 690.146 9.83396 690.542 7.45091C690.937 5.06785 691.974 2.82017 693.629 0.73847C695.283 -1.34323 697.202 -2.81507 699.435 -3.73825C701.667 -4.66143 703.959 -4.93744 706.324 -4.58159C708.688 -4.22574 710.89 -3.22508 712.941 -1.59489C714.763 -0.147178 716.124 1.53407 717.013 3.46416C717.901 5.39425 718.28 7.36871 718.125 9.41816C717.985 11.4798 717.316 13.4209 716.137 15.2813L712.54 12.4223C713.205 11.1774 713.573 9.8968 713.618 8.58362C713.663 7.27044 713.396 6.03458 712.843 4.84545C712.277 3.67162 711.434 2.62692 710.332 1.75099C708.954 0.656088 707.49 0.0164434 705.919 -0.207577C704.337 -0.41629 702.79 -0.19762 701.308 0.472779C699.798 1.14632 698.473 2.21624 697.305 3.68567C696.138 5.15511 695.394 6.68732 695.079 8.30978C694.763 9.93224 694.884 11.477 695.457 12.9561C696.017 14.4506 696.999 15.73 698.361 16.8127C699.494 17.713 700.702 18.2985 701.973 18.5845C703.244 18.8706 704.52 18.836 705.774 18.4839C707.028 18.1318 708.18 17.4991 709.255 16.5551L712.852 19.4141C711.291 20.9703 709.52 22.0355 707.543 22.6372C705.567 23.239 703.545 23.3309 701.492 22.8977C699.439 22.4645 697.497 21.5455 695.69 20.1099L695.651 20.1284Z" fill="#858585"/>
<path d="M727.436 10.6497L731.002 13.4843L724.044 22.2397L734.758 30.7556L741.717 22.0002L745.284 24.8348L728.714 45.6825L725.148 42.8479L732.106 34.0925L721.392 25.5765L714.433 34.3319L710.866 31.4974L727.436 10.6497Z" fill="#858585"/>
<path d="M767.069 123.121C765.018 121.491 763.561 119.584 762.681 117.361C761.801 115.138 761.564 112.827 761.96 110.444C762.355 108.061 763.392 105.813 765.047 103.731C766.701 101.65 768.62 100.178 770.853 99.2546C773.085 98.3314 775.377 98.0554 777.742 98.4113C780.107 98.7671 782.308 99.7678 784.359 101.398C786.181 102.846 787.542 104.527 788.431 106.457C789.319 108.387 789.698 110.362 789.543 112.411C789.403 114.473 788.734 116.414 787.555 118.274L783.958 115.415C784.623 114.17 784.992 112.89 785.036 111.576C785.081 110.263 784.814 109.027 784.261 107.838C783.695 106.664 782.852 105.62 781.75 104.744C780.373 103.649 778.908 103.009 777.338 102.785C775.755 102.577 774.208 102.795 772.726 103.466C771.216 104.139 769.892 105.209 768.724 106.679C767.556 108.148 766.812 109.68 766.497 111.303C766.182 112.925 766.303 114.47 766.875 115.949C767.436 117.443 768.417 118.723 769.779 119.806C770.912 120.706 772.12 121.291 773.391 121.577C774.662 121.863 775.939 121.829 777.193 121.477C778.446 121.125 779.599 120.492 780.674 119.548L784.271 122.407C782.709 123.963 780.938 125.028 778.962 125.63C776.985 126.232 774.964 126.324 772.91 125.891C770.857 125.457 768.915 124.538 767.109 123.103L767.069 123.121Z" fill="#858585"/>
<path d="M798.854 113.643L802.421 116.477L795.462 125.232L806.177 133.748L813.135 124.993L816.702 127.828L800.132 148.675L796.566 145.841L803.524 137.085L792.81 128.569L785.851 137.325L782.285 134.49L798.854 113.643Z" fill="#858585"/>
<path d="M553.47 367.578C551.419 365.948 549.963 364.041 549.082 361.817C548.202 359.594 547.966 357.283 548.361 354.9C548.757 352.517 549.794 350.27 551.448 348.188C553.103 346.106 555.022 344.634 557.254 343.711C559.486 342.788 561.779 342.512 564.143 342.868C566.508 343.224 568.71 344.224 570.761 345.855C572.582 347.302 573.944 348.983 574.832 350.914C575.721 352.844 576.1 354.818 575.944 356.868C575.804 358.929 575.136 360.87 573.957 362.731L570.36 359.872C571.024 358.627 571.393 357.346 571.438 356.033C571.482 354.72 571.216 353.484 570.662 352.295C570.097 351.121 569.254 350.076 568.152 349.2C566.774 348.105 565.309 347.466 563.739 347.242C562.157 347.033 560.609 347.252 559.127 347.922C557.618 348.596 556.293 349.666 555.125 351.135C553.957 352.605 553.214 354.137 552.898 355.759C552.583 357.382 552.704 358.926 553.277 360.406C553.837 361.9 554.818 363.179 556.181 364.262C557.313 365.162 558.521 365.748 559.793 366.034C561.064 366.32 562.34 366.285 563.594 365.933C564.848 365.581 566 364.948 567.075 364.005L570.672 366.863C569.11 368.42 567.34 369.485 565.363 370.087C563.386 370.688 561.365 370.78 559.312 370.347C557.258 369.914 555.316 368.995 553.51 367.559L553.47 367.578Z" fill="#858585"/>
<path d="M585.24 358.087L588.806 360.921L581.847 369.677L592.562 378.193L599.521 369.437L603.087 372.272L586.518 393.12L582.951 390.285L589.91 381.53L579.195 373.014L572.237 381.769L568.67 378.934L585.24 358.087Z" fill="#858585"/>
<path d="M161.353 21.9083L164.919 24.7429L157.96 33.4983L168.675 42.0142L175.634 33.2588L179.2 36.0934L162.631 56.941L159.064 54.1064L166.023 45.351L155.308 36.8351L148.349 45.5905L144.783 42.7559L161.353 21.9083Z" fill="#858585"/>
<path d="M192.784 81.6311C190.733 80.0009 189.276 78.094 188.396 75.8708C187.515 73.6475 187.279 71.3367 187.675 68.9537C188.07 66.5706 189.107 64.3229 190.762 62.2412C192.416 60.1595 194.335 58.6877 196.568 57.7645C198.8 56.8413 201.092 56.5653 203.457 56.9212C205.821 57.277 208.023 58.2777 210.074 59.9079C211.896 61.3556 213.257 63.0368 214.146 64.9669C215.034 66.897 215.413 68.8715 215.258 70.9209C215.118 72.9825 214.449 74.9237 213.27 76.784L209.673 73.9251C210.338 72.6802 210.706 71.3995 210.751 70.0864C210.796 68.7732 210.529 67.5373 209.976 66.3482C209.41 65.1744 208.567 64.1297 207.465 63.2537C206.087 62.1588 204.623 61.5192 203.052 61.2952C201.47 61.0865 199.923 61.3051 198.441 61.9755C196.931 62.6491 195.606 63.719 194.438 65.1884C193.271 66.6579 192.527 68.1901 192.212 69.8125C191.896 71.435 192.017 72.9797 192.59 74.4589C193.151 75.9534 194.132 77.2327 195.494 78.3155C196.627 79.2157 197.835 79.8012 199.106 80.0873C200.377 80.3733 201.653 80.3387 202.907 79.9866C204.161 79.6345 205.314 79.0018 206.388 78.0579L209.985 80.9168C208.424 82.473 206.653 83.5382 204.676 84.14C202.7 84.7417 200.678 84.8336 198.625 84.4005C196.572 83.9673 194.63 83.0482 192.824 81.6127L192.784 81.6311Z" fill="#858585"/>
<path d="M31.4172 230.235C29.3662 228.604 27.8912 226.658 26.9802 224.41C26.0692 222.163 25.8143 219.812 26.1792 217.405C26.5441 214.998 27.5569 212.78 29.1871 210.729C30.8173 208.678 32.7517 207.219 35.0115 206.292C37.2743 205.393 39.6095 205.126 42.0169 205.491C44.4242 205.856 46.6413 206.869 48.6924 208.499C50.7435 210.129 52.2185 212.076 53.1295 214.324C54.0283 216.586 54.2953 218.922 53.9305 221.329C53.5656 223.736 52.5527 225.953 50.9226 228.005C49.2924 230.056 47.3458 231.531 45.0982 232.442C42.8506 233.353 40.5002 233.607 38.0928 233.243C35.6854 232.878 33.4683 231.865 31.4172 230.235ZM34.0693 226.898C35.4469 227.993 36.927 228.645 38.5522 228.862C40.1774 229.08 41.7555 228.886 43.2955 228.236C44.8507 227.599 46.1666 226.572 47.3102 225.133C48.4538 223.695 49.142 222.169 49.4269 220.522C49.6964 218.863 49.5449 217.294 48.9659 215.76C48.387 214.226 47.4026 212.919 46.0403 211.836C44.678 210.753 43.1827 210.089 41.5575 209.872C39.9323 209.654 38.3695 209.86 36.8295 210.51C35.2895 211.159 33.9737 212.186 32.8301 213.625C31.6865 215.064 30.9829 216.577 30.6981 218.224C30.4132 219.871 30.5648 221.44 31.1437 222.974C31.7227 224.508 32.707 225.815 34.0693 226.898Z" fill="#858585"/>
<path d="M111.983 313.924C109.932 312.294 108.457 310.347 107.546 308.1C106.635 305.852 106.38 303.502 106.745 301.094C107.11 298.687 108.123 296.47 109.753 294.419C111.383 292.368 113.318 290.908 115.577 289.982C117.84 289.083 120.175 288.816 122.583 289.181C124.99 289.546 127.207 290.558 129.258 292.189C131.309 293.819 132.784 295.765 133.695 298.013C134.594 300.276 134.861 302.611 134.496 305.018C134.132 307.426 133.119 309.643 131.488 311.694C129.858 313.745 127.912 315.22 125.664 316.131C123.417 317.042 121.066 317.297 118.659 316.932C116.251 316.567 114.034 315.554 111.983 313.924ZM114.635 310.587C116.013 311.682 117.493 312.334 119.118 312.552C120.743 312.769 122.321 312.575 123.861 311.926C125.417 311.289 126.733 310.262 127.876 308.823C129.02 307.384 129.708 305.858 129.993 304.211C130.262 302.552 130.111 300.983 129.532 299.449C128.953 297.915 127.969 296.608 126.606 295.525C125.244 294.443 123.749 293.779 122.123 293.561C120.498 293.343 118.935 293.55 117.395 294.199C115.855 294.848 114.54 295.875 113.396 297.314C112.252 298.753 111.549 300.267 111.264 301.914C110.979 303.56 111.131 305.129 111.71 306.663C112.289 308.198 113.273 309.504 114.635 310.587Z" fill="#858585"/>
<path d="M144.702 305.187L148.268 308.022L141.309 316.777L152.024 325.293L158.983 316.538L162.549 319.373L145.98 340.22L142.413 337.386L149.372 328.63L138.657 320.114L131.699 328.87L128.132 326.035L144.702 305.187Z" fill="#858585"/>
<path d="M452.186 551.671C450.135 550.041 448.66 548.094 447.749 545.847C446.838 543.599 446.583 541.249 446.948 538.841C447.313 536.434 448.326 534.217 449.956 532.166C451.586 530.115 453.52 528.655 455.78 527.729C458.043 526.83 460.378 526.563 462.785 526.928C465.193 527.293 467.41 528.305 469.461 529.936C471.512 531.566 472.987 533.512 473.898 535.76C474.797 538.023 475.064 540.358 474.699 542.765C474.334 545.173 473.321 547.39 471.691 549.441C470.061 551.492 468.114 552.967 465.867 553.878C463.619 554.789 461.269 555.044 458.861 554.679C456.454 554.314 454.237 553.301 452.186 551.671ZM454.838 548.334C456.216 549.429 457.696 550.081 459.321 550.299C460.946 550.516 462.524 550.322 464.064 549.673C465.619 549.036 466.935 548.009 468.079 546.57C469.222 545.131 469.911 543.605 470.195 541.958C470.465 540.299 470.313 538.73 469.735 537.196C469.156 535.662 468.171 534.355 466.809 533.272C465.447 532.19 463.951 531.526 462.326 531.308C460.701 531.09 459.138 531.297 457.598 531.946C456.058 532.595 454.742 533.622 453.599 535.061C452.455 536.5 451.752 538.014 451.467 539.661C451.182 541.307 451.333 542.876 451.912 544.41C452.491 545.945 453.476 547.251 454.838 548.334Z" fill="#858585"/>
<path d="M484.889 542.922L488.456 545.757L481.497 554.512L492.212 563.028L499.171 554.273L502.737 557.107L486.167 577.955L482.601 575.12L489.56 566.365L478.845 557.849L471.886 566.604L468.32 563.77L484.889 542.922Z" fill="#858585"/>
<path d="M349.12 496.729C347.069 495.099 345.594 493.153 344.683 490.905C343.772 488.657 343.517 486.307 343.882 483.9C344.247 481.492 345.26 479.275 346.89 477.224C348.52 475.173 350.455 473.713 352.715 472.787C354.977 471.888 357.313 471.621 359.72 471.986C362.127 472.351 364.344 473.364 366.396 474.994C368.447 476.624 369.922 478.571 370.833 480.818C371.731 483.081 371.998 485.416 371.634 487.824C371.269 490.231 370.256 492.448 368.626 494.499C366.996 496.55 365.049 498.025 362.801 498.936C360.554 499.847 358.203 500.102 355.796 499.737C353.389 499.372 351.171 498.36 349.12 496.729ZM351.773 493.392C353.15 494.487 354.63 495.139 356.255 495.357C357.88 495.575 359.459 495.38 360.999 494.731C362.554 494.094 363.87 493.067 365.013 491.628C366.157 490.189 366.845 488.663 367.13 487.017C367.4 485.358 367.248 483.789 366.669 482.254C366.09 480.72 365.106 479.413 363.743 478.331C362.381 477.248 360.886 476.584 359.261 476.366C357.635 476.149 356.073 476.355 354.533 477.004C352.993 477.653 351.677 478.681 350.533 480.119C349.39 481.558 348.686 483.072 348.401 484.719C348.116 486.366 348.268 487.935 348.847 489.469C349.426 491.003 350.41 492.31 351.773 493.392Z" fill="#858585"/>
<path d="M446.078 -5.02344L449.858 -2.01853L448.731 22.6855L461.201 6.99618L464.537 9.64828L447.968 30.4959L444.218 27.5154L445.431 2.82938L432.937 18.5493L429.508 15.8242L446.078 -5.02344Z" fill="#858585"/>
<path d="M555.291 81.778L559.071 84.7829L557.944 109.487L570.413 93.7976L573.75 96.4497L557.181 117.297L553.431 114.317L554.644 89.6308L542.15 105.351L538.721 102.626L555.291 81.778Z" fill="#858585"/>
<path d="M452.516 85.4856L458.47 90.218L451.311 111.827L470.715 99.9505L476.578 104.61L460.008 125.458L456.518 122.684L470.788 104.729L450.028 117.526L445.911 114.253L453.691 91.1402L439.421 109.095L435.931 106.321L452.5 85.4734L452.516 85.4856Z" fill="#858585"/>
<path d="M468.67 142.557C466.88 141.134 465.495 139.734 464.486 138.332C463.492 136.943 462.923 135.617 462.782 134.38C462.64 133.144 462.973 132.035 463.739 131.07C464.359 130.29 465.124 129.799 466.046 129.582C466.967 129.365 467.99 129.429 469.1 129.762C468.082 128.403 467.473 127.095 467.277 125.865C467.08 124.635 467.407 123.47 468.234 122.43C468.696 121.848 469.364 121.479 470.252 121.336C471.125 121.181 471.956 121.392 472.721 122L472.874 122.122C472.874 122.122 472.966 122.195 473.012 122.231C473.058 122.268 473.104 122.304 473.15 122.341C473.224 121.525 473.551 120.736 474.135 120.002C475.218 118.639 476.657 117.96 478.428 117.994C480.199 118.028 482.159 118.736 484.298 120.162L487.205 116.503L490.328 118.985L487.444 122.613C488.749 123.799 489.721 124.996 490.36 126.204C490.999 127.411 491.326 128.57 491.315 129.685C491.287 130.787 490.906 131.833 490.164 132.766C489.373 133.761 488.37 134.363 487.141 134.559C485.911 134.756 484.527 134.58 483.013 134.001C481.5 133.423 479.918 132.491 478.296 131.201C477.515 130.581 476.878 129.999 476.354 129.433C475.83 128.867 475.426 128.37 475.14 127.944C474.855 127.517 474.536 127.039 474.223 126.49C474.044 126.149 473.839 125.81 473.636 125.5C473.418 125.177 473.179 124.912 472.934 124.717C472.613 124.462 472.307 124.343 471.962 124.369C471.645 124.391 471.38 124.505 471.185 124.75C470.771 125.27 470.672 125.866 470.888 126.537C471.104 127.208 471.549 127.937 472.254 128.747C472.944 129.545 473.884 130.467 475.06 131.501C475.323 131.736 475.602 131.982 475.865 132.216C476.156 132.448 476.447 132.679 476.738 132.91C479.365 135.073 481.118 137.14 481.985 139.129C482.853 141.117 482.63 142.937 481.328 144.575C480.525 145.585 479.467 146.193 478.179 146.369C476.891 146.544 475.419 146.322 473.786 145.674C472.153 145.026 470.449 143.996 468.674 142.585L468.67 142.557ZM470.757 139.995C471.951 140.944 473.034 141.655 473.979 142.131C474.952 142.605 475.771 142.831 476.467 142.835C477.148 142.827 477.691 142.584 478.092 142.079C478.688 141.329 478.676 140.37 478.059 139.23C477.426 138.077 476.222 136.796 474.431 135.372C473.237 134.423 472.169 133.724 471.224 133.248C470.267 132.787 469.448 132.561 468.739 132.572C468.031 132.583 467.504 132.839 467.102 133.344C466.701 133.849 466.586 134.432 466.732 135.098C466.878 135.763 467.283 136.51 467.964 137.35C468.629 138.179 469.578 139.058 470.757 139.995ZM480.239 128.725C481.755 129.929 483.103 130.651 484.298 130.877C485.508 131.114 486.411 130.858 487.032 130.077C487.652 129.296 487.698 128.359 487.206 127.218C486.701 126.093 485.705 124.927 484.205 123.735C482.705 122.542 481.329 121.823 480.119 121.586C478.909 121.348 477.994 121.62 477.373 122.4C476.753 123.181 476.707 124.119 477.211 125.244C477.716 126.369 478.724 127.52 480.239 128.725Z" fill="#858585"/>
<path d="M363.917 105.106L367.698 108.111L366.571 132.815L379.04 117.125L382.377 119.777L365.808 140.625L362.058 137.645L363.271 112.959L350.777 128.679L347.348 125.953L363.917 105.106Z" fill="#858585"/>
<path d="M469.839 189.292L473.62 192.297L472.493 217.001L484.962 201.312L488.299 203.964L471.73 224.811L467.979 221.831L469.193 197.145L456.699 212.865L453.27 210.14L469.839 189.292Z" fill="#858585"/>
<path d="M169.073 74.2254C168.063 73.4224 167.306 72.521 166.83 71.5179C166.326 70.5179 166.127 69.5109 166.231 68.4693C166.322 67.443 166.685 66.483 167.351 65.6136L169.448 67.2803C169.077 67.8098 168.862 68.3631 168.822 68.9801C168.781 69.597 168.905 70.1952 169.194 70.7744C169.498 71.3659 169.921 71.9019 170.503 72.3642C171.084 72.8265 171.69 73.133 172.332 73.2684C172.973 73.4037 173.596 73.3743 174.173 73.1831C174.761 72.9767 175.264 72.6269 175.666 72.1218C176.274 71.3565 176.503 70.5649 176.391 69.7011C176.278 68.8373 175.818 68.0967 175.037 67.4763C174.716 67.2208 174.373 67.0234 173.994 66.8719C173.615 66.7205 173.257 66.6361 172.906 66.6067L172.515 66.5957L172.517 64.4246L180.266 64.1648L173.547 58.8241L175.08 56.8955L184.677 64.5233L183.193 66.3907L176.857 66.6002C176.857 66.6002 176.931 66.6336 176.973 66.6426C177.016 66.6516 177.035 66.6912 177.081 66.7277C177.111 66.7521 177.139 66.7489 177.185 66.7854L177.276 66.8584C177.98 67.4181 178.477 68.1127 178.779 68.927C179.081 69.7414 179.148 70.5687 179.01 71.4333C178.872 72.2979 178.53 73.0746 177.97 73.7787C177.265 74.6665 176.43 75.2768 175.426 75.6281C174.438 75.9916 173.4 76.0407 172.288 75.806C171.176 75.5714 170.142 75.0495 169.132 74.2466L169.073 74.2254Z" fill="#858585"/>
<path d="M587.863 407.076C586.853 406.273 586.096 405.372 585.619 404.369C585.115 403.369 584.917 402.362 585.02 401.32C585.112 400.294 585.475 399.334 586.141 398.465L588.238 400.131C587.867 400.661 587.652 401.214 587.611 401.831C587.571 402.448 587.695 403.046 587.984 403.626C588.288 404.217 588.711 404.753 589.293 405.215C589.874 405.678 590.48 405.984 591.121 406.119C591.763 406.255 592.386 406.225 592.962 406.034C593.551 405.828 594.054 405.478 594.455 404.973C595.064 404.208 595.293 403.416 595.18 402.552C595.068 401.688 594.607 400.948 593.827 400.327C593.505 400.072 593.163 399.874 592.784 399.723C592.404 399.572 592.047 399.487 591.696 399.458L591.305 399.447L591.307 397.276L599.056 397.016L592.337 391.675L593.869 389.747L603.467 397.374L601.983 399.242L595.647 399.451C595.647 399.451 595.72 399.485 595.763 399.494C595.806 399.503 595.824 399.542 595.87 399.579C595.901 399.603 595.928 399.6 595.974 399.637L596.066 399.71C596.77 400.269 597.267 400.964 597.569 401.778C597.871 402.592 597.938 403.42 597.8 404.284C597.662 405.149 597.32 405.926 596.76 406.63C596.054 407.518 595.22 408.128 594.216 408.479C593.228 408.843 592.19 408.892 591.078 408.657C589.965 408.422 588.932 407.901 587.921 407.098L587.863 407.076Z" fill="#858585"/>
<path d="M731.581 59.9243C730.571 59.1213 729.813 58.2199 729.337 57.2168C728.833 56.2168 728.634 55.2098 728.738 54.1682C728.829 53.1419 729.193 52.1819 729.859 51.3125L731.956 52.9792C731.585 53.5087 731.37 54.0621 731.329 54.679C731.288 55.296 731.412 55.8941 731.701 56.4733C732.005 57.0648 732.428 57.6008 733.01 58.0631C733.592 58.5254 734.197 58.8319 734.839 58.9673C735.481 59.1027 736.103 59.0732 736.68 58.882C737.269 58.6756 737.771 58.3259 738.173 57.8207C738.781 57.0554 739.011 56.2638 738.898 55.4C738.785 54.5362 738.325 53.7956 737.544 53.1752C737.223 52.9197 736.88 52.7223 736.501 52.5708C736.122 52.4194 735.764 52.335 735.413 52.3056L735.022 52.2946L735.025 50.1235L742.774 49.8637L736.054 44.523L737.587 42.5944L747.184 50.2222L745.7 52.0896L739.365 52.2991C739.365 52.2991 739.438 52.3325 739.481 52.3415C739.523 52.3505 739.542 52.3902 739.588 52.4267C739.618 52.451 739.646 52.4478 739.692 52.4843L739.784 52.5573C740.488 53.117 740.985 53.8116 741.287 54.6259C741.588 55.4403 741.655 56.2676 741.517 57.1322C741.38 57.9968 741.037 58.7735 740.478 59.4776C739.772 60.3654 738.937 60.9757 737.934 61.327C736.945 61.6905 735.907 61.7396 734.795 61.5049C733.683 61.2703 732.649 60.7484 731.639 59.9455L731.581 59.9243Z" fill="#858585"/>
<path d="M798.201 155.033L805.386 155.798C805.624 155.812 805.835 155.83 806.057 155.832C806.28 155.834 806.461 155.828 806.625 155.809C806.43 155.803 806.228 155.743 806.035 155.64C805.843 155.537 805.619 155.409 805.405 155.239C804.502 154.521 803.849 153.677 803.418 152.711C803.015 151.741 802.85 150.786 802.963 149.826C803.076 148.867 803.397 148.023 803.957 147.319C804.565 146.554 805.339 146.02 806.294 145.73C807.234 145.428 808.275 145.406 809.375 145.656C810.475 145.906 811.582 146.461 812.654 147.313C813.725 148.165 814.452 149.042 814.956 150.042C815.475 151.054 815.701 152.058 815.637 153.081C815.585 154.089 815.231 155.006 814.574 155.833C814.112 156.414 813.539 156.883 812.871 157.252C812.189 157.608 811.454 157.873 810.648 158.007C809.83 158.156 809.015 158.208 808.16 158.152C808.062 158.15 807.964 158.147 807.866 158.144C807.769 158.141 807.683 158.123 807.585 158.121L801.797 157.516L808.899 163.161L807.306 165.166L796.79 156.808L798.201 155.033ZM807.316 154.06C807.928 154.547 808.549 154.865 809.209 155.04C809.857 155.231 810.456 155.232 811.023 155.083C811.591 154.935 812.057 154.631 812.434 154.157C812.811 153.682 813.014 153.144 813.031 152.558C813.047 151.972 812.911 151.389 812.579 150.8C812.263 150.224 811.797 149.679 811.169 149.18C810.542 148.682 809.936 148.375 809.304 148.197C808.659 148.034 808.057 148.006 807.49 148.154C806.922 148.302 806.444 148.621 806.067 149.096C805.689 149.57 805.499 150.093 805.482 150.68C805.466 151.266 805.602 151.849 805.934 152.437C806.238 153.028 806.704 153.573 807.301 154.048L807.316 154.06Z" fill="#858585"/>
</g>
<defs>
<clipPath id="clip0_140_32">
<rect width="600.297" height="656.471" fill="white" transform="translate(408.46 -289) rotate(38.4774)"/>
</clipPath>
</defs>
</svg>
