<svg width="401" height="375" viewBox="0 0 401 375" fill="none" xmlns="http://www.w3.org/2000/svg">
<g clip-path="url(#clip0_271_4)">
<path d="M46.3388 235.075C46.3388 235.075 64.8691 211.208 95.5197 230.019C95.5197 230.019 67.21 244.899 46.3388 235.075Z" fill="#7FBEBF"/>
<path d="M55.0693 289.109C55.0693 289.109 82.6136 292.267 104.864 324.222C104.864 324.222 63.5363 328.572 55.0693 289.109Z" fill="#7FBEBF"/>
<path d="M103.485 118.272C103.485 118.272 87.8226 171.517 62.9267 178.446C62.9267 178.446 59.6969 130.929 103.485 118.272Z" fill="#7FBEBF"/>
<path d="M194.171 116.951C194.171 116.951 159.902 104.719 125.003 157.273C125.003 157.273 189.906 132.503 194.171 116.951Z" fill="#7FBEBF"/>
<path d="M179.779 204.002C179.779 204.002 227.843 191.403 256.525 205.697C256.525 205.697 211.898 233.525 179.779 204.002Z" fill="#7FBEBF"/>
<path d="M218.485 166.521C218.485 166.521 92.1017 230.409 -50.7376 189.219" stroke="#008F8C" stroke-width="2" stroke-miterlimit="10"/>
<path d="M246.203 206.847C246.203 206.847 201.776 221.933 149.41 189.83" stroke="#008F8C" stroke-miterlimit="10"/>
<path d="M184.145 119.671C184.145 119.671 112.439 148.649 95.3672 199.061" stroke="#008F8C" stroke-miterlimit="10"/>
<path d="M87.0704 230.545C87.0704 230.545 47.7918 229.253 23.7895 244.414" stroke="#008F8C" stroke-width="0.88" stroke-miterlimit="10"/>
<path d="M45.8243 260.113C45.8243 260.113 46.9774 302.897 94.6352 321.515" stroke="#008F8C" stroke-miterlimit="10"/>
<path d="M95.9215 124.369C95.9215 124.369 50.1049 161.376 65.83 201.795" stroke="#008F8C" stroke-miterlimit="10"/>
<path d="M-10.2614 199.039C-8.15128 201.206 19.6122 269.59 93.5712 271.889" stroke="#008F8C" stroke-width="2" stroke-miterlimit="10"/>
<path d="M240.141 108.268C241.154 107.281 242.609 107.25 243.571 108.238C244.533 109.226 244.429 110.593 243.415 111.631C242.402 112.618 240.981 112.684 239.985 111.661C238.99 110.638 239.094 109.22 240.141 108.268Z" fill="#FFC700"/>
<path d="M241.519 110.117C241.519 110.117 235.138 123.93 222.498 142.146" stroke="#FFC700" stroke-width="0.5" stroke-miterlimit="10"/>
<path d="M276.823 155.184C278.232 155.349 279.175 156.457 279.021 157.823C278.857 159.198 277.735 159.969 276.283 159.847C274.874 159.682 273.922 158.617 274.094 157.199C274.257 155.825 275.423 154.977 276.831 155.176L276.823 155.184Z" fill="#FFC700"/>
<path d="M276.255 157.426C276.255 157.426 261.502 161.167 239.387 162.822" stroke="#FFC700" stroke-width="0.5" stroke-miterlimit="10"/>
<path d="M259.735 126.175C260.975 125.49 262.382 125.843 263.05 127.05C263.719 128.256 263.257 129.55 261.999 130.285C260.758 130.97 259.368 130.651 258.683 129.41C258.015 128.204 258.477 126.825 259.735 126.175Z" fill="#FFC700"/>
<path d="M260.579 128.325C260.579 128.325 250.753 139.934 233.718 154.139" stroke="#FFC700" stroke-width="0.5" stroke-miterlimit="10"/>
<path d="M216.621 166.444C216.621 166.444 223.615 122.061 254.292 114.57C254.292 114.57 255.107 134.041 229.555 158.495C229.555 158.495 251.048 133.771 277.453 142.26C277.453 142.26 262.102 171.559 216.621 166.444Z" fill="#E30F26"/>
<path d="M215.467 167.72C215.467 167.72 189.713 130.867 231.67 105.791C231.67 105.791 238.653 138.391 221.796 163.821C221.796 163.821 258.496 148.355 283.222 176.075C283.222 176.075 244.18 196.068 215.475 167.728L215.467 167.72Z" fill="#FF5635"/>
<path d="M214.25 167.908C214.25 167.908 204.276 161.997 203.81 148.519C203.81 148.519 218.265 155.133 216.382 168.365C216.382 168.365 229.182 170.679 230.698 185.669C230.698 185.669 217.242 184.415 214.25 167.908Z" fill="#7FBEBF"/>
<path d="M125.064 229.373C126.192 228.781 127.453 229.124 128.029 230.218C128.605 231.312 128.171 232.461 127.025 233.103C125.897 233.695 124.652 233.387 124.06 232.259C123.484 231.165 123.919 229.93 125.064 229.373Z" fill="#FFC700"/>
<path d="M125.783 231.325C125.783 231.325 116.753 241.585 101.211 254.031" stroke="#FFC700" stroke-width="0.45" stroke-miterlimit="10"/>
<path d="M144.67 279.134C145.835 279.638 146.367 280.825 145.882 281.973C145.388 283.113 144.228 283.499 143.012 283.011C141.847 282.508 141.297 281.354 141.8 280.172C142.294 279.033 143.523 278.597 144.67 279.134Z" fill="#FFC700"/>
<path d="M143.612 280.925C143.612 280.925 129.95 280.378 110.486 276.142" stroke="#FFC700" stroke-width="0.45" stroke-miterlimit="10"/>
<path d="M137.372 249.798C138.615 249.532 139.744 250.189 140.011 251.399C140.277 252.608 139.554 253.599 138.276 253.915C137.032 254.18 135.92 253.558 135.646 252.305C135.379 251.096 136.128 250.028 137.38 249.789L137.372 249.798Z" fill="#FFC700"/>
<path d="M137.541 251.878C137.541 251.878 126.11 259.36 107.814 267.226" stroke="#FFC700" stroke-width="0.45" stroke-miterlimit="10"/>
<path d="M89.9413 273.447C89.9413 273.447 107.309 237.033 135.646 238.423C135.646 238.423 131.371 255.386 103.117 269.907C103.117 269.907 127.94 254.116 148.517 268.179C148.517 268.179 127.805 289.475 89.9413 273.447Z" fill="#E30F26"/>
<path d="M88.6222 274.242C88.6222 274.242 75.8633 235.934 118.405 225.065C118.405 225.065 116.092 254.911 95.0688 272.491C95.0688 272.491 130.626 268.557 144.834 298.733C144.834 298.733 106.103 305.96 88.6224 274.225L88.6222 274.242Z" fill="#FF5635"/>
<path d="M87.5291 274.107C87.5291 274.107 80.4521 266.474 83.4961 254.746C83.4961 254.746 94.254 264.132 89.2533 275.046C89.2533 275.046 99.68 280.313 97.1546 293.596C97.1546 293.596 85.8884 289.079 87.5291 274.107Z" fill="#7FBEBF"/>
</g>
<path d="M309.545 324.663L294.364 320.376C293.012 319.993 291.921 318.918 291.454 317.509C290.698 315.261 291.758 312.878 293.82 312.186L296.442 311.308L296.797 312.364L294.175 313.243C292.646 313.756 291.859 315.527 292.42 317.194C292.77 318.236 293.578 319.033 294.579 319.319L309.759 323.606L309.545 324.663Z" fill="#6F124C"/>
<path d="M296.771 309.001C298.119 308.549 299.623 309.38 300.117 310.851C300.611 312.322 299.915 313.891 298.567 314.343C297.22 314.795 295.716 313.964 295.222 312.493C294.727 311.022 295.424 309.453 296.771 309.001Z" fill="#FF9700"/>
<path d="M305.191 338.934L302.529 339.826C300.436 340.527 298.115 339.245 297.347 336.963C296.864 335.528 297.087 333.99 297.942 332.863L307.597 320.109L308.42 320.834L298.764 333.588C298.13 334.431 297.966 335.57 298.322 336.628C298.891 338.321 300.616 339.273 302.168 338.753L304.83 337.861L305.191 338.934Z" fill="#6F124C"/>
<path d="M306.581 340.544C307.929 340.092 308.625 338.522 308.131 337.052C307.636 335.581 306.133 334.749 304.785 335.201C303.438 335.653 302.741 337.223 303.236 338.694C303.73 340.164 305.234 340.996 306.581 340.544Z" fill="#FF9700"/>
<path d="M345.741 309.529C346.483 311.735 345.447 314.069 343.426 314.747L307.729 326.715C305.708 327.393 303.471 326.156 302.729 323.95C301.987 321.744 303.023 319.409 305.044 318.732L340.741 306.763C342.762 306.085 344.999 307.322 345.741 309.529Z" fill="#FF0099"/>
<path d="M324.635 311.932L327.324 320.121L339.16 316.056L336.471 307.868L324.635 311.932Z" fill="black"/>
<path d="M306.001 314.389C310.016 313.042 314.452 315.495 315.925 319.877C317.398 324.259 315.343 328.89 311.328 330.237C307.313 331.584 302.877 329.13 301.404 324.748C299.931 320.366 301.986 315.736 306.001 314.389Z" fill="#FF0099"/>
<path d="M339.677 257.282L340.135 257.128L342.71 264.783C343.753 267.885 343.542 271.07 342.358 273.731C341.179 276.382 339.033 278.499 336.186 279.454L339.153 288.274C339.84 290.316 340.168 292.395 340.176 294.395C340.194 301.662 336.008 308.259 329.259 310.522L313.678 315.747L317.726 301.915L326.761 271.074C328.7 264.456 333.478 259.344 339.676 257.257L339.677 257.282Z" fill="#6F124C"/>
<path opacity="0.3" d="M317.619 302.041L339.963 294.542C339.982 301.783 335.817 308.355 329.101 310.609L313.597 315.813L317.623 302.031L317.619 302.041Z" fill="white"/>
<path d="M339.463 263.095L342.036 262.231L342.857 264.675C343.897 267.769 343.687 270.945 342.508 273.599C341.334 276.243 339.195 278.354 336.359 279.306L334.595 274.055C333.038 269.423 335.215 264.52 339.463 263.095Z" fill="#FF9700"/>
<path opacity="0.3" d="M336.445 279.976L334.728 280.55C333.333 281.018 332.267 282.21 331.887 283.731L328.995 295.361L327.981 295.025L330.873 283.395C331.338 281.525 332.645 280.058 334.371 279.488L336.087 278.914L336.45 279.991L336.445 279.976Z" fill="white"/>
<path d="M371.074 354.147L371.524 353.996L368.995 346.477C367.97 343.43 365.913 341.061 363.406 339.677C360.908 338.299 357.969 337.912 355.173 338.85L352.259 330.186C351.584 328.18 350.607 326.358 349.425 324.786C345.124 319.085 337.928 316.396 331.298 318.62L315.991 323.752L327.375 332.188L352.767 350.992C358.216 355.027 364.994 356.202 371.088 354.167L371.074 354.147Z" fill="#6F124C"/>
<path opacity="0.3" d="M327.491 332.263L349.627 324.834C345.31 319.104 338.087 316.402 331.434 318.635L316.075 323.79L327.5 332.268L327.491 332.263Z" fill="white"/>
<path d="M367.138 349.624L369.682 348.771L368.87 346.354C367.842 343.297 365.78 340.918 363.266 339.529C360.761 338.146 357.815 337.757 355.011 338.698L356.755 343.888C358.294 348.467 362.939 351.033 367.138 349.624Z" fill="#FF9700"/>
<path opacity="0.3" d="M355.3 339.353L353.627 339.914C351.94 340.479 350.067 340.11 348.602 338.93L339.491 331.588L340.081 330.732L349.192 338.074C350.385 339.032 351.908 339.329 353.278 338.878L354.951 338.318L355.305 339.368L355.3 339.353Z" fill="white"/>
<defs>
<clipPath id="clip0_271_4">
<rect width="226.752" height="271.802" fill="white" transform="translate(142.748) rotate(45.7668)"/>
</clipPath>
</defs>
</svg>
