<svg width="1010" height="965" viewBox="0 0 1010 965" fill="none" xmlns="http://www.w3.org/2000/svg">
<path d="M58.2267 348.324L32.6211 322.077C30.3417 319.737 29.3916 316.304 30.0876 312.923C31.1734 307.517 36.0755 303.941 41.0323 304.94L47.3351 306.21L46.8246 308.752L40.5218 307.482C36.8451 306.741 33.2035 309.397 32.3982 313.408C31.8948 315.914 32.5965 318.459 34.28 320.195L59.8856 346.442L58.2267 348.324Z" fill="#719B58"/>
<path d="M50.0638 302.1C53.257 302.744 55.2927 306.117 54.5933 309.603C53.8938 313.09 50.7161 315.41 47.5229 314.766C44.3297 314.122 42.2941 310.75 42.9935 307.263C43.693 303.777 46.8707 301.456 50.0638 302.1Z" fill="#FF9700"/>
<path d="M34.0725 371.272L27.8558 370.019C22.9667 369.034 19.8691 363.909 20.94 358.576C21.6138 355.221 23.7849 352.462 26.7298 351.219L60.0142 337.129L60.8063 339.475L27.5219 353.564C25.3295 354.501 23.7226 356.547 23.2262 359.019C22.4318 362.974 24.7329 366.781 28.3593 367.512L34.576 368.765L34.0725 371.272Z" fill="#719B58"/>
<path d="M35.4717 376.386C38.6649 377.03 41.8426 374.709 42.542 371.223C43.2414 367.736 41.2057 364.364 38.0125 363.72C34.8193 363.076 31.6417 365.396 30.9423 368.883C30.2428 372.369 32.2785 375.741 35.4717 376.386Z" fill="#FF9700"/>
<path d="M147.263 361.442C146.213 366.672 141.486 370.124 136.696 369.158L52.1093 352.102C47.3195 351.136 44.2917 346.121 45.3414 340.891C46.391 335.661 51.1181 332.209 55.9079 333.175L140.495 350.231C145.284 351.196 148.312 356.212 147.263 361.442Z" fill="white"/>
<path d="M102.34 342.579L98.5742 361.944L126.667 367.791L130.433 348.425L102.34 342.579Z" fill="black"/>
<path d="M63.0878 324.208C72.6021 326.128 78.6075 336.075 76.5235 346.464C74.4395 356.853 65.0654 363.698 55.551 361.778C46.0366 359.859 40.0313 349.911 42.1153 339.522C44.1993 329.134 53.5734 322.289 63.0878 324.208Z" fill="white"/>
<path d="M192.066 252.585L193.134 252.8L189.552 270.644C188.101 277.873 184.107 283.856 178.804 287.721C173.521 291.573 166.95 293.293 160.319 291.955L156.192 312.514C155.236 317.275 153.54 321.703 151.306 325.619C143.17 339.829 127.579 348.004 111.859 344.834L75.5658 337.515L99.0221 315.057L151.343 264.993C162.569 254.25 177.647 249.641 192.093 252.536L192.066 252.585Z" fill="#719B58"/>
<path opacity="0.3" d="M99.2476 314.885L151.722 325.479C143.559 339.751 127.917 347.962 112.146 344.778L75.7347 337.427L99.2674 314.871L99.2476 314.885Z" fill="white"/>
<path d="M184.436 263.976L190.467 265.193L189.317 270.925C187.863 278.178 183.859 284.18 178.543 288.059C173.248 291.923 166.66 293.649 160.013 292.307L162.482 279.994C164.661 269.133 174.482 261.967 184.436 263.976Z" fill="#FF9700"/>
<path opacity="0.3" d="M159.99 293.248L156.022 292.449C152.796 291.799 149.397 292.924 146.96 295.447L128.355 314.776L126.766 312.995L145.371 293.666C148.362 290.559 152.535 289.171 156.516 289.99L160.484 290.789L159.983 293.283L159.99 293.248Z" fill="white"/>
<path d="M148.431 481.931L149.516 482.149L153.156 464.013C154.631 456.665 153.233 449.484 149.779 443.771C146.338 438.08 140.854 433.879 134.114 432.52L138.309 411.624C139.28 406.785 139.427 401.966 138.869 397.416C136.816 380.891 125.409 367.085 109.432 363.864L72.5469 356.425L85.7239 386.717L115.129 454.256C121.438 468.749 133.761 479.01 148.436 481.988L148.431 481.931Z" fill="#719B58"/>
<path opacity="0.3" d="M85.4735 386.469L138.399 397.154C136.354 380.683 124.997 366.924 109.09 363.713L72.367 356.299L85.4863 386.491L85.4735 386.469Z" fill="white"/>
<path d="M146.23 468.769L152.324 469.999L153.486 464.207C154.956 456.877 153.563 449.714 150.121 444.015C146.691 438.338 141.225 434.147 134.508 432.791L132.012 445.234C129.811 456.211 136.171 466.739 146.23 468.769Z" fill="#FF9700"/>
<path opacity="0.3" d="M134.012 433.791L129.951 432.974C125.858 432.149 122.481 429.207 120.887 425.091L110.974 399.48L113.178 398.428L123.091 424.039C124.394 427.386 127.143 429.772 130.457 430.458L134.518 431.275L134.005 433.827L134.012 433.791Z" fill="white"/>
<g clip-path="url(#clip0_222_3)">
<path d="M502.508 407.515C502.508 407.515 877.803 664.466 1341.23 525.284" stroke="#008F8C" stroke-width="1.38667" stroke-miterlimit="10"/>
<path d="M749.032 650.305C749.032 650.305 997.344 693.877 1220.24 553.393" stroke="#008F8C" stroke-width="1.38667" stroke-miterlimit="10"/>
<path d="M799.615 357.271C799.615 357.271 897.868 504.615 1052.89 566.438" stroke="#008F8C" stroke-width="1.38667" stroke-miterlimit="10"/>
<path d="M926.155 492.729C926.155 492.729 874.123 436.254 906.773 409.152C939.423 382.05 928.382 482.802 926.155 492.729Z" fill="#008F8C"/>
<path d="M927.528 490.901C927.528 490.901 857.433 522.194 842.142 482.635C826.883 443.038 918.85 485.611 927.528 490.901Z" fill="#008F8C"/>
<path d="M720.27 513.285C720.27 513.285 662.407 483.33 680.638 452.266C698.802 421.209 719.217 504.753 720.27 513.285Z" fill="#008F8C"/>
<path d="M720.809 511.401C720.809 511.401 674.004 556.693 650.344 529.569C626.684 502.446 712.385 509.713 720.809 511.401Z" fill="#008F8C"/>
<path d="M972.652 646.613C972.652 646.613 893.291 642.656 897.761 598.93C902.2 555.242 967.132 637.626 972.652 646.613Z" fill="#008F8C"/>
<path d="M972.277 644.232C972.277 644.232 943.238 718.164 903.268 700.047C863.262 681.9 962.014 646.63 972.277 644.232Z" fill="#008F8C"/>
<path d="M570.733 304.107C553.924 304.597 540.809 353.116 534.077 384.492C534.511 341.166 528.645 291.796 511.018 301.797C494.208 311.338 511.376 374.684 519.865 402.446C498.545 361.653 456.067 300.502 444.273 321.947C436.724 335.682 466.831 367.902 490.112 389.812C458.126 362.339 419.637 337.201 415.842 356.403C412.611 372.924 456.988 396.477 486.07 410.006C443.933 399.98 394.458 394.688 400.357 414.105C405.714 431.883 466.41 430.157 496.852 428.145C451.904 438.191 390.583 460.083 406.846 476.367C420.227 489.723 474.54 458.127 499.837 442.22C466.562 472.769 429.227 516.709 450.136 522.722C467.987 527.864 499.456 475.972 514.287 449.287C498.29 492.427 483.437 555.8 505.931 550.982C527.413 546.403 527.884 462.38 527.735 442.774C527.91 442.791 528.115 442.771 528.358 442.781C533.908 488.624 551.368 558.056 569.728 542.559C583.909 530.55 558.109 475.589 544.122 448.475C571.233 485.654 615.746 533.201 624.228 511.808C630.38 496.172 591.013 464.973 564.815 446.392C604.481 463.882 652.136 477.99 649.897 457.866C647.859 439.414 587.831 430.123 557.5 426.631C603.512 424.874 667.765 414.437 654.73 395.519C643.995 379.932 584.86 401.227 557.083 412.337C595.324 388.308 639.966 351.867 620.521 342.15C603.914 333.88 563.54 379.227 544.151 402.805C567.616 363.209 593.754 303.555 570.746 304.244L570.733 304.107ZM520.55 404.831C520.55 404.831 520.52 404.868 520.489 404.906L520.581 404.793L520.55 404.831ZM513.646 410.799C513.646 410.799 513.4 411.1 513.277 411.251C511.318 409.268 509.254 407.262 507.152 405.225C510.098 407.765 512.324 409.652 513.609 410.769L513.646 410.799ZM509.673 427.152C509.829 428.035 510.055 428.911 510.379 429.742C510.379 429.742 510.28 429.786 510.211 429.793L508.404 427.243C508.814 427.203 509.293 427.155 509.673 427.152Z" fill="#FFC700"/>
<path d="M536.988 296.497C520.975 301.537 521.47 351.784 523.508 383.811C512.14 341.999 493.143 296.071 478.857 310.508C465.264 324.255 499.006 380.572 514.694 404.996C483.144 371.468 425.629 324.138 420.155 347.997C416.627 363.269 454.339 386.134 482.677 400.877C444.397 383.077 400.542 369.318 402.097 388.819C403.449 405.577 452.557 416.225 484.259 421.343C440.98 423.14 391.96 431.483 402.883 448.606C412.865 464.268 470.824 446.094 499.555 435.891C459.062 457.76 405.976 495.452 426.026 506.732C442.523 515.98 486.198 470.825 506.239 448.598C482.522 487.045 458.497 539.443 480.241 539.604C498.805 539.735 514.998 481.169 522.037 451.49C518.437 497.376 521.301 562.449 541.649 551.66C561.079 541.377 538.712 460.444 533.216 441.609C533.421 441.589 533.62 441.5 533.787 441.449C551.555 484.044 587.219 546.147 600.718 526.226C611.111 510.861 571.386 464.913 550.517 442.591C586.712 471.064 642.49 504.715 644.779 481.828C646.471 465.114 600.092 445.766 569.832 434.979C612.752 441.058 662.456 441.699 654.788 422.907C647.83 405.702 587.523 413.089 557.397 417.936C601.209 403.754 660.211 376.254 642.518 361.562C627.952 349.498 576.823 386.029 553.101 404.233C583.389 370.733 616.496 323.515 595.123 319.448C576.85 315.972 550.353 370.618 538.096 398.534C549.955 354.076 558.854 289.531 536.912 296.436L536.988 296.497ZM516.075 407.07C516.075 407.07 516.044 407.108 516.013 407.145L516.105 407.032L516.075 407.07ZM511.027 414.686C511.027 414.686 510.924 415.041 510.838 415.223C508.424 413.873 505.904 412.498 503.278 411.1C506.797 412.79 509.471 413.976 511.027 414.686ZM511.657 431.481C512.08 432.268 512.504 433.055 513.027 433.798C512.996 433.835 512.965 433.873 512.897 433.88L510.49 431.907C510.856 431.767 511.291 431.621 511.657 431.481Z" fill="#EF9900"/>
<path d="M784.73 556.439C771.916 556.81 761.875 593.833 756.757 617.795C757.07 584.74 752.638 547.042 739.131 554.701C726.312 561.981 739.366 610.328 745.889 631.514C729.672 600.372 697.23 553.668 688.252 570.067C682.487 580.552 705.447 605.154 723.201 621.842C698.808 600.906 669.436 581.671 666.538 596.328C664.059 608.94 697.933 626.9 720.135 637.242C687.939 629.582 650.234 625.577 654.707 640.368C658.784 653.955 705.148 652.612 728.347 651.075C694.043 658.72 647.271 675.441 659.661 687.859C669.86 698.042 711.305 673.938 730.651 661.763C705.259 685.072 676.771 718.602 692.67 723.211C706.291 727.148 730.303 687.498 741.62 667.171C729.449 700.122 718.082 748.503 735.263 744.799C751.668 741.275 752.011 677.196 751.907 662.215C752.081 662.232 752.218 662.218 752.355 662.205C756.583 697.159 769.93 750.21 783.92 738.358C794.756 729.202 775.082 687.244 764.392 666.54C785.068 694.926 819.068 731.217 825.532 714.894C830.221 702.961 800.189 679.163 780.196 664.976C810.472 678.352 846.845 689.121 845.143 673.71C843.57 659.6 797.791 652.56 774.656 649.876C809.759 648.542 858.813 640.542 848.847 626.088C840.657 614.221 795.523 630.4 774.329 638.923C803.497 620.594 837.629 592.758 822.765 585.352C810.083 579.042 779.319 613.661 764.484 631.607C782.386 601.405 802.322 555.837 784.791 556.364L784.73 556.439ZM746.415 633.327C746.415 633.327 746.384 633.365 746.353 633.402L746.415 633.327ZM741.13 637.857C741.13 637.857 740.945 638.083 740.853 638.196C739.359 636.72 737.79 635.183 736.146 633.584C738.378 635.539 740.077 636.994 741.092 637.827L741.13 637.857ZM738.083 650.318C738.219 650.996 738.386 651.636 738.659 652.3C738.659 652.3 738.629 652.337 738.56 652.344L737.193 650.407C737.193 650.407 737.878 650.339 738.151 650.312L738.083 650.318Z" fill="#FFC700"/>
<path d="M758.967 550.596C746.705 554.435 747.127 592.806 748.722 617.243C740.062 585.318 725.531 550.279 714.635 561.272C704.276 571.762 729.959 614.748 741.964 633.388C717.869 607.793 674.004 571.65 669.803 589.891C667.092 601.559 695.869 618.987 717.506 630.248C688.318 616.694 654.842 606.226 656.042 621.099C657.068 633.882 694.559 641.984 718.75 645.911C685.688 647.284 648.286 653.647 656.629 666.708C664.241 678.666 708.466 664.823 730.419 656.984C699.501 673.69 659.003 702.467 674.293 711.04C686.876 718.085 720.212 683.626 735.529 666.703C717.401 696.03 699.087 736.014 715.684 736.167C729.859 736.283 742.214 691.604 747.561 668.898C744.818 703.92 747.013 753.55 762.539 745.346C777.377 737.521 760.328 675.717 756.138 661.347C756.275 661.333 756.443 661.282 756.542 661.238C770.131 693.745 797.357 741.139 807.596 725.962C815.517 714.227 785.162 679.165 769.311 662.15C796.96 683.87 839.475 709.541 841.267 692.092C842.556 679.321 807.171 664.585 784.071 656.336C816.796 660.972 854.74 661.465 848.964 647.113C843.621 633.998 797.647 639.62 774.627 643.315C808.065 632.509 853.096 611.47 839.583 600.268C828.477 591.039 789.447 618.946 771.341 632.828C794.436 607.259 819.704 571.216 803.401 568.097C789.491 565.433 769.243 607.163 759.889 628.47C768.921 594.517 775.749 545.307 758.998 550.558L758.967 550.596ZM742.986 634.979C742.986 634.979 742.955 635.017 742.924 635.054L742.986 634.979ZM739.137 640.749C739.137 640.749 739.027 641.036 739.003 641.142C737.14 640.118 735.239 639.062 733.232 637.983C735.912 639.238 737.974 640.173 739.168 640.712L739.137 640.749ZM739.616 653.587C739.92 654.213 740.286 654.764 740.689 655.346L740.627 655.421L738.785 653.911C739.052 653.815 739.387 653.713 739.685 653.58L739.616 653.587Z" fill="#EF9900"/>
<path d="M832.974 285.434C823.502 285.715 816.096 313.082 812.289 330.765C812.523 306.319 809.206 278.46 799.299 284.104C789.813 289.465 799.476 325.228 804.28 340.919C792.288 317.891 768.343 283.369 761.67 295.498C757.396 303.245 774.402 321.458 787.508 333.771C769.459 318.286 747.735 304.063 745.633 314.91C743.793 324.212 768.845 337.518 785.286 345.149C761.51 339.488 733.611 336.482 736.913 347.485C739.946 357.513 774.187 356.541 791.346 355.395C766.002 361.083 731.4 373.386 740.57 382.599C748.09 390.145 778.755 372.29 793.03 363.312C774.254 380.543 753.188 405.324 764.963 408.752C775.027 411.659 792.813 382.367 801.13 367.312C792.149 391.69 783.71 427.45 796.43 424.74C808.541 422.159 808.81 374.738 808.713 363.659C808.819 363.683 808.956 363.67 809.024 363.663C812.175 389.501 822.041 428.698 832.364 419.939C840.363 413.171 825.815 382.14 817.908 366.86C833.189 387.869 858.303 414.676 863.115 402.593C866.59 393.751 844.359 376.158 829.608 365.701C852.005 375.574 878.874 383.519 877.611 372.176C876.473 361.752 842.586 356.54 825.494 354.536C851.444 353.556 887.717 347.651 880.333 336.948C874.279 328.151 840.925 340.158 825.241 346.409C846.797 332.841 872.013 312.278 861.037 306.801C851.661 302.134 828.915 327.737 817.969 341.015C831.231 318.699 845.955 285.012 832.936 285.403L832.974 285.434ZM804.659 342.298C804.659 342.298 804.659 342.298 804.628 342.336L804.69 342.26L804.659 342.298ZM800.777 345.653C800.777 345.653 800.654 345.803 800.561 345.916C799.451 344.817 798.302 343.687 797.116 342.527C798.777 343.951 800.025 345.037 800.777 345.653ZM798.55 354.889C798.635 355.399 798.789 355.902 798.973 356.367C798.973 356.367 798.942 356.405 798.874 356.412L797.835 354.995C797.835 354.995 798.314 354.947 798.557 354.958L798.55 354.889Z" fill="#FFC700"/>
<path d="M813.928 281.136C804.881 283.966 805.209 312.328 806.347 330.42C799.928 306.806 789.207 280.923 781.169 289.042C773.508 296.779 792.519 328.577 801.385 342.38C783.582 323.451 751.155 296.746 748.035 310.216C746.058 318.841 767.304 331.729 783.295 340.06C761.712 330.038 736.967 322.263 737.855 333.298C738.655 342.753 766.336 348.786 784.207 351.68C759.745 352.686 732.127 357.389 738.301 367.038C743.945 375.875 776.609 365.628 792.827 359.878C769.971 372.193 739.994 393.503 751.332 399.842C760.625 405.071 785.283 379.589 796.577 367.037C783.186 388.743 769.642 418.307 781.911 418.37C792.419 418.435 801.509 385.409 805.48 368.677C803.421 394.582 805.093 431.274 816.547 425.201C827.511 419.417 814.896 373.756 811.802 363.111C811.901 363.067 812.038 363.054 812.137 363.009C822.158 387.061 842.285 422.1 849.874 410.847C855.747 402.148 833.28 376.253 821.53 363.668C841.949 379.713 873.404 398.707 874.747 385.793C875.709 376.336 849.55 365.454 832.469 359.373C856.68 362.814 884.732 363.18 880.431 352.552C876.498 342.854 842.47 347.018 825.467 349.737C850.17 341.765 883.482 326.204 873.472 317.937C865.268 311.149 836.393 331.729 823.007 342.001C840.094 323.072 858.767 296.456 846.69 294.162C836.41 292.209 821.438 323.054 814.502 338.802C821.168 313.719 826.228 277.327 813.828 281.18L813.928 281.136ZM802.123 343.551C802.123 343.551 802.123 343.551 802.092 343.588L802.123 343.551ZM799.301 347.837C799.301 347.837 799.253 348.049 799.192 348.124C797.803 347.364 796.415 346.603 794.921 345.818C796.915 346.761 798.433 347.439 799.301 347.837ZM799.653 357.302C799.906 357.76 800.121 358.188 800.473 358.602C800.473 358.602 800.442 358.64 800.411 358.678L799.058 357.568C799.058 357.568 799.492 357.421 799.691 357.333L799.653 357.302Z" fill="#EF9900"/>
</g>
<path d="M430.532 770.753L453.371 760.342C455.407 759.416 457.838 759.599 459.853 760.83C463.083 762.78 464.249 766.764 462.456 769.724L460.177 773.488L458.658 772.571L460.937 768.807C462.267 766.611 461.401 763.652 459.005 762.205C457.508 761.301 455.707 761.164 454.198 761.846L431.359 772.257L430.532 770.753Z" fill="#D13E0F"/>
<path d="M462.15 776.628C460.979 778.563 458.298 779.101 456.185 777.824C454.072 776.547 453.302 773.925 454.473 771.99C455.644 770.055 458.325 769.518 460.438 770.795C462.551 772.072 463.321 774.694 462.15 776.628Z" fill="#FF9700"/>
<path d="M421.137 748.949L423.451 745.128C425.271 742.123 429.408 741.291 432.688 743.272C434.751 744.518 436.062 746.614 436.184 748.862L437.58 774.278L435.836 774.244L434.439 748.828C434.342 747.152 433.369 745.6 431.849 744.682C429.416 743.213 426.343 743.83 424.993 746.059L422.679 749.881L421.137 748.949Z" fill="#D13E0F"/>
<path d="M417.793 748.424C416.622 750.359 417.391 752.981 419.505 754.258C421.618 755.535 424.299 754.998 425.47 753.063C426.641 751.128 425.872 748.506 423.758 747.229C421.645 745.952 418.964 746.489 417.793 748.424Z" fill="#FF9700"/>
<path d="M402.156 826.36C398.986 824.445 397.842 820.545 399.599 817.643L430.624 766.393C432.381 763.491 436.369 762.692 439.539 764.607C442.709 766.523 443.853 770.422 442.096 773.324L411.071 824.574C409.314 827.476 405.325 828.275 402.156 826.36Z" fill="#FF0099"/>
<path d="M425.307 801.73L413.618 794.555L403.43 811.665L415.118 818.84L425.307 801.73Z" fill="black"/>
<path d="M445.403 779.58C441.914 785.345 434.005 786.93 427.709 783.125C421.413 779.32 419.145 771.585 422.634 765.82C426.122 760.054 434.031 758.47 440.327 762.275C446.623 766.08 448.892 773.814 445.403 779.58Z" fill="#FF0099"/>
<path d="M463.261 883.551L462.862 884.209L451.862 877.564C447.405 874.872 444.385 870.787 443.085 866.339C441.789 861.908 442.217 857.13 444.691 853.042L432.017 845.386C429.082 843.613 426.546 841.427 424.478 839.007C416.981 830.204 415.277 817.888 421.143 808.199L434.684 785.829L443.998 806.785L464.754 853.521C469.208 863.55 468.665 874.672 463.287 883.581L463.261 883.551Z" fill="#D13E0F"/>
<path opacity="0.3" d="M443.998 806.522L424.585 838.611C417.115 829.84 415.41 817.576 421.244 807.932L434.715 785.666L444.003 806.538L443.998 806.522Z" fill="white"/>
<path d="M457.542 876.275L455.306 879.97L451.794 877.847C447.35 875.162 444.337 871.089 443.038 866.655C441.744 862.237 442.169 857.474 444.633 853.401L452.177 857.96C458.832 861.983 461.232 870.175 457.542 876.275Z" fill="#FF9700"/>
<path opacity="0.3" d="M443.841 852.675L445.334 850.212C446.547 848.21 446.614 845.666 445.512 843.428L437.06 826.334L438.636 825.699L447.088 842.793C448.447 845.541 448.37 848.667 446.86 851.134L445.368 853.597L443.819 852.662L443.841 852.675Z" fill="white"/>
<path d="M325.505 798.25L325.113 798.896L335.919 805.423C340.296 808.068 345.231 808.828 349.698 807.929C354.148 807.033 358.114 804.48 360.544 800.465L372.994 807.985C375.877 809.727 378.937 810.933 381.988 811.626C393.075 814.124 404.577 809.985 410.339 800.466L423.642 778.49L401.144 779.958L350.975 783.249C340.209 783.955 330.771 789.501 325.467 798.24L325.505 798.25Z" fill="#D13E0F"/>
<path opacity="0.3" d="M400.926 779.986L381.695 811.776C392.83 814.292 404.378 810.143 410.158 800.588L423.502 778.53L400.91 779.989L400.926 779.986Z" fill="white"/>
<path d="M334.935 799.692L332.724 803.345L336.196 805.443C340.589 808.098 345.539 808.864 350.02 807.964C354.484 807.068 358.461 804.509 360.897 800.483L353.44 795.976C346.861 792 338.583 793.662 334.935 799.692Z" fill="#FF9700"/>
<path opacity="0.3" d="M359.871 799.984L361.326 797.582C362.793 795.161 365.446 793.682 368.438 793.608L387.052 793.15L387.216 794.796L368.602 795.254C366.168 795.318 364.014 796.525 362.814 798.48L361.359 800.882L359.85 799.971L359.871 799.984Z" fill="white"/>
<defs>
<clipPath id="clip0_222_3">
<rect width="568" height="828" fill="white" transform="translate(343.333 439.959) rotate(-50.6603)"/>
</clipPath>
</defs>
</svg>
