<svg width="277" height="301" viewBox="0 0 277 301" fill="none" xmlns="http://www.w3.org/2000/svg">
<path d="M58.2267 138.324L32.6211 112.077C30.3417 109.737 29.3916 106.304 30.0876 102.923C31.1734 97.5167 36.0755 93.9408 41.0323 94.9398L47.3351 96.21L46.8246 98.7522L40.5218 97.4821C36.8451 96.7411 33.2035 99.3975 32.3982 103.408C31.8948 105.914 32.5965 108.459 34.28 110.195L59.8856 136.442L58.2267 138.324Z" fill="#719B58"/>
<path d="M50.0638 92.1003C53.257 92.7445 55.2927 96.1166 54.5933 99.6033C53.8938 103.09 50.7161 105.41 47.5229 104.766C44.3297 104.122 42.2941 100.75 42.9935 97.2632C43.693 93.7765 46.8707 91.4561 50.0638 92.1003Z" fill="#FF9700"/>
<path d="M34.0725 161.272L27.8558 160.019C22.9667 159.034 19.8691 153.909 20.94 148.576C21.6138 145.221 23.7849 142.462 26.7298 141.219L60.0142 127.129L60.8063 129.475L27.5219 143.564C25.3295 144.501 23.7226 146.547 23.2262 149.019C22.4318 152.974 24.7329 156.781 28.3593 157.512L34.576 158.765L34.0725 161.272Z" fill="#719B58"/>
<path d="M35.4717 166.386C38.6649 167.03 41.8426 164.709 42.542 161.223C43.2414 157.736 41.2057 154.364 38.0125 153.72C34.8193 153.076 31.6417 155.396 30.9423 158.883C30.2428 162.369 32.2785 165.741 35.4717 166.386Z" fill="#FF9700"/>
<path d="M147.263 151.442C146.213 156.672 141.486 160.124 136.696 159.158L52.1093 142.102C47.3195 141.136 44.2917 136.121 45.3414 130.891C46.391 125.661 51.1181 122.209 55.9079 123.175L140.495 140.231C145.284 141.196 148.312 146.212 147.263 151.442Z" fill="white"/>
<path d="M102.34 132.579L98.5742 151.944L126.667 157.791L130.433 138.425L102.34 132.579Z" fill="black"/>
<path d="M63.0878 114.208C72.6021 116.128 78.6075 126.075 76.5235 136.464C74.4395 146.853 65.0654 153.698 55.551 151.778C46.0366 149.859 40.0313 139.911 42.1153 129.522C44.1993 119.134 53.5734 112.289 63.0878 114.208Z" fill="white"/>
<path d="M192.066 42.5851L193.134 42.8005L189.552 60.644C188.101 67.8731 184.107 73.8556 178.804 77.7212C173.521 81.5725 166.95 83.2926 160.319 81.9554L156.192 102.514C155.236 107.275 153.54 111.703 151.306 115.619C143.17 129.829 127.579 138.004 111.859 134.834L75.5658 127.515L99.0221 105.057L151.343 54.9935C162.569 44.2503 177.647 39.6407 192.093 42.5356L192.066 42.5851Z" fill="#719B58"/>
<path opacity="0.3" d="M99.2476 104.885L151.722 115.479C143.559 129.751 127.917 137.962 112.146 134.778L75.7347 127.427L99.2674 104.871L99.2476 104.885Z" fill="white"/>
<path d="M184.436 53.9759L190.467 55.1932L189.317 60.9249C187.863 68.178 183.859 74.1802 178.543 78.0587C173.248 81.9228 166.66 83.6486 160.013 82.307L162.482 69.9945C164.661 59.1325 174.482 51.9667 184.436 53.9759Z" fill="#FF9700"/>
<path opacity="0.3" d="M159.99 83.2477L156.022 82.4487C152.796 81.7992 149.397 82.9237 146.96 85.4474L128.355 104.776L126.766 102.995L145.371 83.666C148.362 80.5594 152.535 79.1707 156.516 79.9904L160.484 80.7894L159.983 83.2828L159.99 83.2477Z" fill="white"/>
<path d="M148.431 271.931L149.516 272.149L153.156 254.013C154.631 246.665 153.233 239.484 149.779 233.771C146.338 228.08 140.854 223.879 134.114 222.52L138.309 201.624C139.28 196.785 139.427 191.966 138.869 187.416C136.816 170.891 125.409 157.085 109.432 153.864L72.5469 146.425L85.7239 176.717L115.129 244.256C121.438 258.749 133.761 269.01 148.436 271.988L148.431 271.931Z" fill="#719B58"/>
<path opacity="0.3" d="M85.4735 176.469L138.399 187.154C136.354 170.683 124.997 156.924 109.09 153.713L72.367 146.299L85.4863 176.491L85.4735 176.469Z" fill="white"/>
<path d="M146.23 258.769L152.324 259.999L153.486 254.207C154.956 246.877 153.563 239.714 150.121 234.015C146.691 228.338 141.225 224.147 134.508 222.791L132.012 235.234C129.811 246.211 136.171 256.739 146.23 258.769Z" fill="#FF9700"/>
<path opacity="0.3" d="M134.012 223.791L129.951 222.974C125.858 222.149 122.481 219.207 120.887 215.091L110.974 189.48L113.178 188.428L123.091 214.039C124.394 217.386 127.143 219.772 130.457 220.458L134.518 221.275L134.005 223.827L134.012 223.791Z" fill="white"/>
</svg>
