<svg width="387" height="290" viewBox="0 0 387 290" fill="none" xmlns="http://www.w3.org/2000/svg">
<g clip-path="url(#clip0_269_3)">
<path d="M140.463 146.182C140.463 146.182 91.8457 215.164 -26.751 159.844" stroke="#005245" stroke-miterlimit="10"/>
<path d="M33.834 179.192C33.834 179.192 47.4094 154.921 79.9083 149.563C79.9083 149.563 66.8803 172.393 33.834 179.192Z" fill="#005245"/>
<path opacity="0.3" d="M33.834 179.193C33.834 179.193 52.7204 166.448 79.9083 149.563C79.9083 149.563 66.8803 172.393 33.834 179.193Z" fill="#7FBEBF"/>
<path d="M64.3621 211.559C64.3621 211.559 38.5799 207.973 25.9642 178.443C25.9642 178.443 50.2756 182.071 64.3621 211.559Z" fill="#005245"/>
<path opacity="0.3" d="M64.3621 211.559C64.3621 211.559 48.0665 198.221 25.9642 178.443C25.9642 178.443 50.2756 182.071 64.3621 211.559Z" fill="#7FBEBF"/>
<path d="M27.9915 214.713C27.9915 214.713 8.99559 202.859 8.79455 173.744C8.79455 173.744 26.623 185.13 27.9915 214.713Z" fill="#005245"/>
<path opacity="0.3" d="M27.9915 214.713C27.9915 214.713 19.6115 197.928 8.79455 173.744C8.79455 173.744 26.623 185.13 27.9915 214.713Z" fill="#7FBEBF"/>
<path d="M59.6337 117.153C59.6337 117.153 103.927 90.2971 121.598 130.995L142.09 140.328L140.458 146.189L119.995 138.955C119.995 138.955 87.3726 155.846 59.6337 117.153Z" fill="#FF005C"/>
<path d="M70.4407 115.942C70.4407 115.942 98.3034 107.081 114.302 131.473C114.302 131.473 90.1427 144.294 70.3953 121.764" stroke="#270307" stroke-width="0.72" stroke-miterlimit="10"/>
<path d="M78.8362 120.606C78.8362 120.606 131.216 135.684 147.809 147.099" stroke="#270307" stroke-width="0.72" stroke-miterlimit="10"/>
<path d="M74.5793 218.12C74.5793 218.12 72.0625 167.747 117.109 164.629L135.435 148.514L139.889 151.973L123.458 168.762C123.458 168.762 122.729 204.913 74.5741 218.127L74.5793 218.12Z" fill="#FF005C"/>
<path d="M78.7609 207.591C78.7609 207.591 84.3718 178.556 114.006 171.618C114.006 171.618 113.744 198.492 83.9594 209.557" stroke="#270307" stroke-width="0.72" stroke-miterlimit="10"/>
<path d="M87.0199 201.265C87.0199 201.265 125.993 157.158 144.291 145.382" stroke="#270307" stroke-width="0.72" stroke-miterlimit="10"/>
<path d="M171.858 230.053C171.858 230.053 125.773 215.082 145.459 172.076L140.253 149.476L145.556 146.517L152.308 167.582C152.308 167.582 184.12 180.686 171.865 230.058L171.858 230.053Z" fill="#FF005C"/>
<path d="M164.568 222.558C164.568 222.558 141.527 207.355 150.128 177.381C150.128 177.381 173.917 186.862 168.907 218.393" stroke="#270307" stroke-width="0.72" stroke-miterlimit="10"/>
<path d="M163.065 212.692C163.065 212.692 143.249 161.245 141.891 140.165" stroke="#270307" stroke-width="0.72" stroke-miterlimit="10"/>
<path d="M233.863 136.569C233.863 136.569 200.941 177.398 169.299 147.478L146.229 146.809L145.686 140.932L167.964 139.723C167.964 139.723 193.252 112.246 233.858 136.576L233.863 136.569Z" fill="#FF005C"/>
<path d="M223.903 141.725C223.903 141.725 200.302 160.186 176.131 144.286C176.131 144.286 194.748 123.657 221.851 136.464" stroke="#270307" stroke-width="0.72" stroke-miterlimit="10"/>
<path d="M214.153 140.691C214.153 140.691 158.353 146.87 138.294 142.865" stroke="#270307" stroke-width="0.72" stroke-miterlimit="10"/>
<path d="M171.939 58.3127C171.939 58.3127 195.318 100.981 154.207 123.342L143.676 145.349L138.04 144.285L146.505 122.529C146.505 122.529 132.118 90.8062 171.939 58.3127Z" fill="#FF005C"/>
<path d="M172.398 69.2807C172.398 69.2807 179.229 96.9528 154.219 115.912C154.219 115.912 143.255 92.4448 166.687 69.8374" stroke="#270307" stroke-width="0.72" stroke-miterlimit="10"/>
<path d="M167.261 78.3754C167.261 78.3754 148.953 133.703 136.646 151.922" stroke="#270307" stroke-width="0.72" stroke-miterlimit="10"/>
<path d="M129.676 137.826C131.799 134.12 134.767 131.581 138.578 130.229C141.119 129.322 143.651 129.182 146.185 129.808C148.713 130.429 150.895 131.667 152.723 133.505C154.557 135.347 155.803 137.533 156.476 140.064C157.464 143.774 157.065 147.354 155.284 150.807C153.509 154.253 150.546 156.72 146.399 158.19C142.331 159.634 138.53 159.54 134.989 157.891C131.448 156.243 129.15 153.441 128.105 149.471C127.03 145.425 127.554 141.543 129.682 137.83L129.676 137.826Z" fill="#FFC700"/>
<path d="M134.522 140.339C135.819 138.065 137.641 136.517 139.975 135.687C141.535 135.132 143.089 135.047 144.637 135.431C146.185 135.815 147.521 136.563 148.641 137.694C149.761 138.826 150.529 140.159 150.939 141.713C151.544 143.988 151.298 146.177 150.212 148.292C149.127 150.406 147.307 151.913 144.766 152.82C142.274 153.702 139.945 153.642 137.771 152.637C135.603 151.625 134.196 149.906 133.549 147.482C132.892 145.006 133.208 142.622 134.512 140.353L134.522 140.339Z" fill="#FF5635"/>
<path d="M136.803 141.524C137.714 139.932 138.985 138.843 140.629 138.257C141.717 137.867 142.811 137.804 143.892 138.077C144.979 138.342 145.914 138.868 146.699 139.667C147.49 140.458 148.021 141.394 148.316 142.483C148.736 144.076 148.567 145.615 147.809 147.099C147.045 148.578 145.777 149.637 143.987 150.272C142.236 150.895 140.607 150.847 139.09 150.142C137.567 149.433 136.579 148.231 136.127 146.527C135.665 144.783 135.893 143.117 136.803 141.524Z" fill="#FFC700"/>
<path d="M177.004 116.094C177.003 114.533 177.443 113.45 178.329 112.861C178.92 112.465 179.636 112.392 180.478 112.631C181.319 112.869 182.165 113.37 183.005 114.124C183.844 114.877 184.58 115.778 185.202 116.827C186.108 118.364 186.594 119.858 186.655 121.315C186.716 122.761 186.262 123.812 185.3 124.46C184.359 125.093 183.23 125.074 181.92 124.421C180.608 123.756 179.469 122.61 178.501 120.961C177.508 119.281 177.011 117.66 177.01 116.099L177.004 116.094Z" fill="#FFC700"/>
<path d="M182.114 117.368C182.114 117.368 170.129 129.471 148.635 137.69" stroke="#FFC700" stroke-width="0.72" stroke-miterlimit="10"/>
<path d="M181.833 160.172C183.055 159.121 184.135 158.768 185.071 159.09C185.691 159.308 186.135 159.845 186.399 160.693C186.657 161.549 186.721 162.567 186.575 163.768C186.435 164.963 186.116 166.171 185.629 167.379C184.903 169.156 183.993 170.555 182.89 171.579C181.786 172.603 180.727 172.929 179.702 172.571C178.7 172.22 178.111 171.282 177.936 169.769C177.754 168.251 178.053 166.543 178.822 164.648C179.61 162.714 180.615 161.216 181.838 160.165L181.833 160.172Z" fill="#FFC700"/>
<path d="M183.559 165.215C183.559 165.215 167.685 163.494 149.771 151.375" stroke="#FFC700" stroke-width="0.72" stroke-miterlimit="10"/>
<path d="M133.298 189.491C134.347 190.535 134.724 191.568 134.424 192.586C134.228 193.264 133.709 193.823 132.889 194.247C132.065 194.678 131.069 194.935 129.891 195.018C128.719 195.107 127.537 195.016 126.346 194.745C124.601 194.349 123.209 193.687 122.192 192.753C121.176 191.82 120.828 190.799 121.149 189.69C121.473 188.604 122.371 187.821 123.84 187.347C125.32 186.871 126.988 186.842 128.858 187.269C130.762 187.701 132.247 188.435 133.291 189.486L133.298 189.491Z" fill="#FFC700"/>
<path d="M128.42 192.217C128.42 192.217 129.745 175.679 141.177 155.075" stroke="#FFC700" stroke-width="0.72" stroke-miterlimit="10"/>
<path d="M114.012 110.924C112.504 111.335 111.42 111.168 110.767 110.429C110.331 109.932 110.19 109.231 110.343 108.315C110.496 107.4 110.904 106.422 111.554 105.372C112.204 104.322 113.012 103.35 113.963 102.446C115.365 101.124 116.77 100.246 118.161 99.8094C119.552 99.3725 120.614 99.5548 121.325 100.36C122.022 101.145 122.114 102.292 121.595 103.787C121.075 105.282 120.066 106.734 118.568 108.143C117.037 109.581 115.515 110.509 114.006 110.919L114.012 110.924Z" fill="#FFC700"/>
<path d="M114.768 105.434C114.768 105.434 127.567 114.391 137.486 133.965" stroke="#FFC700" stroke-width="0.72" stroke-miterlimit="10"/>
<path d="M99.9251 163.278C99.6659 164.844 99.0572 165.84 98.1001 166.277C97.4603 166.57 96.7505 166.519 95.977 166.128C95.2034 165.738 94.4662 165.095 93.7756 164.187C93.0798 163.285 92.5232 162.254 92.1059 161.093C91.4808 159.395 91.2702 157.812 91.4461 156.354C91.6334 154.894 92.2503 153.926 93.2904 153.446C94.3087 152.98 95.408 153.191 96.5654 154.082C97.7228 154.973 98.6423 156.327 99.3011 158.147C99.9804 160.005 100.189 161.705 99.9303 163.271L99.9251 163.278Z" fill="#FFC700"/>
<path d="M95.1776 161.11C95.1776 161.11 108.847 151.122 131.093 146.69" stroke="#FFC700" stroke-width="0.72" stroke-miterlimit="10"/>
</g>
<path d="M317.34 250.927L302.197 252.794C300.848 252.959 299.472 252.409 298.528 251.327C297.011 249.605 297.062 247.081 298.642 245.691L300.65 243.924L301.363 244.734L299.355 246.501C298.183 247.531 298.145 249.407 299.27 250.684C299.974 251.482 300.993 251.89 301.992 251.77L317.134 249.904L317.34 250.927Z" fill="#719B58"/>
<path d="M299.977 241.985C300.994 241.09 302.624 241.265 303.602 242.375C304.581 243.485 304.548 245.122 303.531 246.017C302.513 246.913 300.883 246.737 299.905 245.627C298.927 244.517 298.959 242.88 299.977 241.985Z" fill="#FF9700"/>
<path d="M318.853 264.707L316.872 266.45C315.314 267.821 312.837 267.555 311.341 265.857C310.4 264.789 310.033 263.375 310.363 262.087L314.083 247.515L315.059 247.844L311.339 262.415C311.097 263.377 311.37 264.425 312.063 265.212C313.173 266.471 315.013 266.669 316.169 265.652L318.15 263.909L318.853 264.707Z" fill="#719B58"/>
<path d="M320.899 265.532C321.917 264.637 321.949 263 320.971 261.89C319.992 260.78 318.363 260.605 317.345 261.5C316.327 262.395 316.295 264.032 317.273 265.142C318.252 266.252 319.881 266.427 320.899 265.532Z" fill="#FF9700"/>
<path d="M344.115 224.749C345.583 226.414 345.535 228.849 344.008 230.192L317.05 253.905C315.523 255.248 313.1 254.987 311.632 253.322C310.165 251.657 310.213 249.222 311.739 247.879L338.698 224.166C340.224 222.823 342.648 223.084 344.115 224.749Z" fill="white"/>
<path d="M326.551 234.873L332.015 240.999L341.028 233.169L335.565 227.043L326.551 234.873Z" fill="black"/>
<path d="M310.579 243.242C313.612 240.575 318.419 241.093 321.334 244.4C324.249 247.707 324.154 252.536 321.121 255.203C318.089 257.87 313.282 257.352 310.367 254.045C307.451 250.738 307.546 245.909 310.579 243.242Z" fill="white"/>
<path d="M319.356 182.488L319.696 182.189L324.703 187.87C326.731 190.172 327.706 193.002 327.65 195.732C327.594 198.452 326.508 201.061 324.395 202.92L330.163 209.466C331.499 210.982 332.537 212.659 333.271 214.385C335.927 220.659 334.706 227.882 329.696 232.289L318.129 242.463L316.602 229.038L313.205 199.1C312.476 192.675 314.748 186.521 319.346 182.467L319.356 182.488Z" fill="#719B58"/>
<path opacity="0.3" d="M316.602 228.92L333.33 214.212C335.999 220.511 334.777 227.759 329.75 232.18L318.142 242.385L316.602 228.91L316.602 228.92Z" fill="white"/>
<path d="M321.206 187.885L323.128 186.194L324.737 188.019C326.772 190.328 327.751 193.166 327.696 195.903C327.641 198.63 326.553 201.247 324.434 203.11L320.979 199.19C317.931 195.732 318.032 190.675 321.206 187.885Z" fill="#FF9700"/>
<path opacity="0.3" d="M324.74 203.354L323.475 204.467C322.448 205.372 321.964 206.78 322.185 208.223L323.899 219.254L322.908 219.331L321.195 208.301C320.92 206.528 321.512 204.796 322.786 203.684L324.05 202.571L324.75 203.366L324.74 203.354Z" fill="white"/>
<path d="M384.308 254.718L384.654 254.414L379.565 248.639C377.504 246.3 374.774 244.953 372.012 244.658C369.26 244.364 366.487 245.121 364.339 247.01L358.476 240.357C357.119 238.816 355.56 237.554 353.913 236.592C347.923 233.109 340.478 233.408 335.386 237.887L323.63 248.227L336.981 251.495L366.754 258.774C373.142 260.336 379.645 258.84 384.328 254.731L384.308 254.718Z" fill="#719B58"/>
<path opacity="0.3" d="M336.836 251.516L353.708 236.682C347.739 233.209 340.321 233.503 335.25 237.962L323.543 248.255L336.846 251.517L336.836 251.516Z" fill="white"/>
<path d="M379.395 252.131L381.338 250.423L379.712 248.579C377.656 246.245 374.933 244.902 372.178 244.606C369.434 244.311 366.669 245.066 364.528 246.948L368.02 250.909C371.1 254.404 376.189 254.95 379.395 252.131Z" fill="#FF9700"/>
<path opacity="0.3" d="M364.735 247.364L363.441 248.503C362.137 249.651 360.312 250.028 358.547 249.518L347.569 246.349L347.776 245.354L358.754 248.524C360.19 248.936 361.673 248.626 362.735 247.702L364.029 246.563L364.745 247.376L364.735 247.364Z" fill="white"/>
<defs>
<clipPath id="clip0_269_3">
<rect width="200.291" height="211.789" fill="white" transform="translate(96.1739) rotate(37.5835)"/>
</clipPath>
</defs>
</svg>
