<svg width="1920" height="841" viewBox="0 0 1920 841" fill="none" xmlns="http://www.w3.org/2000/svg">
<g clip-path="url(#clip0_140_457)">
<path d="M163.266 304.667C163.266 304.667 139.746 387.027 198.2 420.787" stroke="#7FBEBF" stroke-width="1.2" stroke-miterlimit="10"/>
<path d="M245.119 295.987C245.119 295.987 144.239 507.933 194.252 601.16" stroke="#7FBEBF" stroke-width="2.41333" stroke-miterlimit="10"/>
<path d="M318.96 347.853C318.96 347.853 286.187 416.493 212.48 378.907" stroke="#7FBEBF" stroke-width="1.2" stroke-miterlimit="10"/>
<path d="M282.173 309.093C282.173 309.093 261.24 349.92 224.2 343.04" stroke="#7FBEBF" stroke-width="1.2" stroke-miterlimit="10"/>
<path d="M80.9193 329.107C80.9193 329.107 47.1727 483.493 180.306 517.067" stroke="#7FBEBF" stroke-width="2.41333" stroke-miterlimit="10"/>
<path d="M123.4 323.213C123.4 323.213 114.107 386.76 76.9999 390.493C76.9999 390.493 7.35989 389.267 36.1199 302.933" stroke="#7FBEBF" stroke-width="1.2" stroke-miterlimit="10"/>
<path d="M153.64 404.48C153.64 404.48 138.107 461.813 98.8398 460.2" stroke="#7FBEBF" stroke-width="1.2" stroke-miterlimit="10"/>
<path d="M317.12 425.213C317.12 425.213 275.333 496.24 189.946 459" stroke="#7FBEBF" stroke-width="1.2" stroke-miterlimit="10"/>
<path d="M348.36 433.187C348.36 433.187 320.987 470.373 293.04 450.493" stroke="#7FBEBF" stroke-width="1.2" stroke-miterlimit="10"/>
<path d="M29.8402 300.72L21.3335 278.2L27.9068 277.88L32.5202 300.387L31.6268 277.573L37.1468 278.267L34.8268 300.48L39.2402 276.24L45.7068 278.227L38.2802 301.147L46.3468 280.733L51.9602 283.013L41.6802 302.053L53.2668 284.92L56.6268 287.893L44.3202 303.8C44.3202 303.8 40.2002 306.587 29.8402 300.707V300.72Z" fill="#FFC700"/>
<path d="M29.8401 300.72C29.8401 300.72 28.0535 309.32 35.6935 310.853C43.3335 312.373 44.3201 303.827 44.3201 303.827L29.8401 300.733V300.72Z" fill="#7FBEBF"/>
<path d="M116.84 316.44L108.333 293.933L114.907 293.613L119.52 316.12L118.627 293.307L124.147 294L121.827 316.213L126.24 291.973L132.707 293.96L125.28 316.88L133.347 296.467L138.96 298.747L128.68 317.787L140.267 300.653L143.627 303.627L131.32 319.533C131.32 319.533 127.2 322.32 116.84 316.44Z" fill="#FFC700"/>
<path d="M116.84 316.44C116.84 316.44 115.053 325.04 122.693 326.573C130.333 328.106 131.32 319.546 131.32 319.546L116.84 316.453V316.44Z" fill="#7FBEBF"/>
<path d="M236.8 291.16L233.84 258.2L242.667 260.2L240.48 291.72L247.707 261.16L254.76 264.12L243.507 292.693L258.293 262.2L266.133 267.227L247.84 294.853L266.04 270.773L272.64 275.867L251.987 297.307L273.667 278.88L277.013 284.053L254.853 300.6C254.853 300.6 248.373 302.773 236.813 291.16H236.8Z" fill="#FFC700"/>
<path d="M236.8 291.16C236.8 291.16 231.267 301.907 240.813 306.733C250.373 311.573 254.84 300.6 254.84 300.6L236.8 291.16Z" fill="#7FBEBF"/>
<path d="M88.2934 323.667L108.2 305.387L101.773 301.747L85.7734 321.987L98.2001 299.56L92.3067 297.467L83.4001 320.907L91.2267 294.36L83.7334 293.093L79.6001 319.827L81.8267 295.28L75.0401 294.733L75.7334 319.027L72.7734 295.987L67.9067 297.28L72.2001 319.44C72.2001 319.44 74.9201 324.32 88.2801 323.653L88.2934 323.667Z" fill="#FFC700"/>
<path d="M88.2933 323.667C88.2933 323.667 85.7333 333.2 77.3066 330.867C68.88 328.533 72.2133 319.453 72.2133 319.453L88.2933 323.667Z" fill="#7FBEBF"/>
<path d="M170.76 304.147L190.666 285.867L184.24 282.227L168.24 302.467L180.666 280.04L174.773 277.947L165.866 301.387L173.693 274.84L166.2 273.573L162.066 300.307L164.306 275.76L157.52 275.213L158.213 299.507L155.24 276.467L150.373 277.76L154.666 299.92C154.666 299.92 157.386 304.8 170.746 304.133L170.76 304.147Z" fill="#FFC700"/>
<path d="M170.76 304.147C170.76 304.147 168.2 313.68 159.773 311.347C151.346 309.013 154.68 299.933 154.68 299.933L170.76 304.147Z" fill="#7FBEBF"/>
<path d="M285.36 318.693L306.506 306.56L301.573 302.08L283.48 316.707L298.866 299.453L294.106 296.44L281.613 315.293L293.773 293.493L287.426 290.88L278.48 313.587L285.32 292.44L279.466 290.613L275.253 312.12L277.226 291.267L272.693 291.427L272.066 311.787C272.066 311.787 273.493 316.613 285.386 318.68L285.36 318.693Z" fill="#FFC700"/>
<path d="M285.36 318.693C285.36 318.693 281.213 326.573 274.266 322.84C267.32 319.12 272.053 311.787 272.053 311.787L285.373 318.68L285.36 318.693Z" fill="#7FBEBF"/>
<path d="M359.773 430.747L380.92 418.613L375.987 414.133L357.893 428.76L373.28 411.507L368.52 408.493L356.027 427.347L368.187 405.547L361.84 402.933L352.893 425.64L359.733 404.493L353.88 402.667L349.667 424.173L351.64 403.32L347.107 403.48L346.48 423.84C346.48 423.84 347.907 428.667 359.8 430.733L359.773 430.747Z" fill="#FFC700"/>
<path d="M359.773 430.747C359.773 430.747 355.627 438.627 348.68 434.893C341.733 431.173 346.467 423.84 346.467 423.84L359.787 430.733L359.773 430.747Z" fill="#7FBEBF"/>
<path d="M323.12 427.133L344.267 415L339.333 410.52L321.24 425.147L336.627 407.893L331.867 404.88L319.373 423.733L331.533 401.933L325.187 399.32L316.24 422.027L323.08 400.88L317.227 399.053L313.013 420.56L314.987 399.707L310.453 399.867L309.827 420.227C309.827 420.227 311.253 425.053 323.147 427.12L323.12 427.133Z" fill="#FFC700"/>
<path d="M323.12 427.133C323.12 427.133 318.973 435.013 312.027 431.28C305.08 427.56 309.813 420.227 309.813 420.227L323.133 427.12L323.12 427.133Z" fill="#7FBEBF"/>
<path d="M309.653 349.373L304.813 325.48L311.44 326.227L312.387 349.48L315.2 326.533L320.6 328.133L314.68 349.96L323.04 326.44L329.187 329.48L318.027 351.187L329.4 332.093L334.64 335.293L321.267 352.653L335.64 337.413L338.507 340.933L323.627 354.84C323.627 354.84 319.053 356.96 309.653 349.387V349.373Z" fill="#FFC700"/>
<path d="M309.653 349.373C309.653 349.373 306.467 357.68 313.853 360.453C321.24 363.213 323.627 354.827 323.627 354.827L309.653 349.373Z" fill="#7FBEBF"/>
<path d="M139.973 421.467L135.133 397.573L141.76 398.32L142.707 421.573L145.52 398.627L150.92 400.227L145 422.053L153.36 398.533L159.507 401.573L148.347 423.28L159.72 404.187L164.96 407.387L151.587 424.747L165.96 409.507L168.827 413.027L153.947 426.933C153.947 426.933 149.373 429.053 139.973 421.48V421.467Z" fill="#FFC700"/>
<path d="M139.973 421.467C139.973 421.467 136.787 429.773 144.173 432.547C151.56 435.307 153.947 426.92 153.947 426.92L139.973 421.467Z" fill="#7FBEBF"/>
<path d="M533.307 487.72C533.307 487.72 493.054 442.773 540.934 389.333C540.934 389.333 560.054 450.253 533.307 487.72Z" fill="#7FBEBF"/>
<path d="M642.507 489.933C642.507 489.933 658.533 436.973 729.213 404.733C729.213 404.733 723.014 487.44 642.507 489.933Z" fill="#7FBEBF"/>
<path d="M324.374 333.68C324.374 333.68 423.32 383.506 428.054 434.866C428.054 434.866 333.614 424.186 324.374 333.68Z" fill="#7FBEBF"/>
<path d="M354.134 155.133C354.134 155.133 317.894 218.04 408.627 305.4C408.627 305.4 383.147 169.08 354.134 155.133Z" fill="#7FBEBF"/>
<path d="M519.907 214.573C519.907 214.573 512.32 115.68 550.614 64.4798C550.614 64.4798 589.334 162.08 519.907 214.573Z" fill="#7FBEBF"/>
<path d="M460.107 125.147C460.107 125.147 540.467 396.187 408.627 661.933" stroke="#008F8C" stroke-width="2.66667" stroke-miterlimit="10"/>
<path d="M549.174 85.1466C549.174 85.1466 562.947 177.773 481.227 269.12" stroke="#008F8C" stroke-width="1.33333" stroke-miterlimit="10"/>
<path d="M355.894 175.813C355.894 175.813 387.2 327 480.094 378.56" stroke="#008F8C" stroke-width="1.33333" stroke-miterlimit="10"/>
<path d="M538.947 406.12C538.947 406.12 522.387 482.787 543.6 535.347" stroke="#008F8C" stroke-width="1.17333" stroke-miterlimit="10"/>
<path d="M582.28 497.707C582.28 497.707 666.694 510.76 720.24 423.853" stroke="#008F8C" stroke-width="1.33333" stroke-miterlimit="10"/>
<path d="M333.64 350.72C333.64 350.72 389.96 453.933 474.92 437.533" stroke="#008F8C" stroke-width="1.33333" stroke-miterlimit="10"/>
<path d="M442.374 585.96C447.387 582.587 591.547 552.56 622.44 408.16" stroke="#008F8C" stroke-width="2.66667" stroke-miterlimit="10"/>
<path d="M353.466 61.7734C351.88 59.4267 352.333 56.5601 354.613 55.0267C356.893 53.4934 359.546 54.1734 361.24 56.5467C362.826 58.8934 362.44 61.7201 360.08 63.2934C357.72 64.8667 354.973 64.1601 353.466 61.7734Z" fill="#FFC700"/>
<path d="M357.6 59.72C357.6 59.72 382.44 77.2 413.693 108.547" stroke="#FFC700" stroke-width="0.666667" stroke-miterlimit="10"/>
<path d="M458.666 6.53329C459.493 3.82663 462 2.37329 464.626 3.17329C467.266 3.98663 468.4 6.46663 467.613 9.27996C466.786 11.9866 464.36 13.4666 461.64 12.64C459 11.8266 457.746 9.22663 458.653 6.54663L458.666 6.53329Z" fill="#FFC700"/>
<path d="M462.867 8.45326C462.867 8.45326 464.947 38.7599 460.307 82.7733" stroke="#FFC700" stroke-width="0.666667" stroke-miterlimit="10"/>
<path d="M395.627 29.6933C394.733 27.0133 395.92 24.3733 398.533 23.4933C401.147 22.6133 403.507 23.9866 404.507 26.72C405.4 29.4133 404.28 32.0266 401.6 32.92C398.987 33.8 396.44 32.4 395.627 29.6933Z" fill="#FFC700"/>
<path d="M400.16 28.8133C400.16 28.8133 419.453 52.2666 441.253 90.8" stroke="#FFC700" stroke-width="0.666667" stroke-miterlimit="10"/>
<path d="M459.306 128.773C459.306 128.773 374.666 99.1466 370.893 36.2266C370.893 36.2266 409.413 41.6 448.306 100.533C448.306 100.533 407.426 49.48 433.519 0.666618C433.519 0.666618 485.573 41.3066 459.306 128.773Z" fill="#E30F26"/>
<path d="M461.386 131.507C461.386 131.507 379.853 168.88 345.573 77.5066C345.573 77.5066 412.066 75.4533 455.986 117.693C455.986 117.693 438.719 40.0933 501.946 1.46659C501.946 1.46659 527.279 85.2799 461.399 131.52L461.386 131.507Z" fill="#FF5635"/>
<path d="M461.333 133.96C461.333 133.96 446.173 151.427 419.546 147.52C419.546 147.52 437.693 121.507 462.999 129.947C462.999 129.947 472.106 105.64 502.079 108.027C502.079 108.027 494.813 134 461.346 133.96H461.333Z" fill="#7FBEBF"/>
<path d="M550.199 331.093C549.439 328.667 550.559 326.32 552.919 325.573C555.279 324.84 557.386 326.107 558.226 328.573C558.986 331 557.933 333.333 555.506 334.093C553.146 334.827 550.893 333.533 550.199 331.093Z" fill="#FFC700"/>
<path d="M554.293 330.387C554.293 330.387 571.213 351.787 590.12 386.76" stroke="#FFC700" stroke-width="0.6" stroke-miterlimit="10"/>
<path d="M654.893 310.427C656.293 308.307 658.826 307.693 660.893 309.067C662.959 310.44 663.293 312.867 661.906 315.08C660.506 317.2 658.026 317.853 655.906 316.44C653.839 315.067 653.426 312.507 654.893 310.427Z" fill="#FFC700"/>
<path d="M658.026 313.147C658.026 313.147 652.066 339.773 636.812 376.48" stroke="#FFC700" stroke-width="0.6" stroke-miterlimit="10"/>
<path d="M594.693 314.253C594.599 311.707 596.306 309.747 598.773 309.653C601.253 309.573 602.933 311.347 603.093 313.96C603.186 316.507 601.546 318.467 598.999 318.56C596.519 318.64 594.693 316.8 594.679 314.253H594.693Z" fill="#FFC700"/>
<path d="M598.826 314.653C598.826 314.653 609.452 339.787 618.359 378.52" stroke="#FFC700" stroke-width="0.6" stroke-miterlimit="10"/>
<path d="M624.2 415.84C624.2 415.84 558.893 368.693 571.733 313.56C571.733 313.56 603.52 328.026 621.946 388.706C621.946 388.706 599.8 334.293 634.746 298.946C634.746 298.946 669.173 347.24 624.2 415.84Z" fill="#E30F26"/>
<path d="M625.294 418.72C625.294 418.72 545.547 430.053 539.374 342.626C539.374 342.626 597.147 357.866 624.16 405.44C624.16 405.44 629.134 334.213 693.44 317.106C693.44 317.106 693.827 395.746 625.28 418.706L625.294 418.72Z" fill="#FF5635"/>
<path d="M624.627 420.813C624.627 420.813 607.107 431.973 585.173 421.8C585.173 421.8 607.44 404.04 627.08 417.773C627.08 417.773 641.133 399.173 666.333 408.893C666.333 408.893 653.44 429.4 624.627 420.813Z" fill="#7FBEBF"/>
<path d="M1211.97 495.307C1211.97 495.307 1157.45 513.773 1151.29 539.867C1151.29 539.867 1200.67 541.213 1211.97 495.307Z" fill="#7FBEBF"/>
<path d="M1209.59 401.28C1209.59 401.28 1223.68 436.28 1170.67 474.653C1170.67 474.653 1193.65 406.36 1209.59 401.28Z" fill="#7FBEBF"/>
<path d="M1119.99 419.853C1119.99 419.853 1131.05 369.52 1115.05 340.4C1115.05 340.4 1088.07 387.813 1119.99 419.853Z" fill="#7FBEBF"/>
<path d="M1157.23 378.173C1157.23 378.173 1096.25 511.827 1144.84 658.107" stroke="#008F8C" stroke-width="2.50667" stroke-miterlimit="10"/>
<path d="M1114.29 351.147C1114.29 351.147 1100.51 397.813 1135.93 450.733" stroke="#008F8C" stroke-width="1.25333" stroke-miterlimit="10"/>
<path d="M1207.17 411.787C1207.17 411.787 1180.12 487.32 1128.59 507.12" stroke="#008F8C" stroke-width="1.25333" stroke-miterlimit="10"/>
<path d="M1205.96 503.4C1205.96 503.4 1169.51 552.44 1126.97 537.84" stroke="#008F8C" stroke-width="1.25333" stroke-miterlimit="10"/>
<path d="M1213.17 353.587C1212.08 352.6 1212.08 351.12 1213.07 350.027C1214.11 348.933 1215.52 348.76 1216.59 349.72C1217.65 350.68 1217.68 352.187 1216.69 353.28C1215.75 354.4 1214.24 354.547 1213.17 353.587Z" fill="#FFC700"/>
<path d="M1214.71 351.933C1214.71 351.933 1200.65 359.133 1182.31 372.987" stroke="#FFC700" stroke-width="0.626667" stroke-miterlimit="10"/>
<path d="M1164.57 320.16C1163.12 320.387 1161.97 319.453 1161.75 318C1161.55 316.493 1162.31 315.307 1163.73 315.08C1165.15 314.853 1166.33 315.787 1166.56 317.24C1166.83 318.693 1166 319.933 1164.59 320.16H1164.57Z" fill="#FFC700"/>
<path d="M1164.25 317.92C1164.25 317.92 1160.99 333.36 1160.19 356.347" stroke="#FFC700" stroke-width="0.626667" stroke-miterlimit="10"/>
<path d="M1194.01 334.96C1192.69 334.307 1192.31 332.88 1192.96 331.56C1193.67 330.227 1194.99 329.693 1196.27 330.333C1197.55 330.973 1197.97 332.413 1197.31 333.733C1196.69 335.067 1195.28 335.6 1194 334.96H1194.01Z" fill="#FFC700"/>
<path d="M1195.05 332.947C1195.05 332.947 1183.43 343.613 1169.43 361.867" stroke="#FFC700" stroke-width="0.626667" stroke-miterlimit="10"/>
<path d="M1157.37 380.093C1157.37 380.093 1203.08 370.973 1209.57 338.88C1209.57 338.88 1189.36 338.853 1165.08 366.36C1165.08 366.36 1189.81 343.053 1179.92 316.04C1179.92 316.04 1150.2 333.173 1157.37 380.093Z" fill="#E30F26"/>
<path d="M1156.11 381.347C1156.11 381.347 1195.36 406.48 1219.61 361.947C1219.61 361.947 1185.55 356.08 1159.89 374.627C1159.89 374.627 1174.4 335.947 1144.67 311.493C1144.67 311.493 1125.56 352.787 1156.12 381.347H1156.11Z" fill="#FF5635"/>
<path d="M1155.96 382.613C1155.96 382.613 1162.49 392.693 1176.48 392.613C1176.48 392.613 1169.03 377.907 1155.4 380.427C1155.4 380.427 1152.47 367.267 1136.88 366.32C1136.88 366.32 1138.73 380.213 1155.96 382.613Z" fill="#7FBEBF"/>
<path d="M1412.2 301.866C1412.2 301.866 1497.96 438.84 1292.11 617.573" stroke="#005245" stroke-width="1.33333" stroke-miterlimit="10"/>
<path d="M1380.73 520.08C1380.73 520.08 1347.48 478.36 1365.8 415.12C1365.8 415.12 1396.84 454.84 1380.73 520.08Z" fill="#005245"/>
<path opacity="0.3" d="M1380.73 520.08C1380.73 520.08 1373.51 476.64 1365.8 415.12C1365.8 415.12 1396.84 454.84 1380.73 520.08Z" fill="#7FBEBF"/>
<path d="M1467.37 486.653C1467.37 486.653 1438.29 531.373 1372.49 533.96C1372.49 533.96 1400.37 491.96 1467.37 486.653Z" fill="#005245"/>
<path opacity="0.3" d="M1467.37 486.653C1467.37 486.653 1428.44 507.227 1372.49 533.96C1372.49 533.96 1400.37 491.96 1467.37 486.653Z" fill="#7FBEBF"/>
<path d="M1441.57 555.453C1441.57 555.453 1403.05 582.013 1348.81 562.133C1348.81 562.133 1385.45 537.387 1441.57 555.453Z" fill="#005245"/>
<path opacity="0.3" d="M1441.57 555.453C1441.57 555.453 1403.12 559.133 1348.81 562.133C1348.81 562.133 1385.45 537.387 1441.57 555.453Z" fill="#7FBEBF"/>
<path d="M1288 429.707C1288 429.707 1276.68 329.933 1367.59 325.853L1402.75 294.813L1412.2 301.867L1380.97 334.32C1380.97 334.32 1383.95 405.8 1288 429.707Z" fill="#FF90A3"/>
<path d="M1295.16 409.08C1295.16 409.08 1302.95 351.907 1362.15 339.547C1362.15 339.547 1364.93 392.707 1305.93 413.213" stroke="#E30F26" stroke-width="0.96" stroke-miterlimit="10"/>
<path d="M1311.12 396.96C1311.12 396.96 1384.68 311.52 1420.29 289.067" stroke="#E30F26" stroke-width="0.96" stroke-miterlimit="10"/>
<path d="M1488.44 472.493C1488.44 472.493 1392.73 442.093 1426.13 357.44L1412.15 312.68L1422.44 306.92L1439.32 348.68C1439.32 348.68 1505.79 375.147 1488.44 472.493Z" fill="#FF90A3"/>
<path d="M1472.52 457.533C1472.52 457.533 1423.51 427.08 1436.4 368C1436.4 368 1486.07 387.16 1480.69 449.387" stroke="#E30F26" stroke-width="0.96" stroke-miterlimit="10"/>
<path d="M1467.97 438.013C1467.97 438.013 1420 335.987 1414.05 294.307" stroke="#E30F26" stroke-width="0.96" stroke-miterlimit="10"/>
<path d="M1595.21 302.667C1595.21 302.667 1527.33 376.667 1464.61 310.72L1418.12 304.547L1417.24 292.787L1462.21 295.067C1462.21 295.067 1514.21 245.92 1595.2 302.667H1595.21Z" fill="#FF90A3"/>
<path d="M1574.95 310.787C1574.95 310.787 1526.68 342.427 1478.52 305.84C1478.52 305.84 1516.81 268.867 1571 299.947" stroke="#E30F26" stroke-width="0.96" stroke-miterlimit="10"/>
<path d="M1555.32 306.693C1555.32 306.693 1442.57 307.227 1402.27 295.067" stroke="#E30F26" stroke-width="0.96" stroke-miterlimit="10"/>
<path d="M1475.6 124.146C1475.6 124.146 1522.75 212.8 1439.68 249.96L1418.37 291.733L1406.99 288.64L1424.12 246.987C1424.12 246.987 1395.11 181.586 1475.6 124.133V124.146Z" fill="#FF90A3"/>
<path d="M1476.52 145.973C1476.52 145.973 1490.27 202.013 1439.73 235.24C1439.73 235.24 1417.63 186.813 1464.99 146.08" stroke="#E30F26" stroke-width="0.96" stroke-miterlimit="10"/>
<path d="M1466.12 163.107C1466.12 163.107 1429.07 269.587 1404.16 303.547" stroke="#E30F26" stroke-width="0.96" stroke-miterlimit="10"/>
<path d="M1276.47 183.173C1276.47 183.173 1376.01 170.013 1381.77 260.84L1413.45 295.413L1406.57 305L1373.55 274.373C1373.55 274.373 1302.13 278.667 1276.45 183.173H1276.47Z" fill="#FF90A3"/>
<path d="M1297.23 189.946C1297.23 189.946 1354.53 196.68 1367.97 255.64C1367.97 255.64 1314.88 259.413 1293.28 200.786" stroke="#E30F26" stroke-width="0.96" stroke-miterlimit="10"/>
<path d="M1309.64 205.68C1309.64 205.68 1396.43 277.653 1419.53 312.84" stroke="#E30F26" stroke-width="0.96" stroke-miterlimit="10"/>
<path d="M1387.31 315.813C1382.27 309.347 1380.15 302.16 1380.95 294.227C1381.48 288.947 1383.43 284.2 1386.77 280.013C1390.13 275.813 1394.31 272.68 1399.32 270.6C1404.33 268.533 1409.48 267.747 1414.76 268.28C1422.51 269.053 1428.8 272.28 1433.67 277.92C1438.52 283.573 1440.52 290.707 1439.65 299.333C1438.8 307.787 1435.31 314.68 1429.17 320.013C1423.03 325.36 1415.83 327.613 1407.55 326.773C1399.09 325.92 1392.35 322.267 1387.31 315.8V315.813Z" fill="#FFC700"/>
<path d="M1396.19 308.693C1393.09 304.733 1391.8 300.32 1392.29 295.467C1392.61 292.227 1393.81 289.333 1395.87 286.76C1397.92 284.187 1400.48 282.267 1403.56 281C1406.63 279.733 1409.79 279.253 1413.01 279.587C1417.76 280.067 1421.61 282.04 1424.6 285.493C1427.57 288.96 1428.8 293.32 1428.27 298.613C1427.75 303.787 1425.6 308.013 1421.84 311.293C1418.08 314.573 1413.67 315.947 1408.6 315.44C1403.43 314.92 1399.29 312.68 1396.2 308.72L1396.19 308.693Z" fill="#FF5635"/>
<path d="M1400.39 305.333C1398.23 302.56 1397.31 299.467 1397.65 296.067C1397.88 293.8 1398.72 291.76 1400.16 289.96C1401.6 288.16 1403.4 286.813 1405.55 285.92C1407.69 285.027 1409.91 284.693 1412.17 284.92C1415.51 285.253 1418.21 286.64 1420.29 289.067C1422.37 291.493 1423.24 294.56 1422.87 298.267C1422.51 301.893 1421 304.853 1418.36 307.147C1415.72 309.44 1412.63 310.413 1409.07 310.053C1405.44 309.693 1402.53 308.12 1400.37 305.333H1400.39Z" fill="#FFC700"/>
<path d="M1388.13 214.04C1385.23 212.96 1383.61 211.4 1383.28 209.373C1383.05 208.013 1383.53 206.653 1384.72 205.28C1385.91 203.907 1387.56 202.707 1389.69 201.693C1391.83 200.68 1394.13 199.96 1396.63 199.56C1400.28 198.96 1403.47 199.12 1406.21 200.013C1408.96 200.907 1410.51 202.467 1410.87 204.68C1411.23 206.853 1410.21 208.907 1407.85 210.84C1405.49 212.787 1402.36 214.067 1398.45 214.707C1394.47 215.36 1391.03 215.147 1388.13 214.053V214.04Z" fill="#FFC700"/>
<path d="M1394.95 205.573C1394.95 205.573 1406.99 235.933 1403.55 281.013" stroke="#FFC700" stroke-width="0.96" stroke-miterlimit="10"/>
<path d="M1474.16 235.827C1473.28 232.853 1473.55 230.627 1474.97 229.147C1475.92 228.16 1477.31 227.72 1479.11 227.84C1480.92 227.96 1482.87 228.56 1484.96 229.653C1487.05 230.747 1489.01 232.16 1490.84 233.907C1493.51 236.467 1495.31 239.107 1496.24 241.84C1497.17 244.573 1496.87 246.747 1495.32 248.373C1493.8 249.96 1491.56 250.387 1488.59 249.667C1485.61 248.947 1482.71 247.213 1479.85 244.48C1476.93 241.693 1475.04 238.813 1474.16 235.84V235.827Z" fill="#FFC700"/>
<path d="M1485.03 236.173C1485.03 236.173 1468.03 264.053 1429.95 288.427" stroke="#FFC700" stroke-width="0.96" stroke-miterlimit="10"/>
<path d="M1486.36 345.08C1489.21 343.88 1491.45 343.92 1493.09 345.173C1494.19 346.013 1494.76 347.333 1494.84 349.146C1494.92 350.96 1494.53 352.96 1493.67 355.16C1492.81 357.36 1491.61 359.467 1490.07 361.467C1487.81 364.4 1485.37 366.466 1482.76 367.693C1480.15 368.906 1477.95 368.84 1476.17 367.467C1474.43 366.12 1473.76 363.933 1474.16 360.906C1474.56 357.866 1475.97 354.787 1478.37 351.667C1480.84 348.467 1483.49 346.28 1486.35 345.08H1486.36Z" fill="#FFC700"/>
<path d="M1487.19 355.92C1487.19 355.92 1457.64 342 1429.33 306.747" stroke="#FFC700" stroke-width="0.96" stroke-miterlimit="10"/>
<path d="M1323.75 325.8C1323.2 328.84 1321.95 330.706 1320 331.4C1318.71 331.853 1317.28 331.626 1315.72 330.706C1314.16 329.786 1312.69 328.373 1311.31 326.453C1309.93 324.533 1308.81 322.386 1307.97 320.013C1306.75 316.52 1306.33 313.346 1306.73 310.493C1307.13 307.64 1308.39 305.826 1310.51 305.093C1312.57 304.36 1314.77 304.986 1317.11 306.973C1319.44 308.96 1321.25 311.813 1322.56 315.546C1323.91 319.346 1324.29 322.773 1323.75 325.826V325.8Z" fill="#FFC700"/>
<path d="M1314.2 320.6C1314.2 320.6 1341.96 303.387 1386.93 298.827" stroke="#FFC700" stroke-width="0.96" stroke-miterlimit="10"/>
<path d="M1408.68 387.987C1411.35 389.547 1412.68 391.36 1412.65 393.413C1412.64 394.787 1411.93 396.053 1410.53 397.2C1409.13 398.347 1407.29 399.253 1405.01 399.88C1402.73 400.52 1400.33 400.827 1397.81 400.8C1394.12 400.76 1391 400.067 1388.44 398.707C1385.89 397.347 1384.63 395.547 1384.65 393.307C1384.68 391.107 1386.03 389.253 1388.68 387.76C1391.35 386.253 1394.65 385.52 1398.6 385.573C1402.64 385.613 1405.99 386.427 1408.67 387.987H1408.68Z" fill="#FFC700"/>
<path d="M1400.52 395.173C1400.52 395.173 1393.87 363.2 1405 319.387" stroke="#FFC700" stroke-width="0.96" stroke-miterlimit="10"/>
<path d="M755.12 400.28C755.12 400.28 752.24 339.24 675.08 335.787C675.08 335.787 692.933 406.613 755.12 400.28Z" fill="#008F8C"/>
<path d="M791.973 487.8C791.973 487.8 761.454 433.68 693.507 460.16C693.507 460.16 735.547 508.533 791.973 487.8Z" fill="#008F8C"/>
<path d="M808.093 412.947C808.093 412.947 785.067 361.707 846.093 328.307C846.093 328.307 855.307 390.493 808.093 412.947Z" fill="#008F8C"/>
<path d="M773.294 241.36C773.294 241.36 706.174 385.88 876.614 563.227" stroke="#005245" stroke-width="2.66667" stroke-miterlimit="10"/>
<path d="M701.573 352.48C701.573 352.48 764.907 399.693 802.92 466.493C802.92 466.493 796.013 413.52 832.867 352.48" stroke="#005245" stroke-width="1.33333" stroke-miterlimit="10"/>
<path d="M714.24 463.04C714.24 463.04 783.333 463.04 843.226 527.533" stroke="#005245" stroke-width="1.33333" stroke-miterlimit="10"/>
<path d="M769.186 239.24C769.186 239.24 737.813 208.427 765.266 156.32C765.266 156.32 793.84 193.293 769.186 239.24Z" fill="white"/>
<path d="M773.293 241.36C773.293 241.36 763.52 198.48 814.747 169.44C814.747 169.44 818.84 215.987 773.293 241.36Z" fill="white"/>
<path d="M772.146 240.44C772.146 240.44 792.346 201.387 850.226 212.267C850.226 212.267 823.306 250.467 772.146 240.44Z" fill="white"/>
<path d="M771.333 244.987C771.333 244.987 809.426 223.013 852.266 263.413C852.266 263.413 808.986 281.04 771.333 244.987Z" fill="white"/>
<path d="M768.907 241.467C768.907 241.467 783.187 283.053 735.333 317.387C735.333 317.387 726.307 271.533 768.907 241.467Z" fill="white"/>
<path d="M766.173 237.747C766.173 237.747 755.746 280.467 696.933 283.533C696.933 283.533 714.093 240.067 766.173 237.747Z" fill="white"/>
<path d="M770.84 242C770.84 242 814.653 245.76 826.693 303.413C826.693 303.413 781.107 293.12 770.84 242Z" fill="white"/>
<path d="M766.333 242.987C766.333 242.987 801.187 269.8 780.2 324.827C780.2 324.827 747.387 291.56 766.333 242.987Z" fill="white"/>
<path d="M766.8 239.067C766.8 239.067 731.267 264.973 684.36 229.347C684.36 229.347 725.52 207.213 766.8 239.067Z" fill="white"/>
<path d="M769.56 235.373C769.56 235.373 725.666 238 705.413 182.693C705.413 182.693 752 186.28 769.56 235.373Z" fill="white"/>
<g opacity="0.5">
<path d="M768.96 239.6C768.96 239.6 745.934 216.987 766.08 178.733C766.08 178.733 787.054 205.88 768.96 239.6Z" fill="#FFE0A9"/>
<path d="M771.96 241.147C771.96 241.147 764.787 209.68 802.387 188.36C802.387 188.36 805.387 222.533 771.96 241.147Z" fill="#FFE0A9"/>
<path d="M771.12 240.48C771.12 240.48 785.947 211.813 828.427 219.8C828.427 219.8 808.667 247.84 771.12 240.48Z" fill="#FFE0A9"/>
<path d="M770.52 243.813C770.52 243.813 798.48 227.68 829.933 257.347C829.933 257.347 798.16 270.28 770.52 243.813Z" fill="#FFE0A9"/>
<path d="M768.747 241.227C768.747 241.227 779.227 271.76 744.107 296.947C744.107 296.947 737.48 263.293 768.747 241.227Z" fill="#FFE0A9"/>
<path d="M766.747 238.493C766.747 238.493 759.093 269.853 715.92 272.107C715.92 272.107 728.507 240.2 766.747 238.493Z" fill="#FFE0A9"/>
<path d="M770.173 241.627C770.173 241.627 802.333 244.387 811.173 286.707C811.173 286.707 777.72 279.147 770.173 241.627Z" fill="#FFE0A9"/>
<path d="M766.853 242.347C766.853 242.347 792.44 262.027 777.026 302.427C777.026 302.427 752.946 278 766.853 242.347Z" fill="#FFE0A9"/>
<path d="M767.2 239.467C767.2 239.467 741.12 258.48 706.693 232.333C706.693 232.333 736.907 216.093 767.2 239.467Z" fill="#FFE0A9"/>
<path d="M769.227 236.76C769.227 236.76 737 238.68 722.133 198.093C722.133 198.093 756.333 200.733 769.227 236.76Z" fill="#FFE0A9"/>
</g>
<path d="M770.974 251.413C768.227 251.867 765.774 251.28 763.6 249.627C761.427 247.973 760.12 245.747 759.654 242.947C759.174 240.08 759.694 237.653 761.187 235.667C762.694 233.68 764.72 232.467 767.294 232.04C769.04 231.747 770.787 231.893 772.507 232.48C774.227 233.067 775.694 234.027 776.907 235.347C778.12 236.68 778.867 238.213 779.16 239.973C779.6 242.6 779.04 245.053 777.507 247.32C775.96 249.587 773.787 250.96 770.987 251.427L770.974 251.413Z" fill="#FF5635"/>
<path d="M1797.27 412.907C1797.27 412.907 1780.71 353.64 1853.39 325.907C1853.39 325.907 1858.73 399.28 1797.27 412.907Z" fill="#008F8C"/>
<path d="M1789.73 508.253C1789.73 508.253 1801.79 446.84 1875.13 450.666C1875.13 450.666 1850.25 510.213 1789.73 508.253Z" fill="#008F8C"/>
<path d="M1750.63 441.787C1750.63 441.787 1756.43 385.493 1687.51 372.88C1687.51 372.88 1698.37 435.253 1750.63 441.787Z" fill="#008F8C"/>
<path d="M1729.6 266.706C1729.6 266.706 1839.52 383.653 1732.68 607.173" stroke="#005245" stroke-width="2.52" stroke-miterlimit="10"/>
<path d="M1833.35 350.253C1833.35 350.253 1787.73 415.44 1772.53 491.333C1772.53 491.333 1762.37 438.493 1707.83 391.8" stroke="#005245" stroke-width="1.25333" stroke-miterlimit="10"/>
<path d="M1856.23 459.973C1856.23 459.973 1790.16 481.84 1753.31 562.453" stroke="#005245" stroke-width="1.25333" stroke-miterlimit="10"/>
<path d="M1732.85 263.387C1732.85 263.387 1753.09 224 1710.36 182.867C1710.36 182.867 1694.75 227.267 1732.85 263.387Z" fill="white"/>
<path d="M1729.6 266.707C1729.6 266.707 1725.37 222.613 1667.2 211.067C1667.2 211.067 1678.03 256.867 1729.6 266.707Z" fill="white"/>
<path d="M1730.41 265.467C1730.41 265.467 1698.73 234.52 1646.84 263.24C1646.84 263.24 1684.67 291.24 1730.41 265.467Z" fill="white"/>
<path d="M1732.63 269.546C1732.63 269.546 1689.25 260.586 1661.07 312.786C1661.07 312.786 1708.03 315.946 1732.63 269.546Z" fill="white"/>
<path d="M1733.83 265.413C1733.83 265.413 1733.33 309.707 1789.95 327.387C1789.95 327.387 1784.07 280.693 1733.83 265.413Z" fill="white"/>
<path d="M1735.25 261C1735.25 261 1758.75 298.547 1815.95 282.867C1815.95 282.867 1785.79 246.733 1735.25 261Z" fill="white"/>
<path d="M1732.15 266.547C1732.15 266.547 1691.44 284.013 1698.17 342.947C1698.17 342.947 1738.49 318.68 1732.15 266.547Z" fill="white"/>
<path d="M1736.77 266.053C1736.77 266.053 1711.93 302.72 1749.43 348.693C1749.43 348.693 1770.27 306.493 1736.77 266.053Z" fill="white"/>
<path d="M1735.08 262.467C1735.08 262.467 1777.25 275.987 1810.83 227.093C1810.83 227.093 1764.47 218.96 1735.08 262.467Z" fill="white"/>
<path d="M1731.28 259.8C1731.28 259.8 1774.08 248.413 1775.95 189.133C1775.95 189.133 1732.53 207.307 1731.28 259.8Z" fill="white"/>
<g opacity="0.5">
<path d="M1733.19 263.653C1733.19 263.653 1748.05 234.733 1716.68 204.547C1716.68 204.547 1705.21 237.133 1733.19 263.653Z" fill="#FFE0A9"/>
<path d="M1730.8 266.08C1730.8 266.08 1727.71 233.72 1685 225.24C1685 225.24 1692.95 258.867 1730.8 266.08Z" fill="#FFE0A9"/>
<path d="M1731.4 265.173C1731.4 265.173 1708.15 242.453 1670.05 263.533C1670.05 263.533 1697.81 284.093 1731.4 265.173Z" fill="#FFE0A9"/>
<path d="M1733.03 268.173C1733.03 268.173 1701.19 261.6 1680.51 299.907C1680.51 299.907 1714.97 302.227 1733.03 268.173Z" fill="#FFE0A9"/>
<path d="M1733.91 265.147C1733.91 265.147 1733.55 297.653 1775.11 310.627C1775.11 310.627 1770.79 276.347 1733.91 265.147Z" fill="#FFE0A9"/>
<path d="M1734.95 261.893C1734.95 261.893 1752.19 289.453 1794.17 277.947C1794.17 277.947 1772.04 251.427 1734.95 261.893Z" fill="#FFE0A9"/>
<path d="M1732.67 265.973C1732.67 265.973 1702.79 278.787 1707.73 322.053C1707.73 322.053 1737.33 304.24 1732.67 265.973Z" fill="#FFE0A9"/>
<path d="M1736.07 265.613C1736.07 265.613 1717.84 292.533 1745.35 326.28C1745.35 326.28 1760.64 295.307 1736.07 265.613Z" fill="#FFE0A9"/>
<path d="M1734.83 262.973C1734.83 262.973 1765.79 272.893 1790.43 237C1790.43 237 1756.4 231.027 1734.83 262.973Z" fill="#FFE0A9"/>
<path d="M1732.03 261.013C1732.03 261.013 1763.44 252.653 1764.81 209.133C1764.81 209.133 1732.95 222.48 1732.03 261.013Z" fill="#FFE0A9"/>
</g>
<path d="M1727.45 273.72C1725.25 272.04 1723.96 269.867 1723.55 267.213C1723.27 265.44 1723.51 263.733 1724.24 262.08C1724.97 260.427 1726.08 259.04 1727.53 257.947C1728.99 256.84 1730.6 256.16 1732.37 255.88C1734.97 255.48 1737.29 255.987 1739.36 257.413C1741.43 258.84 1742.68 261 1743.13 263.893C1743.57 266.72 1743.01 269.267 1741.47 271.533C1739.92 273.8 1737.76 275.147 1734.99 275.573C1732.16 276.013 1729.64 275.4 1727.45 273.707V273.72Z" fill="#FF5635"/>
<path d="M1052.89 305.347C1052.89 305.347 1044.12 274.48 1070.92 249.987C1070.92 249.987 1079.71 267.12 1073.21 278.773C1073.21 278.773 1078.13 249.12 1122.85 237.987C1122.85 237.987 1119.59 270.707 1080.61 286.88C1080.61 286.88 1082.55 277.107 1106.12 291.013C1106.12 291.013 1096.13 313.867 1052.88 305.347H1052.89Z" fill="#008F8C"/>
<path d="M996.2 456.88C996.2 456.88 960.614 455.44 944.067 418.693C944.067 418.693 965.174 415.36 975.214 426.253C975.214 426.253 945.654 410.8 949.4 359.787C949.4 359.787 982.774 374.56 986.32 421.253C986.32 421.253 976.68 415.827 999.52 395.787C999.52 395.787 1020.16 414.24 996.2 456.88Z" fill="#008F8C"/>
<path d="M1051.13 569.4C1051.13 569.4 975.747 356.32 1088.92 172.787" stroke="#005245" stroke-width="2.66667" stroke-linecap="round" stroke-linejoin="round"/>
<path d="M1087.23 271.907C1087.23 271.907 1035.48 301.96 1030.35 352.293" stroke="#005245" stroke-width="1.05333" stroke-linecap="round" stroke-linejoin="round"/>
<path d="M1034.96 504.907C1034.96 504.907 992.84 474.013 962.173 392.307" stroke="#005245" stroke-width="1.33333" stroke-linecap="round" stroke-linejoin="round"/>
<path d="M981.186 257.133C981.186 257.133 997.053 318.72 1030.32 359.187" stroke="#005245" stroke-width="1.33333" stroke-linecap="round" stroke-linejoin="round"/>
<path d="M1052.88 173.96C1052.88 173.96 1099.13 160.947 1105.32 202.867C1105.32 202.867 1067.45 219.747 1052.88 173.96Z" fill="#FFC700"/>
<path d="M1056.39 185.667C1056.39 185.667 1071.01 204.667 1096.87 210.093C1096.87 210.093 1072.6 245.427 1053.33 235.04C1034.07 224.667 1056.39 185.667 1056.39 185.667Z" fill="#005245"/>
<path d="M1035.77 25.6533C1035.77 25.6533 971.066 119.853 1070.99 199.853C1070.99 199.853 1039.08 119.867 1092.65 52.8133L1054.75 53.9733L1035.77 25.6533Z" fill="#E30F26"/>
<path d="M1035.48 52.0932C1035.48 52.0932 1009.17 128.84 1061.27 186.333C1061.27 186.333 1034.92 138.12 1069.8 75.8132" stroke="#FF5635" stroke-width="1.33333" stroke-linecap="round" stroke-linejoin="round"/>
<path d="M1045.37 65.2799C1045.37 65.2799 1022.59 128.213 1059.55 183.453C1059.55 183.453 1027.04 134.547 1057.89 77.2666" stroke="#FF5635" stroke-width="1.33333" stroke-linecap="round" stroke-linejoin="round"/>
<path d="M1242.95 144.8C1242.95 144.8 1194.51 248.32 1074.92 202.693C1074.92 202.693 1160.04 189.68 1190.72 109.52L1206.63 142.333L1242.95 144.8Z" fill="#E30F26"/>
<path d="M1221.75 153.107C1221.75 153.107 1172.12 217.28 1095.45 205.413C1095.45 205.413 1150.21 200.907 1183.05 137.493" stroke="#FF5635" stroke-width="1.33333" stroke-linecap="round" stroke-linejoin="round"/>
<path d="M1205.29 152.08C1205.29 152.08 1165.27 205.733 1098.81 205.253C1098.81 205.253 1157.55 205.507 1188.4 148.213" stroke="#FF5635" stroke-width="1.33333" stroke-linecap="round" stroke-linejoin="round"/>
<path d="M1072.61 200.067C1072.61 200.067 1071.49 124.467 1120.17 60L1146.79 88.2933L1180.37 90.6933C1180.37 90.6933 1149.27 164.627 1072.61 200.067Z" fill="#E30F26"/>
<path d="M1119.99 77.3467C1119.99 77.3467 1080.39 133.84 1080.03 187.933C1080.03 187.933 1121.48 171.68 1164.05 102.387" stroke="#FF5635" stroke-width="1.33333" stroke-linecap="round" stroke-linejoin="round"/>
<path d="M1126.45 84.7599C1126.45 84.7599 1083.15 153 1080.03 187.933C1080.03 187.933 1131.16 141.573 1152.47 102.04" stroke="#FF5635" stroke-width="1.33333" stroke-linecap="round" stroke-linejoin="round"/>
<path d="M1137.64 97.9733C1137.64 97.9733 1095.79 152.6 1080.01 187.933" stroke="#FF5635" stroke-width="1.33333" stroke-linecap="round" stroke-linejoin="round"/>
<path d="M988.146 244.627L961.16 252.56C961.16 252.56 938.133 208.92 962.093 170C962.093 170 992.826 202.147 988.146 244.64V244.627Z" fill="#E30F26"/>
<path d="M965.986 241.173C950.8 217.146 962.293 180.24 962.293 180.24C962.293 180.24 983.306 203.226 981.586 236.6" stroke="#FF5635" stroke-width="1.33333" stroke-linecap="round" stroke-linejoin="round"/>
<path d="M973.613 230.48C973.613 230.48 966 216.627 962.293 180.24" stroke="#FF5635" stroke-width="1.33333" stroke-linecap="round" stroke-linejoin="round"/>
<path d="M988.146 244.626L961.16 252.56C961.16 252.56 966.533 276.426 987.88 279.8C987.88 279.8 1001.09 270.493 988.146 244.64V244.626Z" fill="#005245"/>
<path d="M1608.39 577.733C1608.39 577.733 1640.61 463.8 1599.47 344.573" stroke="#7FBEBF" stroke-width="1.33333" stroke-miterlimit="10"/>
<path d="M1614.01 399.813C1614.01 399.813 1632.11 330.8 1582.51 307.467C1582.51 307.467 1575.24 361.947 1614.01 399.813Z" fill="#7FBEBF"/>
<path d="M1617.73 431.853C1617.73 431.853 1678.65 406.773 1668.25 357.24C1668.25 357.24 1624.07 382.213 1617.73 431.853Z" fill="#7FBEBF"/>
<path d="M1618.19 432.267C1618.19 432.267 1559.39 414.4 1559.36 365.12C1559.36 365.12 1603.28 384.667 1618.19 432.267Z" fill="#7FBEBF"/>
<path d="M1621.05 488.587C1621.05 488.587 1677.76 465.24 1668.07 419.147C1668.07 419.147 1626.93 442.387 1621.05 488.587Z" fill="#7FBEBF"/>
<path d="M1621.48 488.973C1621.48 488.973 1566.75 472.347 1566.73 426.48C1566.73 426.48 1607.61 444.68 1621.48 488.973Z" fill="#7FBEBF"/>
<path d="M1614.93 545.4C1614.93 545.4 1674.61 531.307 1672.32 484.253C1672.32 484.253 1628.04 500.707 1614.93 545.4Z" fill="#7FBEBF"/>
<path d="M1615.29 545.853C1615.29 545.853 1563.88 520.8 1571.09 475.493C1571.09 475.493 1608.59 499.907 1615.29 545.853Z" fill="#7FBEBF"/>
<path d="M912.44 598.173C912.44 598.173 944.666 484.24 903.52 365.013" stroke="#7FBEBF" stroke-width="1.33333" stroke-miterlimit="10"/>
<path d="M918.067 420.253C918.067 420.253 936.16 351.24 886.56 327.907C886.56 327.907 879.293 382.387 918.067 420.253Z" fill="#7FBEBF"/>
<path d="M921.787 452.293C921.787 452.293 982.707 427.213 972.307 377.68C972.307 377.68 928.12 402.653 921.787 452.293Z" fill="#7FBEBF"/>
<path d="M922.24 452.707C922.24 452.707 863.44 434.84 863.414 385.56C863.414 385.56 907.334 405.107 922.24 452.707Z" fill="#7FBEBF"/>
<path d="M925.12 509.026C925.12 509.026 981.827 485.68 972.133 439.587C972.133 439.587 931 462.826 925.12 509.026Z" fill="#7FBEBF"/>
<path d="M925.533 509.413C925.533 509.413 870.8 492.787 870.787 446.92C870.787 446.92 911.667 465.12 925.533 509.413Z" fill="#7FBEBF"/>
<path d="M918.987 565.84C918.987 565.84 978.667 551.747 976.374 504.693C976.374 504.693 932.093 521.147 918.987 565.84Z" fill="#7FBEBF"/>
<path d="M919.346 566.293C919.346 566.293 867.933 541.24 875.146 495.933C875.146 495.933 912.64 520.346 919.346 566.293Z" fill="#7FBEBF"/>
<path d="M229.973 594.853C229.973 594.853 262.2 480.92 221.053 361.693" stroke="#7FBEBF" stroke-width="1.33333" stroke-miterlimit="10"/>
<path d="M235.587 416.946C235.587 416.946 253.68 347.933 204.08 324.6C204.08 324.6 196.814 379.08 235.587 416.946Z" fill="#7FBEBF"/>
<path d="M239.306 448.973C239.306 448.973 300.226 423.893 289.826 374.36C289.826 374.36 245.639 399.333 239.306 448.973Z" fill="#7FBEBF"/>
<path d="M239.759 449.386C239.759 449.386 180.959 431.52 180.933 382.24C180.933 382.24 224.853 401.786 239.759 449.386Z" fill="#7FBEBF"/>
<path d="M242.64 505.72C242.64 505.72 299.347 482.373 289.653 436.28C289.653 436.28 248.52 459.52 242.64 505.72Z" fill="#7FBEBF"/>
<path d="M243.066 506.107C243.066 506.107 188.333 489.48 188.32 443.613C188.32 443.613 229.2 461.813 243.066 506.107Z" fill="#7FBEBF"/>
<path d="M236.506 562.533C236.506 562.533 296.186 548.44 293.893 501.387C293.893 501.387 249.613 517.84 236.506 562.533Z" fill="#7FBEBF"/>
<path d="M236.866 562.973C236.866 562.973 185.453 537.92 192.666 492.613C192.666 492.613 230.16 517.027 236.866 562.973Z" fill="#7FBEBF"/>
</g>
<g clip-path="url(#clip1_140_457)">
<path d="M1985.33 570H-42.6665V840.667H1985.33V570Z" fill="url(#paint0_linear_140_457)"/>
</g>
<defs>
<linearGradient id="paint0_linear_140_457" x1="971.333" y1="43.3386" x2="971.333" y2="1520.94" gradientUnits="userSpaceOnUse">
<stop stop-color="white"/>
<stop offset="0.453125" stop-color="#151515"/>
</linearGradient>
<clipPath id="clip0_140_457">
<rect width="1853.8" height="661.853" fill="white" transform="translate(21.3335 0.666603)"/>
</clipPath>
<clipPath id="clip1_140_457">
<rect width="2028" height="270.667" fill="white" transform="translate(-42.6665 570)"/>
</clipPath>
</defs>
</svg>
