<svg width="246" height="271" viewBox="0 0 246 271" fill="none" xmlns="http://www.w3.org/2000/svg">
<path d="M190.538 90.376L226.519 93.8735C229.725 94.188 232.623 96.1695 234.248 99.1573C236.867 103.919 235.447 109.726 231.076 112.123L225.52 115.171L224.288 112.932L229.845 109.884C233.086 108.106 234.142 103.792 232.199 100.261C230.985 98.0533 228.838 96.583 226.466 96.3451L190.485 92.8476L190.538 90.376Z" fill="#6F124C"/>
<path d="M225.715 120.508C222.859 122.076 219.13 120.811 217.417 117.695C215.704 114.579 216.637 110.756 219.492 109.189C222.348 107.621 226.077 108.886 227.79 112.002C229.503 115.118 228.57 118.941 225.715 120.508Z" fill="#FF9700"/>
<path d="M194.556 56.4192L200.197 53.325C204.634 50.8915 210.39 52.8393 213.05 57.6739C214.723 60.7156 214.845 64.2746 213.375 67.1647L196.782 99.8554L194.632 98.5546L211.225 65.864C212.313 63.7044 212.22 61.0672 210.987 58.826C209.015 55.2401 204.738 53.7931 201.447 55.5981L195.806 58.6924L194.556 56.4192Z" fill="#6F124C"/>
<path d="M190.766 53.3521C187.91 54.9193 186.978 58.7425 188.691 61.8586C190.404 64.9747 194.133 66.239 196.989 64.6718C199.844 63.1045 200.777 59.2814 199.064 56.1653C197.351 53.0492 193.621 51.7849 190.766 53.3521Z" fill="#FF9700"/>
<path d="M115.053 139.224C112.483 134.55 113.87 128.864 118.153 126.514L193.799 85.0078C198.083 82.6575 203.631 84.5386 206.201 89.2125C208.771 93.8865 207.384 99.5729 203.1 101.923L127.454 143.429C123.171 145.779 117.623 143.898 115.053 139.224Z" fill="#FF0099"/>
<path d="M161.679 125.222L152.284 107.846L127.241 121.825L136.636 139.201L161.679 125.222Z" fill="black"/>
<path d="M202.708 112.107C194.199 116.777 183.198 113.047 178.094 103.763C172.991 94.4778 175.742 83.1991 184.25 78.529C192.759 73.8588 203.76 77.5884 208.864 86.8732C213.968 96.158 211.216 107.437 202.708 112.107Z" fill="#FF0099"/>
<path d="M149.969 254.597L148.998 255.13L140.079 238.911C136.465 232.34 135.647 225.07 137.234 218.587C138.815 212.128 142.796 206.481 148.829 203.171L138.553 184.484C136.173 180.156 134.588 175.602 133.756 171.093C130.761 154.711 137.521 138.13 151.823 130.282L184.841 112.165L181.334 145.007L173.493 218.24C171.811 233.954 163.111 247.427 149.981 254.653L149.969 254.597Z" fill="#6F124C"/>
<path opacity="0.3" d="M181.524 144.679L134.176 170.677C131.19 154.354 137.912 137.836 152.143 130.022L184.997 111.983L181.519 144.703L181.524 144.679Z" fill="white"/>
<path d="M148.089 241.401L142.636 244.395L139.79 239.216C136.188 232.662 135.37 225.412 136.95 218.947C138.523 212.506 142.488 206.875 148.498 203.576L154.613 214.701C160.008 224.516 157.089 236.46 148.089 241.401Z" fill="#FF9700"/>
<path opacity="0.3" d="M148.034 202.1L151.671 200.106C154.628 198.485 156.547 195.362 156.788 191.778L158.582 164.372L161.005 164.717L159.21 192.123C158.921 196.529 156.57 200.37 152.909 202.356L149.272 204.35L148.016 202.068L148.034 202.1Z" fill="white"/>
<path d="M39.7781 48.8887L38.8241 49.4122L47.5851 65.3434C51.1345 71.7977 56.7371 76.3057 62.9542 78.4068C69.1481 80.5001 75.9334 80.1787 81.8598 76.9267L91.9541 95.2821C94.2915 99.5325 97.2361 103.245 100.54 106.309C112.558 117.42 129.882 120.558 143.932 112.848L176.369 95.0503L147.263 80.651L82.3497 48.5626C68.4207 41.6765 52.6544 41.7823 39.7377 48.8494L39.7781 48.8887Z" fill="#6F124C"/>
<path opacity="0.3" d="M146.972 80.5288L100.066 106.284C112.132 117.452 129.52 120.611 143.618 112.87L176.166 94.9993L146.949 80.521L146.972 80.5288Z" fill="white"/>
<path d="M50.4929 57.4885L45.1022 60.4481L47.9161 65.5678C51.477 72.0465 57.096 76.5724 63.3304 78.6829C69.5417 80.7856 76.3452 80.465 82.2866 77.2031L76.2418 66.2052C70.9092 56.503 59.3905 52.6036 50.4929 57.4885Z" fill="#FF9700"/>
<path opacity="0.3" d="M81.3687 75.8419L84.9149 73.898C88.49 71.9382 92.8635 72.0083 96.6468 74.0743L120.181 86.9307L119.199 89.1007L95.6644 76.2444C92.5837 74.5682 89.0284 74.5186 86.1222 76.0913L82.576 78.0353L81.3514 75.8106L81.3687 75.8419Z" fill="white"/>
</svg>
