<svg width="400" height="537" viewBox="0 0 400 537" fill="none" xmlns="http://www.w3.org/2000/svg">
<g clip-path="url(#clip0_266_2)">
<path d="M301.967 185.502C301.967 185.502 289.44 200.381 268.044 195.231C268.044 195.231 273.669 185.004 281.725 184.312C281.725 184.312 265.162 191.901 244.397 173.217C244.397 173.217 261.94 163.756 283.286 177.844C283.286 177.844 277.721 180.189 276.708 163.63C276.708 163.63 291.575 160.893 301.971 185.509L301.967 185.502Z" fill="#008F8C"/>
<path d="M397.314 162.564C397.314 162.564 408.665 180.928 395.822 201.706C395.822 201.706 386.986 192.236 389.051 183.497C389.051 183.497 391.319 203.587 364.425 219.014C364.425 219.014 360.522 197.239 382.772 179.615C382.772 179.615 383.317 186.298 365.502 181.625C365.502 181.625 367.768 164.997 397.314 162.564Z" fill="#008F8C"/>
<path d="M435.192 96.796C435.192 96.796 353.749 206.963 223.161 212.382" stroke="#005245" stroke-width="2" stroke-linecap="round" stroke-linejoin="round"/>
<path d="M273.526 179.61C273.526 179.61 306.178 195.404 333.201 180.905" stroke="#005245" stroke-width="0.79" stroke-linecap="round" stroke-linejoin="round"/>
<path d="M408.286 126.801C408.286 126.801 407.06 158.439 376.425 201.564" stroke="#005245" stroke-linecap="round" stroke-linejoin="round"/>
<path d="M302.084 237.884C302.084 237.884 327.634 209.019 336.673 178.58" stroke="#005245" stroke-linecap="round" stroke-linejoin="round"/>
<path d="M235.985 230.082C235.985 230.082 213.756 211.265 232.712 193.935C232.712 193.935 254.038 207.227 235.985 230.082Z" fill="#FFC700"/>
<path d="M240.669 224.353C240.669 224.353 245.249 210.56 239.203 195.733C239.203 195.733 265.184 195.934 266.504 209.135C267.831 222.332 240.669 224.353 240.669 224.353Z" fill="#005245"/>
<path d="M167.296 289.004C167.296 289.004 236.565 289.544 242.845 212.213C242.845 212.213 213.495 255.378 161.639 251.22L175.083 269.866L167.296 289.004Z" fill="#E30F26"/>
<path d="M180.671 280.174C180.671 280.174 228.145 267.348 239.348 221.676C239.348 221.676 224.07 251.268 180.941 254.888" stroke="#FF5635" stroke-linecap="round" stroke-linejoin="round"/>
<path d="M183.938 270.731C183.938 270.731 223.279 260.824 238.485 223.517C238.485 223.517 224.949 256.438 185.711 260.375" stroke="#FF5635" stroke-linecap="round" stroke-linejoin="round"/>
<path d="M156.852 144.509C156.852 144.509 225.283 133.717 242.94 209.263C242.94 209.263 207.523 170.924 156.851 182.712L167.936 163.589L156.852 144.509Z" fill="#E30F26"/>
<path d="M168.21 152.344C168.21 152.344 217.281 155.497 237.332 198.031C237.332 198.031 216.489 172.055 173.496 177.076" stroke="#FF5635" stroke-linecap="round" stroke-linejoin="round"/>
<path d="M173.277 160.956C173.277 160.956 213.806 162.857 236.112 196.398C236.112 196.398 216.312 166.811 177.066 170.753" stroke="#FF5635" stroke-linecap="round" stroke-linejoin="round"/>
<path d="M242.407 211.319C242.407 211.319 204.815 237.532 155.918 234.954L161.1 211.987L150.91 194.303C150.91 194.303 198.599 184.842 242.407 211.319Z" fill="#E30F26"/>
<path d="M164.688 229.167C164.688 229.167 206.499 229.889 233.791 211.717C233.791 211.717 211.563 196.411 162.314 198.537" stroke="#FF5635" stroke-linecap="round" stroke-linejoin="round"/>
<path d="M166.213 223.397C166.213 223.397 215.182 221.996 233.787 211.71C233.787 211.71 193.152 201.757 166.066 204.468" stroke="#FF5635" stroke-linecap="round" stroke-linejoin="round"/>
<path d="M169.054 213.295C169.054 213.295 210.692 215.783 233.791 211.717" stroke="#FF5635" stroke-linecap="round" stroke-linejoin="round"/>
<path d="M293.436 238.624L306.577 249.488C306.577 249.488 292.47 275.86 264.792 277.03C264.792 277.03 270.511 250.687 293.443 238.62L293.436 238.624Z" fill="#E30F26"/>
<path d="M299.22 250.927C292.305 266.707 269.868 273.456 269.868 273.456C269.868 273.456 274.284 255.102 291.63 244.643" stroke="#FF5635" stroke-linecap="round" stroke-linejoin="round"/>
<path d="M291.262 250.724C291.262 250.724 286.886 259.248 269.868 273.456" stroke="#FF5635" stroke-linecap="round" stroke-linejoin="round"/>
<path d="M293.436 238.624L306.577 249.488C306.577 249.488 316.742 238.691 311.193 226.825C311.193 226.825 302.036 223.345 293.443 238.62L293.436 238.624Z" fill="#005245"/>
</g>
<g clip-path="url(#clip1_266_2)">
<path d="M159.975 508.165L69.842 537L0 472.758L20.2908 379.7L110.405 350.866L180.247 415.089L159.975 508.165Z" fill="url(#paint0_radial_266_2)"/>
<path d="M920.129 443.924L829.996 472.758L760.154 408.516L780.445 315.459L870.559 286.624L940.401 350.847L920.129 443.924Z" fill="url(#paint1_radial_266_2)"/>
<path d="M565.714 452.408H563.818V420.745L526.915 399.42L489.956 421.299L453.565 400.605L417.175 421.892L380.196 400.605L343.236 421.299L305.405 399.726L269.033 421.299L231.485 400.892L195.986 421.892L158.116 400.892L119.981 421.892L83.3249 401.217L48.8875 421.93L47.9204 420.287L83.3059 399.019L120 419.733L158.135 398.752L195.967 419.733L231.466 398.752L269.014 419.14L305.405 397.548L343.274 419.14L380.253 398.446L417.212 419.733L453.584 398.446L489.956 419.14L526.934 397.261L564.785 419.14L601.46 398.446L638.401 420.019L675.095 397.242L712.377 420.306L748.729 399.038L786.277 420.019L820.847 399.573L820.809 358.777L800.86 370.223L799.912 368.561L820.809 356.561L821.056 328.529H822.952L822.724 355.433L859.95 333.382L896.985 355.223L896.682 400.662L858.774 422.79L821.814 401.217L786.334 422.197L748.767 401.217L713.325 421.949V450.669H711.429V421.93L675.114 399.459L638.458 422.217L601.46 400.624L565.752 420.783V452.446L565.714 452.408ZM822.724 399.535L858.736 420.554L894.766 399.535L895.051 356.293L859.912 335.58L822.668 357.631L822.706 399.554L822.724 399.535Z" fill="white"/>
<path d="M120.683 494.465H118.786L118.9 465.439L83.9128 487.395L47.5032 465.134L47.4463 421.07H49.3426L49.3995 464.064L83.8938 485.14L118.919 463.185L119.033 420.783H120.929L120.815 462.115L144.121 449.561L145.013 451.242L120.796 464.293L120.683 494.465Z" fill="white"/>
<path d="M85.6433 406.787L84.7026 408.446L110.027 423.025L110.967 421.365L85.6433 406.787Z" fill="white"/>
<path d="M160.558 407.791L159.617 409.45L184.941 424.029L185.882 422.37L160.558 407.791Z" fill="white"/>
<path d="M234.706 406.775L233.765 408.435L259.089 423.013L260.03 421.354L234.706 406.775Z" fill="white"/>
<path d="M308.609 406.781L307.669 408.44L332.993 423.019L333.933 421.36L308.609 406.781Z" fill="white"/>
<path d="M383.63 407.788L382.689 409.448L408.013 424.026L408.954 422.367L383.63 407.788Z" fill="white"/>
<path d="M82.6368 372.892L82.373 400.082L84.2693 400.1L84.533 372.91L82.6368 372.892Z" fill="white"/>
<path d="M230.8 373.454L230.545 399.784L232.441 399.803L232.696 373.473L230.8 373.454Z" fill="white"/>
<path d="M380.847 373.741L378.951 373.766L379.28 399.503L381.177 399.478L380.847 373.741Z" fill="white"/>
<path d="M84.9368 364.529C83.4197 364.529 82.0544 364.185 80.8597 363.478C79.665 362.771 78.7168 361.815 78.0341 360.573C77.3515 359.331 77.0101 357.936 77.0101 356.369C77.0101 354.803 77.3515 353.446 78.0341 352.204C78.7168 350.981 79.646 350.006 80.8597 349.299C82.0733 348.592 83.4387 348.248 84.9558 348.248C86.3021 348.248 87.5348 348.535 88.6346 349.089C89.7345 349.643 90.6258 350.427 91.2895 351.42C91.9722 352.414 92.3704 353.541 92.5032 354.822H89.8293C89.6776 354 89.3932 353.293 88.9381 352.682C88.4829 352.07 87.914 351.592 87.2314 351.248C86.5487 350.924 85.7901 350.752 84.9747 350.752C83.9507 350.752 83.0594 350.981 82.263 351.459C81.4665 351.936 80.8407 352.605 80.4046 353.446C79.9684 354.306 79.7408 355.28 79.7408 356.369C79.7408 357.459 79.9684 358.452 80.4046 359.293C80.8407 360.153 81.4665 360.803 82.263 361.28C83.0594 361.758 83.9697 361.987 84.9747 361.987C85.8091 361.987 86.5676 361.815 87.2693 361.49C87.952 361.166 88.5209 360.688 88.957 360.057C89.3932 359.446 89.6966 358.72 89.8483 357.917H92.5221C92.3704 359.197 91.9532 360.325 91.2705 361.318C90.5879 362.312 89.6966 363.096 88.6157 363.65C87.5348 364.204 86.3022 364.49 84.9747 364.49L84.9368 364.529Z" fill="white"/>
<path d="M95.9545 348.611H98.6094V355.166H106.574V348.611H109.229V364.204H106.574V357.65H98.6094V364.204H95.9545V348.611Z" fill="white"/>
<path d="M114.861 370.108C114.102 370.108 113.439 369.975 112.851 369.688C112.263 369.401 111.808 369.019 111.467 368.522C111.125 368.025 110.954 367.452 110.936 366.803H112.491C112.491 367.185 112.623 367.51 112.813 367.815C113.022 368.102 113.287 368.331 113.628 368.503C113.97 368.675 114.368 368.752 114.785 368.752C115.202 368.752 115.601 368.675 115.942 368.503C116.283 368.331 116.549 368.102 116.757 367.796C116.947 367.49 117.061 367.146 117.061 366.764C117.061 366.191 116.871 365.732 116.511 365.389C116.15 365.045 115.676 364.873 115.089 364.873C114.861 364.873 114.633 364.911 114.406 364.987C114.178 365.064 113.989 365.159 113.818 365.255L113.628 365.389L112.851 364.395L116.283 361.452H111.296V360H118.407V361.395L115.601 363.803C115.601 363.803 115.638 363.803 115.657 363.783C115.676 363.764 115.714 363.783 115.733 363.783C115.733 363.783 115.771 363.783 115.79 363.783H115.847C116.378 363.783 116.852 363.917 117.269 364.185C117.686 364.452 118.028 364.796 118.274 365.255C118.521 365.694 118.654 366.191 118.654 366.707C118.654 367.376 118.483 367.968 118.161 368.484C117.838 369 117.383 369.42 116.795 369.707C116.207 369.994 115.544 370.146 114.785 370.146L114.861 370.108Z" fill="white"/>
<path d="M159.823 452.064C158.306 452.064 156.941 451.72 155.746 451.013C154.551 450.306 153.603 449.35 152.92 448.108C152.238 446.866 151.896 445.471 151.896 443.904C151.896 442.338 152.238 440.981 152.92 439.739C153.603 438.516 154.532 437.541 155.746 436.834C156.96 436.127 158.325 435.783 159.842 435.783C161.188 435.783 162.421 436.07 163.521 436.624C164.621 437.178 165.512 437.962 166.176 438.955C166.858 439.949 167.257 441.076 167.389 442.357H164.716C164.564 441.535 164.279 440.828 163.824 440.217C163.369 439.605 162.8 439.127 162.118 438.783C161.435 438.459 160.676 438.287 159.861 438.287C158.837 438.287 157.946 438.516 157.149 438.994C156.353 439.471 155.727 440.14 155.291 440.981C154.855 441.841 154.627 442.815 154.627 443.904C154.627 444.994 154.855 445.987 155.291 446.828C155.727 447.688 156.353 448.338 157.149 448.815C157.946 449.293 158.856 449.522 159.861 449.522C160.695 449.522 161.454 449.35 162.156 449.025C162.838 448.701 163.407 448.223 163.843 447.592C164.279 446.981 164.583 446.255 164.735 445.452H167.408C167.257 446.732 166.839 447.86 166.157 448.854C165.474 449.847 164.583 450.631 163.502 451.185C162.421 451.739 161.188 452.025 159.861 452.025L159.823 452.064Z" fill="white"/>
<path d="M170.86 436.127H173.515V442.681H181.479V436.127H184.134V451.72H181.479V445.166H173.515V451.72H170.86V436.127Z" fill="white"/>
<path d="M189.747 457.624C188.989 457.624 188.325 457.491 187.737 457.204C187.149 456.917 186.694 456.535 186.353 456.038C186.011 455.541 185.841 454.968 185.822 454.319H187.377C187.377 454.701 187.51 455.026 187.699 455.331C187.908 455.618 188.173 455.847 188.515 456.019C188.856 456.191 189.254 456.268 189.671 456.268C190.089 456.268 190.487 456.191 190.828 456.019C191.169 455.847 191.435 455.618 191.644 455.312C191.833 455.006 191.947 454.662 191.947 454.28C191.947 453.707 191.757 453.248 191.397 452.905C191.037 452.561 190.563 452.389 189.975 452.389C189.747 452.389 189.52 452.427 189.292 452.503C189.064 452.58 188.875 452.675 188.704 452.771L188.515 452.905L187.737 451.911L191.169 448.968H186.182V447.516H193.293V448.911L190.487 451.319C190.487 451.319 190.525 451.319 190.544 451.299C190.563 451.28 190.601 451.299 190.619 451.299C190.619 451.299 190.657 451.299 190.676 451.299H190.733C191.264 451.299 191.738 451.433 192.156 451.701C192.573 451.968 192.914 452.312 193.161 452.771C193.407 453.21 193.54 453.707 193.54 454.223C193.54 454.892 193.369 455.484 193.047 456C192.724 456.516 192.269 456.936 191.681 457.223C191.094 457.51 190.43 457.662 189.671 457.662L189.747 457.624Z" fill="white"/>
<path d="M122.75 517.662C121.233 517.662 119.867 517.319 118.673 516.612C117.478 515.904 116.53 514.949 115.847 513.707C115.164 512.465 114.823 511.07 114.823 509.503C114.823 507.936 115.164 506.58 115.847 505.338C116.53 504.115 117.459 503.14 118.673 502.433C119.886 501.726 121.252 501.382 122.769 501.382C124.115 501.382 125.348 501.669 126.448 502.223C127.547 502.777 128.439 503.561 129.102 504.554C129.785 505.548 130.183 506.675 130.316 507.955H127.642C127.491 507.134 127.206 506.427 126.751 505.815C126.296 505.204 125.727 504.726 125.044 504.382C124.362 504.057 123.603 503.885 122.788 503.885C121.764 503.885 120.872 504.115 120.076 504.592C119.279 505.07 118.654 505.739 118.217 506.58C117.781 507.44 117.554 508.414 117.554 509.503C117.554 510.592 117.781 511.586 118.217 512.427C118.654 513.287 119.279 513.936 120.076 514.414C120.872 514.892 121.783 515.121 122.788 515.121C123.622 515.121 124.381 514.949 125.082 514.624C125.765 514.299 126.334 513.822 126.77 513.191C127.206 512.58 127.509 511.854 127.661 511.051H130.335C130.183 512.331 129.766 513.459 129.083 514.452C128.401 515.446 127.509 516.229 126.429 516.783C125.348 517.338 124.115 517.624 122.788 517.624L122.75 517.662Z" fill="white"/>
<path d="M133.786 501.745H136.441V508.299H144.406V501.745H147.061V517.338H144.406V510.783H136.441V517.338H133.786V501.745Z" fill="white"/>
<path d="M152.674 523.242C151.915 523.242 151.252 523.108 150.664 522.822C150.076 522.535 149.621 522.153 149.279 521.656C148.938 521.159 148.767 520.586 148.748 519.936H150.303C150.303 520.318 150.436 520.643 150.626 520.949C150.834 521.236 151.1 521.465 151.441 521.637C151.783 521.809 152.181 521.885 152.598 521.885C153.015 521.885 153.413 521.809 153.755 521.637C154.096 521.465 154.362 521.236 154.57 520.93C154.76 520.624 154.874 520.28 154.874 519.898C154.874 519.325 154.684 518.866 154.324 518.522C153.963 518.178 153.489 518.006 152.901 518.006C152.674 518.006 152.446 518.045 152.219 518.121C151.991 518.197 151.802 518.293 151.631 518.389L151.441 518.522L150.664 517.529L154.096 514.586H149.109V513.134H156.22V514.529L153.413 516.936C153.413 516.936 153.451 516.936 153.47 516.917C153.489 516.898 153.527 516.917 153.546 516.917C153.546 516.917 153.584 516.917 153.603 516.917H153.66C154.191 516.917 154.665 517.051 155.082 517.319C155.499 517.586 155.841 517.93 156.087 518.389C156.334 518.828 156.467 519.325 156.467 519.841C156.467 520.51 156.296 521.102 155.973 521.618C155.651 522.134 155.196 522.554 154.608 522.841C154.02 523.127 153.357 523.28 152.598 523.28L152.674 523.242Z" fill="white"/>
<path d="M231.827 361.739C230.31 361.739 228.944 361.395 227.75 360.688C226.555 359.981 225.607 359.025 224.924 357.783C224.242 356.541 223.9 355.147 223.9 353.58C223.9 352.013 224.242 350.656 224.924 349.414C225.607 348.191 226.536 347.217 227.75 346.51C228.963 345.803 230.329 345.459 231.846 345.459C233.192 345.459 234.425 345.745 235.525 346.299C236.625 346.854 237.516 347.637 238.18 348.631C238.862 349.624 239.26 350.752 239.393 352.032H236.719C236.568 351.21 236.283 350.503 235.828 349.892C235.373 349.28 234.804 348.803 234.121 348.459C233.439 348.134 232.68 347.962 231.865 347.962C230.841 347.962 229.949 348.191 229.153 348.669C228.357 349.147 227.731 349.815 227.295 350.656C226.858 351.516 226.631 352.49 226.631 353.58C226.631 354.669 226.858 355.662 227.295 356.503C227.731 357.363 228.357 358.013 229.153 358.49C229.949 358.968 230.86 359.197 231.865 359.197C232.699 359.197 233.458 359.025 234.159 358.701C234.842 358.376 235.411 357.898 235.847 357.268C236.283 356.656 236.587 355.93 236.738 355.127H239.412C239.26 356.408 238.843 357.535 238.161 358.529C237.478 359.522 236.587 360.306 235.506 360.86C234.425 361.414 233.192 361.701 231.865 361.701L231.827 361.739Z" fill="white"/>
<path d="M242.845 345.822H245.499V352.376H253.464V345.822H256.119V361.414H253.464V354.86H245.499V361.414H242.845V345.822Z" fill="white"/>
<path d="M261.751 367.318C260.992 367.318 260.329 367.185 259.741 366.898C259.153 366.611 258.698 366.229 258.357 365.732C258.015 365.236 257.845 364.662 257.826 364.013H259.381C259.381 364.395 259.513 364.72 259.703 365.025C259.912 365.312 260.177 365.541 260.518 365.713C260.86 365.885 261.258 365.962 261.675 365.962C262.092 365.962 262.491 365.885 262.832 365.713C263.173 365.541 263.439 365.312 263.647 365.006C263.837 364.701 263.951 364.357 263.951 363.975C263.951 363.401 263.761 362.943 263.401 362.599C263.04 362.255 262.566 362.083 261.979 362.083C261.751 362.083 261.523 362.121 261.296 362.197C261.068 362.274 260.879 362.369 260.708 362.465L260.518 362.599L259.741 361.605L263.173 358.662H258.186V357.21H265.297V358.605L262.491 361.013C262.491 361.013 262.528 361.013 262.547 360.994C262.566 360.975 262.604 360.994 262.623 360.994C262.623 360.994 262.661 360.994 262.68 360.994H262.737C263.268 360.994 263.742 361.127 264.159 361.395C264.577 361.662 264.918 362.006 265.164 362.465C265.411 362.904 265.544 363.401 265.544 363.917C265.544 364.586 265.373 365.178 265.051 365.694C264.728 366.21 264.273 366.631 263.685 366.917C263.097 367.204 262.434 367.357 261.675 367.357L261.751 367.318Z" fill="white"/>
<path d="M380.253 362.541C378.736 362.541 377.37 362.198 376.176 361.491C374.981 360.784 374.033 359.828 373.35 358.586C372.668 357.344 372.326 355.949 372.326 354.382C372.326 352.815 372.668 351.459 373.35 350.217C374.033 348.994 374.962 348.019 376.176 347.312C377.389 346.605 378.755 346.261 380.272 346.261C381.618 346.261 382.851 346.548 383.951 347.102C385.051 347.656 385.942 348.44 386.606 349.433C387.288 350.427 387.686 351.554 387.819 352.834H385.145C384.994 352.013 384.709 351.306 384.254 350.694C383.799 350.083 383.23 349.605 382.547 349.261C381.865 348.936 381.106 348.764 380.291 348.764C379.267 348.764 378.375 348.994 377.579 349.471C376.783 349.949 376.157 350.618 375.721 351.459C375.284 352.319 375.057 353.293 375.057 354.382C375.057 355.471 375.284 356.465 375.721 357.306C376.157 358.166 376.783 358.815 377.579 359.293C378.375 359.771 379.286 360 380.291 360C381.125 360 381.884 359.828 382.585 359.503C383.268 359.178 383.837 358.701 384.273 358.07C384.709 357.459 385.013 356.733 385.164 355.93H387.838C387.686 357.21 387.269 358.338 386.587 359.331C385.904 360.325 385.013 361.108 383.932 361.663C382.851 362.217 381.618 362.503 380.291 362.503L380.253 362.541Z" fill="white"/>
<path d="M391.271 346.624H393.925V353.178H401.89V346.624H404.545V362.217H401.89V355.662H393.925V362.217H391.271V346.624Z" fill="white"/>
</g>
<defs>
<radialGradient id="paint0_radial_266_2" cx="0" cy="0" r="1" gradientUnits="userSpaceOnUse" gradientTransform="translate(90.1328 443.924) scale(91.2516 91.949)">
<stop stop-color="#D90000"/>
<stop offset="0.1" stop-color="#AB0505"/>
<stop offset="0.19" stop-color="#830909"/>
<stop offset="0.29" stop-color="#610D0D"/>
<stop offset="0.4" stop-color="#450F0F"/>
<stop offset="0.51" stop-color="#2F1212"/>
<stop offset="0.64" stop-color="#201313"/>
<stop offset="0.78" stop-color="#171414"/>
<stop offset="1" stop-color="#151515"/>
</radialGradient>
<radialGradient id="paint1_radial_266_2" cx="0" cy="0" r="1" gradientUnits="userSpaceOnUse" gradientTransform="translate(90.1328 443.924) scale(91.2516 91.949)">
<stop stop-color="#D90000"/>
<stop offset="0.1" stop-color="#AB0505"/>
<stop offset="0.19" stop-color="#830909"/>
<stop offset="0.29" stop-color="#610D0D"/>
<stop offset="0.4" stop-color="#450F0F"/>
<stop offset="0.51" stop-color="#2F1212"/>
<stop offset="0.64" stop-color="#201313"/>
<stop offset="0.78" stop-color="#171414"/>
<stop offset="1" stop-color="#151515"/>
</radialGradient>
<clipPath id="clip0_266_2">
<rect width="181.162" height="330.392" fill="white" transform="translate(198.406 335.06) rotate(-124.039)"/>
</clipPath>
<clipPath id="clip1_266_2">
<rect width="945" height="252" fill="white" transform="translate(0 285)"/>
</clipPath>
</defs>
</svg>
