<svg width="211" height="222" viewBox="0 0 211 222" fill="none" xmlns="http://www.w3.org/2000/svg">
<g clip-path="url(#clip0_140_923)">
<path d="M37.9833 140.233C41.1667 136.252 44.3667 132.271 47.55 128.29C52.45 122.143 57.3834 116.03 62.2334 109.834C62.9834 108.868 63.55 107.685 63.9 106.503C64.8167 103.305 65.65 100.073 66.3334 96.8254C66.5333 95.9092 66.0834 94.8599 65.9334 93.8771C65.9334 93.8105 65.8667 93.7605 65.8334 93.7106C63.3 89.4798 61.4 84.6494 58.05 81.2181C54.7 77.7868 49.9 75.7714 45.7333 73.1563C35.35 66.6602 24.95 60.1475 14.5333 53.7013C13.2833 52.9351 12.6 52.019 12.4667 50.5532C12.2333 48.1047 11.8333 45.6728 11.6167 43.2077C11.4167 41.0256 12.0833 40.5259 14.1833 41.2422C20.6 43.4575 27.0167 45.7062 33.4167 47.9215C33.7833 48.0547 34.1667 48.1214 34.85 47.8715C34.3333 47.4384 33.7833 47.022 33.2833 46.5556C24.1833 37.9442 15.1 29.316 5.96668 20.7379C5.00001 19.8384 4.50001 18.9723 4.85001 17.5898C4.98335 17.0734 4.68335 16.3239 4.31668 15.8575C3.18335 14.375 1.96668 12.9592 0.700015 11.5934C-0.166652 10.6606 -0.199986 9.76115 0.433348 8.71178C1.25001 7.32928 1.95001 5.89681 2.76668 4.53096C3.68335 2.9819 4.45002 2.8653 5.75001 4.1312C8.80002 7.11274 11.75 10.1942 14.8333 13.1258C15.65 13.892 16.7833 14.5583 17.8667 14.7581C33.6 17.5398 49.35 20.2215 65.1 22.9365C72.45 24.2024 79.8 25.435 87.1334 26.7842C88.6 27.0507 89.4167 26.7842 90.2167 25.4684C95.0667 17.5898 99.9834 9.74449 104.95 1.93253C105.4 1.21629 106.283 0.266865 106.917 0.316835C107.55 0.366805 108.3 1.39952 108.667 2.16572C111 6.94617 113.183 11.8099 115.583 16.5571C116.233 17.823 117.383 18.9723 118.55 19.8051C120.65 21.3042 122.95 22.5368 125.317 23.9693C126.85 22.0704 128.317 20.2881 129.767 18.4892C132.733 14.8081 135.667 11.0937 138.7 7.46253C139.217 6.84624 140.183 6.61304 140.933 6.19663C141.25 7.0128 141.867 7.81232 141.85 8.6285C141.617 23.0865 141.3 37.5278 141.017 51.9857C140.8 62.9125 140.567 73.8392 140.4 84.7493C140.4 85.6321 140.567 86.6482 141.017 87.3811C148.267 99.2572 155.583 111.1 162.883 122.943C163.05 123.209 163.267 123.459 163.6 123.892C164.267 123.343 164.867 122.86 165.433 122.343C170.583 117.696 175.75 113.082 180.833 108.385C182.133 107.186 183.05 107.152 184.35 108.418C192.75 116.697 201.2 124.925 209.683 133.12C211.017 134.419 210.917 135.319 209.667 136.585C202.45 143.88 195.3 151.243 188.117 158.572C186.05 160.687 186.033 160.687 187.667 163.102C190.333 167.033 191.15 171.297 189.783 175.844C186.95 185.305 175.717 188.07 168.167 181.208C167.483 180.575 166.783 179.975 165.9 179.192C165.483 179.476 164.9 179.859 164.317 180.292C157.5 185.305 150.65 190.269 143.883 195.366C142.267 196.582 141.3 196.415 140.1 194.85C137.633 191.618 135.033 188.503 132.467 185.339C132.017 184.772 131.533 184.239 130.967 183.573C125.6 191.585 120.35 199.43 115.083 207.292C114.3 208.458 113.467 209.574 112.75 210.79C111.833 212.339 110.8 212.372 109.483 211.306C108.667 210.64 107.783 210.057 106.517 209.141C103.4 212.389 100.317 215.604 97.2167 218.785C93.2834 222.816 93.7334 222.433 90.4 218.569C86.4834 214.021 82.5834 209.474 78.75 204.86C78.25 204.244 78.2167 203.245 77.9667 202.428C78.75 202.262 79.55 201.879 80.3 201.962C82.9334 202.295 85.6167 202.578 88.1667 203.278C91.0667 204.077 93.2 203.161 95.1167 201.063C95.0334 200.929 94.9834 200.729 94.8667 200.613C92.8556 198.925 92.6 197.015 94.1 194.883C97.9667 189.386 101.85 183.906 106 177.993C102.5 177.56 99.3334 177.11 96.1334 176.844C95.55 176.794 94.85 177.46 94.3 177.91C85.2834 185.089 76.2833 192.301 67.2833 199.497C65.05 201.279 64.9167 201.379 63.0667 199.23C61.6334 197.565 60.6 197.498 58.8667 198.881C55.2667 201.745 51.4333 204.294 47.75 207.042C46.3 208.125 45.3333 208.025 44.3833 206.426C41.0333 200.829 37.5834 195.283 34.2333 189.686C33.85 189.053 33.9667 188.12 33.8667 187.338C34.6667 187.271 35.5167 186.954 36.25 187.154C39.0167 187.904 41.8333 188.553 44.4333 189.719C47.4333 191.052 49.6334 189.969 52.3667 187.871C51.3 187.038 50.3333 186.321 49.4333 185.539C48.1167 184.389 48.2 183.373 49.6833 182.324C53.7667 179.442 57.8 176.494 61.85 173.562C62.2167 173.296 62.5334 172.996 63.1834 172.48C60.0667 172.047 57.3167 171.664 54.5667 171.297C52.1667 170.964 51.8833 170.548 52.5833 168.149C53.6 164.635 54.65 161.12 55.6667 157.605C55.85 157.006 55.9834 156.373 56.2834 155.207C53.3167 157.922 50.7834 160.254 48.25 162.586C47.3167 163.452 46.4667 164.451 45 163.219C44.7167 162.969 43.7667 163.502 42.8 163.768C44.1667 166.583 45.4667 169.115 46.6 171.714C46.8667 172.313 46.9167 173.479 46.5333 173.829C45.4333 174.895 44.6333 174.062 44.1 172.979C43.0833 170.931 42.0833 168.865 40.6667 166.95C41 169.298 41.35 171.647 41.6833 173.996C41.7667 174.529 42.0333 175.095 41.8833 175.561C41.65 176.327 41.1667 177.027 40.7833 177.743C40.2167 177.144 39.3167 176.627 39.1667 175.944C38.6167 173.346 38.3167 170.698 37.9167 168.066C37.8667 167.749 37.8 167.433 37.3333 167.083C37.1667 169.132 37.0167 171.164 36.85 173.213C36.8167 173.746 36.9333 174.362 36.7 174.778C36.35 175.378 35.75 175.828 35.25 176.344C34.8 175.778 33.9833 175.211 33.9833 174.645C34.0167 171.847 34.2167 169.049 34.45 166.267C34.55 165.168 34.3667 164.518 33.3 163.885C27.9667 160.704 26.9167 154.174 31 149.494C31.9667 148.394 32 147.561 31.4833 146.329C29.15 140.749 26.8667 135.136 24.6333 129.506C24.15 128.273 23.4667 127.457 22.15 127.24C20.0167 126.907 18.9667 125.625 18.6 123.543C18.1167 120.794 17.35 118.096 17.05 115.348C16.9333 114.365 17.5667 112.749 18.3333 112.366C19.1 111.966 20.85 112.366 21.5 113.066C23.9333 115.681 26.15 118.512 28.2667 121.394C28.6167 121.86 28.3167 123.11 27.9333 123.742C26.6333 125.808 26.6667 127.69 27.7833 129.872C29.1 132.454 30.0333 135.236 31.5333 137.834C31.0667 134.753 30.6 131.654 30.1333 128.573C29.9167 127.19 29.55 125.808 29.55 124.425C29.55 123.609 29.9833 122.227 30.5 122.077C31.9167 121.66 32.15 122.926 32.3167 124.042C33 128.506 33.7 132.954 34.7333 137.418C35.1334 131.788 35.65 126.158 35.8167 120.528C35.85 119.362 34.7333 118.013 33.85 116.997C32.4167 115.348 32.2667 113.765 33.4 111.95C34.8834 109.601 36.0667 107.003 37.8167 104.871C39.9833 102.239 42.7834 102.888 43.25 106.236C43.75 109.818 43.4667 113.499 43.3667 117.146C43.3667 117.663 42.55 118.429 41.95 118.629C39.25 119.512 38.55 121.344 38.4833 124.059C38.3667 129.039 37.8333 134.02 37.4667 139C37.45 139.333 37.4667 139.65 37.4667 139.983C37.6 140.049 37.7333 140.116 37.8667 140.183L37.9833 140.233ZM136.767 185.672L136.7 185.605C138.55 188.07 140.4 190.519 142.267 193.017C149.867 187.421 157.15 182.057 164.567 176.611C157.533 166.017 150.583 155.573 143.583 145.03C135.5 151.776 127.7 158.288 119.9 164.801C120.05 165.151 120.1 165.351 120.217 165.501C125.517 172.097 130.817 178.693 136.133 185.272C136.283 185.455 136.55 185.555 136.767 185.688V185.672ZM138.7 16.6903C138.583 16.657 138.483 16.6237 138.367 16.5904C136.65 20.8211 134.967 25.0686 133.233 29.2994C132.45 31.2149 131.867 31.3981 130.083 30.3154C126.1 27.8836 122.217 25.2851 118.133 23.0531C115.367 21.5374 113.483 19.5552 112.3 16.6237C110.9 13.1424 109.117 9.82777 107.35 6.11334C107.083 6.96283 106.917 7.3959 106.8 7.82898C105.583 13.0092 104.3 18.1727 103.183 23.3863C102.8 25.1852 101.967 26.1013 100.217 26.6343C97.2167 27.5171 94.3167 28.6997 91.35 29.6825C90.5667 29.9323 89.6334 30.0822 88.8334 29.949C64.8834 25.8515 40.95 21.6373 16.9833 17.6397C14.0167 17.14 10.8667 17.673 7.33335 17.723C9.26668 20.2382 10.8 21.8372 13.65 21.5374C16.0167 21.2875 18.45 21.3875 20.8333 21.554C21.5667 21.604 22.85 22.4202 22.85 22.8699C22.8167 25.5683 24.6167 26.1346 26.6333 26.5177C28.1167 26.8009 28.6833 27.6337 28.8667 29.1162C29.25 32.2143 29.75 35.3124 30.3833 38.3772C30.6167 39.4599 31.2 40.6259 31.9667 41.3921C35.1167 44.5569 38.4333 47.5384 41.6167 50.6698C42.1 51.1529 42.5333 52.069 42.4167 52.6686C42.3334 53.1184 41.3667 53.6014 40.7333 53.7347C36.75 54.5009 32.75 55.2504 28.7333 55.8167C27.8833 55.9333 26.65 55.4503 26.05 54.8173C23.9833 52.552 22 50.2034 20.2334 47.705C18.8667 45.7894 16.9833 45.1565 14.7833 44.6735C14.7833 48.238 15.1667 51.003 18.8167 53.1683C32.2 61.1302 45.3334 69.5418 58.5167 77.8535C59.65 78.5697 60.65 79.6524 61.3667 80.785C63.75 84.5494 66 88.4138 68.2334 92.2781C68.7667 93.2109 69.3334 93.5773 70.45 93.4274C73.35 93.0276 76.2667 92.7611 79.1833 92.4114C97.9 90.196 116.617 87.9474 135.35 85.8153C137.033 85.6154 137.567 85.1491 137.583 83.4334C137.9 64.4449 138.3 45.473 138.667 26.5011C138.733 23.2364 138.667 19.9883 138.667 16.7236L138.7 16.6903ZM51.0667 156.19C52.9667 154.457 54.7834 152.992 56.3667 151.293C57.3667 150.227 58.2834 148.894 58.7167 147.528C60.5834 141.698 62.25 135.802 63.9834 129.939C64.1167 129.489 64.15 128.923 64.45 128.64C64.8833 128.24 65.7 127.673 66 127.84C66.5 128.123 66.8334 128.873 67.0167 129.489C67.1334 129.872 66.8167 130.372 66.6833 130.822C64.7833 137.201 62.9 143.581 61 149.96C59.1833 156.073 57.3834 162.169 55.5 168.565C79.0667 171.63 102.45 174.678 126.283 177.777C125.583 176.827 125.217 176.294 124.817 175.794C122.317 172.68 119.867 169.515 117.283 166.467C116.033 164.984 116.233 164.018 117.683 162.836C122.433 158.971 127.117 155.007 131.817 151.076C135.183 148.278 138.533 145.463 141.917 142.631C141.617 142.131 141.433 141.765 141.217 141.448C139.717 139.167 138.133 136.935 136.767 134.586C136.45 134.053 136.85 133.087 136.917 132.321C137.633 132.57 138.433 132.704 139.067 133.104C139.533 133.403 139.75 134.07 140.083 134.569C147.233 145.329 154.383 156.09 161.533 166.85C162 167.549 162.483 168.232 163.05 169.049C168.4 164.018 173.567 159.138 178.767 154.257C178.35 153.541 178.017 152.975 177.667 152.409C167.3 135.569 156.883 118.762 146.6 101.872C145.6 100.24 144.583 99.9735 142.9 100.207C135.25 101.273 127.583 102.272 119.933 103.271C102.233 105.57 84.5333 107.852 66.8334 110.201C66.1167 110.301 65.2667 110.717 64.8334 111.267C57.15 120.811 49.5 130.388 41.9 139.999C41.5833 140.399 41.5333 141.399 41.8167 141.848C44.8 146.579 47.8667 151.243 51.0833 156.173L51.0667 156.19ZM66.6667 107.352C92.4834 103.971 117.95 100.64 143.683 97.2751C142.317 95.0431 140.867 93.0943 139.883 90.9622C138.767 88.547 137.15 88.3138 134.767 88.6303C126.183 89.7796 117.583 90.7124 108.983 91.7284C96.2833 93.2275 83.5834 94.6933 70.8834 96.2424C70.2667 96.309 69.4 96.9753 69.25 97.5249C68.3334 100.64 67.5834 103.804 66.6667 107.369V107.352ZM110.783 208.675C116.967 199.414 123.017 190.386 129.25 181.058C122.817 180.225 116.883 179.492 110.967 178.626C109.733 178.443 109.033 178.743 108.333 179.759C104.767 184.906 101.133 190.003 97.5167 195.116C96.95 195.916 96.4 196.715 95.75 197.648C100.8 201.346 105.667 204.91 110.783 208.658V208.675ZM65.5834 197.298C74.1667 190.436 82.85 183.49 91.9667 176.194C83.7167 175.128 76.0834 174.129 68.4334 173.213C67.7667 173.129 66.9167 173.579 66.3 173.996C62.7 176.511 59.15 179.109 55.6 181.674C54.5 182.474 53.4167 183.307 52.2167 184.189C56.75 188.637 61.1167 192.901 65.5834 197.282V197.298ZM182.583 110.717C176.65 116.097 170.883 121.311 165.1 126.541C171.633 137.151 178.067 147.561 184.6 158.172C192.233 150.36 199.75 142.648 207.317 134.902C206.817 134.369 206.467 133.97 206.083 133.603C198.317 126.024 190.533 118.446 182.583 110.717ZM179.067 181.874C178.317 181.025 177.583 180.475 177.233 179.725C176.933 179.076 177.05 178.226 176.983 177.46C177.733 177.577 178.7 177.443 179.217 177.86C180.333 178.759 181.233 179.925 182.35 181.141C183.183 180.492 183.95 179.975 184.6 179.342C186.517 177.46 186.483 177.244 184.6 175.445C184.017 174.895 183.283 174.429 182.933 173.746C182.633 173.163 182.783 172.347 182.75 171.63C183.467 171.664 184.3 171.497 184.867 171.797C185.683 172.247 186.317 173.046 187.317 173.962C188.15 169.365 186.5 166.017 183.867 162.769C178.667 167.599 173.567 172.33 168.5 177.044C170.617 180.525 174.833 182.49 179.067 181.874ZM104.183 207.409C103.183 206.676 102.083 205.843 100.967 205.027C97.95 202.812 97.8667 202.712 94.9 205.077C93.1167 206.493 91.3667 206.892 89.2 206.343C87.3167 205.876 85.35 205.676 82.85 205.26C86.75 209.824 90.2667 213.938 93.75 218.002C97.3 214.405 100.7 210.957 104.2 207.392L104.183 207.409ZM53.9834 190.569C53.0167 191.102 51.8833 191.585 50.9333 192.285C49.1 193.617 47.2833 193.784 45.1667 192.934C43.0834 192.085 40.85 191.568 38.25 190.785C41.1833 195.599 43.85 199.963 46.6 204.461C50.8333 201.396 54.9 198.431 59.1167 195.383C57.3334 193.717 55.75 192.235 54 190.602L53.9834 190.569ZM180.3 156.773C174.933 161.82 169.817 166.65 164.633 171.53C165.4 172.646 166.05 173.612 166.8 174.728C172.083 169.815 177.183 165.084 182.367 160.27C181.683 159.105 181.05 158.038 180.3 156.773ZM36.2 149.044C33.7 150.443 32.0333 152.209 31.6333 154.574C32.7833 154.657 34.4333 154.407 34.6667 154.874C35.9333 157.306 32.8 157.189 32.15 158.788C32.45 159.221 32.8167 159.737 33.1167 160.137C34.8834 159.921 35.6 156.839 37.5833 158.721C37.9833 159.105 37.05 160.87 36.7 162.119C38.9 162.602 41.1667 161.953 43.3333 160.304C40.9167 156.489 38.6167 152.825 36.2167 149.027L36.2 149.044ZM27.1667 36.8615C26.8333 34.6128 26.5167 32.9472 26.3667 31.2482C26.2333 29.8157 25.6833 28.8996 24.1667 28.6997C21.8167 28.3833 20.2167 27.3172 20.2334 24.6855C20.2334 24.6022 20.05 24.5189 19.9333 24.4356H14.0167C18.5 28.6664 22.65 32.5974 27.1667 36.8615ZM39.45 143.564C39.2333 143.531 39 143.514 38.7833 143.481C38.45 144.38 37.5833 145.596 37.8833 146.112C40.65 150.843 43.6334 155.44 46.65 160.254C47.5 159.471 48.1667 158.871 48.9333 158.172C45.7333 153.225 42.6 148.411 39.45 143.581V143.564ZM93.6167 25.3684C93.6833 25.5017 93.7667 25.6349 93.8334 25.7682C95.6833 25.1186 97.55 24.5023 99.4 23.8027C99.7667 23.6528 100.217 23.253 100.317 22.9032C101.3 18.9223 102.217 14.908 103.15 10.9105C103.033 10.8605 102.9 10.8105 102.783 10.7772C99.7334 15.6576 96.6833 20.5213 93.6167 25.4017V25.3684ZM40.0167 106.47C38.9167 108.285 37.7333 110.051 36.7333 111.933C35.35 114.565 35.7 115.597 38.45 117.563C39.2 116.963 40.55 116.447 40.7167 115.681C41.35 112.716 41.4833 109.684 40.0167 106.47ZM4.56668 7.52916C3.42224 8.98384 3.4889 10.4552 4.76668 11.9432C7.71668 15.3744 8.15001 15.5243 11.5 14.4083C9.21668 12.143 6.90001 9.82777 4.58335 7.52916H4.56668ZM24.5333 124.825C24.8333 123.876 25.6667 122.643 25.3333 122.11C23.9 119.812 22.1334 117.729 20.5 115.564L19.7833 115.947C20.2667 118.029 20.8167 120.111 21.2333 122.21C21.5667 123.876 22.5 124.725 24.5333 124.809V124.825ZM135.067 17.1067C134.95 17.0401 134.833 16.9735 134.733 16.9235C132.467 19.7385 130.217 22.5534 127.833 25.5183C128.9 26.1846 129.817 26.7676 130.933 27.4671C132.367 23.886 133.733 20.5047 135.083 17.1234L135.067 17.1067ZM34.7167 51.8858C34.7167 51.7359 34.7333 51.6026 34.75 51.4527L24.5667 47.9048C25.45 49.6038 26.5 50.953 27.6167 52.2522C27.9167 52.602 28.5167 52.9518 28.9167 52.9018C30.85 52.6353 32.7833 52.2522 34.7167 51.9024V51.8858Z" fill="white"/>
<path d="M105.783 63.0292C99.25 62.9626 93.3333 59.9311 88.4499 54.6676C87.4499 53.6016 87.2333 52.6355 88.1999 51.3363C97.2166 39.2435 115.25 39.7599 123.583 52.3023C124.633 53.9014 124.533 54.9507 123.133 56.2333C118.417 60.5141 113 62.9626 105.8 63.0292H105.783ZM98.55 46.8723C95.4833 48.0716 92.9333 50.1536 90.7666 52.7521C98.0666 62.0798 113.8 62.6294 121.117 53.918C119.067 50.8032 116.333 48.5213 113.083 47.1055C111.983 49.4707 111.217 51.836 109.867 53.8181C107.35 57.4659 103.683 57.366 101.333 53.5682C100.133 51.6361 99.5333 49.3375 98.5166 46.8889L98.55 46.8723ZM109.767 45.723H101.233C102.3 48.3214 102.933 50.4701 104.033 52.3523C104.983 53.9847 106.15 53.9014 107.383 52.4356C108.933 50.62 109.7 48.4713 109.767 45.723Z" fill="white"/>
<path d="M93.9334 42.6579C93.3501 43.3075 93.0668 43.8905 92.6668 43.9905C92.1834 44.0904 91.4001 43.9571 91.1001 43.624C90.1668 42.5247 89.3334 41.3254 88.6168 40.0595C88.4001 39.6764 88.5334 38.8769 88.8168 38.4771C89.0334 38.1773 90.0168 37.9441 90.1668 38.1273C91.4501 39.5598 92.6334 41.0756 93.9168 42.6746L93.9334 42.6579Z" fill="white"/>
<path d="M102.767 38.9599C102.217 39.5429 101.683 40.1092 101.133 40.6922C100.617 40.0592 99.8668 39.5096 99.6334 38.7933C99.3001 37.744 99.1668 36.5447 99.3001 35.4453C99.3668 34.8624 100.167 34.3627 100.633 33.813C101.1 34.296 101.817 34.6958 101.983 35.2621C102.3 36.3281 102.3 37.4941 102.433 38.6101C102.55 38.7267 102.65 38.8433 102.767 38.9599Z" fill="white"/>
<path d="M121.933 38.8435C122.167 39.5764 122.817 40.6257 122.55 40.9755C121.517 42.3247 120.233 43.5073 118.9 44.5734C118.683 44.7399 117.683 43.9071 117.05 43.5407C118.35 41.9083 119.667 40.276 120.967 38.627C121.3 38.6936 121.617 38.7602 121.95 38.8268L121.933 38.8435Z" fill="white"/>
<path d="M113.483 35.6284C112.833 37.2441 112.383 38.6433 111.7 39.9092C111.483 40.3089 110.517 40.6587 110.083 40.5088C109.667 40.3589 109.133 39.4428 109.25 39.0264C109.633 37.5606 110.183 36.1281 110.883 34.7789C111.083 34.3958 112.083 34.1293 112.55 34.2792C113 34.4291 113.233 35.212 113.5 35.6118L113.483 35.6284Z" fill="white"/>
<path d="M82 140.582C85.9333 138.05 87.6 138.35 90.2167 142.064C90.4333 141.531 90.65 141.098 90.7833 140.649C92.0167 136.501 93.2166 132.354 94.45 128.206C95.3 125.391 97.4166 124.009 99.7833 124.658C102.317 125.358 103.45 127.656 102.617 130.555C100.267 138.6 97.8833 146.628 95.5167 154.674C94.95 156.622 93.8333 157.988 91.7 158.238C89.75 158.471 88.3 157.538 87.1666 155.356C86.4666 154.007 85.7833 152.658 84.9666 151.042C83.5833 152.775 82.3666 154.357 81.1166 155.873C79.6666 157.638 77.8166 158.271 76 157.522C74.05 156.722 73.2166 155.14 73.25 153.074C73.35 145.812 73.4333 138.567 73.5666 131.304C73.6166 128.739 75.4833 126.99 77.8833 127.057C80.2 127.123 81.9333 128.872 81.9833 131.338C82.0333 134.369 81.9833 137.401 81.9833 140.549L82 140.582ZM79.4 148.96C79.2666 148.91 79.1166 148.86 78.9833 148.81C78.9833 148.111 78.9833 147.411 78.9833 146.712C79.05 141.848 79.1166 137.001 79.1833 132.137C79.1833 131.071 79.0666 129.888 77.7167 130.122C77.1833 130.205 76.4666 131.388 76.45 132.087C76.2666 138.8 76.1666 145.529 76.15 152.242C76.15 153.108 76.75 153.991 77.0667 154.857C77.8667 154.39 78.85 154.091 79.4167 153.424C81.4667 151.026 83.3833 148.494 85.5666 145.762C87.0833 148.794 88.4 151.525 89.85 154.207C90.1333 154.74 90.9166 155.257 91.4833 155.273C91.9 155.273 92.5166 154.524 92.7333 153.991C93.2 152.825 93.4833 151.575 93.8333 150.376C95.8333 143.614 97.8166 136.868 99.8166 130.105C100.133 129.039 100.45 127.773 98.9833 127.557C98.4666 127.473 97.55 128.606 97.1833 129.372C96.6167 130.555 96.3666 131.904 96 133.17C94.3666 138.683 92.7333 144.197 90.95 150.243C89.65 147.661 88.6166 145.546 87.5333 143.43C86.4333 141.265 85.6166 141.198 84.0833 143.114C82.5167 145.046 80.9833 147.011 79.4333 148.96H79.4Z" fill="white"/>
<path d="M99.2167 147.195C99.2501 141.032 103.5 136.668 109.367 136.735C115.467 136.801 120.35 141.748 120.333 147.861C120.333 153.858 115.25 158.888 109.217 158.855C103.433 158.821 99.1667 153.858 99.2167 147.195ZM109.333 139.583C105.017 139.566 102.033 142.731 102.033 147.328C102.033 152.242 105.183 156.023 109.25 156.023C113.617 156.023 117.433 152.292 117.5 147.911C117.567 143.381 113.867 139.616 109.333 139.583Z" fill="white"/>
<path d="M149.6 164.118C149.033 164.801 148.717 165.384 148.233 165.75C143.55 169.265 138.833 172.746 134.15 176.261C133.017 177.11 132.183 176.994 131.25 175.928C127.983 172.146 127.967 172.163 131.767 169.048C135.533 165.967 139.3 162.902 143.017 159.771C144.383 158.621 145.4 158.588 146.467 160.104C147.4 161.453 148.483 162.702 149.583 164.118H149.6ZM144.533 162.269C140.55 165.534 136.75 168.632 132.983 171.78C132.717 171.997 132.717 172.53 132.583 172.913C132.983 172.929 133.5 173.129 133.75 172.946C137.767 170.031 141.733 167.066 145.817 164.035C145.367 163.418 145.033 162.952 144.533 162.286V162.269Z" fill="white"/>
<path d="M146.233 153.858C145.7 154.491 145.367 155.074 144.867 155.44C142.183 157.405 139.433 159.288 136.733 161.237C135.6 162.053 134.75 161.919 133.8 160.87C130.55 157.272 130.533 157.306 134.25 154.391C136.183 152.875 138.133 151.359 140.067 149.827C141.067 149.027 141.967 148.994 142.85 150.01C143.917 151.259 145.017 152.492 146.233 153.874V153.858ZM142.117 153.208C141.6 153.158 140.917 152.858 140.617 153.091C138.667 154.507 136.817 156.023 134.85 157.572C136.1 158.322 138.25 157.122 142.133 153.208H142.117Z" fill="white"/>
<path d="M136.767 185.672C136.1 184.406 135.5 183.107 134.733 181.908C133.917 180.642 134.067 179.742 135.35 178.926C137.917 177.277 140.467 175.611 143 173.896C144.267 173.03 145.2 173.163 145.867 174.595C148.483 180.075 148.617 178.826 144.25 182.124C142.867 183.157 141.433 184.123 140.117 185.239C139.017 186.172 137.95 186.372 136.7 185.639L136.767 185.705V185.672ZM138.667 182.674C140.45 181.358 142.05 180.275 143.517 179.043C143.95 178.676 143.983 177.86 144.2 177.244C144 177.144 143.783 177.027 143.583 176.927C141.6 178.226 139.617 179.542 137.55 180.908C137.95 181.541 138.25 182.024 138.667 182.69V182.674Z" fill="white"/>
<path d="M152.617 167.183C154.717 167.149 156.067 168.382 156.117 170.398C156.183 172.996 154.15 175.095 151.517 175.178C149.367 175.245 147.867 173.862 147.867 171.847C147.867 169.315 150 167.233 152.617 167.183ZM153.5 170.747C153.217 170.431 152.933 170.098 152.65 169.781C151.95 170.398 151.267 171.03 150.567 171.647C150.817 171.93 151.05 172.213 151.3 172.496C152.033 171.913 152.767 171.33 153.5 170.747Z" fill="white"/>
<path d="M127.4 168.482C125.283 168.449 123.95 167.166 123.95 165.184C123.95 162.603 126.283 160.404 128.9 160.487C130.917 160.554 132.3 161.97 132.25 163.935C132.183 166.5 130.033 168.532 127.4 168.482ZM126.617 164.951C128.983 165.534 129.35 165.151 128.867 162.969C128.017 163.719 127.317 164.335 126.617 164.951Z" fill="white"/>
<path d="M184.583 152.025C184.067 151.642 183.583 151.409 183.267 151.026C182 149.493 180.8 147.894 179.533 146.362C178.683 145.329 178.767 144.48 179.817 143.647C185.217 139.333 190.6 135.002 195.983 130.671C196.033 130.638 196.083 130.572 196.15 130.555C199.283 129.439 199.783 132.737 201.55 133.87C202.7 134.602 202.15 135.702 201.267 136.551C196.217 141.365 191.183 146.195 186.117 150.993C185.7 151.376 185.167 151.642 184.6 152.025H184.583ZM197.167 133.353C192.033 137.484 187.233 141.332 182.35 145.279C183.2 146.345 183.917 147.261 184.767 148.344C189.467 143.847 194 139.499 198.817 134.902C198.233 134.353 197.767 133.903 197.183 133.353H197.167Z" fill="white"/>
<path d="M171.35 132.87C170.883 132.537 170.4 132.304 170.067 131.938C166.283 127.857 166.3 127.457 170.5 123.909C173.75 121.161 177 118.412 180.25 115.681C181.983 114.232 182.467 114.248 183.767 116.014C188.1 121.91 188.167 120.445 182.55 124.725C179.433 127.107 176.283 129.422 173.133 131.754C172.617 132.137 172.033 132.454 171.367 132.87H171.35ZM171.7 129.273C175.7 126.274 179.533 123.409 183.4 120.528C183.2 120.161 183.117 119.928 182.967 119.712C182.617 119.245 182.233 118.779 181.733 118.179C177.983 121.344 174.3 124.459 170.55 127.624C170.983 128.24 171.283 128.673 171.7 129.273Z" fill="white"/>
<path d="M194.867 125.292C194.8 129.206 189.917 133.17 186.1 132.404C184.25 132.038 183.3 130.605 183.7 128.723C184.367 125.458 188.25 122.243 191.617 122.16C193.667 122.11 194.9 123.309 194.867 125.292ZM186.683 129.422C189.55 129.556 191.75 127.724 191.767 125.175C188.933 125.492 187.25 126.907 186.683 129.422Z" fill="white"/>
<path d="M184.083 134.136C183.6 134.736 183.317 135.285 182.883 135.602C181 136.968 179.067 138.267 177.183 139.616C175.917 140.515 175.05 140.199 174.233 138.933C172.367 136.018 172.317 136.035 174.85 133.703C176.067 132.57 177.283 131.438 178.5 130.305C179.45 129.422 180.383 129.389 181.217 130.455C182.15 131.637 183.067 132.837 184.083 134.136Z" fill="white"/>
<path d="M104.85 147.228C104.85 144.263 106.567 142.398 109.233 142.398C112.283 142.398 114.7 144.813 114.683 147.828C114.683 150.693 112.2 153.191 109.333 153.225C106.733 153.258 104.833 150.726 104.833 147.228H104.85ZM107 147.062C107.983 148.444 108.5 149.977 109.367 150.193C110.65 150.526 111.683 149.394 111.8 147.911C111.917 146.529 110.717 145.096 109.4 145.33C108.667 145.463 108.033 146.279 107.017 147.062H107Z" fill="white"/>
</g>
<defs>
<clipPath id="clip0_140_923">
<rect width="210.667" height="221.333" fill="white" transform="translate(0 0.333496)"/>
</clipPath>
</defs>
</svg>
