<svg width="426" height="428" viewBox="0 0 426 428" fill="none" xmlns="http://www.w3.org/2000/svg">
<path d="M2.19939 85.8817C4.30175 116.937 24.6768 122.683 25.2806 147.031C25.8174 168.628 9.1327 167.779 2.19939 198.946C-1.02125 213.456 0.812722 232.84 4.50304 271.631C7.61184 304.229 8.86432 301.949 9.11034 316.615C9.71421 352.947 1.81917 358.872 7.94733 375.439C18.146 402.939 49.6143 412.844 51.8061 413.514C77.8173 421.295 100.72 411.01 107.206 407.746C122.839 399.876 123.398 392.431 133.753 391.604C150.371 390.285 154.374 409.021 179.916 420.445C183.092 421.854 210.154 433.525 236.456 423.911C254.214 417.427 255.265 407.21 269.915 403.14C288.68 397.931 294.763 414.901 324.151 420.445C332.382 421.988 358.415 426.527 382.995 412.374C401.312 401.821 409.856 386.037 413.01 380.067C416.23 373.963 427.681 350.309 421.083 323.546C414.038 294.928 394.312 294.839 392.232 273.934C389.235 243.684 429.314 231.342 425.691 204.714C422.112 178.511 381.206 175.134 379.528 148.193C378.678 134.287 389.369 132.163 398.002 107.815C401.625 97.5749 411.824 68.8226 400.306 43.2228C386.909 13.4198 348.373 -2.65558 318.381 1.70421C293.779 5.25911 293.22 19.9035 268.752 22.4747C236.367 25.8731 227.666 1.21233 196.042 2.86682C164.596 4.5213 163.656 29.4057 132.568 32.8711C92.5785 37.298 75.6702 -1.80598 44.8728 8.63516C21.635 16.5051 10.0497 45.9505 7.94733 51.3164C5.9568 56.3693 1.05875 69.2474 2.17703 85.9264L2.19939 85.8817Z" fill="url(#paint0_radial_140_114)"/>
<defs>
<radialGradient id="paint0_radial_140_114" cx="0" cy="0" r="1" gradientUnits="userSpaceOnUse" gradientTransform="translate(213.241 214.306) scale(213.054 212.981)">
<stop stop-color="#5CF935"/>
<stop offset="0.703125" stop-color="#0E3313"/>
<stop offset="0.875" stop-color="#151515"/>
</radialGradient>
</defs>
</svg>
